<svg xmlns="http://www.w3.org/2000/svg" width="62" height="75.005" viewBox="0 0 62 75.005">
  <g id="Grupo_1042611" data-name="Grupo 1042611" transform="translate(-242 -3309.995)">
    <rect id="Rectángulo_348347" data-name="Rectángulo 348347" width="62" height="52" rx="10" transform="translate(242 3333)" fill="#ff93a8"/>
    <g id="organigrama" transform="translate(240.936 3309.995)">
      <g id="Grupo_1042610" data-name="Grupo 1042610" transform="translate(1.913 0.849)">
        <g id="Grupo_1042609" data-name="Grupo 1042609" transform="translate(0)">
          <path id="Trazado_770772" data-name="Trazado 770772" d="M15.361,216.548H9.611A1.048,1.048,0,0,1,8.563,215.5v-9.628a1.048,1.048,0,0,1,1.048-1.048h5.75a1.048,1.048,0,0,1,1.048,1.048V215.5A1.048,1.048,0,0,1,15.361,216.548Z" transform="translate(-8.563 -182.484)" fill="#ea9a98"/>
          <path id="Trazado_770773" data-name="Trazado 770773" d="M11.858,214.467a1.048,1.048,0,0,1-1.048-1.048v-8.594h-1.2a1.048,1.048,0,0,0-1.048,1.048V215.5a1.048,1.048,0,0,0,1.048,1.048h5.75a1.048,1.048,0,0,0,1.048-1.048v-1.034Z" transform="translate(-8.563 -182.485)" fill="#e5827f"/>
          <path id="Trazado_770774" data-name="Trazado 770774" d="M163.75,31.922H149.56a1.6,1.6,0,0,1-1.6-1.6V9.1a1.6,1.6,0,0,1,1.6-1.6h14.19a1.6,1.6,0,0,1,1.6,1.6V30.327A1.6,1.6,0,0,1,163.75,31.922Z" transform="translate(-132.183 -7.5)" fill="#cfeffc"/>
          <path id="Trazado_770775" data-name="Trazado 770775" d="M163.75,289.988H149.56a1.6,1.6,0,0,0-1.6,1.6v21.232a1.6,1.6,0,0,0,1.6,1.6h14.19a1.6,1.6,0,0,0,1.6-1.6V291.583A1.6,1.6,0,0,0,163.75,289.988Z" transform="translate(-132.183 -258.007)" fill="#cfeffc"/>
          <path id="Trazado_770776" data-name="Trazado 770776" d="M154.3,28.752a1.6,1.6,0,0,1-1.6-1.6V7.5H149.56a1.6,1.6,0,0,0-1.6,1.6V30.327a1.6,1.6,0,0,0,1.6,1.6h14.19a1.6,1.6,0,0,0,1.6-1.6V28.752Z" transform="translate(-132.183 -7.5)" fill="#a9e4f9"/>
          <path id="Trazado_770777" data-name="Trazado 770777" d="M154.3,311.24a1.6,1.6,0,0,1-1.6-1.6V289.988H149.56a1.6,1.6,0,0,0-1.6,1.6v21.232a1.6,1.6,0,0,0,1.6,1.6h14.19a1.6,1.6,0,0,0,1.6-1.6V311.24H154.3Z" transform="translate(-132.183 -258.007)" fill="#a9e4f9"/>
          <path id="Trazado_770778" data-name="Trazado 770778" d="M436.214,17.224H429.67a1.09,1.09,0,0,1-1.09-1.09V9.59a1.09,1.09,0,0,1,1.09-1.09h6.544a1.09,1.09,0,0,1,1.09,1.09v6.544A1.09,1.09,0,0,1,436.214,17.224Z" transform="translate(-381.029 -8.387)" fill="#fbe88c"/>
          <path id="Trazado_770779" data-name="Trazado 770779" d="M436.214,145.156H429.67a1.09,1.09,0,0,0-1.09,1.09v6.544a1.09,1.09,0,0,0,1.09,1.09h6.544a1.09,1.09,0,0,0,1.09-1.09v-6.544A1.09,1.09,0,0,0,436.214,145.156Z" transform="translate(-381.029 -129.572)" fill="#fbe88c"/>
          <path id="Trazado_770780" data-name="Trazado 770780" d="M432.511,15.255a1.09,1.09,0,0,1-1.09-1.09V8.5H429.67a1.09,1.09,0,0,0-1.09,1.09v6.544a1.09,1.09,0,0,0,1.09,1.09h6.544a1.09,1.09,0,0,0,1.09-1.09v-.879Z" transform="translate(-381.029 -8.387)" fill="#fbe372"/>
          <path id="Trazado_770781" data-name="Trazado 770781" d="M432.511,151.911a1.09,1.09,0,0,1-1.09-1.09v-5.665H429.67a1.09,1.09,0,0,0-1.09,1.09v6.544a1.09,1.09,0,0,0,1.09,1.09h6.544a1.09,1.09,0,0,0,1.09-1.09v-.879Z" transform="translate(-381.029 -129.572)" fill="#fbe372"/>
          <path id="Trazado_770782" data-name="Trazado 770782" d="M436.214,429.644H429.67a1.09,1.09,0,0,0-1.09,1.09v6.544a1.09,1.09,0,0,0,1.09,1.09h6.544a1.09,1.09,0,0,0,1.09-1.09v-6.544A1.09,1.09,0,0,0,436.214,429.644Z" transform="translate(-381.029 -381.852)" fill="#b8de9c"/>
          <path id="Trazado_770783" data-name="Trazado 770783" d="M436.214,301.711H429.67a1.09,1.09,0,0,1-1.09-1.09v-6.544a1.09,1.09,0,0,1,1.09-1.09h6.544a1.09,1.09,0,0,1,1.09,1.09v6.544A1.09,1.09,0,0,1,436.214,301.711Z" transform="translate(-381.029 -260.666)" fill="#b8de9c"/>
          <g id="Grupo_1042608" data-name="Grupo 1042608" transform="translate(47.551 32.321)">
            <path id="Trazado_770784" data-name="Trazado 770784" d="M432.251,436.547a1.09,1.09,0,0,1-1.09-1.09v-5.812h-1.49a1.09,1.09,0,0,0-1.09,1.09v6.544a1.09,1.09,0,0,0,1.09,1.09h6.544a1.09,1.09,0,0,0,1.09-1.09v-.732h-5.054Z" transform="translate(-428.58 -414.174)" fill="#a6d786"/>
            <path id="Trazado_770785" data-name="Trazado 770785" d="M432.251,299.89a1.09,1.09,0,0,1-1.09-1.09v-5.812h-1.49a1.09,1.09,0,0,0-1.09,1.09v6.544a1.09,1.09,0,0,0,1.09,1.09h6.544a1.09,1.09,0,0,0,1.09-1.09v-.732Z" transform="translate(-428.58 -292.988)" fill="#a6d786"/>
          </g>
        </g>
      </g>
      <path id="Trazado_770786" data-name="Trazado 770786" d="M50.554,10.536H57.1A1.941,1.941,0,0,0,59.038,8.6V2.052A1.941,1.941,0,0,0,57.1.113H50.554a1.941,1.941,0,0,0-1.939,1.939V4.475H41.681a.849.849,0,0,0-.849.849v6.886H35.925V2.444A2.447,2.447,0,0,0,33.481,0H19.29a2.447,2.447,0,0,0-2.444,2.444v9.767h-2.3A1.687,1.687,0,0,0,12.865,13.9V28.315H10.608V24.237a1.9,1.9,0,0,0-1.9-1.9H2.961a1.9,1.9,0,0,0-1.9,1.9v9.628a1.9,1.9,0,0,0,1.9,1.9H8.71a1.9,1.9,0,0,0,1.9-1.9V30.013h2.257V44.205A1.687,1.687,0,0,0,14.55,45.89h2.3v9.767A2.447,2.447,0,0,0,19.29,58.1h14.19a2.447,2.447,0,0,0,2.444-2.444V51.972a.849.849,0,0,0-1.7,0v3.685a.747.747,0,0,1-.746.746H19.29a.747.747,0,0,1-.746-.746V34.425a.747.747,0,0,1,.746-.746h14.19a.747.747,0,0,1,.746.746V48.351a.849.849,0,0,0,1.7,0V46.117h4.908V53a.849.849,0,0,0,.849.849h6.934v2.423a1.941,1.941,0,0,0,1.939,1.939H57.1a1.941,1.941,0,0,0,1.939-1.939V49.731A1.941,1.941,0,0,0,57.1,47.792H55.622a.849.849,0,0,0,0,1.7H57.1a.241.241,0,0,1,.241.241v6.544a.241.241,0,0,1-.241.241H50.554a.241.241,0,0,1-.241-.241V49.731a.241.241,0,0,1,.241-.241H52a.849.849,0,1,0,0-1.7H50.554a1.941,1.941,0,0,0-1.939,1.939v2.423H42.53V38.381h6.085V40.8a1.941,1.941,0,0,0,1.939,1.939H57.1A1.941,1.941,0,0,0,59.038,40.8V34.26A1.941,1.941,0,0,0,57.1,32.321H50.554a1.941,1.941,0,0,0-1.939,1.939v2.423H41.681a.849.849,0,0,0-.849.849v6.886H35.925V34.425a2.447,2.447,0,0,0-2.444-2.444H19.29a2.447,2.447,0,0,0-2.444,2.444v9.767H14.563V13.909h2.283v3.376a.849.849,0,0,0,1.7,0V2.444A.747.747,0,0,1,19.29,1.7h14.19a.747.747,0,0,1,.746.746V23.676a.747.747,0,0,1-.746.746H19.29a.747.747,0,0,1-.746-.746v-2.77a.849.849,0,0,0-1.7,0v2.77A2.447,2.447,0,0,0,19.29,26.12h14.19a2.447,2.447,0,0,0,2.444-2.444V13.909h4.908V20.8a.849.849,0,0,0,.849.849h6.934v2.423a1.941,1.941,0,0,0,1.939,1.939H57.1a1.941,1.941,0,0,0,1.939-1.939V17.524A1.941,1.941,0,0,0,57.1,15.584H50.554a1.941,1.941,0,0,0-1.939,1.939v2.423H42.53V6.173h6.085V8.6a1.941,1.941,0,0,0,1.939,1.939ZM8.909,33.865a.2.2,0,0,1-.2.2H2.961a.2.2,0,0,1-.2-.2V24.237a.2.2,0,0,1,.2-.2H8.71a.2.2,0,0,1,.2.2Zm41.4.4a.241.241,0,0,1,.241-.241H57.1a.241.241,0,0,1,.241.241V40.8a.241.241,0,0,1-.241.241H50.554a.241.241,0,0,1-.241-.241Zm0-16.736a.241.241,0,0,1,.241-.241H57.1a.241.241,0,0,1,.241.241v6.544a.241.241,0,0,1-.241.241H50.554a.241.241,0,0,1-.241-.241Zm0-15.471a.241.241,0,0,1,.241-.241H57.1a.241.241,0,0,1,.241.241V8.6a.241.241,0,0,1-.241.241H50.554a.241.241,0,0,1-.241-.241Z"/>
    </g>
  </g>
</svg>
