<svg xmlns="http://www.w3.org/2000/svg" width="79" height="119.611" viewBox="0 0 79 119.611">
  <g id="Grupo_1042613" data-name="Grupo 1042613" transform="translate(-521 -3563.489)">
    <g id="Grupo_986768" data-name="Grupo 986768" transform="translate(521 3563.979)">
      <g id="Grupo_985825" data-name="Grupo 985825" transform="translate(0 -0.489)">
        <path id="Rectángulo_338972" data-name="Rectángulo 338972" d="M0,0H79a0,0,0,0,1,0,0V71.526a36,36,0,0,1-36,36H36a36,36,0,0,1-36-36V0A0,0,0,0,1,0,0Z" fill="#ff6e33"/>
      </g>
    </g>
    <g id="leer" transform="translate(472.287 3593.491)">
      <path id="Trazado_770787" data-name="Trazado 770787" d="M391.29,239.68h-.777l1.175-15.95h4.22a5.373,5.373,0,0,1,5.373,5.373v.588A9.99,9.99,0,0,1,391.29,239.68Z" transform="translate(-278.88 -184.573)" fill="#f9a58e"/>
      <path id="Trazado_770788" data-name="Trazado 770788" d="M69.959,239.68h.777l-1.175-15.95h-4.22a5.373,5.373,0,0,0-5.373,5.373v.588A9.99,9.99,0,0,0,69.959,239.68Z" transform="translate(-6.187 -184.573)" fill="#eaac9d"/>
      <path id="Trazado_770789" data-name="Trazado 770789" d="M163.4,426.217v-4.572c-4.483,3.066-9.434,4.822-12.788,4.822s-8.3-1.756-12.788-4.823v4.572a6.624,6.624,0,0,1-3.759,5.973l-5.4,2.593a.717.717,0,0,0,.31,1.363H172.25a.717.717,0,0,0,.31-1.363l-5.4-2.593A6.624,6.624,0,0,1,163.4,426.217Z" transform="translate(-62.518 -347.849)" fill="#ffcbbe"/>
      <path id="Trazado_770790" data-name="Trazado 770790" d="M162.677,71.46a25.11,25.11,0,1,0-50.084,0L114.3,94.643c.9,12.222,15.968,20.693,23.335,20.693s22.434-8.47,23.335-20.693Z" transform="translate(-49.544 -36.717)" fill="#ffcbbe"/>
      <path id="Trazado_770791" data-name="Trazado 770791" d="M205.19,51.146a25.08,25.08,0,0,1,10.462,22.291L213.945,96.62c-.9,12.222-15.968,20.693-23.335,20.693a17.162,17.162,0,0,1-5.386-1.052c4.375,2.9,9.133,4.553,12.387,4.553,7.366,0,22.434-8.47,23.335-20.693l1.707-23.183A25.123,25.123,0,0,0,205.19,51.146Z" transform="translate(-109.52 -42.194)" fill="#eaac9d"/>
      <path id="Trazado_770792" data-name="Trazado 770792" d="M204.175,61.17H176.264V32.5a4.376,4.376,0,0,0,4.376,4.375h23.535Z" transform="translate(-102.128 -26.812)" fill="#86f1a7"/>
      <path id="Trazado_770793" data-name="Trazado 770793" d="M204.175,16.251H180.639a4.375,4.375,0,1,1,0-8.751h23.535Z" transform="translate(-102.128 -6.187)" fill="#f1f4f6"/>
      <path id="Trazado_770794" data-name="Trazado 770794" d="M226.337,98.521H211.849a.586.586,0,0,1-.586-.586V93.086a.586.586,0,0,1,.586-.586h14.488a.586.586,0,0,1,.586.586v4.85A.586.586,0,0,1,226.337,98.521Z" transform="translate(-131.002 -76.311)" fill="#f1f4f6"/>
      <path id="Trazado_770795" data-name="Trazado 770795" d="M148.012,107.853a19.626,19.626,0,0,0-5.268,12.132,2.668,2.668,0,0,0,2.663,2.844h3.2V107.24q-.3.3-.594.613Z" transform="translate(-74.471 -88.471)" fill="#9dc6fb"/>
      <path id="Trazado_770796" data-name="Trazado 770796" d="M341.6,119.985a19.626,19.626,0,0,0-5.268-12.132q-.292-.314-.594-.613v15.589h3.2A2.668,2.668,0,0,0,341.6,119.985Z" transform="translate(-233.69 -88.471)" fill="#9dc6fb"/>
      <path id="Trazado_770797" data-name="Trazado 770797" d="M142.8,176.308q-.033.327-.055.657a2.668,2.668,0,0,0,2.663,2.844h3.2v-3.5Z" transform="translate(-74.471 -145.451)" fill="#80b4fb"/>
      <path id="Trazado_770798" data-name="Trazado 770798" d="M176.264,176.308h27.911v3.5H176.264Z" transform="translate(-102.128 -145.451)" fill="#80e29d"/>
      <path id="Trazado_770799" data-name="Trazado 770799" d="M341.6,119.985a19.626,19.626,0,0,0-5.268-12.132q-.292-.314-.594-.613v5.511a19.677,19.677,0,0,1,.611,3.734,2.654,2.654,0,0,1-.611,1.882v4.462h3.2A2.668,2.668,0,0,0,341.6,119.985Z" transform="translate(-233.69 -88.471)" fill="#80b4fb"/>
      <g id="Grupo_1042612" data-name="Grupo 1042612" transform="translate(52.469 0)">
        <path id="Trazado_770800" data-name="Trazado 770800" d="M117.028,37.845h-2.807l.221-3A26.5,26.5,0,0,0,103.359,11.33V1.313A1.313,1.313,0,0,0,102.046,0H78.511a5.7,5.7,0,0,0-5.688,5.688V11.33A26.5,26.5,0,0,0,61.74,34.84l.221,3H59.154a6.693,6.693,0,0,0-6.685,6.685v.588a11.316,11.316,0,0,0,10.86,11.294l.119,1.611c.5,6.817,5.114,12.557,10.544,16.45v3.9a5.339,5.339,0,0,1-3.014,4.789l-5.4,2.593a2.029,2.029,0,0,0,.878,3.859h43.282a2.029,2.029,0,0,0,.878-3.859l-5.4-2.593a5.34,5.34,0,0,1-3.014-4.789V74.48a27.72,27.72,0,0,0,8.342-9.117,1.313,1.313,0,0,0-2.312-1.244c-4.332,8.05-14.816,13.187-20.13,13.187-7.613,0-21.234-8.726-22.026-19.476-.128-1.736.125,1.7-1.707-23.183a23.871,23.871,0,0,1,8.465-20v3.587a20.878,20.878,0,0,0-5.859,13.2,3.984,3.984,0,0,0,3.972,4.244h34.309a3.984,3.984,0,0,0,3.972-4.244,21.159,21.159,0,0,0-.352-2.684,1.313,1.313,0,0,0-2.576.508,18.5,18.5,0,0,1,.308,2.35,1.354,1.354,0,0,1-1.353,1.444h-1.886V22.36q.487.7.906,1.438a1.313,1.313,0,1,0,2.283-1.3,21.5,21.5,0,0,0-3.19-4.271V14.645a23.871,23.871,0,0,1,8.465,20c-2.135,28.992-1.308,17.622-1.5,20.364-.222,3.02-.222,3.157-.314,3.8a1.313,1.313,0,1,0,2.6.371c.1-.705.112-.977.244-2.769a11.316,11.316,0,0,0,10.86-11.294V44.53a6.693,6.693,0,0,0-6.685-6.686ZM99.566,76.181v2.188a7.978,7.978,0,0,0,4.5,7.156l3.044,1.461H69.069l3.044-1.461a7.978,7.978,0,0,0,4.5-7.156v-2.19c4.094,2.4,8.347,3.753,11.475,3.753C91.279,79.932,95.543,78.534,99.566,76.181ZM55.094,45.117V44.53a4.065,4.065,0,0,1,4.06-4.06h3l.98,13.3A8.689,8.689,0,0,1,55.094,45.117ZM78.511,2.625h22.223V4.2H78.511a1.313,1.313,0,0,0,0,2.625h22.223V8.751H78.511a3.063,3.063,0,0,1,0-6.126ZM74.136,28.149a1.313,1.313,0,0,0-1.313,1.313v3.583H70.937A1.354,1.354,0,0,1,69.584,31.6a18.158,18.158,0,0,1,3.239-9.244v.98a1.313,1.313,0,1,0,2.625,0V10.479a5.654,5.654,0,0,0,3.063.9h22.223V33.045H75.448V29.462a1.313,1.313,0,0,0-1.313-1.312Zm46.952,16.968a8.689,8.689,0,0,1-8.04,8.654l.98-13.3h3a4.065,4.065,0,0,1,4.06,4.06v.588Z" transform="translate(-52.469 0)" fill="#222221"/>
        <path id="Trazado_770801" data-name="Trazado 770801" d="M181.849,239.6a1.313,1.313,0,0,0-1.313-1.313h-10.46a1.313,1.313,0,0,0,0,2.625h10.46A1.313,1.313,0,0,0,181.849,239.6Z" transform="translate(-148.41 -196.583)" fill="#222221"/>
        <path id="Trazado_770802" data-name="Trazado 770802" d="M265.081,239.6a1.313,1.313,0,0,0-1.313-1.313H256.8A4.814,4.814,0,0,0,252,243.1v6.887a2.185,2.185,0,0,1-2.183,2.183,1.313,1.313,0,0,0,0,2.625,4.814,4.814,0,0,0,4.808-4.808V243.1a2.185,2.185,0,0,1,2.183-2.183h6.965a1.313,1.313,0,0,0,1.313-1.313Z" transform="translate(-214.191 -196.583)" fill="#222221"/>
        <path id="Trazado_770803" data-name="Trazado 770803" d="M205.663,93.647H220.15a1.9,1.9,0,0,0,1.9-1.9V86.9a1.9,1.9,0,0,0-1.9-1.9H205.663a1.9,1.9,0,0,0-1.9,1.9v4.85A1.9,1.9,0,0,0,205.663,93.647Zm.727-6.021h13.034v3.4H206.389Z" transform="translate(-177.284 -70.123)" fill="#222221"/>
        <path id="Trazado_770804" data-name="Trazado 770804" d="M226.926,153.4H214.6a1.313,1.313,0,1,0,0,2.625h12.326a1.313,1.313,0,1,0,0-2.625Z" transform="translate(-185.141 -126.555)" fill="#222221"/>
        <path id="Trazado_770805" data-name="Trazado 770805" d="M200.318,371.111l1.1.551a18.032,18.032,0,0,0,16.1,0l1.1-.551a1.313,1.313,0,1,0-1.177-2.346l-1.1.551a15.4,15.4,0,0,1-13.744,0l-1.1-.551a1.313,1.313,0,0,0-1.177,2.346Z" transform="translate(-173.844 -304.108)" fill="#222221"/>
      </g>
    </g>
  </g>
</svg>
