<svg xmlns="http://www.w3.org/2000/svg" xmlns:xlink="http://www.w3.org/1999/xlink" width="118.494" height="112.823" viewBox="0 0 118.494 112.823">
  <defs>
    <clipPath id="clip-path">
      <path id="path6561" d="M0-682.665H85.665V-597H0Z" transform="translate(0 682.665)"/>
    </clipPath>
  </defs>
  <g id="Grupo_1042732" data-name="Grupo 1042732" transform="translate(-426 -1381)">
    <rect id="Rectángulo_338875" data-name="Rectángulo 338875" width="118.494" height="112.823" rx="10" transform="translate(426 1381)" fill="#ea526f"/>
    <g id="g6555" transform="translate(441.667 2077.823)">
      <g id="g6557" transform="translate(0 -682.665)">
        <g id="g6559" clip-path="url(#clip-path)">
          <g id="g6565" transform="translate(2.366 48.532)">
            <path id="path6567" d="M-375.361,0h-29.53A7.083,7.083,0,0,0-410.5,2.76l-8.681,11.265V3.1h-10.04V21.488a7.217,7.217,0,0,0,2.4,5.434,7.061,7.061,0,0,0,9.838-.5l8.883-9.15V35.042a.837.837,0,0,0,.837.837h30.388a.837.837,0,0,0,.837-.837v-11H-366V9.359A9.359,9.359,0,0,0-375.361,0" transform="translate(429.223)" fill="#6bd9e7"/>
          </g>
          <g id="g6569" transform="translate(34.486 48.36)">
            <path id="path6571" d="M-19.088,0l-2.733,23.64a.837.837,0,0,0,.262.709l4.193,3.89a.836.836,0,0,0,1.138,0l4.193-3.89a.837.837,0,0,0,.262-.709L-14.506,0Z" transform="translate(21.827)" fill="#7a8d98"/>
          </g>
          <g id="g6573" transform="translate(25.586 48.532)">
            <path id="path6575" d="M-7.745,0A7.051,7.051,0,0,0-8.856.09L-1.9,6.523A1.62,1.62,0,0,0,.47,6.344L5.074.563l4.6,5.781a1.62,1.62,0,0,0,2.368.18L19.1,0Z" transform="translate(8.856)" fill="#03bed7"/>
          </g>
          <g id="g6577" transform="translate(33.825 34.968)">
            <path id="path6579" d="M0,0V13.564a10.2,10.2,0,0,0,11.383,0V0Z" fill="#e8ad8c"/>
          </g>
          <g id="g6581" transform="translate(18.788 1.255)">
            <path id="path6583" d="M-261.8-46.992h-2.25l-.927-1.79a9.173,9.173,0,0,0-8.145-4.953h-17.06a9.185,9.185,0,0,0-7.379,3.715,9.187,9.187,0,0,0-1.715,6.76L-296.98-27.1h36.69l2.213-15.6a3.757,3.757,0,0,0-3.72-4.285" transform="translate(299.363 53.735)" fill="#7a8d98"/>
          </g>
          <g id="g6585" transform="translate(41.686 1.255)">
            <path id="path6587" d="M-102.221-46.992h-2.25l-.927-1.79a9.173,9.173,0,0,0-8.145-4.953h-3.346c5.154,0,6.568,3.918,8.144,6.961l.616,1.189a1.113,1.113,0,0,0,.988.6h1.573a3.758,3.758,0,0,1,3.72,4.285L-104.061-27.1h3.346l2.213-15.6a3.757,3.757,0,0,0-3.72-4.285" transform="translate(116.889 53.735)" fill="#596c76"/>
          </g>
          <g id="g6589" transform="translate(18.39 25.209)">
            <path id="path6591" d="M-18.373,0h36.98a2.635,2.635,0,0,1,2.636,2.636V5.281a2.635,2.635,0,0,1-2.636,2.635h-36.98a2.636,2.636,0,0,1-2.636-2.635V2.636A2.636,2.636,0,0,1-18.373,0" transform="translate(21.009)" fill="#e8ad8c"/>
          </g>
          <g id="g6593" transform="translate(25.769 14.629)">
            <path id="path6595" d="M-191.611-26.122v16.036a6.728,6.728,0,0,1-6.727,6.729h-14.04a6.728,6.728,0,0,1-6.727-6.729V-24.438h16.875a4.535,4.535,0,0,0,4.537-4.535v-.415a.482.482,0,0,1,.482-.482h1.855a3.747,3.747,0,0,1,3.747,3.748" transform="translate(219.106 29.871)" fill="#e8ad8c"/>
          </g>
          <g id="g6597" transform="translate(2.366 30.729)">
            <path id="path6599" d="M-72.078-58.417h-3.95a.609.609,0,0,1-.609-.609v-4.882A2.892,2.892,0,0,0-79.529-66.8a2.892,2.892,0,0,0-2.892,2.892v19h10.343a4.637,4.637,0,0,0,4.637-4.637V-53.78a4.637,4.637,0,0,0-4.637-4.637" transform="translate(82.421 66.8)" fill="#e8ad8c"/>
          </g>
          <g id="g6601" transform="translate(51.376 45.127)">
            <path id="path6603" d="M0-6.467V26.51a.928.928,0,0,0,.928.928H31a.928.928,0,0,0,.927-.928V-6.467A.928.928,0,0,0,31-7.395H.928A.928.928,0,0,0,0-6.467" transform="translate(0 7.395)" fill="#eaf6ff"/>
          </g>
          <g id="g6605" transform="translate(79.026 45.127)">
            <path id="path6607" d="M-23.321,0h-3.346a.928.928,0,0,1,.927.928V33.9a.928.928,0,0,1-.927.928h3.346a.928.928,0,0,0,.927-.928V.928A.928.928,0,0,0-23.321,0" transform="translate(26.668)" fill="#c4e2ff"/>
          </g>
          <g id="g6609" transform="translate(61.08 77.687)">
            <path id="path6611" d="M-67.192,0h-6.768a2.874,2.874,0,0,0-2.874,2.874V5.6a1.126,1.126,0,0,0,1.126,1.126h10.263A1.126,1.126,0,0,0-64.318,5.6V2.874A2.874,2.874,0,0,0-67.192,0" transform="translate(76.833)" fill="#e8ad8c"/>
          </g>
          <g id="g6613" transform="translate(58.936 54.454)">
            <path id="path6615" d="M-.63-42.082c.442-1.361,2.4-1.986,4.64-1.594a.622.622,0,0,0,.721-.524c.319-2.249,1.519-3.92,2.95-3.92s2.631,1.672,2.95,3.92a.622.622,0,0,0,.721.524c2.237-.392,4.2.233,4.64,1.594s-.777,3.019-2.817,4.017a.622.622,0,0,0-.276.848c1.064,2.007,1.076,4.064-.082,4.906s-3.111.194-4.691-1.438a.622.622,0,0,0-.892,0C5.656-32.117,3.7-31.47,2.544-32.311s-1.146-2.9-.082-4.906a.622.622,0,0,0-.276-.848c-2.04-1-3.259-2.656-2.817-4.017" transform="translate(0.721 48.12)" fill="#fed402"/>
          </g>
          <g id="g6617" transform="translate(34.486 52.584)">
            <path id="path6619" d="M-54.422,0l2.245,19.417a.839.839,0,0,1-.262.709l-4.193,3.89a.836.836,0,0,1-1.138,0l-4.193-3.89a.839.839,0,0,1-.263-.709L-59.98,0" transform="translate(62.231)" fill="none" stroke="#000" stroke-linecap="round" stroke-linejoin="round" stroke-miterlimit="10" stroke-width="2.5"/>
          </g>
          <g id="g6621" transform="translate(40.415 50.223)">
            <path id="path6623" d="M0,0,3.706,4.653a1.62,1.62,0,0,0,2.368.18L10.961.313" fill="none" stroke="#000" stroke-linecap="round" stroke-linejoin="round" stroke-miterlimit="10" stroke-width="2.5"/>
          </g>
          <g id="g6625" transform="translate(25.586 48.622)">
            <path id="path6627" d="M0,0,6.958,6.433a1.62,1.62,0,0,0,2.368-.18L13.032,1.6" fill="none" stroke="#000" stroke-linecap="round" stroke-linejoin="round" stroke-miterlimit="10" stroke-width="2.5"/>
          </g>
          <g id="g6629" transform="translate(12.405 61.445)">
            <path id="path6631" d="M0,0V5.015" transform="translate(0)" fill="none" stroke="#000" stroke-linecap="round" stroke-linejoin="round" stroke-miterlimit="10" stroke-width="2.5"/>
          </g>
          <g id="g6633" transform="translate(23.486 62.96)">
            <path id="path6635" d="M0-45.659v-6.552" transform="translate(0 52.211)" fill="none" stroke="#000" stroke-linecap="round" stroke-linejoin="round" stroke-miterlimit="10" stroke-width="2.5"/>
          </g>
          <g id="g6637" transform="translate(12.405 48.531)">
            <path id="path6639" d="M0-28.475v9.94L8.681-29.8a7.083,7.083,0,0,1,5.611-2.76h7.128" transform="translate(0 32.561)" fill="none" stroke="#000" stroke-linecap="round" stroke-linejoin="round" stroke-miterlimit="10" stroke-width="2.5"/>
          </g>
          <g id="g6641" transform="translate(45.208 48.531)">
            <path id="path6643" d="M-42.983,0h-6.168" transform="translate(49.151 0)" fill="none" stroke="#000" stroke-linecap="round" stroke-linejoin="round" stroke-miterlimit="10" stroke-width="2.5"/>
          </g>
          <g id="g6645" transform="translate(2.366 52.617)">
            <path id="path6647" d="M-370.619-190.548v3.614a.837.837,0,0,1-.837.837h-30.388a.837.837,0,0,1-.837-.837v-17.772l-8.883,9.15a7.061,7.061,0,0,1-9.838.5,7.211,7.211,0,0,1-2.4-5.434v-17.4" transform="translate(423.8 217.89)" fill="none" stroke="#000" stroke-linecap="round" stroke-linejoin="round" stroke-miterlimit="10" stroke-width="2.5"/>
          </g>
          <g id="g6649" transform="translate(33.825 41.143)">
            <path id="path6651" d="M-79.331,0V7.388a10.2,10.2,0,0,1-11.383,0V0" transform="translate(90.714)" fill="none" stroke="#000" stroke-linecap="round" stroke-linejoin="round" stroke-miterlimit="10" stroke-width="2.5"/>
          </g>
          <g id="g6653" transform="translate(18.788 1.255)">
            <path id="path6655" d="M-2.946-89.317l-.331-2.342a9.179,9.179,0,0,1,1.715-6.759,9.186,9.186,0,0,1,7.378-3.715h17.06A9.176,9.176,0,0,1,31.02-97.18l.927,1.79H34.2a3.758,3.758,0,0,1,3.72,4.285L36.081-78.168" transform="translate(3.369 102.133)" fill="none" stroke="#000" stroke-linecap="round" stroke-linejoin="round" stroke-miterlimit="10" stroke-width="2.5"/>
          </g>
          <g id="g6657" transform="translate(20.024 19.8)">
            <path id="path6659" d="M-5.364-37.768l-.77-5.419" transform="translate(6.133 43.188)" fill="none" stroke="#000" stroke-linecap="round" stroke-linejoin="round" stroke-miterlimit="10" stroke-width="2.5"/>
          </g>
          <g id="g6661" transform="translate(53.263 25.209)">
            <path id="path6663" d="M0,0H4.744A2.636,2.636,0,0,1,7.379,2.636V5.281A2.635,2.635,0,0,1,4.744,7.916H0" fill="none" stroke="#000" stroke-linecap="round" stroke-linejoin="round" stroke-miterlimit="10" stroke-width="2.5"/>
          </g>
          <g id="g6665" transform="translate(18.39 25.209)">
            <path id="path6667" d="M-51.419-55.167h-4.742A2.636,2.636,0,0,1-58.8-57.8v-2.645a2.636,2.636,0,0,1,2.636-2.636h4.742" transform="translate(58.797 63.083)" fill="none" stroke="#000" stroke-linecap="round" stroke-linejoin="round" stroke-miterlimit="10" stroke-width="2.5"/>
          </g>
          <g id="g6669" transform="translate(33.825 25.363)">
            <path id="path6671" d="M0,0V1.33" transform="translate(0)" fill="none" stroke="#000" stroke-linecap="round" stroke-linejoin="round" stroke-miterlimit="10" stroke-width="2.5"/>
          </g>
          <g id="g6673" transform="translate(45.208 25.363)">
            <path id="path6675" d="M0,0V1.33" transform="translate(0)" fill="none" stroke="#000" stroke-linecap="round" stroke-linejoin="round" stroke-miterlimit="10" stroke-width="2.5"/>
          </g>
          <g id="g6677" transform="translate(25.769 14.629)">
            <path id="path6679" d="M-191.611-26.122v16.036a6.728,6.728,0,0,1-6.727,6.729h-14.04a6.728,6.728,0,0,1-6.727-6.729V-24.438h16.875a4.535,4.535,0,0,0,4.537-4.535v-.415a.482.482,0,0,1,.482-.482h1.855A3.747,3.747,0,0,1-191.611-26.122Z" transform="translate(219.106 29.871)" fill="none" stroke="#000" stroke-linecap="round" stroke-linejoin="round" stroke-miterlimit="10" stroke-width="2.5"/>
          </g>
          <g id="g6681" transform="translate(35.037 33.126)">
            <path id="path6683" d="M0,0A7.164,7.164,0,0,0,8.958,0" fill="none" stroke="#000" stroke-linecap="round" stroke-linejoin="round" stroke-miterlimit="10" stroke-width="2.5"/>
          </g>
          <g id="g6685" transform="translate(2.366 30.729)">
            <path id="path6687" d="M-72.078-58.417h-3.95a.609.609,0,0,1-.609-.609v-4.882A2.892,2.892,0,0,0-79.529-66.8a2.892,2.892,0,0,0-2.892,2.892v19h10.343a4.637,4.637,0,0,0,4.637-4.637V-53.78A4.637,4.637,0,0,0-72.078-58.417Z" transform="translate(82.421 66.8)" fill="none" stroke="#000" stroke-linecap="round" stroke-linejoin="round" stroke-miterlimit="10" stroke-width="2.5"/>
          </g>
          <g id="g6689" transform="translate(73.531 73.061)">
            <path id="path6691" d="M-68.072,0V5.97A.928.928,0,0,1-69,6.9H-77.84" transform="translate(77.84)" fill="none" stroke="#000" stroke-linecap="round" stroke-linejoin="round" stroke-miterlimit="10" stroke-width="2.5"/>
          </g>
          <g id="g6693" transform="translate(51.376 45.127)">
            <path id="path6695" d="M-68.07-242.747h-8.84a.927.927,0,0,1-.928-.928v-32.977a.927.927,0,0,1,.928-.928h30.068a.928.928,0,0,1,.927.928V-255.5" transform="translate(77.837 277.579)" fill="none" stroke="#000" stroke-linecap="round" stroke-linejoin="round" stroke-miterlimit="10" stroke-width="2.5"/>
          </g>
          <g id="g6697" transform="translate(61.08 77.687)">
            <path id="path6699" d="M-67.192,0h-6.768a2.874,2.874,0,0,0-2.874,2.874V5.6a1.126,1.126,0,0,0,1.126,1.126h10.263A1.126,1.126,0,0,0-64.318,5.6V2.874A2.874,2.874,0,0,0-67.192,0Z" transform="translate(76.833)" fill="none" stroke="#000" stroke-linecap="round" stroke-linejoin="round" stroke-miterlimit="10" stroke-width="2.5"/>
          </g>
          <g id="g6701" transform="translate(9.855 43.701)">
            <path id="path6703" d="M-52.191,0H-59.68" transform="translate(59.68)" fill="none" stroke="#000" stroke-linecap="round" stroke-linejoin="round" stroke-miterlimit="10" stroke-width="2.5"/>
          </g>
          <g id="g6705" transform="translate(9.855 48.193)">
            <path id="path6707" d="M-52.156,0H-59.64" transform="translate(59.64 0)" fill="none" stroke="#000" stroke-linecap="round" stroke-linejoin="round" stroke-miterlimit="10" stroke-width="2.5"/>
          </g>
          <g id="g6709" transform="translate(58.936 54.454)">
            <path id="path6711" d="M-.63-42.082c.442-1.361,2.4-1.986,4.64-1.594a.622.622,0,0,0,.721-.524c.319-2.249,1.519-3.92,2.95-3.92s2.631,1.672,2.95,3.92a.622.622,0,0,0,.721.524c2.237-.392,4.2.233,4.64,1.594s-.777,3.019-2.817,4.017a.622.622,0,0,0-.276.848c1.064,2.007,1.076,4.064-.082,4.906s-3.111.194-4.691-1.438a.622.622,0,0,0-.892,0C5.656-32.117,3.7-31.47,2.544-32.311s-1.146-2.9-.082-4.906a.622.622,0,0,0-.276-.848C.147-39.063-1.073-40.72-.63-42.082Z" transform="translate(0.721 48.12)" fill="none" stroke="#000" stroke-linecap="round" stroke-linejoin="round" stroke-miterlimit="10" stroke-width="2.5"/>
          </g>
        </g>
      </g>
    </g>
  </g>
</svg>
