<svg xmlns="http://www.w3.org/2000/svg" xmlns:xlink="http://www.w3.org/1999/xlink" width="451.826" height="300" viewBox="0 0 451.826 300">
  <defs>
    <clipPath id="clip-path">
      <rect id="Rectángulo_36506" data-name="Rectángulo 36506" width="215.757" height="257.762" fill="none"/>
    </clipPath>
    <clipPath id="clip-path-3">
      <rect id="Rectángulo_36495" data-name="Rectángulo 36495" width="215.757" height="204.404" fill="none"/>
    </clipPath>
    <clipPath id="clip-path-5">
      <rect id="Rectángulo_36498" data-name="Rectángulo 36498" width="38.29" height="20.603" fill="none"/>
    </clipPath>
    <clipPath id="clip-path-6">
      <rect id="Rectángulo_36499" data-name="Rectángulo 36499" width="20.77" height="10.051" fill="none"/>
    </clipPath>
    <clipPath id="clip-path-7">
      <rect id="Rectángulo_36500" data-name="Rectángulo 36500" width="40.246" height="16.295" fill="none"/>
    </clipPath>
    <clipPath id="clip-path-8">
      <rect id="Rectángulo_36503" data-name="Rectángulo 36503" width="20.769" height="10.051" fill="none"/>
    </clipPath>
    <clipPath id="clip-path-9">
      <rect id="Rectángulo_36504" data-name="Rectángulo 36504" width="43.61" height="10.319" fill="none"/>
    </clipPath>
  </defs>
  <g id="Grupo_968846" data-name="Grupo 968846" transform="translate(-285 -718)">
    <g id="Grupo_968697" data-name="Grupo 968697" transform="translate(0 -30)">
      <rect id="BG" width="451.826" height="300" transform="translate(285 748)" fill="#def8f8"/>
    </g>
    <g id="Grupo_968845" data-name="Grupo 968845" transform="translate(403 739)">
      <g id="Grupo_968844" data-name="Grupo 968844" clip-path="url(#clip-path)">
        <g id="Grupo_968826" data-name="Grupo 968826">
          <g id="Grupo_968825" data-name="Grupo 968825" clip-path="url(#clip-path)">
            <g id="Grupo_968824" data-name="Grupo 968824" transform="translate(0 53.357)" opacity="0.15">
              <g id="Grupo_968823" data-name="Grupo 968823">
                <g id="Grupo_968822" data-name="Grupo 968822" clip-path="url(#clip-path-3)">
                  <path id="Trazado_722211" data-name="Trazado 722211" d="M156.1,283.577a107.879,107.879,0,1,0-96.451,0Z" transform="translate(0 -79.173)" fill="#9580ff"/>
                </g>
              </g>
            </g>
          </g>
        </g>
        <path id="Trazado_722212" data-name="Trazado 722212" d="M169.071,361.949l.155-8.084-7.286.016.724,9.136Z" transform="translate(-52.804 -115.384)" fill="#ffceab"/>
        <path id="Trazado_722213" data-name="Trazado 722213" d="M169.487,360.588l-7.188.012.218,3.643,7.161-.473Z" transform="translate(-52.92 -117.576)" fill="#fff"/>
        <g id="Grupo_968843" data-name="Grupo 968843">
          <g id="Grupo_968842" data-name="Grupo 968842" clip-path="url(#clip-path)">
            <path id="Trazado_722214" data-name="Trazado 722214" d="M182.3,370.66c-4.222-1.044-11.013-2.594-11.013-2.594l-1.2-3.162-8.411.129s.074,7.806.065,8.548-.155,2.558,1.113,2.614c3.233.143,22.228.026,25.6-.639.849-.168.754-2.011-.774-3.194-1.412-1.093-4.205-1.413-5.375-1.7" transform="translate(-52.716 -118.983)" fill="#7966ff"/>
            <path id="Trazado_722215" data-name="Trazado 722215" d="M173.369,373.486a1.113,1.113,0,0,1-.476-.115.985.985,0,0,1-.539-1.06,15.7,15.7,0,0,1,2.05-3.794.3.3,0,0,1,.532.132c.158.832.047,3.343-.725,4.362a1.056,1.056,0,0,1-.842.474m1.025-3.885a14.233,14.233,0,0,0-1.44,2.76c-.029.358.13.433.2.465.169.082.357.115.579-.178a6.257,6.257,0,0,0,.664-3.047" transform="translate(-56.197 -120.125)" fill="#272f4d"/>
            <path id="Trazado_722216" data-name="Trazado 722216" d="M176.81,373.37a1,1,0,0,1-.879-.562,15.666,15.666,0,0,1-.552-4.275.3.3,0,0,1,.508-.2c.615.583,1.992,2.686,1.96,3.965a1,1,0,0,1-.86,1.059.957.957,0,0,1-.177.016M176,369.418a14.25,14.25,0,0,0,.443,3.08c.185.308.359.276.433.264.184-.034.356-.116.365-.483a6.244,6.244,0,0,0-1.241-2.86" transform="translate(-57.184 -120.073)" fill="#272f4d"/>
            <path id="Trazado_722217" data-name="Trazado 722217" d="M161.889,379.559a.3.3,0,0,1,0-.6l26.874-.392h0a.3.3,0,0,1,0,.6l-26.874.392Z" transform="translate(-52.689 -123.437)" fill="#272f4d"/>
            <path id="Trazado_722218" data-name="Trazado 722218" d="M184.662,373.379a.3.3,0,0,1-.164-.048.3.3,0,0,1-.089-.416,4.584,4.584,0,0,1,1.566-1.679.3.3,0,0,1,.263.542,4.313,4.313,0,0,0-1.324,1.464.3.3,0,0,1-.253.137" transform="translate(-60.114 -121.038)" fill="#272f4d"/>
            <path id="Trazado_722219" data-name="Trazado 722219" d="M182,372.813a.3.3,0,0,1-.164-.049.3.3,0,0,1-.089-.416,4.593,4.593,0,0,1,1.566-1.679.3.3,0,0,1,.264.542,4.336,4.336,0,0,0-1.324,1.465.3.3,0,0,1-.253.138" transform="translate(-59.245 -120.853)" fill="#272f4d"/>
            <path id="Trazado_722220" data-name="Trazado 722220" d="M179.6,372.176a.3.3,0,0,1-.164-.048.3.3,0,0,1-.089-.417,4.594,4.594,0,0,1,1.566-1.679.3.3,0,0,1,.263.542,4.335,4.335,0,0,0-1.324,1.465.3.3,0,0,1-.253.137" transform="translate(-58.463 -120.646)" fill="#272f4d"/>
            <path id="Trazado_722221" data-name="Trazado 722221" d="M88.7,248.362c7.446,5.956,33.029,3.673,45.915,13.942,6.547,5.216,7.708,17.284,8.467,29.053.943,14.613.542,28.764.542,28.764l-11.263.14-14.773-45.989-36.565,2.81a6.653,6.653,0,0,1-6.681-9.113c3.93-9.821,10.173-22.955,14.358-19.607" transform="translate(-24.081 -80.809)" fill="#2d3962"/>
            <rect id="Rectángulo_36497" data-name="Rectángulo 36497" width="4.992" height="49.951" transform="translate(52.18 201.136)" fill="#2d3962"/>
            <path id="Trazado_722222" data-name="Trazado 722222" d="M56.869,372.759c0-7.3,7.32-13.219,16.35-13.219s16.35,5.918,16.35,13.219" transform="translate(-18.543 -117.234)" fill="#ffc55f"/>
            <path id="Trazado_722223" data-name="Trazado 722223" d="M45.9,268.682l-8.876-.591c-3.523-.561-2.189.046-2.733-2.021-1.287-4.893-5.48-55.779-6.359-66.122a5.308,5.308,0,0,1,.478-3.422c1.948-2.919,6.722-2.113,9.645-2.175,2.517-.053,5.53-.179,7.184,1.719,5.792,6.648,3.715,46.544,4.643,58.423q.476,6.1.953,12.2c-.336,2.111-1.41,2.545-4.933,1.985" transform="translate(-9.086 -63.353)" fill="#ffc55f"/>
            <path id="Trazado_722224" data-name="Trazado 722224" d="M37.479,301.36H95.565a2.561,2.561,0,0,0,2.56-2.561v-3.93a2.561,2.561,0,0,0-2.56-2.561H37.479a2.561,2.561,0,0,0-2.561,2.561v3.93a2.561,2.561,0,0,0,2.561,2.561" transform="translate(-11.386 -95.312)" fill="#ffc55f"/>
            <path id="Trazado_722225" data-name="Trazado 722225" d="M89.513,379.864H55.575a.692.692,0,0,1-.692-.692V376.6a.692.692,0,0,1,.692-.692H89.513a.692.692,0,0,1,.692.692v2.568a.692.692,0,0,1-.692.692" transform="translate(-17.896 -122.573)" fill="#2d3962"/>
            <path id="Trazado_722226" data-name="Trazado 722226" d="M67.188,292.472H38.564a.317.317,0,1,1,0-.633H67.188a.317.317,0,1,1,0,.633" transform="translate(-12.471 -95.159)" fill="#2d3962"/>
            <g id="Grupo_968829" data-name="Grupo 968829" transform="translate(37.786 157.97)" opacity="0.2">
              <g id="Grupo_968828" data-name="Grupo 968828">
                <g id="Grupo_968827" data-name="Grupo 968827" clip-path="url(#clip-path-5)">
                  <path id="Trazado_722227" data-name="Trazado 722227" d="M92.883,234.4c.744,6.264,1.475,12.578,1.475,12.578s-6.646,4.835-20.232,7.274a54.77,54.77,0,0,1-16.362.254s-.795-2.113-1.7-5.572c0,0,14.56,1.516,24.587-3.971C87.187,241.39,92.883,234.4,92.883,234.4" transform="translate(-56.068 -234.401)" fill="#45547f"/>
                </g>
              </g>
            </g>
            <path id="Trazado_722228" data-name="Trazado 722228" d="M244.06,285.287a29.109,29.109,0,0,1,.841-9.43c.526-1.768,1.762-3.807,3.992-3.9,2.453-.1,3.893,2.215,4.364,4.18,1.548,6.454-.326,13.192,1.063,19.669,1.094,5.1,1.973,8.963,2.12,14.141.191,6.665-1.933,9.531-5.921,9.491-3.589-.036-6.631-3.291-6.632-9.336,0-5.842.357-11.677.423-17.518.027-2.4-.16-4.854-.25-7.3" transform="translate(-79.524 -88.676)" fill="#71c096"/>
            <path id="Trazado_722229" data-name="Trazado 722229" d="M253.594,329.169a.253.253,0,0,1-.253-.247l-1.084-44.174a.253.253,0,0,1,.247-.259.266.266,0,0,1,.259.247l1.084,44.174a.253.253,0,0,1-.247.259Z" transform="translate(-82.253 -92.763)" fill="#2d3962"/>
            <path id="Trazado_722230" data-name="Trazado 722230" d="M258.862,301.794a21.087,21.087,0,0,1,.782-6.757c.409-1.261,1.332-2.7,2.935-2.728,1.764-.028,2.756,1.659,3.06,3.078,1,4.662-.466,9.468.418,14.144a51.823,51.823,0,0,1,1.275,10.191c.02,4.79-1.555,6.811-4.419,6.712-2.576-.089-4.7-2.479-4.6-6.82.1-4.153.442-8.3.592-12.448.064-1.762-.029-3.57-.046-5.371" transform="translate(-84.227 -95.312)" fill="#46aea4"/>
            <path id="Trazado_722231" data-name="Trazado 722231" d="M264.97,335.295a.253.253,0,0,1-.253-.249l-.518-32.618a.251.251,0,0,1,.249-.255.235.235,0,0,1,.256.249l.518,32.618a.252.252,0,0,1-.249.256Z" transform="translate(-86.147 -98.528)" fill="#2d3962"/>
            <path id="Trazado_722232" data-name="Trazado 722232" d="M267.067,348.86h-22.9s-1.941,19.216,6.212,22.127h10.474c8.151-2.911,6.211-22.127,6.211-22.127" transform="translate(-79.55 -113.752)" fill="#9580ff"/>
            <g id="Grupo_968832" data-name="Grupo 968832" transform="translate(166.422 247.185)" opacity="0.2">
              <g id="Grupo_968831" data-name="Grupo 968831">
                <g id="Grupo_968830" data-name="Grupo 968830" clip-path="url(#clip-path-6)">
                  <path id="Trazado_722233" data-name="Trazado 722233" d="M267.712,366.779c-.724,4.484-2.361,8.791-5.886,10.05H251.352a8,8,0,0,1-4.41-4.685,22.48,22.48,0,0,0,10.983.237,18.479,18.479,0,0,0,9.787-5.6" transform="translate(-246.942 -366.779)" fill="#45547f"/>
                </g>
              </g>
            </g>
            <path id="Trazado_722234" data-name="Trazado 722234" d="M249.365,359.572a.843.843,0,0,0,0-1.685.843.843,0,0,0,0,1.685" transform="translate(-81.045 -116.695)" fill="#2d3962"/>
            <path id="Trazado_722235" data-name="Trazado 722235" d="M271.338,364.549a.843.843,0,0,0,0-1.685.843.843,0,0,0,0,1.685" transform="translate(-88.209 -118.318)" fill="#2d3962"/>
            <path id="Trazado_722236" data-name="Trazado 722236" d="M258.581,366.049a.843.843,0,0,0,0-1.685.843.843,0,0,0,0,1.685" transform="translate(-84.05 -118.807)" fill="#2d3962"/>
            <path id="Trazado_722237" data-name="Trazado 722237" d="M253.778,374.436a.843.843,0,0,0,0-1.685.843.843,0,0,0,0,1.685" transform="translate(-82.483 -121.542)" fill="#2d3962"/>
            <path id="Trazado_722238" data-name="Trazado 722238" d="M265.556,376.012a.843.843,0,0,0,0-1.685.843.843,0,0,0,0,1.685" transform="translate(-86.324 -122.056)" fill="#2d3962"/>
            <path id="Trazado_722239" data-name="Trazado 722239" d="M270.731,354.483a.843.843,0,0,0,0-1.685.843.843,0,0,0,0,1.685" transform="translate(-88.011 -115.036)" fill="#2d3962"/>
            <path id="Trazado_722240" data-name="Trazado 722240" d="M259.08,353.1a.843.843,0,0,0,0-1.685.843.843,0,0,0,0,1.685" transform="translate(-84.212 -114.584)" fill="#2d3962"/>
            <path id="Trazado_722241" data-name="Trazado 722241" d="M155.166,361.949l.155-8.084-7.286.016.724,9.136Z" transform="translate(-48.269 -115.384)" fill="#ffceab"/>
            <path id="Trazado_722242" data-name="Trazado 722242" d="M155.581,360.588l-7.188.012.218,3.643,7.161-.473Z" transform="translate(-48.386 -117.576)" fill="#fff"/>
            <path id="Trazado_722243" data-name="Trazado 722243" d="M168.391,370.66c-4.222-1.044-11.013-2.594-11.013-2.594l-1.2-3.162-8.411.129s.074,7.806.065,8.548-.155,2.558,1.113,2.614c3.233.143,22.228.026,25.6-.639.85-.168.754-2.011-.774-3.194-1.412-1.093-4.205-1.413-5.375-1.7" transform="translate(-48.182 -118.983)" fill="#9580ff"/>
            <path id="Trazado_722244" data-name="Trazado 722244" d="M159.463,373.486a1.112,1.112,0,0,1-.476-.115.993.993,0,0,1-.539-1.061,15.718,15.718,0,0,1,2.05-3.793.3.3,0,0,1,.532.132c.158.832.047,3.343-.725,4.362a1.055,1.055,0,0,1-.842.474m1.026-3.885a14.224,14.224,0,0,0-1.441,2.759c-.03.359.131.433.2.466.17.082.357.115.579-.178a6.264,6.264,0,0,0,.664-3.047" transform="translate(-51.663 -120.125)" fill="#272f4d"/>
            <path id="Trazado_722245" data-name="Trazado 722245" d="M162.9,373.37a1,1,0,0,1-.879-.562,15.666,15.666,0,0,1-.552-4.275.3.3,0,0,1,.508-.2c.614.583,1.991,2.685,1.96,3.965a1,1,0,0,1-.86,1.06.957.957,0,0,1-.177.016m-.807-3.952a14.244,14.244,0,0,0,.443,3.08c.185.308.358.276.433.264.184-.034.356-.116.365-.483a6.251,6.251,0,0,0-1.241-2.86" transform="translate(-52.65 -120.073)" fill="#272f4d"/>
            <path id="Trazado_722246" data-name="Trazado 722246" d="M147.984,379.559a.3.3,0,0,1,0-.6l26.874-.392h0a.3.3,0,0,1,0,.6l-26.874.392Z" transform="translate(-48.155 -123.437)" fill="#272f4d"/>
            <path id="Trazado_722247" data-name="Trazado 722247" d="M170.755,373.38a.3.3,0,0,1-.164-.048.3.3,0,0,1-.089-.417,4.59,4.59,0,0,1,1.567-1.679.3.3,0,0,1,.263.542,4.32,4.32,0,0,0-1.324,1.464.3.3,0,0,1-.253.137" transform="translate(-55.579 -121.038)" fill="#272f4d"/>
            <path id="Trazado_722248" data-name="Trazado 722248" d="M168.09,372.813a.3.3,0,0,1-.164-.049.3.3,0,0,1-.089-.416,4.594,4.594,0,0,1,1.566-1.679.3.3,0,0,1,.263.542,4.335,4.335,0,0,0-1.324,1.465.3.3,0,0,1-.253.138" transform="translate(-54.71 -120.853)" fill="#272f4d"/>
            <path id="Trazado_722249" data-name="Trazado 722249" d="M165.693,372.176a.3.3,0,0,1-.253-.465,4.594,4.594,0,0,1,1.566-1.679.3.3,0,0,1,.263.542,4.335,4.335,0,0,0-1.324,1.465.3.3,0,0,1-.253.137" transform="translate(-53.929 -120.646)" fill="#272f4d"/>
            <path id="Trazado_722250" data-name="Trazado 722250" d="M93.834,251.867c5.021,2.8,25.791,5.365,29.8,10.011,5.381,6.239,5.429,18.18,6.142,28.47,1.188,17.152.758,29.941.758,29.941l-13.827.144-7.23-44.266s-32.347,1.233-37.791-.323-11.9-7.727-11.126-15.035c.5-4.651,1.556-17.718,1.556-17.718H87.8s3.507,7.367,6.03,8.775" transform="translate(-19.725 -79.264)" fill="#45547f"/>
            <path id="Trazado_722251" data-name="Trazado 722251" d="M134.561,297.675a.317.317,0,0,1-.305-.231l-2.84-10.09a.317.317,0,1,1,.611-.173l2.84,10.09a.317.317,0,0,1-.219.392.321.321,0,0,1-.086.012" transform="translate(-42.847 -93.565)" fill="#2d3962"/>
            <path id="Trazado_722252" data-name="Trazado 722252" d="M58.39,184.762c-3.345,8.426-3.279,18.429-3.562,26.554a200.542,200.542,0,0,0,.468,23.417s12.572,1.584,21.55.755a75.7,75.7,0,0,0,18.286-4.328s-1.119-9.021-3.089-26.08c-.375-3.251-.791-12.721-2.617-18.359-4.465-13.788-11.31-13.128-16.077-13.219-7.945-.153-12.574,5.25-14.959,11.259" transform="translate(-17.835 -56.572)" fill="#9580ff"/>
            <g id="Grupo_968835" data-name="Grupo 968835" transform="translate(37.051 162.861)" opacity="0.2">
              <g id="Grupo_968834" data-name="Grupo 968834">
                <g id="Grupo_968833" data-name="Grupo 968833" clip-path="url(#clip-path-7)">
                  <path id="Trazado_722253" data-name="Trazado 722253" d="M93.812,241.657c.915,7.721,1.411,11.728,1.411,11.728a75.68,75.68,0,0,1-18.286,4.327c-8.978.829-21.55-.755-21.55-.755s-.235-2.469-.41-6.63c0,0,11.613,2.183,22.427.137a29.554,29.554,0,0,0,16.408-8.808" transform="translate(-54.977 -241.657)" fill="#45547f"/>
                </g>
              </g>
            </g>
            <path id="Trazado_722254" data-name="Trazado 722254" d="M148.143,224.555s8.11,1.97,9.275,4.5-9.149,1.714-9.149,1.714Z" transform="translate(-48.305 -73.22)" fill="#ffceab"/>
            <path id="Trazado_722255" data-name="Trazado 722255" d="M83.968,187.752c6.794-1.646,12.975,22.207,12.975,22.207l28.9,2.57.127,6.215S96.5,223,87.692,217.661c-2.978-1.807-5.637-9.329-6.315-12.325-1.23-5.431-3.98-15.992,2.591-17.584" transform="translate(-26.003 -61.193)" fill="#ffceab"/>
            <path id="Trazado_722256" data-name="Trazado 722256" d="M75.043,207.364l18.911-6.638s-3.288-24.227-13.6-22.234c-16.688,3.225-5.311,28.873-5.311,28.873" transform="translate(-23.234 -58.162)" fill="#9580ff"/>
            <path id="Trazado_722257" data-name="Trazado 722257" d="M75,207.541a.34.34,0,0,1-.311-.2,52.619,52.619,0,0,1-3.557-12.725.34.34,0,0,1,.674-.087,51.851,51.851,0,0,0,3.381,12.247l18.346-6.439c-.328-2.156-2.7-16.37-8.587-20.6a5.736,5.736,0,0,0-4.572-1.072c-2.256.433-6.236,1.681-7.549,5.184a.34.34,0,0,1-.637-.239c1.429-3.812,5.662-5.153,8.058-5.613a6.389,6.389,0,0,1,5.1,1.188c6.582,4.73,8.813,20.659,8.9,21.335a.341.341,0,0,1-.224.367l-18.911,6.638a.361.361,0,0,1-.113.019" transform="translate(-23.194 -57.999)" fill="#2d3962"/>
            <path id="Trazado_722258" data-name="Trazado 722258" d="M95,131.006s3.079,9.664,2.34,15.507A9.892,9.892,0,0,1,87.243,155.4l-.543,3.8s-8.134,1.921-12.245.237l-.173-9.419-.022-18.532,2.448-3.614,16.554-2.08Z" transform="translate(-24.214 -41.016)" fill="#ffceab"/>
            <path id="Trazado_722259" data-name="Trazado 722259" d="M91.065,144.013a.963.963,0,1,0,.724-1.152.962.962,0,0,0-.724,1.152" transform="translate(-29.685 -46.574)" fill="#2d3962"/>
            <path id="Trazado_722260" data-name="Trazado 722260" d="M99.511,142.283a.963.963,0,1,0,.724-1.152.962.962,0,0,0-.724,1.152" transform="translate(-32.439 -46.01)" fill="#2d3962"/>
            <path id="Trazado_722261" data-name="Trazado 722261" d="M95.471,152.139h-.024a3.306,3.306,0,0,1-1.712-.469.34.34,0,0,1,.355-.58,2.638,2.638,0,0,0,1.361.369,2.836,2.836,0,0,0,1.464-.413.34.34,0,1,1,.379.565,3.3,3.3,0,0,1-1.824.528" transform="translate(-30.511 -49.232)" fill="#2d3962"/>
            <path id="Trazado_722262" data-name="Trazado 722262" d="M82.907,166.856a78.422,78.422,0,0,0,6.792,4.376s.427-3.054.39-2.67c-.016.158-1.311.209-2.916-.295a25.991,25.991,0,0,1-3.842-1.634Z" transform="translate(-27.033 -54.334)" fill="#2d3962"/>
            <path id="Trazado_722263" data-name="Trazado 722263" d="M89.869,168.734A13.814,13.814,0,0,1,83,166.885a.34.34,0,1,1,.344-.586c3.239,1.91,8.313,2.688,12.353.125a.34.34,0,0,1,.365.574,11.457,11.457,0,0,1-6.19,1.735" transform="translate(-27.008 -54.21)" fill="#2d3962"/>
            <path id="Trazado_722264" data-name="Trazado 722264" d="M91.916,138.72c-.7-.445-2.357.237-2.81.547a.8.8,0,0,0,.187.947c.542.481,2.089-.119,2.675-.259a.3.3,0,0,0,.134-.056.289.289,0,0,0,.075-.16,1.243,1.243,0,0,0,.01-.668.643.643,0,0,0-.271-.35" transform="translate(-29.028 -45.184)" fill="#2d3962"/>
            <path id="Trazado_722265" data-name="Trazado 722265" d="M101.037,136.99c-.693-.46-2.362.189-2.82.489a.8.8,0,0,0,.167.951c.532.491,2.091-.078,2.68-.206a.3.3,0,0,0,.135-.053.3.3,0,0,0,.078-.158,1.252,1.252,0,0,0,.024-.668.647.647,0,0,0-.264-.356" transform="translate(-31.996 -44.616)" fill="#2d3962"/>
            <path id="Trazado_722266" data-name="Trazado 722266" d="M79.136,176.24a13.516,13.516,0,0,1-5.658-.995.34.34,0,1,1,.295-.613c4.286,2.062,13.09.017,13.178,0a.34.34,0,0,1,.156.662,39.117,39.117,0,0,1-7.971.95" transform="translate(-23.896 -56.931)" fill="#2d3962"/>
            <path id="Trazado_722267" data-name="Trazado 722267" d="M96.685,146.755a.34.34,0,0,1-.338-.314c-.015-.212-.038-.5-.064-.733a.34.34,0,0,1,.675-.077c.028.244.051.54.067.76a.341.341,0,0,1-.314.365h-.026" transform="translate(-31.394 -47.387)" fill="#2d3962"/>
            <path id="Trazado_722268" data-name="Trazado 722268" d="M96.892,148.161a.864.864,0,0,1-.15-.013.34.34,0,1,1,.116-.67.28.28,0,0,0,.227-.077.111.111,0,0,0,.042-.1c0-.015-.007-.042-.053-.071a.377.377,0,0,0-.285-.034.34.34,0,1,1-.192-.652,1.055,1.055,0,0,1,.843.113.779.779,0,0,1,.36.545.8.8,0,0,1-.24.691.966.966,0,0,1-.668.273" transform="translate(-31.417 -47.768)" fill="#2d3962"/>
            <path id="Trazado_722269" data-name="Trazado 722269" d="M83.736,131.4c.362-.057.685-2.58.685-2.58s1.016,2.312,1.323,2.263l5.789-.914a.668.668,0,0,0,.478-.22.613.613,0,0,0,.053-.435c-1.246-7.822-10.245-9.333-18.759-7.216-12.846,3.194-9.978,21.215-9.6,32.432.032.955.185,2.079,1.03,2.526a2.78,2.78,0,0,0,1.3.218c6.115.039,7.456-.578,7.561-.863.054-.147-1.625-7.416-1.864-11.782-.156-2.845.018-9.748-.216-12.556,0,0,10.079-.536,12.22-.874" transform="translate(-20.599 -39.594)" fill="#2d3962"/>
            <path id="Trazado_722270" data-name="Trazado 722270" d="M72.914,147.5c-1.621-.648-4.691-1.793-6.166-.58a2.877,2.877,0,0,0-.117,4.18c1.869,1.974,5.412,2.757,6.464,3.062" transform="translate(-21.452 -47.73)" fill="#ffceab"/>
            <path id="Trazado_722271" data-name="Trazado 722271" d="M68.653,149.93a.34.34,0,0,1-.132-.654,3.177,3.177,0,0,1,2.507-.085.34.34,0,0,1-.294.613,2.516,2.516,0,0,0-1.949.1.34.34,0,0,1-.132.027" transform="translate(-22.275 -48.578)" fill="#2d3962"/>
            <path id="Trazado_722272" data-name="Trazado 722272" d="M70.665,151.637a.338.338,0,0,1-.275-.14,7.618,7.618,0,0,1-.8-1.568.34.34,0,0,1,.632-.25,7.245,7.245,0,0,0,.716,1.419.34.34,0,0,1-.275.539" transform="translate(-22.684 -48.736)" fill="#2d3962"/>
            <path id="Trazado_722273" data-name="Trazado 722273" d="M84.774,116.306a5.159,5.159,0,1,1-5.306-5.008,5.16,5.16,0,0,1,5.306,5.008" transform="translate(-24.278 -36.29)" fill="#2d3962"/>
            <rect id="Rectángulo_36501" data-name="Rectángulo 36501" width="4.361" height="96.432" transform="translate(90.406 160.86)" fill="#45547f"/>
            <rect id="Rectángulo_36502" data-name="Rectángulo 36502" width="4.361" height="96.432" transform="translate(193.686 160.86)" fill="#45547f"/>
            <path id="Trazado_722274" data-name="Trazado 722274" d="M242.846,239.954H128.31a1.055,1.055,0,0,1-1.055-1.056V234.71a1.055,1.055,0,0,1,1.055-1.055H242.846a1.056,1.056,0,0,1,1.056,1.055V238.9a1.056,1.056,0,0,1-1.056,1.056" transform="translate(-41.494 -76.187)" fill="#45547f"/>
            <path id="Trazado_722275" data-name="Trazado 722275" d="M281.99,192.724q-.57-10.474-1.829-20.895a5.236,5.236,0,0,0-.653-2.288,25,25,0,0,0-1.858,5.729c-1,6.051-3.331,12.074-2.392,18.135Z" transform="translate(-89.682 -55.28)" fill="#46aea4"/>
            <path id="Trazado_722276" data-name="Trazado 722276" d="M274.053,195.476q-.177-7.176-.895-14.326a28.7,28.7,0,0,0-1.463-4.966s-3.258,13.3-2.593,19.748Z" transform="translate(-87.716 -57.448)" fill="#71c096"/>
            <path id="Trazado_722277" data-name="Trazado 722277" d="M268.985,198.869q-1.412-5.48-2.825-10.961a16.833,16.833,0,0,0-1.263-3.69,31.609,31.609,0,0,0-.156,14.424Z" transform="translate(-86.076 -60.067)" fill="#46aea4"/>
            <path id="Trazado_722278" data-name="Trazado 722278" d="M283.742,195.174c.007-6.029,1.6-12.958,3.107-18.8a39.067,39.067,0,0,1,1.285,10.765c-.163,2.419-.568,5.819-.1,8.2Z" transform="translate(-92.519 -57.511)" fill="#71c096"/>
            <path id="Trazado_722279" data-name="Trazado 722279" d="M286.129,199.112a8.484,8.484,0,0,1,.481-1.913c.962-2.866,1.844-5,2.806-7.865a13.514,13.514,0,0,1,1.541-2.7c.2.028.877,8.383.108,12.258Z" transform="translate(-93.297 -60.855)" fill="#46aea4"/>
            <path id="Trazado_722280" data-name="Trazado 722280" d="M280.27,197.3h0a.181.181,0,0,1-.177-.184l.342-17.681a.181.181,0,0,1,.181-.177h0a.18.18,0,0,1,.177.185l-.342,17.679a.181.181,0,0,1-.181.178" transform="translate(-91.328 -58.451)" fill="#2d3962"/>
            <path id="Trazado_722281" data-name="Trazado 722281" d="M273.3,198.9a.181.181,0,0,1-.18-.159,30.744,30.744,0,0,1-.129-4.643c.127-2.441-.126-9.945-.128-10.02a.181.181,0,0,1,.175-.187.194.194,0,0,1,.187.175c0,.076.255,7.6.128,10.051a30.284,30.284,0,0,0,.127,4.581.181.181,0,0,1-.158.2H273.3" transform="translate(-88.973 -59.959)" fill="#2d3962"/>
            <path id="Trazado_722282" data-name="Trazado 722282" d="M267.063,201.277a.181.181,0,0,1-.174-.13,92.827,92.827,0,0,1-1.5-10.154.182.182,0,0,1,.162-.2.177.177,0,0,1,.2.162,94.994,94.994,0,0,0,1.488,10.089.181.181,0,0,1-.123.224.161.161,0,0,1-.051.007" transform="translate(-86.534 -62.211)" fill="#2d3962"/>
            <path id="Trazado_722283" data-name="Trazado 722283" d="M286.041,199.058a.2.2,0,0,1-.048-.006.182.182,0,0,1-.127-.223c.8-2.923,1.31-12.646,1.315-12.743a.189.189,0,0,1,.191-.172.181.181,0,0,1,.171.19c-.021.4-.516,9.861-1.326,12.822a.182.182,0,0,1-.175.133" transform="translate(-93.209 -60.62)" fill="#2d3962"/>
            <path id="Trazado_722284" data-name="Trazado 722284" d="M289.839,201.49a.187.187,0,0,1-.093-.025.182.182,0,0,1-.063-.249c.317-.534.816-2.345,1.39-7.94.02-.2.034-.327.038-.363a.181.181,0,0,1,.359.051c-.005.034-.018.158-.038.349-.466,4.544-.95,7.266-1.438,8.089a.181.181,0,0,1-.156.088" transform="translate(-94.448 -62.852)" fill="#2d3962"/>
            <path id="Trazado_722285" data-name="Trazado 722285" d="M284.846,200.943h-22.9s-1.941,19.216,6.211,22.128h10.474c8.151-2.912,6.211-22.128,6.211-22.128" transform="translate(-85.348 -65.521)" fill="#9580ff"/>
            <g id="Grupo_968838" data-name="Grupo 968838" transform="translate(178.404 147.499)" opacity="0.2">
              <g id="Grupo_968837" data-name="Grupo 968837">
                <g id="Grupo_968836" data-name="Grupo 968836" clip-path="url(#clip-path-8)">
                  <path id="Trazado_722286" data-name="Trazado 722286" d="M285.49,218.863c-.724,4.484-2.361,8.791-5.886,10.05H269.13a8,8,0,0,1-4.41-4.685,22.48,22.48,0,0,0,10.983.237,18.479,18.479,0,0,0,9.787-5.6" transform="translate(-264.721 -218.863)" fill="#45547f"/>
                </g>
              </g>
            </g>
            <path id="Trazado_722287" data-name="Trazado 722287" d="M284.621,204.268H262.037a.34.34,0,0,1,0-.681h22.584a.34.34,0,0,1,0,.681" transform="translate(-85.331 -66.383)" fill="#2d3962"/>
            <path id="Trazado_722288" data-name="Trazado 722288" d="M284.621,208.637H262.037a.34.34,0,0,1,0-.681h22.584a.34.34,0,0,1,0,.681" transform="translate(-85.331 -67.808)" fill="#2d3962"/>
            <path id="Trazado_722289" data-name="Trazado 722289" d="M215.117,187.176H175.554a3.1,3.1,0,0,0-3.311,2.832l-9.178,24.906L148,218.011a.456.456,0,0,0,.093.9l59.783-.268,10.553-28.639a3.1,3.1,0,0,0-3.31-2.832" transform="translate(-48.138 -61.032)" fill="#f48378"/>
            <g id="Grupo_968841" data-name="Grupo 968841" transform="translate(119.862 147.473)" opacity="0.2">
              <g id="Grupo_968840" data-name="Grupo 968840">
                <g id="Grupo_968839" data-name="Grupo 968839" clip-path="url(#clip-path-9)">
                  <path id="Trazado_722290" data-name="Trazado 722290" d="M221.465,218.825l-3.737,10.141-39.873.178s26.409-1.214,34.73-4.108,8.88-6.211,8.88-6.211" transform="translate(-177.855 -218.825)" fill="#45547f"/>
                </g>
              </g>
            </g>
            <path id="Trazado_722291" data-name="Trazado 722291" d="M210.34,206.091a1.084,1.084,0,0,1,.855-.533,1.532,1.532,0,0,1,1.5.48,4.084,4.084,0,0,1,.385,1.524,14.682,14.682,0,0,0,.686,1.706,1.564,1.564,0,0,1-1.235,2.227,5.338,5.338,0,0,1-1.808.013,3.824,3.824,0,0,1-.89-.187c-1.414-.536-.766-2.208-.207-3.053a2.847,2.847,0,0,0,.464-1.258,2.7,2.7,0,0,1,.247-.918" transform="translate(-68.143 -67.018)" fill="#fff"/>
            <path id="Trazado_722292" data-name="Trazado 722292" d="M214.516,201.612s-1.248.016-1.59.888a5.713,5.713,0,0,0-.39,1.425,2.7,2.7,0,0,0,1.5-.824,3.555,3.555,0,0,0,.482-1.49" transform="translate(-69.301 -65.739)" fill="#fff"/>
            <path id="Trazado_722293" data-name="Trazado 722293" d="M43.292,233.147a.363.363,0,0,1-.363-.363v-.911a.363.363,0,1,1,.725,0v.911a.363.363,0,0,1-.363.363m0-3.085a.363.363,0,0,1-.363-.363v-2.175a.363.363,0,0,1,.725,0V229.7a.363.363,0,0,1-.363.363m0-4.349a.363.363,0,0,1-.363-.363v-2.174a.363.363,0,0,1,.725,0v2.174a.363.363,0,0,1-.363.363m0-4.348a.363.363,0,0,1-.363-.363v-2.174a.363.363,0,1,1,.725,0V221a.363.363,0,0,1-.363.363m0-4.348a.363.363,0,0,1-.363-.363v-2.173a.363.363,0,1,1,.725,0v2.173a.363.363,0,0,1-.363.363m0-4.348a.363.363,0,0,1-.363-.363v-2.174a.363.363,0,0,1,.725,0v2.174a.363.363,0,0,1-.363.363m0-4.348a.363.363,0,0,1-.363-.363v-2.174a.363.363,0,0,1,.725,0v2.174a.363.363,0,0,1-.363.363m0-4.348a.363.363,0,0,1-.363-.363v-2.174a.363.363,0,1,1,.725,0v2.174a.363.363,0,0,1-.363.363m0-4.348a.363.363,0,0,1-.363-.363v-2.174a.363.363,0,0,1,.725,0v2.174a.363.363,0,0,1-.363.363m0-4.349a.363.363,0,0,1-.363-.363v-2.173a.363.363,0,1,1,.725,0v2.173a.363.363,0,0,1-.363.363m0-4.348a.362.362,0,0,1-.363-.362v-2.174a.363.363,0,1,1,.725,0v2.174a.362.362,0,0,1-.363.362m0-4.348a.363.363,0,0,1-.363-.362v-2.174a.363.363,0,1,1,.725,0v2.174a.363.363,0,0,1-.363.362m0-4.348a.363.363,0,0,1-.363-.363v-2.174a.363.363,0,0,1,.725,0v2.174a.363.363,0,0,1-.363.363" transform="translate(-13.998 -58.474)" fill="#71c096"/>
            <path id="Trazado_722294" data-name="Trazado 722294" d="M44.459,176.965a1.728,1.728,0,1,1-1.819-1.632,1.728,1.728,0,0,1,1.819,1.632" transform="translate(-13.371 -57.17)" fill="#71c096"/>
            <path id="Trazado_722295" data-name="Trazado 722295" d="M44.459,255.39a1.728,1.728,0,1,1-1.819-1.632,1.728,1.728,0,0,1,1.819,1.632" transform="translate(-13.371 -82.742)" fill="#71c096"/>
            <path id="Trazado_722296" data-name="Trazado 722296" d="M153.081,104.779a.321.321,0,0,1-.321-.321v-3.345a.321.321,0,1,1,.642,0v3.345a.321.321,0,0,1-.321.321" transform="translate(-49.81 -32.865)" fill="#2d3962"/>
            <path id="Trazado_722297" data-name="Trazado 722297" d="M153.946,103.917H150.6a.321.321,0,0,1,0-.642h3.345a.321.321,0,0,1,0,.642" transform="translate(-49.001 -33.675)" fill="#2d3962"/>
            <path id="Trazado_722298" data-name="Trazado 722298" d="M49.984,154.345a.321.321,0,0,1-.321-.321v-3.345a.321.321,0,1,1,.642,0v3.345a.321.321,0,0,1-.321.321" transform="translate(-16.193 -49.027)" fill="#2d3962"/>
            <path id="Trazado_722299" data-name="Trazado 722299" d="M50.847,153.482H47.5a.321.321,0,0,1,0-.642h3.345a.321.321,0,0,1,0,.642" transform="translate(-15.384 -49.836)" fill="#2d3962"/>
            <path id="Trazado_722300" data-name="Trazado 722300" d="M227.936,161.279a.321.321,0,0,1-.321-.321v-3.345a.321.321,0,1,1,.642,0v3.345a.321.321,0,0,1-.321.321" transform="translate(-74.218 -51.288)" fill="#2d3962"/>
            <path id="Trazado_722301" data-name="Trazado 722301" d="M228.8,160.416h-3.345a.321.321,0,0,1,0-.642H228.8a.321.321,0,1,1,0,.642" transform="translate(-73.409 -52.097)" fill="#2d3962"/>
            <path id="Trazado_722302" data-name="Trazado 722302" d="M158.256,162.967a1.2,1.2,0,1,1,1.2-1.2,1.2,1.2,0,0,1-1.2,1.2m0-1.761a.56.56,0,1,0,.56.56.561.561,0,0,0-.56-.56" transform="translate(-51.211 -52.355)" fill="#2d3962"/>
            <path id="Trazado_722303" data-name="Trazado 722303" d="M229.345,115.495a1.2,1.2,0,1,1,1.2-1.2,1.2,1.2,0,0,1-1.2,1.2m0-1.761a.56.56,0,1,0,.56.56.561.561,0,0,0-.56-.56" transform="translate(-74.39 -36.876)" fill="#2d3962"/>
            <path id="Trazado_722304" data-name="Trazado 722304" d="M187.871,260.309a1.2,1.2,0,1,1,1.2-1.2,1.2,1.2,0,0,1-1.2,1.2m0-1.761a.56.56,0,1,0,.56.56.561.561,0,0,0-.56-.56" transform="translate(-60.867 -84.095)" fill="#2d3962"/>
            <path id="Trazado_722305" data-name="Trazado 722305" d="M219.161,295.615a.321.321,0,0,1-.321-.321V291.95a.321.321,0,0,1,.642,0v3.345a.321.321,0,0,1-.321.321" transform="translate(-71.357 -95.091)" fill="#2d3962"/>
            <path id="Trazado_722306" data-name="Trazado 722306" d="M220.025,294.753h-3.345a.32.32,0,0,1,0-.641h3.345a.32.32,0,0,1,0,.641" transform="translate(-70.548 -95.9)" fill="#2d3962"/>
            <path id="Trazado_722307" data-name="Trazado 722307" d="M198.591,338.623a1.2,1.2,0,1,1,1.2-1.2,1.2,1.2,0,0,1-1.2,1.2m0-1.761a.56.56,0,1,0,.56.56.561.561,0,0,0-.56-.56" transform="translate(-64.362 -109.631)" fill="#2d3962"/>
            <path id="Trazado_722308" data-name="Trazado 722308" d="M150.016,34.563A17.282,17.282,0,1,1,167.3,17.282a17.3,17.3,0,0,1-17.282,17.282m0-32.542a15.26,15.26,0,1,0,15.26,15.26,15.277,15.277,0,0,0-15.26-15.26" transform="translate(-43.28)" fill="#71c096"/>
            <path id="Trazado_722309" data-name="Trazado 722309" d="M154.317,30.585a1.011,1.011,0,0,1-.777-.365l-6.913-8.314a1.011,1.011,0,1,1,1.554-1.293l5.877,7.068L160.7,12.891a1.011,1.011,0,1,1,1.844.828l-7.305,16.269a1.011,1.011,0,0,1-.785.588.94.94,0,0,1-.137.009" transform="translate(-47.734 -4.009)" fill="#71c096"/>
          </g>
        </g>
      </g>
    </g>
  </g>
</svg>
