<svg xmlns="http://www.w3.org/2000/svg" xmlns:xlink="http://www.w3.org/1999/xlink" width="118.494" height="112.823" viewBox="0 0 118.494 112.823">
  <defs>
    <clipPath id="clip-path">
      <path id="path1314" d="M0-682.665H78.719v78.719H0Z" transform="translate(0 682.665)"/>
    </clipPath>
  </defs>
  <g id="Grupo_1042730" data-name="Grupo 1042730" transform="translate(-7171 10324)">
    <rect id="Rectángulo_338875" data-name="Rectángulo 338875" width="118.494" height="112.823" rx="10" transform="translate(7171 -10324)" fill="#ea526f"/>
    <g id="g1308" transform="translate(7191 -9624.335)">
      <g id="g1310" transform="translate(0 -682.665)">
        <g id="g1312" clip-path="url(#clip-path)">
          <g id="g1318" transform="translate(9.194 33.954)">
            <path id="path1320" d="M-462.875-65.837h-56.041a4.29,4.29,0,0,1-4.29-4.291,4.29,4.29,0,0,1,4.29-4.291h56.041a9.422,9.422,0,0,0,0,8.581" transform="translate(523.207 74.418)" fill="#f7f7f7"/>
          </g>
          <g id="g1322" transform="translate(13.484 33.954)">
            <path id="path1324" d="M-429.96,0h-4.612a9.422,9.422,0,0,0,0,8.581h4.612a9.422,9.422,0,0,1,0-8.581" transform="translate(486.002)" fill="#efefef"/>
          </g>
          <g id="g1326" transform="translate(6.245 30.38)">
            <path id="path1328" d="M-60.331-120.672a7.807,7.807,0,0,1-5.585-2.333,7.81,7.81,0,0,1-2.278-5.609,7.933,7.933,0,0,1,7.95-7.787H-4.29a2.326,2.326,0,0,1,2.324,2.324,2.326,2.326,0,0,1-2.324,2.324H-60.331a3.22,3.22,0,0,0-3.217,3.217,3.22,3.22,0,0,0,3.217,3.217H-4.29A2.326,2.326,0,0,1-1.967-123a2.326,2.326,0,0,1-2.324,2.324Z" transform="translate(68.195 136.401)" fill="#ff815c"/>
          </g>
          <g id="g1330" transform="translate(5.206 65.411)">
            <path id="path1332" d="M-533.65-65.837h-65.266a4.29,4.29,0,0,1-4.29-4.291,4.29,4.29,0,0,1,4.29-4.291h65.266a9.422,9.422,0,0,0,0,8.581" transform="translate(603.207 74.418)" fill="#f7f7f7"/>
          </g>
          <g id="g1334" transform="translate(69.116 65.411)">
            <path id="path1336" d="M-43.318,0H-47.93a9.422,9.422,0,0,0,0,8.581h4.612a9.422,9.422,0,0,1,0-8.581" transform="translate(48.964)" fill="#efefef"/>
          </g>
          <g id="g1338" transform="translate(1.633 61.837)">
            <path id="path1340" d="M-60.331-120.672a7.807,7.807,0,0,1-5.585-2.333,7.81,7.81,0,0,1-2.278-5.609,7.933,7.933,0,0,1,7.95-7.787H4.935a2.326,2.326,0,0,1,2.324,2.324,2.326,2.326,0,0,1-2.324,2.324H-60.331a3.22,3.22,0,0,0-3.217,3.217,3.22,3.22,0,0,0,3.217,3.217H4.935A2.326,2.326,0,0,1,7.258-123a2.326,2.326,0,0,1-2.324,2.324Z" transform="translate(68.195 136.401)" fill="#ffe66b"/>
          </g>
          <g id="g1342" transform="translate(3.956 49.682)">
            <path id="path1344" d="M0,0H65.266a4.291,4.291,0,0,1,0,8.581H0A9.422,9.422,0,0,0,0,0" fill="#f7f7f7"/>
          </g>
          <g id="g1346" transform="translate(1.633 46.109)">
            <path id="path1348" d="M-17.826-120.671a2.326,2.326,0,0,1-2.323-2.324,2.326,2.326,0,0,1,2.323-2.324H47.44a3.22,3.22,0,0,0,3.217-3.217,3.22,3.22,0,0,0-3.217-3.217H-17.826a2.326,2.326,0,0,1-2.323-2.324,2.326,2.326,0,0,1,2.323-2.323H47.44a7.806,7.806,0,0,1,5.585,2.333,7.81,7.81,0,0,1,2.278,5.609,7.933,7.933,0,0,1-7.95,7.787Z" transform="translate(20.149 136.4)" fill="#c9f0ff"/>
          </g>
          <g id="g1350" transform="translate(64.523 46.109)">
            <path id="path1352" d="M-78.9-17.9a7.807,7.807,0,0,0-5.585-2.333H-89.1A7.807,7.807,0,0,1-83.516-17.9a7.81,7.81,0,0,1,2.278,5.609A7.932,7.932,0,0,1-89.188-4.5h4.612a7.932,7.932,0,0,0,7.95-7.787A7.81,7.81,0,0,0-78.9-17.9" transform="translate(89.188 20.231)" fill="#b5eaff"/>
          </g>
          <g id="g1354" transform="translate(17.835 14.85)">
            <path id="path1356" d="M-330.283-119.148h-43.049l4.612-15.53H-334.9Z" transform="translate(373.332 134.678)" fill="#288a9a"/>
          </g>
          <g id="g1358" transform="translate(3.557 1.153)">
            <path id="path1360" d="M-244.186-3.94l-30.6,8.037a1.649,1.649,0,0,0,0,3.19l30.6,8.037a15.649,15.649,0,0,0,7.951,0l30.6-8.037a1.649,1.649,0,0,0,0-3.19l-30.6-8.037a15.645,15.645,0,0,0-7.951,0" transform="translate(276.014 4.453)" fill="#3498ac"/>
          </g>
          <g id="g1362" transform="translate(30.735 1.153)">
            <path id="path1364" d="M-331.417-65.6l-30.6-8.037a15.646,15.646,0,0,0-7.951,0l-4.649,1.221a15.649,15.649,0,0,1,6.45.316l30.6,8.037a1.649,1.649,0,0,1,0,3.19l6.15-1.537a1.649,1.649,0,0,0,0-3.19" transform="translate(374.614 74.149)" fill="#288a9a"/>
          </g>
          <g id="g1366" transform="translate(46.478 27.038)">
            <path id="path1368" d="M-50.916-76.836h-6.636s0-10.015,3.318-10.015,3.318,10.015,3.318,10.015" transform="translate(57.552 86.85)" fill="#ffe66b"/>
          </g>
          <g id="g1370" transform="translate(14.299 50.756)">
            <path id="path1372" d="M-42.079-120.672l-5.485,2.878V-136.4h5.485Z" transform="translate(47.564 136.401)" fill="#3498ac"/>
          </g>
          <g id="g1374" transform="translate(36.967 6.294)">
            <path id="path1376" d="M-34.982-42.638a4.273,4.273,0,0,1-4.56,0v-3.278a2.28,2.28,0,0,1,2.28-2.28,2.28,2.28,0,0,1,2.28,2.28Z" transform="translate(39.541 48.196)" fill="#ffe66b"/>
          </g>
          <g id="g1378" transform="translate(68.491 35.162)">
            <path id="path1380" d="M-3.959,0a9.462,9.462,0,0,0,.048,6.3" transform="translate(4.475)" fill="none" stroke="#000" stroke-linecap="round" stroke-linejoin="round" stroke-miterlimit="10" stroke-width="1.8"/>
          </g>
          <g id="g1382" transform="translate(52.351 30.38)">
            <path id="path1384" d="M0,0H17.8a2.324,2.324,0,0,1,0,4.647H.764" fill="none" stroke="#000" stroke-linecap="round" stroke-linejoin="round" stroke-miterlimit="10" stroke-width="1.8"/>
          </g>
          <g id="g1386" transform="translate(6.245 30.38)">
            <path id="path1388" d="M-308.678-35.655h-32.37a3.22,3.22,0,0,0-3.217,3.217,3.22,3.22,0,0,0,3.217,3.217h56.041a2.326,2.326,0,0,1,2.324,2.324,2.326,2.326,0,0,1-2.324,2.324h-56.041a7.807,7.807,0,0,1-5.585-2.333,7.81,7.81,0,0,1-2.278-5.609,7.933,7.933,0,0,1,7.95-7.787h33.047" transform="translate(348.912 40.303)" fill="none" stroke="#000" stroke-linecap="round" stroke-linejoin="round" stroke-miterlimit="10" stroke-width="1.8"/>
          </g>
          <g id="g1390" transform="translate(73.729 66.484)">
            <path id="path1392" d="M-4.326,0a9.462,9.462,0,0,0-.048,6.3" transform="translate(4.89)" fill="none" stroke="#000" stroke-linecap="round" stroke-linejoin="round" stroke-miterlimit="10" stroke-width="1.8"/>
          </g>
          <g id="g1394" transform="translate(1.633 61.837)">
            <path id="path1396" d="M-97.175-35.655h-4.8a3.22,3.22,0,0,0-3.217,3.217,3.22,3.22,0,0,0,3.217,3.217h65.266A2.326,2.326,0,0,1-34.387-26.9a2.326,2.326,0,0,1-2.323,2.324h-65.266a7.807,7.807,0,0,1-5.585-2.333,7.81,7.81,0,0,1-2.278-5.609,7.933,7.933,0,0,1,7.95-7.787h4.716" transform="translate(109.84 40.303)" fill="none" stroke="#000" stroke-linecap="round" stroke-linejoin="round" stroke-miterlimit="10" stroke-width="1.8"/>
          </g>
          <g id="g1398" transform="translate(19.783 61.837)">
            <path id="path1400" d="M-332.241,0h11.675a2.326,2.326,0,0,1,2.323,2.324,2.326,2.326,0,0,1-2.323,2.324h-54.979" transform="translate(375.546)" fill="none" stroke="#000" stroke-linecap="round" stroke-linejoin="round" stroke-miterlimit="10" stroke-width="1.8"/>
          </g>
          <g id="g1402" transform="translate(19.9 61.837)">
            <path id="path1404" d="M0,0H37.11" fill="none" stroke="#000" stroke-linecap="round" stroke-linejoin="round" stroke-miterlimit="10" stroke-width="1.8"/>
          </g>
          <g id="g1406" transform="translate(4.432 50.771)">
            <path id="path1408" d="M0-49.132a9.46,9.46,0,0,0,0-6.4" transform="translate(0 55.536)" fill="none" stroke="#000" stroke-linecap="round" stroke-linejoin="round" stroke-miterlimit="10" stroke-width="1.8"/>
          </g>
          <g id="g1410" transform="translate(1.633 46.109)">
            <path id="path1412" d="M-140.151-85.017h49.322a3.221,3.221,0,0,0,3.217-3.217,3.221,3.221,0,0,0-3.217-3.217h-65.266a2.326,2.326,0,0,1-2.323-2.324,2.326,2.326,0,0,1,2.323-2.324h65.266a7.807,7.807,0,0,1,5.585,2.333,7.81,7.81,0,0,1,2.278,5.609,7.932,7.932,0,0,1-7.95,7.787" transform="translate(158.418 96.098)" fill="none" stroke="#000" stroke-linecap="round" stroke-linejoin="round" stroke-miterlimit="10" stroke-width="1.8"/>
          </g>
          <g id="g1414" transform="translate(1.633 57.19)">
            <path id="path1416" d="M-97.174-35.655h-10.342a2.326,2.326,0,0,1-2.323-2.324,2.326,2.326,0,0,1,2.323-2.324h10.342" transform="translate(109.84 40.303)" fill="none" stroke="#000" stroke-linecap="round" stroke-linejoin="round" stroke-miterlimit="10" stroke-width="1.8"/>
          </g>
          <g id="g1418" transform="translate(17.835 17.338)">
            <path id="path1420" d="M0-100.064l3.874-13.042" transform="translate(0 113.106)" fill="none" stroke="#000" stroke-linecap="round" stroke-linejoin="round" stroke-miterlimit="10" stroke-width="1.8"/>
          </g>
          <g id="g1422" transform="translate(57.01 17.338)">
            <path id="path1424" d="M0,0,3.874,13.042" fill="none" stroke="#000" stroke-linecap="round" stroke-linejoin="round" stroke-miterlimit="10" stroke-width="1.8"/>
          </g>
          <g id="g1426" transform="translate(3.557 1.153)">
            <path id="path1428" d="M-112.128-38.625l-13.385,3.516a1.649,1.649,0,0,0,0,3.19l30.6,8.037a15.649,15.649,0,0,0,7.951,0l30.6-8.037a1.649,1.649,0,0,0,0-3.19l-30.6-8.037a15.649,15.649,0,0,0-7.951,0l-11.377,2.988" transform="translate(126.743 43.66)" fill="none" stroke="#000" stroke-linecap="round" stroke-linejoin="round" stroke-miterlimit="10" stroke-width="1.8"/>
          </g>
          <g id="g1430" transform="translate(41.575 11.798)">
            <path id="path1432" d="M0,0,8.221,7.455v7.786" fill="none" stroke="#000" stroke-linecap="round" stroke-linejoin="round" stroke-miterlimit="10" stroke-width="1.8"/>
          </g>
          <g id="g1434" transform="translate(46.478 27.038)">
            <path id="path1436" d="M-50.916-76.836h-6.636s0-10.015,3.318-10.015S-50.916-76.836-50.916-76.836Z" transform="translate(57.552 86.85)" fill="none" stroke="#000" stroke-linecap="round" stroke-linejoin="round" stroke-miterlimit="10" stroke-width="1.8"/>
          </g>
          <g id="g1438" transform="translate(14.299 50.756)">
            <path id="path1440" d="M-42.079-120.672l-5.485,2.878V-136.4h5.485Z" transform="translate(47.564 136.401)" fill="none" stroke="#000" stroke-linecap="round" stroke-linejoin="round" stroke-miterlimit="10" stroke-width="1.8"/>
          </g>
          <g id="g1442" transform="translate(36.967 6.294)">
            <path id="path1444" d="M-34.982-42.638a4.273,4.273,0,0,1-4.56,0v-3.278a2.28,2.28,0,0,1,2.28-2.28,2.28,2.28,0,0,1,2.28,2.28Z" transform="translate(39.541 48.196)" fill="none" stroke="#000" stroke-linecap="round" stroke-linejoin="round" stroke-miterlimit="10" stroke-width="1.8"/>
          </g>
        </g>
      </g>
    </g>
  </g>
</svg>
