<svg xmlns="http://www.w3.org/2000/svg" width="79.434" height="85.444" viewBox="0 0 79.434 85.444">
  <g id="Grupo_1042664" data-name="Grupo 1042664" transform="translate(-344 -2322.556)">
    <rect id="Rectángulo_348347" data-name="Rectángulo 348347" width="62" height="52" rx="10" transform="translate(344 2356)" fill="#ff93a8"/>
    <g id="tela_1_" data-name="tela (1)" transform="translate(327.869 2316.056)">
      <g id="Grupo_1042658" data-name="Grupo 1042658" transform="translate(30.131 7.5)">
        <g id="Grupo_1042657" data-name="Grupo 1042657" transform="translate(0 0)">
          <g id="Grupo_1042654" data-name="Grupo 1042654" transform="translate(0 27.925)">
            <path id="Trazado_771124" data-name="Trazado 771124" d="M103.385,214.764a6.974,6.974,0,0,0-5.336-11.485H76.593a6.97,6.97,0,0,0-4.839,1.95h0l-.027.027q-.074.072-.146.146L42.349,234.658l32.262,8.833s28.514-28.422,28.76-28.711C103.389,214.77,103.393,214.765,103.385,214.764Z" transform="translate(-40.606 -203.279)" fill="#ffbee7"/>
            <path id="Trazado_771125" data-name="Trazado 771125" d="M37.122,420.572a6.981,6.981,0,1,1,0-13.962H58.578a6.981,6.981,0,1,1,0,13.962Z" transform="translate(-30.131 -377.608)" fill="#fe93d3"/>
            <path id="Trazado_771126" data-name="Trazado 771126" d="M195.276,406.61h-5.705a6.981,6.981,0,1,1,0,13.962h5.705a6.981,6.981,0,1,0,0-13.962Z" transform="translate(-166.829 -377.608)" fill="#fe73c5"/>
            <path id="Trazado_771127" data-name="Trazado 771127" d="M85.419,442.914H63.956a2.523,2.523,0,0,1-2.523-2.523h0a2.523,2.523,0,0,1,2.523-2.523H85.419a2.523,2.523,0,0,1,2.523,2.523h0A2.523,2.523,0,0,1,85.419,442.914Z" transform="translate(-56.968 -404.408)" fill="#f3f0f3"/>
          </g>
          <g id="Grupo_1042655" data-name="Grupo 1042655" transform="translate(0 13.962)">
            <path id="Trazado_771128" data-name="Trazado 771128" d="M103.385,116.874a6.974,6.974,0,0,0-5.336-11.485H76.593a6.97,6.97,0,0,0-4.839,1.95h0l-.027.027q-.074.072-.146.146L42.349,136.768,74.611,145.6s28.514-28.422,28.76-28.711C103.389,116.88,103.393,116.875,103.385,116.874Z" transform="translate(-40.606 -105.389)" fill="#c8effe"/>
            <path id="Trazado_771129" data-name="Trazado 771129" d="M37.122,322.682a6.981,6.981,0,1,1,0-13.962H58.578a6.981,6.981,0,1,1,0,13.962Z" transform="translate(-30.131 -279.718)" fill="#62dbfb"/>
            <path id="Trazado_771130" data-name="Trazado 771130" d="M195.276,308.721h-5.705a6.981,6.981,0,1,1,0,13.962h5.705a6.981,6.981,0,1,0,0-13.962Z" transform="translate(-166.829 -279.719)" fill="#01d0fb"/>
            <path id="Trazado_771131" data-name="Trazado 771131" d="M85.419,345.025H63.956a2.523,2.523,0,0,1-2.523-2.523h0a2.523,2.523,0,0,1,2.523-2.523H85.419a2.523,2.523,0,0,1,2.523,2.523h0A2.523,2.523,0,0,1,85.419,345.025Z" transform="translate(-56.968 -306.519)" fill="#f3f0f3"/>
          </g>
          <g id="Grupo_1042656" data-name="Grupo 1042656">
            <path id="Trazado_771132" data-name="Trazado 771132" d="M103.385,18.985A6.974,6.974,0,0,0,98.049,7.5H76.593A7.035,7.035,0,0,0,71.58,9.623L42.349,38.879l32.262,8.833S103.125,19.289,103.371,19Q103.4,18.987,103.385,18.985Z" transform="translate(-40.606 -7.5)" fill="#fef0ae"/>
            <path id="Trazado_771133" data-name="Trazado 771133" d="M37.122,224.793a6.981,6.981,0,1,1,0-13.962H58.578a6.981,6.981,0,1,1,0,13.962Z" transform="translate(-30.131 -181.829)" fill="#fee45a"/>
            <path id="Trazado_771134" data-name="Trazado 771134" d="M195.276,210.831h-5.705a6.981,6.981,0,1,1,0,13.962h5.705a6.981,6.981,0,1,0,0-13.962Z" transform="translate(-166.829 -181.829)" fill="#fedf30"/>
            <path id="Trazado_771135" data-name="Trazado 771135" d="M85.419,247.135H63.956a2.523,2.523,0,0,1-2.523-2.523h0a2.523,2.523,0,0,1,2.523-2.523H85.419a2.523,2.523,0,0,1,2.523,2.523h0A2.523,2.523,0,0,1,85.419,247.135Z" transform="translate(-56.968 -208.629)" fill="#f3f0f3"/>
          </g>
        </g>
      </g>
      <g id="Grupo_1042663" data-name="Grupo 1042663" transform="translate(30.131 7.5)">
        <g id="Grupo_1042662" data-name="Grupo 1042662" transform="translate(0 0)">
          <g id="Grupo_1042659" data-name="Grupo 1042659" transform="translate(0 28.543)">
            <path id="Trazado_771136" data-name="Trazado 771136" d="M268.538,247.21s28.514-28.422,28.76-28.711c.017-.009.022-.014.013-.015a6.969,6.969,0,0,0-2.459-10.866" transform="translate(-234.533 -207.617)" fill="none" stroke="#000" stroke-linecap="round" stroke-linejoin="round" stroke-miterlimit="10" stroke-width="2"/>
            <path id="Trazado_771137" data-name="Trazado 771137" d="M37.122,420.572a6.981,6.981,0,1,1,0-13.962H58.578a6.981,6.981,0,1,1,0,13.962Z" transform="translate(-30.131 -378.227)" fill="none" stroke="#000" stroke-linecap="round" stroke-linejoin="round" stroke-miterlimit="10" stroke-width="2"/>
            <path id="Trazado_771138" data-name="Trazado 771138" d="M78.63,442.914H63.956a2.523,2.523,0,0,1-2.523-2.523h0a2.523,2.523,0,0,1,2.523-2.523H85.419a2.523,2.523,0,0,1,2.523,2.523h0a2.523,2.523,0,0,1-2.523,2.523H83.027" transform="translate(-56.968 -405.027)" fill="none" stroke="#000" stroke-linecap="round" stroke-linejoin="round" stroke-miterlimit="10" stroke-width="2"/>
          </g>
          <g id="Grupo_1042660" data-name="Grupo 1042660" transform="translate(0 14.399)">
            <path id="Trazado_771139" data-name="Trazado 771139" d="M268.538,148.225s28.514-28.422,28.76-28.711c.017-.009.022-.014.013-.015a6.97,6.97,0,0,0-2.9-11.048" transform="translate(-234.533 -108.45)" fill="none" stroke="#000" stroke-linecap="round" stroke-linejoin="round" stroke-miterlimit="10" stroke-width="2"/>
            <path id="Trazado_771140" data-name="Trazado 771140" d="M37.122,322.682a6.981,6.981,0,1,1,0-13.962H58.578a6.981,6.981,0,1,1,0,13.962Z" transform="translate(-30.131 -280.155)" fill="none" stroke="#000" stroke-linecap="round" stroke-linejoin="round" stroke-miterlimit="10" stroke-width="2"/>
            <path id="Trazado_771141" data-name="Trazado 771141" d="M85.419,345.025H63.956a2.523,2.523,0,0,1-2.523-2.523h0a2.523,2.523,0,0,1,2.523-2.523H85.419a2.523,2.523,0,0,1,2.523,2.523h0A2.523,2.523,0,0,1,85.419,345.025Z" transform="translate(-56.968 -306.956)" fill="none" stroke="#000" stroke-linecap="round" stroke-linejoin="round" stroke-miterlimit="10" stroke-width="2"/>
          </g>
          <g id="Grupo_1042661" data-name="Grupo 1042661">
            <line id="Línea_836" data-name="Línea 836" x1="23.281" y2="23.301" transform="translate(1.743 8.077)" fill="none" stroke="#000" stroke-linecap="round" stroke-linejoin="round" stroke-miterlimit="10" stroke-width="2"/>
            <path id="Trazado_771142" data-name="Trazado 771142" d="M231.93,47.712S260.444,19.29,260.69,19c.017-.009.022-.014.013-.015A6.974,6.974,0,0,0,255.368,7.5H233.912A7.035,7.035,0,0,0,228.9,9.624l-3.058,3.061" transform="translate(-197.925 -7.501)" fill="none" stroke="#000" stroke-linecap="round" stroke-linejoin="round" stroke-miterlimit="10" stroke-width="2"/>
            <path id="Trazado_771143" data-name="Trazado 771143" d="M37.122,224.793a6.981,6.981,0,1,1,0-13.962H58.578a6.981,6.981,0,1,1,0,13.962Z" transform="translate(-30.131 -181.829)" fill="none" stroke="#000" stroke-linecap="round" stroke-linejoin="round" stroke-miterlimit="10" stroke-width="2"/>
            <path id="Trazado_771144" data-name="Trazado 771144" d="M85.419,247.135H63.956a2.523,2.523,0,0,1-2.523-2.523h0a2.523,2.523,0,0,1,2.523-2.523H85.419a2.523,2.523,0,0,1,2.523,2.523h0A2.523,2.523,0,0,1,85.419,247.135Z" transform="translate(-56.968 -208.63)" fill="none" stroke="#000" stroke-linecap="round" stroke-linejoin="round" stroke-miterlimit="10" stroke-width="2"/>
          </g>
        </g>
        <line id="Línea_837" data-name="Línea 837" y1="18.993" x2="19.42" transform="translate(37.722 7.845)" fill="none" stroke="#000" stroke-linecap="round" stroke-linejoin="round" stroke-miterlimit="10" stroke-width="2"/>
      </g>
    </g>
  </g>
</svg>
