<svg xmlns="http://www.w3.org/2000/svg" width="75.827" height="108.561" viewBox="0 0 75.827 108.561">
  <g id="Grupo_1042714" data-name="Grupo 1042714" transform="translate(-344 -5077.439)">
    <g id="Grupo_1042705" data-name="Grupo 1042705" transform="translate(0 2778)">
      <rect id="Rectángulo_348347" data-name="Rectángulo 348347" width="62" height="52" rx="10" transform="translate(344 2356)" fill="#ff93a8"/>
    </g>
    <g id="cocinero" transform="translate(348.445 5077.439)">
      <g id="Grupo_1042713" data-name="Grupo 1042713">
        <g id="Grupo_1042712" data-name="Grupo 1042712">
          <g id="Grupo_1042707" data-name="Grupo 1042707" transform="translate(6.3 45.769)">
            <g id="Grupo_1042706" data-name="Grupo 1042706">
              <path id="Trazado_771274" data-name="Trazado 771274" d="M96.148,335.378v-9.3a8.721,8.721,0,0,0-5.94-8.265l-12.62-4.247a2.907,2.907,0,0,1-1.98-2.755v-4.734H62.673v4.734a2.907,2.907,0,0,1-1.98,2.755l-12.62,4.247a8.721,8.721,0,0,0-5.94,8.265v9.3a1.5,1.5,0,0,0,1.5,1.5H94.653A1.5,1.5,0,0,0,96.148,335.378Z" transform="translate(-42.133 -306.082)" fill="#f8f5f9"/>
            </g>
          </g>
          <path id="Trazado_771275" data-name="Trazado 771275" d="M175.9,313.945l-3.356-.374a2.907,2.907,0,0,1-1.98-2.755v-4.734H159.875v4.734a2.907,2.907,0,0,1-1.98,2.755l-1.469.494,7.243,5.612Z" transform="translate(-133.035 -260.313)" fill="#f1ccbd"/>
          <path id="Trazado_771276" data-name="Trazado 771276" d="M236,306.083v6.977a2.907,2.907,0,0,0,1.98,2.755l.937.315,4.661-2.184-1.113-.374a2.907,2.907,0,0,1-1.98-2.755v-4.734Z" transform="translate(-200.71 -260.314)" fill="#eaad9c"/>
          <g id="Grupo_1042709" data-name="Grupo 1042709">
            <path id="Trazado_771277" data-name="Trazado 771277" d="M140,172.375s-4.576.259-6.468-.661a14.345,14.345,0,0,1-8.081-12.908v-8.733l14.343-6.71,14.343,6.71v8.733a14.342,14.342,0,0,1-7.669,12.7C144.472,172.556,142.407,172.375,140,172.375Z" transform="translate(-106.689 -121.926)" fill="#f1ccbd"/>
            <path id="Trazado_771278" data-name="Trazado 771278" d="M195.612,173.234V184.21a13.258,13.258,0,0,1-3.479,9.365c-4.976,5.219-12.287,3.626-12.64,3.543a14.51,14.51,0,0,0,4.961,1.377s.666.058,1.3.058A14.343,14.343,0,0,0,200.1,184.21v-8.733Z" transform="translate(-152.653 -147.33)" fill="#eaad9c"/>
            <path id="Trazado_771279" data-name="Trazado 771279" d="M318.276,214.08h-.983V208.53h.983a2.775,2.775,0,1,1,0,5.551Z" transform="translate(-269.847 -177.348)" fill="#f1ccbd"/>
            <path id="Trazado_771280" data-name="Trazado 771280" d="M103.091,214.08h.983V208.53h-.983a2.775,2.775,0,1,0,0,5.551Z" transform="translate(-85.316 -177.348)" fill="#eaad9c"/>
            <path id="Trazado_771281" data-name="Trazado 771281" fill="#fff" stroke="#000" stroke-linecap="round" stroke-linejoin="round" stroke-miterlimit="10" stroke-width="15"/>
            <path id="Trazado_771282" data-name="Trazado 771282" fill="#fff" stroke="#000" stroke-linecap="round" stroke-linejoin="round" stroke-miterlimit="10" stroke-width="15"/>
            <path id="Trazado_771283" data-name="Trazado 771283" d="M140.975,17.436a7.9,7.9,0,0,0-9.736-6.8,1.038,1.038,0,0,1-1.038-.34,7.9,7.9,0,0,0-12.054,0,1.038,1.038,0,0,1-1.038.34,7.9,7.9,0,0,0-6.375,14.173,1.039,1.039,0,0,1,.43,1.034l-1.129,8.684a101.809,101.809,0,0,1,28.687,0c-.389-2.24-.778-6.717-1.167-8.957a1.038,1.038,0,0,1,.386-1A7.893,7.893,0,0,0,140.975,17.436Z" transform="translate(-91.277 -6.379)" fill="#f8f5f9"/>
            <g id="Grupo_1042708" data-name="Grupo 1042708" transform="translate(39.962 4.029)">
              <path id="Trazado_771284" data-name="Trazado 771284" d="M267.248,27.171a.3.3,0,0,0,.2.284A7.9,7.9,0,0,1,269.467,41.1a1.04,1.04,0,0,0-.39,1c.36,2.071.72,6.053,1.079,8.413,1.6.154,3.127.339,4.574.545-.389-2.241-.778-6.719-1.168-8.958a1.035,1.035,0,0,1,.386-1,7.9,7.9,0,0,0-6.7-13.934Z" transform="translate(-267.248 -26.944)" fill="#dad9e4"/>
            </g>
          </g>
          <path id="Trazado_771285" data-name="Trazado 771285" d="M204.636,362.54l-11.508-3.872L179.8,364.911a5.426,5.426,0,0,0-3.124,4.914V381.6h32.4a1.5,1.5,0,0,0,1.5-1.5v-9.3A8.72,8.72,0,0,0,204.636,362.54Z" transform="translate(-150.261 -305.035)" fill="#dbd8ea"/>
          <path id="Trazado_771286" data-name="Trazado 771286" d="M267.108,364.783a8.721,8.721,0,0,1,5.94,8.265V381.6h2.991a1.5,1.5,0,0,0,1.5-1.5v-9.3a8.72,8.72,0,0,0-5.94-8.265l-11.508-3.872-4.676,2.191Z" transform="translate(-217.218 -305.035)" fill="#d0cde4"/>
          <g id="Grupo_1042711" data-name="Grupo 1042711" transform="translate(52.317 38.131)">
            <g id="Grupo_1042710" data-name="Grupo 1042710">
              <path id="Trazado_771287" data-name="Trazado 771287" d="M349.87,257.243v10.766a2.243,2.243,0,0,0,2.243,2.243h1.346A2.243,2.243,0,0,1,355.7,272.5v13.458a2.243,2.243,0,0,0,2.243,2.243h1.794a2.243,2.243,0,0,0,2.243-2.243V272.5a2.243,2.243,0,0,1,2.243-2.243h1.346a2.243,2.243,0,0,0,2.243-2.243V257.243A2.243,2.243,0,0,0,365.571,255H352.113A2.243,2.243,0,0,0,349.87,257.243Z" transform="translate(-349.87 -255)" fill="#ebf4ff"/>
            </g>
            <path id="Trazado_771288" data-name="Trazado 771288" d="M377.628,436.219h-6.169a1.732,1.732,0,0,1-1.732-1.732v-8.542a1.732,1.732,0,0,1,1.732-1.732h6.169a4.1,4.1,0,0,1,4.1,4.1v3.8A4.1,4.1,0,0,1,377.628,436.219Z" transform="translate(-366.758 -398.91)" fill="#f1ccbd"/>
            <path id="Trazado_771289" data-name="Trazado 771289" d="M397.052,424.214h-4.486a4.1,4.1,0,0,1,4.1,4.1v3.8a4.1,4.1,0,0,1-4.1,4.1h4.486a4.1,4.1,0,0,0,4.1-4.1v-3.8A4.1,4.1,0,0,0,397.052,424.214Z" transform="translate(-386.182 -398.911)" fill="#eaad9c"/>
          </g>
        </g>
      </g>
      <path id="Trazado_771290" data-name="Trazado 771290" d="M46.966,67.589a1.121,1.121,0,0,0-1.121,1.121v6.729a1.121,1.121,0,1,0,2.243,0V68.71A1.121,1.121,0,0,0,46.966,67.589Zm14.753,3.738a1.121,1.121,0,1,0,1.122,1.121A1.122,1.122,0,0,0,61.719,71.327Zm6.729,0a1.121,1.121,0,1,0,1.122,1.121A1.122,1.122,0,0,0,68.448,71.327ZM61.719,64.6A1.121,1.121,0,1,0,62.84,65.72,1.122,1.122,0,0,0,61.719,64.6Zm6.729,0a1.121,1.121,0,1,0,1.122,1.121A1.122,1.122,0,0,0,68.448,64.6ZM97.469,37.009H84.011a3.368,3.368,0,0,0-3.364,3.364V51.14A3.368,3.368,0,0,0,84.011,54.5h1.346a1.123,1.123,0,0,1,1.121,1.121v1.938a9.879,9.879,0,0,0-2.294-1.123L71.564,52.195a1.841,1.841,0,0,1-1.216-1.962,15.482,15.482,0,0,0,7.639-12.381,3.9,3.9,0,0,0,.031-7.787c0-.22.013-1.9-.013-2.081-.163-1.126-.385-2.78-.578-4.443-.19-1.644-.387-3.343-.585-4.494a8.992,8.992,0,0,0,3.422-8.108A8.869,8.869,0,0,0,79.3,7.764,1.121,1.121,0,1,0,77.313,8.8a6.636,6.636,0,0,1,.72,2.375,6.766,6.766,0,0,1-2.6,6.125,2.154,2.154,0,0,0-.806,2.08c.189,1.089.385,2.78.575,4.415.121,1.042.244,2.106.368,3.038a102.917,102.917,0,0,0-26.057,0l.937-7.212a2.167,2.167,0,0,0-.9-2.121,6.757,6.757,0,0,1-2.918-5.892,6.78,6.78,0,0,1,8.387-6.27,2.149,2.149,0,0,0,2.161-.7,6.775,6.775,0,0,1,10.343,0,2.148,2.148,0,0,0,2.161.7A6.807,6.807,0,0,1,72.135,5.2a6.687,6.687,0,0,1,1.973.558,1.121,1.121,0,1,0,.933-2.039,8.914,8.914,0,0,0-2.635-.745,9.035,9.035,0,0,0-3.208.178,9.018,9.018,0,0,0-13.7,0,9.023,9.023,0,0,0-7.271,16.167c-.016.089-1.132,8.7-1.135,8.781,0,.049,0,1.911,0,1.962a3.9,3.9,0,0,0,.031,7.787,15.343,15.343,0,0,0,1.055,4.731,1.121,1.121,0,1,0,2.085-.827,13.159,13.159,0,0,1-.927-4.875V29.129a100.246,100.246,0,0,1,26.444,0V36.88a13.222,13.222,0,0,1-22.951,8.954,1.122,1.122,0,0,0-1.65,1.52,15.453,15.453,0,0,0,3.995,3.109v.04a1.783,1.783,0,0,1-1.216,1.692L41.332,56.441a9.836,9.836,0,0,0-6.7,9.329v9.669a1.121,1.121,0,0,0,2.243,0V65.77a7.6,7.6,0,0,1,5.176-7.2l10.581-3.561,5.345,4.142a6.576,6.576,0,0,0-3.226,5.641v10.65a1.121,1.121,0,1,0,2.243,0V64.789a4.321,4.321,0,0,1,2.478-3.9l12.918-6.052,11.08,3.728a7.627,7.627,0,0,1,3.01,1.892v1.853h-.009a2.857,2.857,0,0,0-2.853,2.853v8.542a2.857,2.857,0,0,0,2.853,2.853h6.169a5.232,5.232,0,0,0,5.226-5.226v-3.8A5.23,5.23,0,0,0,95,62.88V55.626A1.123,1.123,0,0,1,96.123,54.5h1.346a3.368,3.368,0,0,0,3.364-3.364V40.374a3.368,3.368,0,0,0-3.364-3.364Zm-19.451-4.7a1.654,1.654,0,0,1,0,3.3Zm-30.93,3.3a1.654,1.654,0,0,1,0-3.3ZM60.23,58.058l-5.082-3.937a4.021,4.021,0,0,0,2.157-2.7,15.419,15.419,0,0,0,10.879-.139,4.021,4.021,0,0,0,1.444,2.372Zm35.391,9.48v3.8a2.986,2.986,0,0,1-2.983,2.983H86.469a.611.611,0,0,1-.61-.61V65.166a.611.611,0,0,1,.61-.61h6.169A2.986,2.986,0,0,1,95.621,67.538Zm2.969-16.4a1.123,1.123,0,0,1-1.122,1.121H96.123a3.368,3.368,0,0,0-3.364,3.364v6.689c-.108,0-3.919,0-4.037,0V55.626a3.368,3.368,0,0,0-3.364-3.364H84.011a1.123,1.123,0,0,1-1.121-1.121V40.374a1.123,1.123,0,0,1,1.121-1.121H97.469a1.123,1.123,0,0,1,1.122,1.121ZM61.226,15.047v5.377a1.121,1.121,0,1,0,2.243,0V15.047a1.121,1.121,0,1,0-2.243,0Zm6.8-.431-2.236,5.377a1.121,1.121,0,0,0,2.071.861l2.236-5.377a1.121,1.121,0,0,0-2.071-.861Zm2.195,21.652V33.953a1.121,1.121,0,0,0-2.243,0v2.315a1.121,1.121,0,0,0,2.243,0ZM86.254,41.5a1.121,1.121,0,0,0-1.121,1.121V48.9a1.121,1.121,0,1,0,2.243,0v-6.28A1.121,1.121,0,0,0,86.254,41.5ZM55.208,14.011a1.121,1.121,0,0,0-.6,1.466l2.236,5.377a1.121,1.121,0,0,0,2.071-.861l-2.236-5.377a1.122,1.122,0,0,0-1.466-.6ZM90.74,41.5a1.121,1.121,0,0,0-1.122,1.121V48.9a1.121,1.121,0,1,0,2.243,0v-6.28A1.121,1.121,0,0,0,90.74,41.5Zm4.486,0A1.121,1.121,0,0,0,94.1,42.617V48.9a1.121,1.121,0,1,0,2.243,0v-6.28A1.121,1.121,0,0,0,95.226,41.5ZM62.718,43.939a4.609,4.609,0,0,0,2.506-.852,1.121,1.121,0,0,0-1.3-1.829,2.359,2.359,0,0,1-2.748,0,1.121,1.121,0,0,0-1.3,1.83,5.163,5.163,0,0,0,2.836.851Zm-5.586-7.671V33.953a1.121,1.121,0,1,0-2.243,0v2.315a1.121,1.121,0,1,0,2.243,0Z" transform="translate(-29.451 0)"/>
    </g>
  </g>
</svg>
