<svg xmlns="http://www.w3.org/2000/svg" xmlns:xlink="http://www.w3.org/1999/xlink" width="380.122" height="322.346" viewBox="0 0 380.122 322.346">
  <defs>
    <clipPath id="clip-path">
      <path id="Trazado_113926" data-name="Trazado 113926" d="M73.172,0a73.172,73.172,0,1,0,73.174,73.172A73.172,73.172,0,0,0,73.172,0Z" transform="translate(0 -0.001)" fill="#b3eeef"/>
    </clipPath>
    <clipPath id="clip-path-2">
      <path id="Trazado_113926-2" data-name="Trazado 113926" d="M35.259,0A35.258,35.258,0,1,1,0,35.259,35.258,35.258,0,0,1,35.259,0Z" transform="translate(0 -0.001)" fill="#1448d3"/>
    </clipPath>
    <clipPath id="clip-path-3">
      <rect id="Rectángulo_344900" data-name="Rectángulo 344900" width="102.755" height="287.31" fill="none"/>
    </clipPath>
    <clipPath id="clip-path-5">
      <rect id="Rectángulo_344895" data-name="Rectángulo 344895" width="3.181" height="2.03" fill="none"/>
    </clipPath>
    <clipPath id="clip-path-6">
      <rect id="Rectángulo_344896" data-name="Rectángulo 344896" width="4.625" height="2.047" fill="none"/>
    </clipPath>
  </defs>
  <g id="Grupo_1042760" data-name="Grupo 1042760" transform="translate(-167 -5396.653)">
    <path id="Rectángulo_33771" data-name="Rectángulo 33771" d="M176,0h24.253a176,176,0,0,1,176,176V294.926a0,0,0,0,1,0,0H0a0,0,0,0,1,0,0V176A176,176,0,0,1,176,0Z" transform="translate(170.869 5424.073)" fill="#b3eeef"/>
    <g id="Grupo_80252" data-name="Grupo 80252" transform="translate(167 5397.168)">
      <g id="Grupo_80252-2" data-name="Grupo 80252" clip-path="url(#clip-path)">
        <path id="Trazado_113845" data-name="Trazado 113845" d="M3.852,1.925A1.926,1.926,0,1,0,1.927,3.851,1.925,1.925,0,0,0,3.852,1.925" transform="translate(0 -0.002)" fill="#b3eeef"/>
        <path id="Trazado_113846" data-name="Trazado 113846" d="M13.927,1.925A1.925,1.925,0,1,0,12,3.851a1.925,1.925,0,0,0,1.925-1.925" transform="translate(7.737 -0.002)" fill="#b3eeef"/>
        <path id="Trazado_113847" data-name="Trazado 113847" d="M24,1.925a1.925,1.925,0,1,0-1.925,1.925A1.925,1.925,0,0,0,24,1.925" transform="translate(15.474 -0.002)" fill="#b3eeef"/>
        <path id="Trazado_113848" data-name="Trazado 113848" d="M34.077,1.925a1.926,1.926,0,1,0-1.925,1.925,1.925,1.925,0,0,0,1.925-1.925" transform="translate(23.21 -0.002)" fill="#b3eeef"/>
        <path id="Trazado_113849" data-name="Trazado 113849" d="M44.152,1.925a1.925,1.925,0,1,0-1.925,1.925,1.925,1.925,0,0,0,1.925-1.925" transform="translate(30.948 -0.002)" fill="#b3eeef"/>
        <path id="Trazado_113850" data-name="Trazado 113850" d="M54.227,1.925A1.925,1.925,0,1,0,52.3,3.851a1.925,1.925,0,0,0,1.925-1.925" transform="translate(38.684 -0.002)" fill="#b3eeef"/>
        <path id="Trazado_113851" data-name="Trazado 113851" d="M64.3,1.925a1.926,1.926,0,1,0-1.925,1.925A1.925,1.925,0,0,0,64.3,1.925" transform="translate(46.42 -0.002)" fill="#b3eeef"/>
        <path id="Trazado_113852" data-name="Trazado 113852" d="M74.377,1.925a1.925,1.925,0,1,0-1.925,1.925,1.925,1.925,0,0,0,1.925-1.925" transform="translate(54.158 -0.002)" fill="#b3eeef"/>
        <path id="Trazado_113853" data-name="Trazado 113853" d="M84.452,1.925a1.926,1.926,0,1,0-1.925,1.925,1.925,1.925,0,0,0,1.925-1.925" transform="translate(61.894 -0.002)" fill="#b3eeef"/>
        <path id="Trazado_113854" data-name="Trazado 113854" d="M3.852,12a1.926,1.926,0,1,0-1.925,1.925A1.925,1.925,0,0,0,3.852,12" transform="translate(0 7.735)" fill="#b3eeef"/>
        <path id="Trazado_113855" data-name="Trazado 113855" d="M13.927,12A1.925,1.925,0,1,0,12,13.926,1.925,1.925,0,0,0,13.927,12" transform="translate(7.737 7.735)" fill="#b3eeef"/>
        <path id="Trazado_113856" data-name="Trazado 113856" d="M24,12a1.925,1.925,0,1,0-1.925,1.925A1.925,1.925,0,0,0,24,12" transform="translate(15.474 7.735)" fill="#b3eeef"/>
        <path id="Trazado_113857" data-name="Trazado 113857" d="M34.077,12a1.926,1.926,0,1,0-1.925,1.925A1.925,1.925,0,0,0,34.077,12" transform="translate(23.21 7.735)" fill="#b3eeef"/>
        <path id="Trazado_113858" data-name="Trazado 113858" d="M44.152,12a1.925,1.925,0,1,0-1.925,1.925A1.925,1.925,0,0,0,44.152,12" transform="translate(30.948 7.735)" fill="#b3eeef"/>
        <path id="Trazado_113859" data-name="Trazado 113859" d="M54.227,12A1.925,1.925,0,1,0,52.3,13.926,1.925,1.925,0,0,0,54.227,12" transform="translate(38.684 7.735)" fill="#b3eeef"/>
        <path id="Trazado_113860" data-name="Trazado 113860" d="M64.3,12a1.926,1.926,0,1,0-1.925,1.925A1.925,1.925,0,0,0,64.3,12" transform="translate(46.42 7.735)" fill="#b3eeef"/>
        <path id="Trazado_113861" data-name="Trazado 113861" d="M74.377,12a1.925,1.925,0,1,0-1.925,1.925A1.925,1.925,0,0,0,74.377,12" transform="translate(54.158 7.735)" fill="#b3eeef"/>
        <path id="Trazado_113862" data-name="Trazado 113862" d="M84.452,12a1.926,1.926,0,1,0-1.925,1.925A1.925,1.925,0,0,0,84.452,12" transform="translate(61.894 7.735)" fill="#b3eeef"/>
        <path id="Trazado_113863" data-name="Trazado 113863" d="M3.852,22.075A1.926,1.926,0,1,0,1.927,24a1.925,1.925,0,0,0,1.925-1.925" transform="translate(0 15.472)" fill="#b3eeef"/>
        <path id="Trazado_113864" data-name="Trazado 113864" d="M13.927,22.075A1.925,1.925,0,1,0,12,24a1.925,1.925,0,0,0,1.925-1.925" transform="translate(7.737 15.472)" fill="#b3eeef"/>
        <path id="Trazado_113865" data-name="Trazado 113865" d="M24,22.075A1.925,1.925,0,1,0,22.076,24,1.925,1.925,0,0,0,24,22.075" transform="translate(15.474 15.472)" fill="#b3eeef"/>
        <path id="Trazado_113866" data-name="Trazado 113866" d="M34.077,22.075A1.926,1.926,0,1,0,32.152,24a1.925,1.925,0,0,0,1.925-1.925" transform="translate(23.21 15.472)" fill="#b3eeef"/>
        <path id="Trazado_113867" data-name="Trazado 113867" d="M44.152,22.075A1.925,1.925,0,1,0,42.226,24a1.925,1.925,0,0,0,1.925-1.925" transform="translate(30.948 15.472)" fill="#b3eeef"/>
        <path id="Trazado_113868" data-name="Trazado 113868" d="M54.227,22.075A1.925,1.925,0,1,0,52.3,24a1.925,1.925,0,0,0,1.925-1.925" transform="translate(38.684 15.472)" fill="#b3eeef"/>
        <path id="Trazado_113869" data-name="Trazado 113869" d="M64.3,22.075A1.926,1.926,0,1,0,62.377,24,1.925,1.925,0,0,0,64.3,22.075" transform="translate(46.42 15.472)" fill="#b3eeef"/>
        <path id="Trazado_113870" data-name="Trazado 113870" d="M74.377,22.075A1.925,1.925,0,1,0,72.451,24a1.925,1.925,0,0,0,1.925-1.925" transform="translate(54.158 15.472)" fill="#b3eeef"/>
        <path id="Trazado_113871" data-name="Trazado 113871" d="M84.452,22.075A1.926,1.926,0,1,0,82.527,24a1.925,1.925,0,0,0,1.925-1.925" transform="translate(61.894 15.472)" fill="#b3eeef"/>
        <path id="Trazado_113872" data-name="Trazado 113872" d="M3.852,32.15a1.926,1.926,0,1,0-1.925,1.925A1.925,1.925,0,0,0,3.852,32.15" transform="translate(0 23.208)" fill="#b3eeef"/>
        <path id="Trazado_113873" data-name="Trazado 113873" d="M13.927,32.15A1.925,1.925,0,1,0,12,34.076a1.925,1.925,0,0,0,1.925-1.925" transform="translate(7.737 23.208)" fill="#b3eeef"/>
        <path id="Trazado_113874" data-name="Trazado 113874" d="M24,32.15a1.925,1.925,0,1,0-1.925,1.925A1.925,1.925,0,0,0,24,32.15" transform="translate(15.474 23.208)" fill="#b3eeef"/>
        <path id="Trazado_113875" data-name="Trazado 113875" d="M34.077,32.15a1.926,1.926,0,1,0-1.925,1.925,1.925,1.925,0,0,0,1.925-1.925" transform="translate(23.21 23.208)" fill="#b3eeef"/>
        <path id="Trazado_113876" data-name="Trazado 113876" d="M44.152,32.15a1.925,1.925,0,1,0-1.925,1.925,1.925,1.925,0,0,0,1.925-1.925" transform="translate(30.948 23.208)" fill="#b3eeef"/>
        <path id="Trazado_113877" data-name="Trazado 113877" d="M54.227,32.15A1.925,1.925,0,1,0,52.3,34.076a1.925,1.925,0,0,0,1.925-1.925" transform="translate(38.684 23.208)" fill="#b3eeef"/>
        <path id="Trazado_113878" data-name="Trazado 113878" d="M64.3,32.15a1.926,1.926,0,1,0-1.925,1.925A1.925,1.925,0,0,0,64.3,32.15" transform="translate(46.42 23.208)" fill="#b3eeef"/>
        <path id="Trazado_113879" data-name="Trazado 113879" d="M74.377,32.15a1.925,1.925,0,1,0-1.925,1.925,1.925,1.925,0,0,0,1.925-1.925" transform="translate(54.158 23.208)" fill="#b3eeef"/>
        <path id="Trazado_113880" data-name="Trazado 113880" d="M84.452,32.15a1.926,1.926,0,1,0-1.925,1.925,1.925,1.925,0,0,0,1.925-1.925" transform="translate(61.894 23.208)" fill="#b3eeef"/>
        <path id="Trazado_113881" data-name="Trazado 113881" d="M3.852,42.225a1.926,1.926,0,1,0-1.925,1.925,1.925,1.925,0,0,0,1.925-1.925" transform="translate(0 30.945)" fill="#b3eeef"/>
        <path id="Trazado_113882" data-name="Trazado 113882" d="M13.927,42.225A1.925,1.925,0,1,0,12,44.151a1.925,1.925,0,0,0,1.925-1.925" transform="translate(7.737 30.945)" fill="#b3eeef"/>
        <path id="Trazado_113883" data-name="Trazado 113883" d="M24,42.225a1.925,1.925,0,1,0-1.925,1.925A1.925,1.925,0,0,0,24,42.225" transform="translate(15.474 30.945)" fill="#b3eeef"/>
        <path id="Trazado_113884" data-name="Trazado 113884" d="M34.077,42.225a1.926,1.926,0,1,0-1.925,1.925,1.925,1.925,0,0,0,1.925-1.925" transform="translate(23.21 30.945)" fill="#b3eeef"/>
        <path id="Trazado_113885" data-name="Trazado 113885" d="M44.152,42.225a1.925,1.925,0,1,0-1.925,1.925,1.925,1.925,0,0,0,1.925-1.925" transform="translate(30.948 30.945)" fill="#b3eeef"/>
        <path id="Trazado_113886" data-name="Trazado 113886" d="M54.227,42.225A1.925,1.925,0,1,0,52.3,44.151a1.925,1.925,0,0,0,1.925-1.925" transform="translate(38.684 30.945)" fill="#b3eeef"/>
        <path id="Trazado_113887" data-name="Trazado 113887" d="M64.3,42.225a1.926,1.926,0,1,0-1.925,1.925A1.925,1.925,0,0,0,64.3,42.225" transform="translate(46.42 30.945)" fill="#b3eeef"/>
        <path id="Trazado_113888" data-name="Trazado 113888" d="M74.377,42.225a1.925,1.925,0,1,0-1.925,1.925,1.925,1.925,0,0,0,1.925-1.925" transform="translate(54.158 30.945)" fill="#b3eeef"/>
        <path id="Trazado_113889" data-name="Trazado 113889" d="M84.452,42.225a1.926,1.926,0,1,0-1.925,1.925,1.925,1.925,0,0,0,1.925-1.925" transform="translate(61.894 30.945)" fill="#b3eeef"/>
        <path id="Trazado_113890" data-name="Trazado 113890" d="M3.852,52.3a1.926,1.926,0,1,0-1.925,1.925A1.925,1.925,0,0,0,3.852,52.3" transform="translate(0 38.682)" fill="#b3eeef"/>
        <path id="Trazado_113891" data-name="Trazado 113891" d="M13.927,52.3A1.925,1.925,0,1,0,12,54.226,1.925,1.925,0,0,0,13.927,52.3" transform="translate(7.737 38.682)" fill="#b3eeef"/>
        <path id="Trazado_113892" data-name="Trazado 113892" d="M24,52.3a1.925,1.925,0,1,0-1.925,1.925A1.925,1.925,0,0,0,24,52.3" transform="translate(15.474 38.682)" fill="#b3eeef"/>
        <path id="Trazado_113893" data-name="Trazado 113893" d="M34.077,52.3a1.926,1.926,0,1,0-1.925,1.925A1.925,1.925,0,0,0,34.077,52.3" transform="translate(23.21 38.682)" fill="#b3eeef"/>
        <path id="Trazado_113894" data-name="Trazado 113894" d="M44.152,52.3a1.925,1.925,0,1,0-1.925,1.925A1.925,1.925,0,0,0,44.152,52.3" transform="translate(30.948 38.682)" fill="#b3eeef"/>
        <path id="Trazado_113895" data-name="Trazado 113895" d="M54.227,52.3A1.925,1.925,0,1,0,52.3,54.226,1.925,1.925,0,0,0,54.227,52.3" transform="translate(38.684 38.682)" fill="#b3eeef"/>
        <path id="Trazado_113896" data-name="Trazado 113896" d="M64.3,52.3a1.926,1.926,0,1,0-1.925,1.925A1.925,1.925,0,0,0,64.3,52.3" transform="translate(46.42 38.682)" fill="#b3eeef"/>
        <path id="Trazado_113897" data-name="Trazado 113897" d="M74.377,52.3a1.925,1.925,0,1,0-1.925,1.925A1.925,1.925,0,0,0,74.377,52.3" transform="translate(54.158 38.682)" fill="#b3eeef"/>
        <path id="Trazado_113898" data-name="Trazado 113898" d="M84.452,52.3a1.926,1.926,0,1,0-1.925,1.925A1.925,1.925,0,0,0,84.452,52.3" transform="translate(61.894 38.682)" fill="#b3eeef"/>
        <path id="Trazado_113899" data-name="Trazado 113899" d="M3.852,62.375A1.926,1.926,0,1,0,1.927,64.3a1.925,1.925,0,0,0,1.925-1.925" transform="translate(0 46.419)" fill="#b3eeef"/>
        <path id="Trazado_113900" data-name="Trazado 113900" d="M13.927,62.375A1.925,1.925,0,1,0,12,64.3a1.925,1.925,0,0,0,1.925-1.925" transform="translate(7.737 46.419)" fill="#b3eeef"/>
        <path id="Trazado_113901" data-name="Trazado 113901" d="M24,62.375A1.925,1.925,0,1,0,22.076,64.3,1.925,1.925,0,0,0,24,62.375" transform="translate(15.474 46.419)" fill="#b3eeef"/>
        <path id="Trazado_113902" data-name="Trazado 113902" d="M34.077,62.375A1.926,1.926,0,1,0,32.152,64.3a1.925,1.925,0,0,0,1.925-1.925" transform="translate(23.21 46.419)" fill="#b3eeef"/>
        <path id="Trazado_113903" data-name="Trazado 113903" d="M44.152,62.375A1.925,1.925,0,1,0,42.226,64.3a1.925,1.925,0,0,0,1.925-1.925" transform="translate(30.948 46.419)" fill="#b3eeef"/>
        <path id="Trazado_113904" data-name="Trazado 113904" d="M54.227,62.375A1.925,1.925,0,1,0,52.3,64.3a1.925,1.925,0,0,0,1.925-1.925" transform="translate(38.684 46.419)" fill="#b3eeef"/>
        <path id="Trazado_113905" data-name="Trazado 113905" d="M64.3,62.375A1.926,1.926,0,1,0,62.377,64.3,1.925,1.925,0,0,0,64.3,62.375" transform="translate(46.42 46.419)" fill="#b3eeef"/>
        <path id="Trazado_113906" data-name="Trazado 113906" d="M74.377,62.375A1.925,1.925,0,1,0,72.451,64.3a1.925,1.925,0,0,0,1.925-1.925" transform="translate(54.158 46.419)" fill="#b3eeef"/>
        <path id="Trazado_113907" data-name="Trazado 113907" d="M84.452,62.375A1.926,1.926,0,1,0,82.527,64.3a1.925,1.925,0,0,0,1.925-1.925" transform="translate(61.894 46.419)" fill="#b3eeef"/>
        <path id="Trazado_113908" data-name="Trazado 113908" d="M3.852,72.451a1.926,1.926,0,1,0-1.925,1.925,1.925,1.925,0,0,0,1.925-1.925" transform="translate(0 54.156)" fill="#b3eeef"/>
        <path id="Trazado_113909" data-name="Trazado 113909" d="M13.927,72.451A1.925,1.925,0,1,0,12,74.377a1.925,1.925,0,0,0,1.925-1.925" transform="translate(7.737 54.156)" fill="#b3eeef"/>
        <path id="Trazado_113910" data-name="Trazado 113910" d="M24,72.451a1.925,1.925,0,1,0-1.925,1.925A1.925,1.925,0,0,0,24,72.451" transform="translate(15.474 54.156)" fill="#b3eeef"/>
        <path id="Trazado_113911" data-name="Trazado 113911" d="M34.077,72.451a1.926,1.926,0,1,0-1.925,1.925,1.925,1.925,0,0,0,1.925-1.925" transform="translate(23.21 54.156)" fill="#b3eeef"/>
        <path id="Trazado_113912" data-name="Trazado 113912" d="M44.152,72.451a1.925,1.925,0,1,0-1.925,1.925,1.925,1.925,0,0,0,1.925-1.925" transform="translate(30.948 54.156)" fill="#b3eeef"/>
        <path id="Trazado_113913" data-name="Trazado 113913" d="M54.227,72.451A1.925,1.925,0,1,0,52.3,74.377a1.925,1.925,0,0,0,1.925-1.925" transform="translate(38.684 54.156)" fill="#b3eeef"/>
        <path id="Trazado_113914" data-name="Trazado 113914" d="M64.3,72.451a1.926,1.926,0,1,0-1.925,1.925A1.925,1.925,0,0,0,64.3,72.451" transform="translate(46.42 54.156)" fill="#b3eeef"/>
        <path id="Trazado_113915" data-name="Trazado 113915" d="M74.377,72.451a1.925,1.925,0,1,0-1.925,1.925,1.925,1.925,0,0,0,1.925-1.925" transform="translate(54.158 54.156)" fill="#b3eeef"/>
        <path id="Trazado_113916" data-name="Trazado 113916" d="M84.452,72.451a1.926,1.926,0,1,0-1.925,1.925,1.925,1.925,0,0,0,1.925-1.925" transform="translate(61.894 54.156)" fill="#b3eeef"/>
        <path id="Trazado_113917" data-name="Trazado 113917" d="M3.852,82.526a1.926,1.926,0,1,0-1.925,1.925,1.925,1.925,0,0,0,1.925-1.925" transform="translate(0 61.893)" fill="#b3eeef"/>
        <path id="Trazado_113918" data-name="Trazado 113918" d="M13.927,82.526A1.925,1.925,0,1,0,12,84.451a1.925,1.925,0,0,0,1.925-1.925" transform="translate(7.737 61.893)" fill="#b3eeef"/>
        <path id="Trazado_113919" data-name="Trazado 113919" d="M24,82.526a1.925,1.925,0,1,0-1.925,1.925A1.925,1.925,0,0,0,24,82.526" transform="translate(15.474 61.893)" fill="#b3eeef"/>
        <path id="Trazado_113920" data-name="Trazado 113920" d="M34.077,82.526a1.926,1.926,0,1,0-1.925,1.925,1.925,1.925,0,0,0,1.925-1.925" transform="translate(23.21 61.893)" fill="#b3eeef"/>
        <path id="Trazado_113921" data-name="Trazado 113921" d="M44.152,82.526a1.925,1.925,0,1,0-1.925,1.925,1.925,1.925,0,0,0,1.925-1.925" transform="translate(30.948 61.893)" fill="#b3eeef"/>
        <path id="Trazado_113922" data-name="Trazado 113922" d="M54.227,82.526A1.925,1.925,0,1,0,52.3,84.451a1.925,1.925,0,0,0,1.925-1.925" transform="translate(38.684 61.893)" fill="#b3eeef"/>
        <path id="Trazado_113923" data-name="Trazado 113923" d="M64.3,82.526a1.926,1.926,0,1,0-1.925,1.925A1.925,1.925,0,0,0,64.3,82.526" transform="translate(46.42 61.893)" fill="#b3eeef"/>
        <path id="Trazado_113924" data-name="Trazado 113924" d="M74.377,82.526a1.925,1.925,0,1,0-1.925,1.925,1.925,1.925,0,0,0,1.925-1.925" transform="translate(54.158 61.893)" fill="#b3eeef"/>
        <path id="Trazado_113925" data-name="Trazado 113925" d="M84.452,82.526a1.926,1.926,0,1,0-1.925,1.925,1.925,1.925,0,0,0,1.925-1.925" transform="translate(61.894 61.893)" fill="#b3eeef"/>
      </g>
    </g>
    <g id="Grupo_1042718" data-name="Grupo 1042718" transform="translate(146.151 19.933)">
      <g id="Grupo_986709" data-name="Grupo 986709" transform="translate(262.877 5376.721)">
        <g id="Grupo_985081" data-name="Grupo 985081" transform="translate(0 0)">
          <g id="Grupo_80252-3" data-name="Grupo 80252" transform="translate(0 0)">
            <g id="Grupo_80252-4" data-name="Grupo 80252" clip-path="url(#clip-path-2)">
              <path id="Trazado_113845-2" data-name="Trazado 113845" d="M0,.928a.928.928,0,1,1,.928.928A.928.928,0,0,1,0,.928" transform="translate(68.661 -0.001)" fill="#1448d3"/>
              <path id="Trazado_113846-2" data-name="Trazado 113846" d="M10.076.928A.928.928,0,1,1,11,1.855a.928.928,0,0,1-.928-.928" transform="translate(50.003 -0.001)" fill="#1448d3"/>
              <path id="Trazado_113847-2" data-name="Trazado 113847" d="M20.151.928a.928.928,0,1,1,.928.928.928.928,0,0,1-.928-.928" transform="translate(31.345 -0.001)" fill="#1448d3"/>
              <path id="Trazado_113848-2" data-name="Trazado 113848" d="M30.225.928a.928.928,0,1,1,.928.928.928.928,0,0,1-.928-.928" transform="translate(12.688 -0.001)" fill="#1448d3"/>
              <path id="Trazado_113849-2" data-name="Trazado 113849" d="M40.3.928a.928.928,0,1,1,.928.928A.928.928,0,0,1,40.3.928" transform="translate(-5.97 -0.001)" fill="#1448d3"/>
              <path id="Trazado_113850-2" data-name="Trazado 113850" d="M50.376.928a.928.928,0,1,1,.928.928.928.928,0,0,1-.928-.928" transform="translate(-24.628 -0.001)" fill="#1448d3"/>
              <path id="Trazado_113851-2" data-name="Trazado 113851" d="M60.45.928a.928.928,0,1,1,.928.928A.928.928,0,0,1,60.45.928" transform="translate(-43.285 -0.001)" fill="#1448d3"/>
              <path id="Trazado_113852-2" data-name="Trazado 113852" d="M70.526.928a.928.928,0,1,1,.928.928.928.928,0,0,1-.928-.928" transform="translate(-61.943 -0.001)" fill="#1448d3"/>
              <path id="Trazado_113853-2" data-name="Trazado 113853" d="M80.6.928a.928.928,0,1,1,.928.928A.928.928,0,0,1,80.6.928" transform="translate(-80.6 -0.001)" fill="#1448d3"/>
              <path id="Trazado_113854-2" data-name="Trazado 113854" d="M0,11a.928.928,0,1,1,.928.928A.928.928,0,0,1,0,11" transform="translate(68.661 -1.493)" fill="#1448d3"/>
              <path id="Trazado_113855-2" data-name="Trazado 113855" d="M10.076,11A.928.928,0,1,1,11,11.93.928.928,0,0,1,10.076,11" transform="translate(50.003 -1.493)" fill="#1448d3"/>
              <path id="Trazado_113856-2" data-name="Trazado 113856" d="M20.151,11a.928.928,0,1,1,.928.928A.928.928,0,0,1,20.151,11" transform="translate(31.345 -1.493)" fill="#1448d3"/>
              <path id="Trazado_113857-2" data-name="Trazado 113857" d="M30.225,11a.928.928,0,1,1,.928.928A.928.928,0,0,1,30.225,11" transform="translate(12.688 -1.493)" fill="#1448d3"/>
              <path id="Trazado_113858-2" data-name="Trazado 113858" d="M40.3,11a.928.928,0,1,1,.928.928A.928.928,0,0,1,40.3,11" transform="translate(-5.97 -1.493)" fill="#1448d3"/>
              <path id="Trazado_113859-2" data-name="Trazado 113859" d="M50.376,11a.928.928,0,1,1,.928.928A.928.928,0,0,1,50.376,11" transform="translate(-24.628 -1.493)" fill="#1448d3"/>
              <path id="Trazado_113860-2" data-name="Trazado 113860" d="M60.45,11a.928.928,0,1,1,.928.928A.928.928,0,0,1,60.45,11" transform="translate(-43.285 -1.493)" fill="#1448d3"/>
              <path id="Trazado_113861-2" data-name="Trazado 113861" d="M70.526,11a.928.928,0,1,1,.928.928A.928.928,0,0,1,70.526,11" transform="translate(-61.943 -1.493)" fill="#1448d3"/>
              <path id="Trazado_113862-2" data-name="Trazado 113862" d="M80.6,11a.928.928,0,1,1,.928.928A.928.928,0,0,1,80.6,11" transform="translate(-80.6 -1.493)" fill="#1448d3"/>
              <path id="Trazado_113863-2" data-name="Trazado 113863" d="M0,21.078a.928.928,0,1,1,.928.928A.928.928,0,0,1,0,21.078" transform="translate(68.661 -2.986)" fill="#1448d3"/>
              <path id="Trazado_113864-2" data-name="Trazado 113864" d="M10.076,21.078a.928.928,0,1,1,.928.928.928.928,0,0,1-.928-.928" transform="translate(50.003 -2.986)" fill="#1448d3"/>
              <path id="Trazado_113865-2" data-name="Trazado 113865" d="M20.151,21.078a.928.928,0,1,1,.928.928.928.928,0,0,1-.928-.928" transform="translate(31.345 -2.986)" fill="#1448d3"/>
              <path id="Trazado_113866-2" data-name="Trazado 113866" d="M30.225,21.078a.928.928,0,1,1,.928.928.928.928,0,0,1-.928-.928" transform="translate(12.688 -2.986)" fill="#1448d3"/>
              <path id="Trazado_113867-2" data-name="Trazado 113867" d="M40.3,21.078a.928.928,0,1,1,.928.928.928.928,0,0,1-.928-.928" transform="translate(-5.97 -2.986)" fill="#1448d3"/>
              <path id="Trazado_113868-2" data-name="Trazado 113868" d="M50.376,21.078a.928.928,0,1,1,.928.928.928.928,0,0,1-.928-.928" transform="translate(-24.628 -2.986)" fill="#1448d3"/>
              <path id="Trazado_113869-2" data-name="Trazado 113869" d="M60.45,21.078a.928.928,0,1,1,.928.928.928.928,0,0,1-.928-.928" transform="translate(-43.285 -2.986)" fill="#1448d3"/>
              <path id="Trazado_113870-2" data-name="Trazado 113870" d="M70.526,21.078a.928.928,0,1,1,.928.928.928.928,0,0,1-.928-.928" transform="translate(-61.943 -2.986)" fill="#1448d3"/>
              <path id="Trazado_113871-2" data-name="Trazado 113871" d="M80.6,21.078a.928.928,0,1,1,.928.928.928.928,0,0,1-.928-.928" transform="translate(-80.6 -2.986)" fill="#1448d3"/>
              <path id="Trazado_113872-2" data-name="Trazado 113872" d="M0,31.153a.928.928,0,1,1,.928.928A.928.928,0,0,1,0,31.153" transform="translate(68.661 -4.478)" fill="#1448d3"/>
              <path id="Trazado_113873-2" data-name="Trazado 113873" d="M10.076,31.153A.928.928,0,1,1,11,32.08a.928.928,0,0,1-.928-.928" transform="translate(50.003 -4.478)" fill="#1448d3"/>
              <path id="Trazado_113874-2" data-name="Trazado 113874" d="M20.151,31.153a.928.928,0,1,1,.928.928.928.928,0,0,1-.928-.928" transform="translate(31.345 -4.478)" fill="#1448d3"/>
              <path id="Trazado_113875-2" data-name="Trazado 113875" d="M30.225,31.153a.928.928,0,1,1,.928.928.928.928,0,0,1-.928-.928" transform="translate(12.688 -4.478)" fill="#1448d3"/>
              <path id="Trazado_113876-2" data-name="Trazado 113876" d="M40.3,31.153a.928.928,0,1,1,.928.928.928.928,0,0,1-.928-.928" transform="translate(-5.97 -4.478)" fill="#1448d3"/>
              <path id="Trazado_113877-2" data-name="Trazado 113877" d="M50.376,31.153a.928.928,0,1,1,.928.928.928.928,0,0,1-.928-.928" transform="translate(-24.628 -4.478)" fill="#1448d3"/>
              <path id="Trazado_113878-2" data-name="Trazado 113878" d="M60.45,31.153a.928.928,0,1,1,.928.928.928.928,0,0,1-.928-.928" transform="translate(-43.285 -4.478)" fill="#1448d3"/>
              <path id="Trazado_113879-2" data-name="Trazado 113879" d="M70.526,31.153a.928.928,0,1,1,.928.928.928.928,0,0,1-.928-.928" transform="translate(-61.943 -4.478)" fill="#1448d3"/>
              <path id="Trazado_113880-2" data-name="Trazado 113880" d="M80.6,31.153a.928.928,0,1,1,.928.928.928.928,0,0,1-.928-.928" transform="translate(-80.6 -4.478)" fill="#1448d3"/>
              <path id="Trazado_113881-2" data-name="Trazado 113881" d="M0,41.228a.928.928,0,1,1,.928.928A.928.928,0,0,1,0,41.228" transform="translate(68.661 -5.97)" fill="#1448d3"/>
              <path id="Trazado_113882-2" data-name="Trazado 113882" d="M10.076,41.228a.928.928,0,1,1,.928.928.928.928,0,0,1-.928-.928" transform="translate(50.003 -5.97)" fill="#1448d3"/>
              <path id="Trazado_113883-2" data-name="Trazado 113883" d="M20.151,41.228a.928.928,0,1,1,.928.928.928.928,0,0,1-.928-.928" transform="translate(31.345 -5.97)" fill="#1448d3"/>
              <path id="Trazado_113884-2" data-name="Trazado 113884" d="M30.225,41.228a.928.928,0,1,1,.928.928.928.928,0,0,1-.928-.928" transform="translate(12.688 -5.97)" fill="#1448d3"/>
              <path id="Trazado_113885-2" data-name="Trazado 113885" d="M40.3,41.228a.928.928,0,1,1,.928.928.928.928,0,0,1-.928-.928" transform="translate(-5.97 -5.97)" fill="#1448d3"/>
              <path id="Trazado_113886-2" data-name="Trazado 113886" d="M50.376,41.228a.928.928,0,1,1,.928.928.928.928,0,0,1-.928-.928" transform="translate(-24.628 -5.97)" fill="#1448d3"/>
              <path id="Trazado_113887-2" data-name="Trazado 113887" d="M60.45,41.228a.928.928,0,1,1,.928.928.928.928,0,0,1-.928-.928" transform="translate(-43.285 -5.97)" fill="#1448d3"/>
              <path id="Trazado_113888-2" data-name="Trazado 113888" d="M70.526,41.228a.928.928,0,1,1,.928.928.928.928,0,0,1-.928-.928" transform="translate(-61.943 -5.97)" fill="#1448d3"/>
              <path id="Trazado_113889-2" data-name="Trazado 113889" d="M80.6,41.228a.928.928,0,1,1,.928.928.928.928,0,0,1-.928-.928" transform="translate(-80.6 -5.97)" fill="#1448d3"/>
              <path id="Trazado_113890-2" data-name="Trazado 113890" d="M0,51.3a.928.928,0,1,1,.928.928A.928.928,0,0,1,0,51.3" transform="translate(68.661 -7.462)" fill="#1448d3"/>
              <path id="Trazado_113891-2" data-name="Trazado 113891" d="M10.076,51.3A.928.928,0,1,1,11,52.23a.928.928,0,0,1-.928-.928" transform="translate(50.003 -7.462)" fill="#1448d3"/>
              <path id="Trazado_113892-2" data-name="Trazado 113892" d="M20.151,51.3a.928.928,0,1,1,.928.928.928.928,0,0,1-.928-.928" transform="translate(31.345 -7.462)" fill="#1448d3"/>
              <path id="Trazado_113893-2" data-name="Trazado 113893" d="M30.225,51.3a.928.928,0,1,1,.928.928.928.928,0,0,1-.928-.928" transform="translate(12.688 -7.462)" fill="#1448d3"/>
              <path id="Trazado_113894-2" data-name="Trazado 113894" d="M40.3,51.3a.928.928,0,1,1,.928.928A.928.928,0,0,1,40.3,51.3" transform="translate(-5.97 -7.462)" fill="#1448d3"/>
              <path id="Trazado_113895-2" data-name="Trazado 113895" d="M50.376,51.3a.928.928,0,1,1,.928.928.928.928,0,0,1-.928-.928" transform="translate(-24.628 -7.462)" fill="#1448d3"/>
              <path id="Trazado_113896-2" data-name="Trazado 113896" d="M60.45,51.3a.928.928,0,1,1,.928.928.928.928,0,0,1-.928-.928" transform="translate(-43.285 -7.462)" fill="#1448d3"/>
              <path id="Trazado_113897-2" data-name="Trazado 113897" d="M70.526,51.3a.928.928,0,1,1,.928.928.928.928,0,0,1-.928-.928" transform="translate(-61.943 -7.462)" fill="#1448d3"/>
              <path id="Trazado_113898-2" data-name="Trazado 113898" d="M80.6,51.3a.928.928,0,1,1,.928.928A.928.928,0,0,1,80.6,51.3" transform="translate(-80.6 -7.462)" fill="#1448d3"/>
              <path id="Trazado_113899-2" data-name="Trazado 113899" d="M0,61.378a.928.928,0,1,1,.928.928A.928.928,0,0,1,0,61.378" transform="translate(68.661 -8.955)" fill="#1448d3"/>
              <path id="Trazado_113900-2" data-name="Trazado 113900" d="M10.076,61.378a.928.928,0,1,1,.928.928.928.928,0,0,1-.928-.928" transform="translate(50.003 -8.955)" fill="#1448d3"/>
              <path id="Trazado_113901-2" data-name="Trazado 113901" d="M20.151,61.378a.928.928,0,1,1,.928.928.928.928,0,0,1-.928-.928" transform="translate(31.345 -8.955)" fill="#1448d3"/>
              <path id="Trazado_113902-2" data-name="Trazado 113902" d="M30.225,61.378a.928.928,0,1,1,.928.928.928.928,0,0,1-.928-.928" transform="translate(12.688 -8.955)" fill="#1448d3"/>
              <path id="Trazado_113903-2" data-name="Trazado 113903" d="M40.3,61.378a.928.928,0,1,1,.928.928.928.928,0,0,1-.928-.928" transform="translate(-5.97 -8.955)" fill="#1448d3"/>
              <path id="Trazado_113904-2" data-name="Trazado 113904" d="M50.376,61.378a.928.928,0,1,1,.928.928.928.928,0,0,1-.928-.928" transform="translate(-24.628 -8.955)" fill="#1448d3"/>
              <path id="Trazado_113905-2" data-name="Trazado 113905" d="M60.45,61.378a.928.928,0,1,1,.928.928.928.928,0,0,1-.928-.928" transform="translate(-43.285 -8.955)" fill="#1448d3"/>
              <path id="Trazado_113906-2" data-name="Trazado 113906" d="M70.526,61.378a.928.928,0,1,1,.928.928.928.928,0,0,1-.928-.928" transform="translate(-61.943 -8.955)" fill="#1448d3"/>
              <path id="Trazado_113907-2" data-name="Trazado 113907" d="M80.6,61.378a.928.928,0,1,1,.928.928.928.928,0,0,1-.928-.928" transform="translate(-80.6 -8.955)" fill="#1448d3"/>
              <path id="Trazado_113908-2" data-name="Trazado 113908" d="M0,71.454a.928.928,0,1,1,.928.928A.928.928,0,0,1,0,71.454" transform="translate(68.661 -10.447)" fill="#1448d3"/>
              <path id="Trazado_113909-2" data-name="Trazado 113909" d="M10.076,71.454a.928.928,0,1,1,.928.928.928.928,0,0,1-.928-.928" transform="translate(50.003 -10.447)" fill="#1448d3"/>
              <path id="Trazado_113910-2" data-name="Trazado 113910" d="M20.151,71.454a.928.928,0,1,1,.928.928.928.928,0,0,1-.928-.928" transform="translate(31.345 -10.447)" fill="#1448d3"/>
              <path id="Trazado_113911-2" data-name="Trazado 113911" d="M30.225,71.454a.928.928,0,1,1,.928.928.928.928,0,0,1-.928-.928" transform="translate(12.688 -10.447)" fill="#1448d3"/>
              <path id="Trazado_113912-2" data-name="Trazado 113912" d="M40.3,71.454a.928.928,0,1,1,.928.928.928.928,0,0,1-.928-.928" transform="translate(-5.97 -10.447)" fill="#1448d3"/>
              <path id="Trazado_113913-2" data-name="Trazado 113913" d="M50.376,71.454a.928.928,0,1,1,.928.928.928.928,0,0,1-.928-.928" transform="translate(-24.628 -10.447)" fill="#1448d3"/>
              <path id="Trazado_113914-2" data-name="Trazado 113914" d="M60.45,71.454a.928.928,0,1,1,.928.928.928.928,0,0,1-.928-.928" transform="translate(-43.285 -10.447)" fill="#1448d3"/>
              <path id="Trazado_113915-2" data-name="Trazado 113915" d="M70.526,71.454a.928.928,0,1,1,.928.928.928.928,0,0,1-.928-.928" transform="translate(-61.943 -10.447)" fill="#1448d3"/>
              <path id="Trazado_113916-2" data-name="Trazado 113916" d="M80.6,71.454a.928.928,0,1,1,.928.928.928.928,0,0,1-.928-.928" transform="translate(-80.6 -10.447)" fill="#1448d3"/>
              <path id="Trazado_113917-2" data-name="Trazado 113917" d="M0,81.529a.928.928,0,1,1,.928.928A.928.928,0,0,1,0,81.529" transform="translate(68.661 -11.94)" fill="#1448d3"/>
              <path id="Trazado_113918-2" data-name="Trazado 113918" d="M10.076,81.529a.928.928,0,1,1,.928.928.928.928,0,0,1-.928-.928" transform="translate(50.003 -11.94)" fill="#1448d3"/>
              <path id="Trazado_113919-2" data-name="Trazado 113919" d="M20.151,81.529a.928.928,0,1,1,.928.928.928.928,0,0,1-.928-.928" transform="translate(31.345 -11.94)" fill="#1448d3"/>
              <path id="Trazado_113920-2" data-name="Trazado 113920" d="M30.225,81.529a.928.928,0,1,1,.928.928.928.928,0,0,1-.928-.928" transform="translate(12.688 -11.94)" fill="#1448d3"/>
              <path id="Trazado_113921-2" data-name="Trazado 113921" d="M40.3,81.529a.928.928,0,1,1,.928.928.928.928,0,0,1-.928-.928" transform="translate(-5.97 -11.94)" fill="#1448d3"/>
              <path id="Trazado_113922-2" data-name="Trazado 113922" d="M50.376,81.529a.928.928,0,1,1,.928.928.928.928,0,0,1-.928-.928" transform="translate(-24.628 -11.94)" fill="#1448d3"/>
              <path id="Trazado_113923-2" data-name="Trazado 113923" d="M60.45,81.529a.928.928,0,1,1,.928.928.928.928,0,0,1-.928-.928" transform="translate(-43.285 -11.94)" fill="#1448d3"/>
              <path id="Trazado_113924-2" data-name="Trazado 113924" d="M70.526,81.529a.928.928,0,1,1,.928.928.928.928,0,0,1-.928-.928" transform="translate(-61.943 -11.94)" fill="#1448d3"/>
              <path id="Trazado_113925-2" data-name="Trazado 113925" d="M80.6,81.529a.928.928,0,1,1,.928.928.928.928,0,0,1-.928-.928" transform="translate(-80.6 -11.94)" fill="#1448d3"/>
            </g>
          </g>
        </g>
      </g>
      <g id="Grupo_986981" data-name="Grupo 986981" transform="translate(180 5405.648)">
        <g id="Grupo_986977" data-name="Grupo 986977" transform="translate(0 6.108)">
          <g id="Grupo_986976" data-name="Grupo 986976" clip-path="url(#clip-path-3)">
            <path id="Trazado_731891" data-name="Trazado 731891" d="M37.147,314.3l-.382,8.919-9.074.172L28.345,315Z" transform="translate(-8.499 -96.462)" fill="#e09082"/>
            <g id="Grupo_986975" data-name="Grupo 986975">
              <g id="Grupo_986974" data-name="Grupo 986974" clip-path="url(#clip-path-3)">
                <path id="Trazado_731892" data-name="Trazado 731892" d="M24.725,335.922c0,.071,0,.139,0,.206.007.313.02.595.033.836.032.53.071.857.071.857H42.446a9.66,9.66,0,0,0,.02-1.693,8.8,8.8,0,0,0-3.146-6.521c-3.33-2.575-2.044-2.037-2.727-3.211-.077-.13-.676-2.124-.74-2.262-.573-1.219-1.1-1.8-4.256-1.8-4.186,0-4.554,2.031-5,3.1a19.873,19.873,0,0,0-.7,2.486c-.105.446-.211.921-.315,1.4-.258,1.214-.5,2.481-.663,3.492a18.269,18.269,0,0,0-.2,3.1" transform="translate(-7.588 -98.929)" fill="#5c6bbc"/>
                <path id="Trazado_731893" data-name="Trazado 731893" d="M24.726,338.389c0,.071,0,.139,0,.206.007.313.02.595.033.836a4.919,4.919,0,0,0,1.83-2.372c1.09-2.969-.586-6.532-.656-6.682l-.035.017c-.105.446-.211.921-.315,1.4a8.009,8.009,0,0,1,.219,4.974,4.1,4.1,0,0,1-1.08,1.617" transform="translate(-7.589 -101.396)" fill="#2f277f"/>
                <path id="Trazado_731894" data-name="Trazado 731894" d="M24.731,342.234c.024,1,.1,1.693.1,1.693H42.45a9.745,9.745,0,0,0,.02-1.693Z" transform="translate(-7.59 -105.035)" fill="#2f277f"/>
                <path id="Trazado_731895" data-name="Trazado 731895" d="M33.582,329.683a.53.53,0,0,0,.126-.016,8.715,8.715,0,0,1,4.084-.085.5.5,0,1,0,.268-.968,9.656,9.656,0,0,0-4.6.08.5.5,0,0,0,.125.988" transform="translate(-10.152 -100.783)" fill="#fff"/>
                <path id="Trazado_731896" data-name="Trazado 731896" d="M33.165,326.755a.53.53,0,0,0,.126-.016,8.715,8.715,0,0,1,4.084-.085.5.5,0,0,0,.268-.968,9.654,9.654,0,0,0-4.6.08.5.5,0,0,0,.125.988" transform="translate(-10.025 -99.884)" fill="#fff"/>
                <path id="Trazado_731897" data-name="Trazado 731897" d="M34.669,331.979a.528.528,0,0,0,.126-.016,8.783,8.783,0,0,1,4.084-.084.5.5,0,0,0,.267-.969,9.66,9.66,0,0,0-4.6.08.5.5,0,0,0,.125.989" transform="translate(-10.486 -101.488)" fill="#fff"/>
                <path id="Trazado_731898" data-name="Trazado 731898" d="M35.946,334.591a.528.528,0,0,0,.126-.016,8.785,8.785,0,0,1,4.084-.084.5.5,0,0,0,.267-.969,9.664,9.664,0,0,0-4.6.08.5.5,0,0,0,.125.988" transform="translate(-10.878 -102.289)" fill="#fff"/>
                <path id="Trazado_731899" data-name="Trazado 731899" d="M79.783,308.3v11.266l8.762.61,1.771-12.636Z" transform="translate(-24.486 -94.386)" fill="#e09082"/>
                <path id="Trazado_731900" data-name="Trazado 731900" d="M107.838,337.853,76.5,337.825a4.384,4.384,0,0,1-.41-1.741c-.193-2.651.655-6.881,1.072-9.548.051-.312.094-.6.128-.866a9.3,9.3,0,0,0,.095-1.089,1.6,1.6,0,0,1,1.928-1.8c3.168,3.113,6.763-1.548,8.859-.016,0,0,.9.648,3.389,2.889s6.716,3.722,10.317,5.232c4.649,1.948,5.966,3.891,6.223,5.229a2.448,2.448,0,0,1-.259,1.74" transform="translate(-23.344 -98.962)" fill="#5c6bbc"/>
                <path id="Trazado_731901" data-name="Trazado 731901" d="M107.851,343.893l-31.339-.028a4.384,4.384,0,0,1-.41-1.741l32.009.028a2.448,2.448,0,0,1-.259,1.74" transform="translate(-23.356 -105.002)" fill="#2f277f"/>
                <path id="Trazado_731902" data-name="Trazado 731902" d="M80.184,339.256h-.931a6.879,6.879,0,0,0,1.689-5.017,8.838,8.838,0,0,0-3.294-6.275c.051-.312.094-.6.128-.866a9.6,9.6,0,0,1,3.913,7.1,7.607,7.607,0,0,1-1.5,5.054" transform="translate(-23.831 -100.39)" fill="#2f277f"/>
                <path id="Trazado_731903" data-name="Trazado 731903" d="M97.424,329.067a.517.517,0,0,1-.123-1.018l1.959-.484a.516.516,0,1,1,.247,1l-1.958.484a.517.517,0,0,1-.125.015" transform="translate(-29.742 -100.529)" fill="#fff"/>
                <path id="Trazado_731904" data-name="Trazado 731904" d="M94.849,326.877a.517.517,0,0,1-.123-1.018l1.958-.484a.516.516,0,1,1,.248,1l-1.958.484a.553.553,0,0,1-.125.015" transform="translate(-28.952 -99.856)" fill="#fff"/>
                <path id="Trazado_731905" data-name="Trazado 731905" d="M100.247,330.711a.517.517,0,0,1-.123-1.018l1.958-.484a.516.516,0,1,1,.247,1l-1.958.484a.517.517,0,0,1-.125.015" transform="translate(-30.609 -101.033)" fill="#fff"/>
                <path id="Trazado_731906" data-name="Trazado 731906" d="M103.07,332.292a.517.517,0,0,1-.123-1.018l1.958-.484a.516.516,0,1,1,.248,1l-1.959.484a.51.51,0,0,1-.125.015" transform="translate(-31.475 -101.518)" fill="#fff"/>
                <path id="Trazado_731907" data-name="Trazado 731907" d="M106.149,333.754a.516.516,0,0,1-.123-1.017l1.958-.484a.516.516,0,1,1,.247,1l-1.958.484a.51.51,0,0,1-.125.015" transform="translate(-32.42 -101.967)" fill="#fff"/>
                <path id="Trazado_731908" data-name="Trazado 731908" d="M109.488,335a.517.517,0,0,1-.123-1.018l1.958-.484a.516.516,0,1,1,.247,1l-1.958.484a.519.519,0,0,1-.125.015" transform="translate(-33.445 -102.35)" fill="#fff"/>
                <path id="Trazado_731909" data-name="Trazado 731909" d="M72.311,230.261c-.9,14.985-1.991,35.043-1.991,35.043l13.927-.17A489.412,489.412,0,0,0,94.58,207.029l-19.05-47.276-21.757,9.868,22.355,43.812.078.018a45.977,45.977,0,0,0-3.894,16.809" transform="translate(-16.503 -49.03)" fill="#9e4f2e"/>
                <path id="Trazado_731910" data-name="Trazado 731910" d="M78.58,305.331H92.311a.479.479,0,1,0,0-.959H78.58a.479.479,0,0,0,0,.959" transform="translate(-23.97 -93.415)" fill="#5f2418"/>
                <path id="Trazado_731911" data-name="Trazado 731911" d="M103.806,230.463a8.434,8.434,0,0,0,5.69-2.235.479.479,0,0,0-.683-.672,7.611,7.611,0,0,1-5.22,1.945.479.479,0,1,0-.028.958c.08,0,.161,0,.24,0" transform="translate(-31.643 -69.796)" fill="#5f2418"/>
                <path id="Trazado_731912" data-name="Trazado 731912" d="M74.766,265.724a.479.479,0,0,0,.477-.441c.018-.223,1.767-22.339,2.058-29.855.287-7.431,4-17.846,4.041-17.95a.479.479,0,0,0-.028-.385C76.343,207.665,61.2,177.1,61.049,176.8a.479.479,0,0,0-.859.426c.152.306,15.1,30.487,20.18,40.133-.522,1.5-3.755,11.035-4.026,18.037-.29,7.5-2.038,29.594-2.056,29.817a.479.479,0,0,0,.44.516h.038" transform="translate(-18.458 -54.179)" fill="#5f2418"/>
                <path id="Trazado_731913" data-name="Trazado 731913" d="M24.976,266.755h11.5c2.052-19.271,6.713-52.431,6.713-52.431,3.879-12.658,1.066-56.051,1.066-56.051l-23.342-1.582s-.156,4.9.624,19.829c.521,9.973,3.394,29.05,3.844,37.617-3.3,9.4-2.533,16.843-2.332,26.443.225,10.7,1.929,26.174,1.929,26.174" transform="translate(-6.414 -48.09)" fill="#9e4f2e"/>
                <path id="Trazado_731914" data-name="Trazado 731914" d="M43.353,238.976a8.435,8.435,0,0,0,6.1.33.479.479,0,0,0-.342-.9,7.61,7.61,0,0,1-5.556-.4.479.479,0,0,0-.423.86c.073.035.145.07.217.1" transform="translate(-13.157 -73.033)" fill="#5f2418"/>
                <path id="Trazado_731915" data-name="Trazado 731915" d="M38.1,309.984a.479.479,0,0,0-.064-.956l-11.317.58a.479.479,0,1,0,.049.957l11.317-.58H38.1" transform="translate(-8.06 -94.844)" fill="#5f2418"/>
                <path id="Trazado_731916" data-name="Trazado 731916" d="M66.418,146.411s1.205,16.579-9.181,18.162c-7.282,1.109-25.541.631-33.761-4.511-5.85-3.66.16-19.9.16-19.9Z" transform="translate(-6.42 -43.016)" fill="#9e4f2e"/>
                <path id="Trazado_731917" data-name="Trazado 731917" d="M85.425,163.852a.479.479,0,0,0,.114-.945,5.659,5.659,0,0,1-3.284-2.511,6.066,6.066,0,0,1-.024-4.986.479.479,0,1,0-.9-.319,6.963,6.963,0,0,0,.089,5.769,6.544,6.544,0,0,0,3.894,2.978.5.5,0,0,0,.114.014" transform="translate(-24.784 -47.501)" fill="#5f2418"/>
                <path id="Trazado_731918" data-name="Trazado 731918" d="M25.754,160.971a10.379,10.379,0,0,0,8.493-4.266,15.31,15.31,0,0,0,2.594-5.362.479.479,0,0,0-.934-.212,14.608,14.608,0,0,1-2.44,5.016,9.54,9.54,0,0,1-9.768,3.69.479.479,0,0,0-.156.945,13.541,13.541,0,0,0,2.21.189" transform="translate(-7.103 -46.269)" fill="#5f2418"/>
                <path id="Trazado_731919" data-name="Trazado 731919" d="M24.554,164.271a5.021,5.021,0,0,1-1.014-.1,4.3,4.3,0,0,1-3.052-2.283c-2.934-5.48,2.413-18.756,2.641-19.318a.566.566,0,0,1,1.048.426c-.054.133-5.376,13.345-2.692,18.358a3.177,3.177,0,0,0,2.28,1.708c3.684.751,6.791-4.014,8.747-8.144a61.044,61.044,0,0,0,3.473-9.578.566.566,0,0,1,1.1.281c-.2.793-4.865,18.653-12.529,18.653" transform="translate(-6.019 -43.647)" fill="#fff"/>
                <path id="Trazado_731920" data-name="Trazado 731920" d="M55.531,172.223a.476.476,0,0,0,.241-.065,24.968,24.968,0,0,0,8.5-9.055.479.479,0,0,0-.843-.455,24.394,24.394,0,0,1-8.14,8.682.479.479,0,0,0,.241.893" transform="translate(-16.896 -49.841)" fill="#5f2418"/>
                <path id="Trazado_731921" data-name="Trazado 731921" d="M29.418,268.759a.48.48,0,0,0,.335-.484c-.012-.215-1.245-21.523-2.056-29.284-.8-7.66,2.7-20.2,2.739-20.326a.473.473,0,0,0,.016-.179c-1.311-12.855-3.029-42.335-3.045-42.631a.479.479,0,0,0-.957.055c.017.3,1.728,29.661,3.04,42.583-.343,1.234-3.539,13.013-2.746,20.6.81,7.738,2.04,29.025,2.052,29.239a.48.48,0,0,0,.506.451.487.487,0,0,0,.116-.021" transform="translate(-8.117 -53.833)" fill="#5f2418"/>
                <path id="Trazado_731922" data-name="Trazado 731922" d="M82.557,68.377,83,70.624c.15.735.3,1.468.461,2.2.319,1.461.644,2.919.989,4.375.7,2.91,1.428,5.818,2.257,8.727s1.709,5.824,2.77,8.77c.53,1.476,1.1,2.96,1.755,4.481a35.316,35.316,0,0,0,2.456,4.785c.272.432.572.88.926,1.354a14.443,14.443,0,0,0,1.306,1.525,11.3,11.3,0,0,0,.952.862,9.708,9.708,0,0,0,1.357.918,8.411,8.411,0,0,0,2.014.812,8.116,8.116,0,0,0,1.295.222l.169.015.12.006.237.009c.163,0,.3,0,.455,0a9.877,9.877,0,0,0,2.8-.5,13.148,13.148,0,0,0,1.876-.787,19.684,19.684,0,0,0,2.662-1.666,37.907,37.907,0,0,0,3.91-3.383c1.163-1.135,2.241-2.28,3.28-3.434s2.035-2.316,3.007-3.486,1.907-2.359,2.793-3.579,1.733-2.465,2.53-3.745q.6-.959,1.157-1.948c.188-.329.365-.665.545-1,.09-.168.179-.338.264-.511l.264-.534a4.256,4.256,0,0,0-6.483-5.2l-.191.155c-.258.208-.543.453-.806.69s-.541.477-.8.72q-.8.729-1.573,1.472-1.554,1.485-3.05,3c-1,1-1.983,2.015-2.959,3.017s-1.968,1.975-2.964,2.913-2,1.838-3,2.662a26.793,26.793,0,0,1-2.887,2.119,6.7,6.7,0,0,1-1.094.572c-.117.042-.2.056-.154.026a1.644,1.644,0,0,1,.654-.125c.06,0,.11,0,.182,0l.1,0,.152.009a4.593,4.593,0,0,1,.757.126,4.466,4.466,0,0,1,1.01.387,3.8,3.8,0,0,1,.462.292c.085.059.139.109.154.112.042.029-.01-.052-.076-.168s-.163-.288-.262-.482c-.2-.392-.425-.886-.642-1.415s-.441-1.1-.652-1.7c-.425-1.19-.823-2.459-1.2-3.757-.744-2.6-1.419-5.315-2.043-8.056S99.037,76.943,98.5,74.15c-.274-1.4-.545-2.793-.8-4.192l-.387-2.1-.362-2.054-.021-.121A7.308,7.308,0,0,0,82.53,68.231c.006.037.02.11.027.146" transform="translate(-25.295 -18.307)" fill="#b2aa7d"/>
                <path id="Trazado_731923" data-name="Trazado 731923" d="M110.677,113.116l-2.113.731c-.369.128-.149.694.22.567l2.113-.731c.371-.128.15-.694-.219-.567" transform="translate(-33.261 -34.711)" fill="#1e1d12"/>
                <path id="Trazado_731924" data-name="Trazado 731924" d="M112.5,112.343a5.345,5.345,0,0,0-1.747,3.234.328.328,0,0,1-.647-.1,6.049,6.049,0,0,1,2-3.655c.315-.279.7.248.39.525" transform="translate(-33.791 -34.294)" fill="#1e1d12"/>
                <path id="Trazado_731925" data-name="Trazado 731925" d="M21.764,119.095c.025.02.05.037.073.055.257.207.518.408.781.608.212.156.422.315.638.468a38.5,38.5,0,0,0,3.918,2.481,43.17,43.17,0,0,0,4.773,2.266q.453.182.912.356c.025.008.046.019.073.026q1.518.571,3.062,1.027.58.174,1.162.331a49.8,49.8,0,0,0,9.915,1.623c.285.017.569.034.852.045q1.273.058,2.521.045c.288,0,.577,0,.862-.012a41.915,41.915,0,0,0,8.859-1.13c.344-.082.683-.171,1.018-.263.94-.26,1.844-.554,2.707-.884.039-.014.078-.028.115-.044a23.778,23.778,0,0,0,3.434-1.614c-.031-.973-.066-2.055-.062-3.2,0-.106,0-.212,0-.321,0-1.027.019-2.108.044-3.219.136-6.224.548-13.437.871-17.925,0-.051.008-.1.011-.148v-.006c.04-.548.08-1.054.115-1.51s.072-.882.111-1.315l0-.006c.051-.593.107-1.174.165-1.747q.142-1.46.317-2.838c.128-1.048.266-2.067.413-3.051.076-.529.159-1.048.241-1.556v0c.081-.51.166-1.008.253-1.5.04-.24.084-.48.128-.717.022-.121.046-.243.067-.363q.185-1,.381-1.95c2.467-12.035,5.9-18.047,6.562-21.518a6,6,0,0,0,.108-.961,6.9,6.9,0,0,0-.11-1.466,5.484,5.484,0,0,0-.385-1.23c-1.114-2.459-3.921-3.5-6.562-5.048l-.014-.006c-.36-.214-.719-.435-1.069-.672-.148-.1-.3-.2-.44-.307s-.276-.2-.413-.313c-.173-.139-.348-.283-.516-.434a9.015,9.015,0,0,1-2.246-2.964.212.212,0,0,0-.015-.031c-.066-.145-.13-.3-.192-.451L53.457,45.056A16.845,16.845,0,0,1,50.423,46.1c-.114.031-.231.056-.347.087-.067.014-.137.031-.206.045-.441.1-.92.191-1.436.267-.446.064-.922.12-1.421.159-.159.012-.316.024-.48.031a23.439,23.439,0,0,1-2.872-.011,8.046,8.046,0,0,0-4.7,1.144A10.551,10.551,0,0,0,37.08,49.27C34.7,51.543,32.742,55.255,31.3,60.2c-.9,3.075-1.776,6.023-2.605,8.89Q28.1,71.122,27.554,73.1c-.072.252-.141.5-.209.755,0,.021-.012.042-.017.062-.075.277-.152.553-.225.831-.514,1.9-.992,3.762-1.43,5.62-.652,2.769-1.21,5.51-1.642,8.271q-.238,1.518-.424,3.05c-.62,5.127-2.506,22.317-1.843,27.4" transform="translate(-6.637 -13.828)" fill="#b2aa7d"/>
                <path id="Trazado_731926" data-name="Trazado 731926" d="M39.077,72.5A101.874,101.874,0,0,0,69.5,80.321a87.657,87.657,0,0,0,9.091.353.26.26,0,0,0,0-.52,97.792,97.792,0,0,1-39.252-8.1c-.3-.129-.569.319-.262.449" transform="translate(-11.951 -22.106)" fill="#d9d2a9"/>
                <path id="Trazado_731927" data-name="Trazado 731927" d="M36.088,79.9a104.442,104.442,0,0,0,31.019,7.94,86.634,86.634,0,0,0,9.135.366.26.26,0,0,0,0-.52,97.341,97.341,0,0,1-31.323-5.028q-4.351-1.419-8.568-3.208c-.3-.129-.57.319-.263.449" transform="translate(-11.034 -24.377)" fill="#d9d2a9"/>
                <path id="Trazado_731928" data-name="Trazado 731928" d="M74.052,95.111a108.166,108.166,0,0,1-31.97-4.427,83.751,83.751,0,0,1-8.7-3.112c-.3-.129-.57.319-.263.449A101.049,101.049,0,0,0,65.1,95.352q4.466.326,8.948.28Z" transform="translate(-10.123 -26.87)" fill="#d9d2a9"/>
                <path id="Trazado_731929" data-name="Trazado 731929" d="M31.014,96.217A101.069,101.069,0,0,0,63,103.549q4.628.337,9.273.277a.26.26,0,0,0,0-.52,108.176,108.176,0,0,1-32.3-4.426,83.753,83.753,0,0,1-8.7-3.112c-.3-.129-.57.319-.263.449" transform="translate(-9.476 -29.385)" fill="#d9d2a9"/>
                <path id="Trazado_731930" data-name="Trazado 731930" d="M91.046,95.4h0a.318.318,0,0,0,.18-.213C93.687,85.46,96.067,77.85,96.1,77.769a.314.314,0,0,0-.21-.392h-.006a.315.315,0,0,0-.389.2c-.024.082-2.411,7.708-4.881,17.45a.317.317,0,0,0,.435.368" transform="translate(-27.806 -23.744)" fill="#1e1d12"/>
                <path id="Trazado_731931" data-name="Trazado 731931" d="M25.257,130.958a.35.35,0,0,1-.269-.335A175.954,175.954,0,0,1,27.771,97.23c1.527-8.565,3.136-14.066,3.152-14.12a.351.351,0,1,1,.673.2c-.016.054-1.617,5.526-3.137,14.056a175.226,175.226,0,0,0-2.77,33.245.351.351,0,0,1-.344.358.373.373,0,0,1-.088-.01" transform="translate(-7.661 -25.431)" fill="#d9d2a9"/>
                <path id="Trazado_731932" data-name="Trazado 731932" d="M74.509,64.175a15.121,15.121,0,0,1-6.628-1.011,27.676,27.676,0,0,1-7.238-4.1.3.3,0,0,1-.052-.4.247.247,0,0,1,.365-.051,27.1,27.1,0,0,0,7.1,4.014c5.308,1.94,9.64,1.173,12.875-2.281a.249.249,0,0,1,.37.006.3.3,0,0,1,0,.4,10.488,10.488,0,0,1-6.7,3.408l-.09.009" transform="translate(-18.58 -17.972)" fill="#6a6440"/>
                <path id="Trazado_731933" data-name="Trazado 731933" d="M76.835,58.391c-2.824.273-6.345-1.838-6.539-1.956a.3.3,0,0,1-.1-.386.249.249,0,0,1,.355-.107c.059.036,5.941,3.563,8.266.925a.247.247,0,0,1,.369-.006.3.3,0,0,1,.011.4,3.468,3.468,0,0,1-2.358,1.13" transform="translate(-21.533 -17.158)" fill="#6a6440"/>
                <path id="Trazado_731934" data-name="Trazado 731934" d="M58.242,151.806a19.038,19.038,0,0,1-3.267-.141,27.134,27.134,0,0,1-8.6-2.754,40.689,40.689,0,0,1-8.614-5.828.3.3,0,0,1-.029-.4.247.247,0,0,1,.368-.029,40.109,40.109,0,0,0,8.5,5.748c4.564,2.274,11.343,4.353,17.724,1.341a.256.256,0,0,1,.344.148.292.292,0,0,1-.134.373,16.356,16.356,0,0,1-6.293,1.542" transform="translate(-11.561 -43.761)" fill="#6a6440"/>
                <path id="Trazado_731935" data-name="Trazado 731935" d="M58.495,142.358A19.015,19.015,0,0,1,55.521,141a27.112,27.112,0,0,1-6.929-5.793,40.638,40.638,0,0,1-5.781-8.645.3.3,0,0,1,.123-.381.247.247,0,0,1,.352.112A40.08,40.08,0,0,0,49,134.818c3.37,3.827,8.866,8.307,15.911,7.923a.255.255,0,0,1,.263.266.292.292,0,0,1-.264.3,16.364,16.364,0,0,1-6.41-.944" transform="translate(-13.131 -38.714)" fill="#6a6440"/>
                <path id="Trazado_731936" data-name="Trazado 731936" d="M66.55,28.17s-3.392,1.547-3.272,3.147c.133,1.779,3.09.254,3.09.254s-2.729,1.2-2.093,2.508c.52,1.068,2.835-.259,2.835-.259s-.966,1.826.207,2.39,3.237-3.13,3.237-3.13Z" transform="translate(-19.42 -8.646)" fill="#1e1d12"/>
                <path id="Trazado_731937" data-name="Trazado 731937" d="M90.911,27.336s1.65-2.885,4.019-1.634.651,9.659-4.09,8.36Z" transform="translate(-27.88 -7.792)" fill="#a8494a"/>
                <path id="Trazado_731938" data-name="Trazado 731938" d="M67.81,41.008s-.871.925,3.418,3.54a9.918,9.918,0,0,0,7.094,1.035,9.168,9.168,0,0,0,1.105-.387,14.056,14.056,0,0,1,1.715-6.59c.049-.079.077-.119.077-.119L70.753,28.9Z" transform="translate(-20.789 -8.871)" fill="#e09082"/>
                <path id="Trazado_731939" data-name="Trazado 731939" d="M72.742,36.7s.782,9.1,7.115,11.279a9.167,9.167,0,0,0,1.105-.387A14.053,14.053,0,0,1,82.678,41Z" transform="translate(-22.325 -11.263)" fill="#1e1d12"/>
                <path id="Trazado_731940" data-name="Trazado 731940" d="M75.7,33.353c4.728,2.24,9.24,1.113,10.806-3.032.378-1,.814-2.474,1.23-4.021l.012-.048c.088-.329.175-.662.263-.993q.095-.362.184-.721c.7-2.769,1.266-5.3,1.266-5.3C90.5,12.183,84.349,7.886,78.231,9.1s-6.154,10.123-7.18,14.213A8.418,8.418,0,0,0,75.7,33.353" transform="translate(-21.714 -2.731)" fill="#e09082"/>
                <path id="Trazado_731941" data-name="Trazado 731941" d="M83.682,33.077s-.731,2.509,1.294,3.361a2.253,2.253,0,0,0,2.959-1.1Z" transform="translate(-25.644 -10.152)" fill="#fff"/>
                <path id="Trazado_731942" data-name="Trazado 731942" d="M84.314,38.676a1.172,1.172,0,0,1-.5-.6.2.2,0,0,1,.376-.119.8.8,0,0,0,.74.5.2.2,0,1,1-.023.394,1.282,1.282,0,0,1-.6-.175" transform="translate(-25.722 -11.606)" fill="#a8494a"/>
                <path id="Trazado_731943" data-name="Trazado 731943" d="M86.813,30.581a.294.294,0,0,1,.142-.52l1.948-.288-1.041-1.044a.3.3,0,0,1-.085-.231l.3-3.742a.294.294,0,0,1,.587.046l-.288,3.607,1.358,1.362a.295.295,0,0,1-.166.5l-2.525.374a.3.3,0,0,1-.229-.062" transform="translate(-26.61 -7.515)" fill="#a8494a"/>
                <path id="Trazado_731944" data-name="Trazado 731944" d="M85.571,25.859c-.2.518-.585.852-.854.748S84.394,26,84.6,25.478s.584-.853.854-.748.323.61.121,1.128" transform="translate(-25.926 -7.584)" fill="#1e1d12"/>
                <path id="Trazado_731945" data-name="Trazado 731945" d="M83.628,24.492a.148.148,0,0,1,.09-.247,2.362,2.362,0,0,1,2.318,1.093.147.147,0,0,1-.262.134,2.1,2.1,0,0,0-2.02-.935.146.146,0,0,1-.125-.046" transform="translate(-25.654 -7.437)" fill="#1e1d12"/>
                <path id="Trazado_731946" data-name="Trazado 731946" d="M92.945,28.46c-.2.518-.585.853-.854.748s-.323-.611-.121-1.128.584-.853.854-.748.323.61.121,1.128" transform="translate(-28.189 -8.382)" fill="#1e1d12"/>
                <path id="Trazado_731947" data-name="Trazado 731947" d="M91.148,27.093a.148.148,0,0,1,.09-.247,2.363,2.363,0,0,1,2.318,1.093.147.147,0,1,1-.262.134,2.1,2.1,0,0,0-2.02-.935.146.146,0,0,1-.125-.046" transform="translate(-27.962 -8.236)" fill="#1e1d12"/>
                <path id="Trazado_731948" data-name="Trazado 731948" d="M82.621,21.525c-1.485-.067-1.493-1.677-.019-2.133a3.862,3.862,0,0,1,2.043-.183c1.86.47,1.576,1.793.509,2.083a10.379,10.379,0,0,1-2.533.233" transform="translate(-25.014 -5.873)" fill="#1e1d12"/>
                <path id="Trazado_731949" data-name="Trazado 731949" d="M93.491,23.8c1.3.723,2.152-.643,1.136-1.8a3.86,3.86,0,0,0-1.643-1.229c-1.829-.577-2.283.7-1.526,1.5A10.343,10.343,0,0,0,93.491,23.8" transform="translate(-27.962 -6.327)" fill="#1e1d12"/>
                <g id="Grupo_986970" data-name="Grupo 986970" transform="translate(63.304 21.539)" opacity="0.5">
                  <g id="Grupo_986969" data-name="Grupo 986969">
                    <g id="Grupo_986968" data-name="Grupo 986968" clip-path="url(#clip-path-5)">
                      <path id="Trazado_731950" data-name="Trazado 731950" d="M93.475,33.03a5.355,5.355,0,0,0,.581.078c0-.016.009-.03.013-.047.087-.329.175-.662.262-.994q.095-.361.185-.72a5.8,5.8,0,0,0-.7-.174c-1.274-.237-2.382-.014-2.478.5s.859,1.122,2.133,1.359" transform="translate(-91.336 -31.077)" fill="#a8494a"/>
                    </g>
                  </g>
                </g>
                <g id="Grupo_986973" data-name="Grupo 986973" transform="translate(52.648 18.501)" opacity="0.5">
                  <g id="Grupo_986972" data-name="Grupo 986972">
                    <g id="Grupo_986971" data-name="Grupo 986971" clip-path="url(#clip-path-6)">
                      <path id="Trazado_731951" data-name="Trazado 731951" d="M75.968,27.288c-.1.513.859,1.121,2.133,1.358s2.384.014,2.478-.5-.859-1.121-2.133-1.358-2.383-.014-2.478.5" transform="translate(-75.961 -26.694)" fill="#a8494a"/>
                    </g>
                  </g>
                </g>
                <path id="Trazado_731952" data-name="Trazado 731952" d="M73.1,15.489a2.342,2.342,0,0,0,.011.263s1.022.71.983,3.06l1.5.332a11.258,11.258,0,0,0,1.263-4.85,2.693,2.693,0,0,1,.155-.723c1.008-2.672,6.421-3.9,9.572-2.4a6.716,6.716,0,0,1,3.687,5.211,11.648,11.648,0,0,1-.213,2.72,8.568,8.568,0,0,0-.234-7.243c-2.381-4.865-9.44-6.5-13.3-3.231A8.883,8.883,0,0,0,73.1,15.489" transform="translate(-22.433 -2.127)" fill="#1e1d12"/>
                <path id="Trazado_731953" data-name="Trazado 731953" d="M68.811,17.888c-.1,1.64,2.98.805,2.98.805s1.022.709.983,3.059l1.5.332a11.251,11.251,0,0,0,1.264-4.85,2.693,2.693,0,0,1,.155-.723l-4.809.134c-.669.079-2.036.57-2.078,1.242" transform="translate(-21.118 -5.068)" fill="#a8494a"/>
                <path id="Trazado_731954" data-name="Trazado 731954" d="M69.945,16.512s-1.221,1.43-1.135,1.376,5.309-.844,6.7-.268a3.277,3.277,0,0,1,.186-1.108Z" transform="translate(-21.117 -5.068)" fill="#1e1d12"/>
                <path id="Trazado_731955" data-name="Trazado 731955" d="M82.671,12.568a11.152,11.152,0,0,1,3.854.362c1.368.6,3.282,2.564,4.17,1.7,1.2-1.178,2.411,2.338,2.411,2.338s-.343-5.468-4.766-5.525-4.3-.446-5.668,1.13" transform="translate(-25.373 -3.485)" fill="#1e1d12"/>
                <path id="Trazado_731956" data-name="Trazado 731956" d="M72.24,21a3.07,3.07,0,0,0-3.463-2.146c-2.628.515-3.4,9.062,1.51,9.183Z" transform="translate(-20.47 -5.765)" fill="#e09082"/>
                <path id="Trazado_731957" data-name="Trazado 731957" d="M71.055,31.882a2.522,2.522,0,0,0,2.06-1.1.247.247,0,0,0-.418-.262,2.024,2.024,0,0,1-1.642.872.247.247,0,1,0,0,.493" transform="translate(-21.732 -9.331)" fill="#a8494a"/>
                <path id="Trazado_731958" data-name="Trazado 731958" d="M70.632,25.9a.235.235,0,0,0,.05,0,.23.23,0,0,0,.222-.237c0-.108-.108-2.663-2.182-3.567a.23.23,0,0,0-.184.422c1.81.789,1.905,3.136,1.906,3.16a.23.23,0,0,0,.188.219" transform="translate(-20.993 -6.777)" fill="#1e1d12"/>
                <path id="Trazado_731959" data-name="Trazado 731959" d="M68.923,25.262a.23.23,0,0,0,.17-.035c.006,0,.548-.363,1.173-.7a.231.231,0,0,0-.22-.405c-.643.349-1.185.708-1.208.724a.23.23,0,0,0,.085.418" transform="translate(-21.095 -7.394)" fill="#1e1d12"/>
                <path id="Trazado_731960" data-name="Trazado 731960" d="M81.543,28.569a3.307,3.307,0,1,1,3.982-2.452,3.311,3.311,0,0,1-3.982,2.452m1.41-5.928A2.787,2.787,0,1,0,85.019,26a2.79,2.79,0,0,0-2.066-3.356" transform="translate(-24.246 -6.766)" fill="#fff"/>
                <path id="Trazado_731961" data-name="Trazado 731961" d="M92.55,31.187a3.307,3.307,0,1,1,3.982-2.452,3.311,3.311,0,0,1-3.982,2.452m1.41-5.928a2.787,2.787,0,1,0,2.066,3.356,2.79,2.79,0,0,0-2.066-3.356" transform="translate(-27.624 -7.569)" fill="#fff"/>
                <path id="Trazado_731962" data-name="Trazado 731962" d="M74.282,21.076l.252.523a7.7,7.7,0,0,1,4,1.345l.29-.431a8.983,8.983,0,0,0-4.54-1.437" transform="translate(-22.798 -6.468)" fill="#fff"/>
                <path id="Trazado_731963" data-name="Trazado 731963" d="M88.175,27.549l-.208-.476a1.7,1.7,0,0,1,2.022.487l-.413.315a1.2,1.2,0,0,0-1.4-.326" transform="translate(-26.998 -8.265)" fill="#fff"/>
                <path id="Trazado_731964" data-name="Trazado 731964" d="M90.381,11.066s-.6-.184-1.629-.433l-.5-.118A42.792,42.792,0,0,0,75.226,9.432c-.177.017-.351.035-.527.057a19.2,19.2,0,0,0-5.909,1.577,9.5,9.5,0,0,1,1.471-6.827c.119-.17.247-.34.386-.506a9.279,9.279,0,0,1,3.029-2.355c.151-.076.306-.15.468-.221A13.462,13.462,0,0,1,75.963.5a12.619,12.619,0,0,1,1.93-.4c.184-.024.367-.043.55-.059A11.526,11.526,0,0,1,83,.578h0c.22.073.439.152.652.239a10.79,10.79,0,0,1,4.3,3.154,9.891,9.891,0,0,1,.714.98l0,0a10.968,10.968,0,0,1,1.71,6.113" transform="translate(-21.074 0)" fill="#5c6bbc"/>
                <path id="Trazado_731965" data-name="Trazado 731965" d="M77.446,9.943c0,.019-.006.04-.007.059-.04.329-.561.331-.52,0v0A16.518,16.518,0,0,0,75.9,1.89c.15-.076.306-.151.468-.222a16.947,16.947,0,0,1,1.081,8.275" transform="translate(-23.294 -0.512)" fill="#2f277f"/>
                <path id="Trazado_731966" data-name="Trazado 731966" d="M83.753,8.688c-.046.331-.548.189-.5-.139A14.824,14.824,0,0,0,81.979.115c.184-.024.367-.043.55-.059a15.472,15.472,0,0,1,1.225,8.632" transform="translate(-25.16 -0.017)" fill="#2f277f"/>
                <path id="Trazado_731967" data-name="Trazado 731967" d="M91.057,9.382c-.038.329-.558.333-.52,0A17.327,17.327,0,0,0,89.352.833c.22.073.439.152.652.239a17.709,17.709,0,0,1,1.053,8.31" transform="translate(-27.423 -0.256)" fill="#2f277f"/>
                <path id="Trazado_731968" data-name="Trazado 731968" d="M97.294,12.391c0,.012,0,.026-.006.038-.043.327-.565.331-.52,0l.021-.156A19.318,19.318,0,0,0,96.5,5.729a9.893,9.893,0,0,1,.714.98v0a19.609,19.609,0,0,1,.082,5.68" transform="translate(-29.616 -1.758)" fill="#2f277f"/>
                <path id="Trazado_731969" data-name="Trazado 731969" d="M71.364,11.814c-.1.317-.6.18-.5-.139a9.767,9.767,0,0,0,.07-5.784c.119-.17.247-.34.386-.506a10.283,10.283,0,0,1,.045,6.428" transform="translate(-21.744 -1.653)" fill="#2f277f"/>
                <path id="Trazado_731970" data-name="Trazado 731970" d="M68.819,10.24a4.919,4.919,0,0,0-.256,5.124s4.452-2.926,12.107-2.216S89.405,16.5,89.405,16.5s2.216-1.756.714-5.475a25.832,25.832,0,0,0-21.3-.788" transform="translate(-20.87 -2.543)" fill="#2f277f"/>
                <path id="Trazado_731971" data-name="Trazado 731971" d="M90.825,352.282H14.412a3.812,3.812,0,1,1,0-7.624H90.825a3.812,3.812,0,1,1,0,7.624" transform="translate(-3.253 -105.779)" fill="#1e1d12"/>
                <path id="Trazado_731972" data-name="Trazado 731972" d="M21.7,393.533,27.026,349.6a3.119,3.119,0,1,0-6.192-.75l-5.415,44.686Z" transform="translate(-4.732 -106.223)" fill="#1e1d12"/>
                <path id="Trazado_731973" data-name="Trazado 731973" d="M115.6,393.533h6.284l-5.415-44.686a3.119,3.119,0,0,0-6.192.75Z" transform="translate(-33.837 -106.223)" fill="#1e1d12"/>
                <path id="Trazado_731974" data-name="Trazado 731974" d="M88.556,388.114a1.65,1.65,0,0,1-.477-.071L23.257,368.457a1.646,1.646,0,0,1,.952-3.151l64.822,19.586a1.646,1.646,0,0,1-.475,3.222" transform="translate(-6.779 -112.094)" fill="#1e1d12"/>
                <path id="Trazado_731975" data-name="Trazado 731975" d="M23.732,388.114a1.646,1.646,0,0,1-.475-3.222l64.822-19.586a1.646,1.646,0,0,1,.952,3.152L24.209,388.043a1.651,1.651,0,0,1-.477.071" transform="translate(-6.778 -112.094)" fill="#1e1d12"/>
                <path id="Trazado_731976" data-name="Trazado 731976" d="M29.572,50.1l-1.837,1.369c-.6.453-1.2.9-1.785,1.363-1.18.918-2.356,1.84-3.521,2.779-2.325,1.883-4.635,3.8-6.9,5.8s-4.52,4.053-6.719,6.281c-1.1,1.114-2.2,2.268-3.286,3.515a35.305,35.305,0,0,0-3.259,4.278c-.273.432-.548.895-.823,1.419a14.4,14.4,0,0,0-.814,1.836,11.608,11.608,0,0,0-.368,1.23,9.78,9.78,0,0,0-.243,1.62,8.479,8.479,0,0,0,.136,2.167,8.164,8.164,0,0,0,.358,1.264l.061.159.045.111.095.218c.066.149.13.275.2.41a9.887,9.887,0,0,0,1.662,2.311,12.934,12.934,0,0,0,1.519,1.352A19.634,19.634,0,0,0,6.742,91.26a37.951,37.951,0,0,0,4.738,2.07c1.525.559,3.024,1.038,4.512,1.479s2.967.837,4.443,1.209,2.949.7,4.433.977,2.972.5,4.47.668q1.124.128,2.257.2c.378.028.758.044,1.139.06.191.009.382.016.575.018l.6.008a4.256,4.256,0,0,0,1.9-8.092l-.222-.105c-.3-.143-.642-.295-.97-.43s-.663-.282-1-.415c-.667-.269-1.336-.532-2.006-.785-1.338-.508-2.681-.991-4.019-1.459s-2.673-.92-4-1.37-2.63-.923-3.906-1.417-2.521-1.013-3.695-1.558a26.636,26.636,0,0,1-3.157-1.692,6.648,6.648,0,0,1-.987-.74c-.089-.087-.137-.155-.091-.128a1.636,1.636,0,0,1,.4.536c.028.052.05.1.081.162l.041.091.058.142a4.721,4.721,0,0,1,.213.737,4.487,4.487,0,0,1,.085,1.078,3.655,3.655,0,0,1-.063.542c-.016.1-.038.173-.035.188-.008.051.043-.032.119-.141s.19-.27.322-.444c.268-.35.616-.765,1-1.19s.806-.873,1.251-1.32c.891-.9,1.863-1.8,2.874-2.7,2.029-1.793,4.183-3.572,6.388-5.317s4.462-3.468,6.748-5.16c1.142-.848,2.285-1.7,3.437-2.53l1.724-1.251,1.7-1.214.1-.071a7.309,7.309,0,1,0-8.5-11.892l-.119.087" transform="translate(0 -14.93)" fill="#b2aa7d"/>
                <path id="Trazado_731977" data-name="Trazado 731977" d="M27.115,98.888q8.237,2.727,16.2,6.181c.3.132.569-.315.262-.448q-8.022-3.481-16.328-6.234c-.318-.105-.455.4-.138.5" transform="translate(-8.267 -30.191)" fill="#1e1d12"/>
                <path id="Trazado_731978" data-name="Trazado 731978" d="M23.75,115.822,37.728,119.1c.325.076.464-.425.138-.5l-13.978-3.276c-.325-.076-.464.425-.138.5" transform="translate(-7.232 -35.391)" fill="#1e1d12"/>
                <path id="Trazado_731979" data-name="Trazado 731979" d="M29.824,80.522A235.829,235.829,0,0,1,48.49,65.361c.268-.2.008-.647-.263-.449A237.153,237.153,0,0,0,29.456,80.155c-.25.224.119.591.367.367" transform="translate(-9.015 -19.907)" fill="#1e1d12"/>
                <path id="Trazado_731980" data-name="Trazado 731980" d="M17.4,93.856l-1.571-1.591c-.275-.279-.692.164-.417.442L16.979,94.3c.275.279.691-.165.417-.443" transform="translate(-4.701 -28.29)" fill="#1e1d12"/>
                <path id="Trazado_731981" data-name="Trazado 731981" d="M17.772,95.586A5.351,5.351,0,0,0,14.1,95.4a.327.327,0,0,1-.185-.627,6.049,6.049,0,0,1,4.162.231c.389.164.08.742-.306.579" transform="translate(-4.202 -29.007)" fill="#1e1d12"/>
                <rect id="Rectángulo_344897" data-name="Rectángulo 344897" width="33.768" height="25.984" transform="matrix(0.809, -0.587, 0.587, 0.809, 28.146, 89.08)" fill="#1e1d12"/>
                <rect id="Rectángulo_344898" data-name="Rectángulo 344898" width="33.768" height="25.984" transform="translate(27.444 88.114) rotate(-35.974)" fill="#fff"/>
                <path id="Trazado_731982" data-name="Trazado 731982" d="M84.564,106.133a2.876,2.876,0,0,1,3.108.935,2.92,2.92,0,0,1,3.069.392,10.857,10.857,0,0,1,2.665,3.874c.423,1.152-.771,2.4-.771,2.4a3.59,3.59,0,0,1,.537,1.906,2.232,2.232,0,0,1-.752,1.322Z" transform="translate(-25.954 -32.535)" fill="#1e1d12"/>
                <path id="Trazado_731983" data-name="Trazado 731983" d="M42.708,112.179a4.678,4.678,0,0,0,3.728,5.3,11.483,11.483,0,0,1,3.653,1.354c2.336,1.537,4.67,4,6.07,4.443,2.065.652,1.065-1.458.9-1.7a32.361,32.361,0,0,0-2.813-3.483s3.991,2.58,5.035,4.133,2.724,1.7,2.577-.3-3.951-5.764-5.287-6.519a9.968,9.968,0,0,1,4.356,3.012c1.485,2.057,2.292,2.594,3.228,3.017s1.593-1.533-.553-4.351a11.2,11.2,0,0,0-5.242-4.086,18.733,18.733,0,0,1,3.617.688c2.217.614,3.743,3.128,5.1,2.877,1.383-.257-.5-3.075-2.237-4.164a13.042,13.042,0,0,0-5.485-2.473,32.982,32.982,0,0,0-6.67-.676c-1.609.1-7.379-.276-9.143,1.236a2.87,2.87,0,0,0-.834,1.7" transform="translate(-13.085 -33.523)" fill="#e09082"/>
                <path id="Trazado_731984" data-name="Trazado 731984" d="M50.7,108.73s4.517-1.961,6.168-1.771,4.244-.4,4.211.717-3.244,1.76-3.244,1.76Z" transform="translate(-15.559 -32.823)" fill="#e09082"/>
              </g>
            </g>
          </g>
        </g>
        <g id="Grupo_986979" data-name="Grupo 986979" transform="translate(71.254 0)">
          <g id="Grupo_986980" data-name="Grupo 986980">
            <path id="Trazado_731987" data-name="Trazado 731987" d="M114.794,211.328Z" transform="translate(-72 -135.414)" fill="#1e1d12"/>
            <path id="Trazado_731988" data-name="Trazado 731988" d="M90.622,96.426a73.138,73.138,0,0,1-12.048,4.36c-.238.064-.473.126-.711.184a74.094,74.094,0,0,1-17.525,2.292h0q-.37.006-.742.006a76.586,76.586,0,0,1-11.117-.8c-.252-.034-.5-.072-.753-.11a80.58,80.58,0,0,1-21.6-6.573q.447-1.717.915-3.341c.064-.223.128-.445.194-.667a150.07,150.07,0,0,1,5.1-14.48c.108-.266.214-.528.322-.789,3.232-7.894,6.272-14.17,7.772-20.69.042-.18.082-.358.118-.532.052-.238.1-.467.144-.693v0a16.309,16.309,0,0,0,.292-5.934c-.034-.2-.074-.4-.122-.587-.5-2.048-1.627-3.538-3.115-5.421-.128-.162-.258-.328-.393-.5a46.509,46.509,0,0,1-4.528-6.633,13.59,13.59,0,0,1-1.676-6.915q0-.309.018-.618a18.724,18.724,0,0,1,.314-2.562c1.065-5.564,4.219-9.754,8.108-11.3.194-.076.388-.146.583-.21h0a8.9,8.9,0,0,1,2.74-.435h6.8V4.2H68.286v9.281h6.8c.144,0,.288,0,.43.012.218.01.431.028.645.056a9.534,9.534,0,0,1,4.064,1.525c.166.106.328.22.489.338a16,16,0,0,1,5.8,10.012,14.666,14.666,0,0,1-1.345,10.094,43.662,43.662,0,0,1-3.824,5.734c-.15.2-.3.385-.445.569-2.735,3.474-4.516,5.383-3.934,10.6.026.242.06.491.1.751.116.8.284,1.676.505,2.64.248,1.075.536,2.16.857,3.265v0c.068.23.136.46.206.692.865,2.863,1.946,5.842,3.125,8.987.076.2.152.4.228.6.823,2.188,1.688,4.454,2.559,6.819.076.206.152.413.226.621,1.221,3.333,2.439,6.859,3.552,10.623.056.19.112.382.168.574.779,2.681,1.5,5.482,2.132,8.42" transform="translate(-16.738 -2.694)" fill="#5c6bbc"/>
            <path id="Trazado_731989" data-name="Trazado 731989" d="M173.87,60.651c-.15.2-.3.386-.445.569a36.219,36.219,0,0,1-.679-26.747c.166.106.328.22.489.338-.3.8-.561,1.613-.8,2.434a35.353,35.353,0,0,0,1.433,23.407" transform="translate(-109.261 -22.089)" fill="#8798fb"/>
            <path id="Trazado_731990" data-name="Trazado 731990" d="M103.352,124.911c-2.7-1.673-5.169-3.714-7.924-5.313-8.476-4.911-18.308-2.477-27.017.41q-.572.189-1.141.382c-.034-.2-.074-.4-.122-.587,6.294-2.1,12.677-4.116,19.379-3.561a22.744,22.744,0,0,1,10.719,3.776c2.032,1.329,3.962,2.838,6.01,4.142.026.242.06.491.1.751" transform="translate(-43.027 -74.425)" fill="#8798fb"/>
            <path id="Trazado_731991" data-name="Trazado 731991" d="M68.2,50.984a20.121,20.121,0,0,1-10.428,8.222c-.128-.162-.258-.328-.394-.5a19.2,19.2,0,0,0,4.23-2,18.113,18.113,0,0,0,8.673-16.546,19.414,19.414,0,0,0-3.83-10.128h.751a20.03,20.03,0,0,1,1.153,1.818A18.764,18.764,0,0,1,68.2,50.984" transform="translate(-36.768 -19.25)" fill="#8798fb"/>
            <path id="Trazado_731992" data-name="Trazado 731992" d="M48.96,43.008a8.547,8.547,0,0,1-8.849,2.931q0-.309.018-.618a7.962,7.962,0,0,0,8.539-2.907,9.321,9.321,0,0,0-.118-10.951c.194-.076.388-.146.583-.21h0a9.893,9.893,0,0,1-.176,11.754" transform="translate(-25.702 -20.027)" fill="#8798fb"/>
            <path id="Trazado_731993" data-name="Trazado 731993" d="M132.52,13.554a50.115,50.115,0,0,1-3.708,6.074c-2.2,3.075-5.868,8.423-10.35,7.3-3.946-.989-4.42-6.118-4.38-9.445A28.539,28.539,0,0,1,117.6,4.2h.673q-.542.971-1.009,1.984a27.839,27.839,0,0,0-2.582,11.6c0,3.515,1.031,9.844,6.054,8.518,2.2-.579,3.91-2.388,5.317-4.074A49.434,49.434,0,0,0,130,16.777q1-1.6,1.876-3.279c.218.01.432.028.646.056" transform="translate(-73.1 -2.694)" fill="#8798fb"/>
            <path id="Trazado_731994" data-name="Trazado 731994" d="M128.624,82.87a15.414,15.414,0,0,0-8.1-4.562c-2.517-.522-6.482-1.063-6.7,2.5-.181,2.965,2.123,5.68,4.468,7.184a17.115,17.115,0,0,0,4.921,2.04,11.814,11.814,0,0,0,4.633.591,3.146,3.146,0,0,0,2.767-2.795c.229-1.869-.892-3.471-1.948-4.894-.227-.306-.748-.008-.517.3,1.056,1.424,2.34,3.169,1.763,5.049-.633,2.064-3.009,1.917-4.71,1.587-3.523-.684-7.261-1.99-9.421-5.039-.92-1.3-1.721-3.138-1.232-4.749.652-2.147,3.539-1.6,5.228-1.308a14.948,14.948,0,0,1,8.419,4.519c.267.28.69-.144.424-.424" transform="translate(-72.933 -49.935)" fill="#8798fb"/>
            <path id="Trazado_731995" data-name="Trazado 731995" d="M64.728,148.806a60.1,60.1,0,0,1-5.121,5.043,62.343,62.343,0,0,1-16.192,10.236c.108-.266.214-.527.322-.789q2.392-1.064,4.688-2.332a61.627,61.627,0,0,0,10.264-7.111,60.252,60.252,0,0,0,4.505-4.272c1.475-1.548,3.8-3.643,3.353-6.022-.457-2.42-3.163-3.3-5.3-3.347a23.767,23.767,0,0,0-6.364.821,27.75,27.75,0,0,0-3.253,1.041c.052-.237.1-.467.144-.693v0a28.409,28.409,0,0,1,5.207-1.4c3.327-.559,9.6-1,10.188,3.7.254,2.016-1.179,3.731-2.438,5.129" transform="translate(-27.819 -89.48)" fill="#8798fb"/>
            <path id="Trazado_731996" data-name="Trazado 731996" d="M80.265,156.058c-3.982-1.2-8.11-1.576-12.074.136-5.486,2.368-7.622,8.635-10.977,13.139a52.52,52.52,0,0,1-11.225,11.051,53.786,53.786,0,0,1-17.319,8.342c.064-.224.128-.445.194-.667a51.917,51.917,0,0,0,5.48-1.88A52.7,52.7,0,0,0,59.6,164.669a29.3,29.3,0,0,1,4.955-6.837,13.2,13.2,0,0,1,7.149-3.213,20.228,20.228,0,0,1,8.354.745v0c.068.23.136.46.206.692" transform="translate(-18.371 -98.975)" fill="#8798fb"/>
            <path id="Trazado_731997" data-name="Trazado 731997" d="M120.52,184.305c-3.575-.661-7.571,1-10.294,3.4-3.866,3.4-6.627,8.046-9.462,12.29a134.85,134.85,0,0,1-9.187,12.689,51.4,51.4,0,0,1-4.563,4.727c-.252-.034-.5-.072-.753-.11,7.139-6.355,11.974-14.887,17.418-22.661,2.711-3.872,5.722-8.06,10.182-10.032a11.675,11.675,0,0,1,6.432-.9c.076.2.152.4.228.6" transform="translate(-55.273 -117.631)" fill="#8798fb"/>
            <path id="Trazado_731998" data-name="Trazado 731998" d="M183.287,216.407a15.535,15.535,0,0,1-3.858,1.063c-2.308.32-5.243-.094-5.363-2.989a8.222,8.222,0,0,1,1.1-3.882,25.332,25.332,0,0,1,2.445-3.992,21.1,21.1,0,0,1,1.726-2.018c.076.206.152.413.226.621-.312.33-.614.674-.9,1.025A19.52,19.52,0,0,0,174.9,212.8c-.435,1.508-.332,3.293,1.351,3.936a7.215,7.215,0,0,0,3.816.022,14.927,14.927,0,0,0,3.047-.925c.056.19.112.381.168.573" transform="translate(-111.535 -131.096)" fill="#8798fb"/>
            <path id="Trazado_731999" data-name="Trazado 731999" d="M138.282,257.328c-.238.064-.473.126-.711.184a10.857,10.857,0,0,0,.076-5.057,4.382,4.382,0,0,0-2.2-3.043c-1.677-.773-3.562.032-5.029.9a36.058,36.058,0,0,0-10.374,9.495h0c-.246,0-.494.006-.741.006a38.614,38.614,0,0,1,9.409-9.109,11.083,11.083,0,0,1,4.641-2.154c2.807-.366,4.58,1.846,5.007,4.4a12.352,12.352,0,0,1-.078,4.386" transform="translate(-76.446 -159.237)" fill="#8798fb"/>
            <path id="Trazado_732000" data-name="Trazado 732000" d="M110.361,1.411c0,.779-4.158,1.411-9.288,1.411s-9.288-.632-9.288-1.411S95.943,0,101.073,0s9.288.632,9.288,1.411" transform="translate(-58.814)" fill="#1e1d12"/>
            <path id="Trazado_732001" data-name="Trazado 732001" d="M153.416,73.9c1.02,4.34,1.859,7.738,1.859,7.738-7.83,4.551-16.323,4.486-25.1,1.157a130.04,130.04,0,0,0,5.7-37.346c0-8.6-3.548-18.76-3.548-18.76a13,13,0,0,1-.779-6.413c2.455-1.6,3.053-3.347,3.408-6.152a61.378,61.378,0,0,0,6.746,4.022l.341.181q1.075.566,2.317,1.187a17.51,17.51,0,0,1,4.935,2.993q.131.112.263.227c.1.087.2.176.3.267l.013.012.017.017a17.094,17.094,0,0,1,2.018,2.216l0,0c.25.33.495.678.728,1.042.051.079.1.158.151.238a16.4,16.4,0,0,1,2.376,7.416,28.123,28.123,0,0,1-1.981,13.372v0q-.2.494-.4.966c-.5,1.166-1,2.236-1.448,3.26h0c-.094.217-.186.432-.274.646h0a10.682,10.682,0,0,0-1.007,5.9c.169,1.085.426,2.461.738,4,.271,1.339.583,2.8.914,4.307.023.106.047.212.071.318h0c.51,2.314,1.06,4.709,1.572,6.886l.067.29" transform="translate(-83.413 -9.052)" fill="#e09082"/>
            <path id="Trazado_732002" data-name="Trazado 732002" d="M199.4,73.665s-10.611,8.722-17.64,4a70.579,70.579,0,0,1-1.833-9.5c-.011-.089-.023-.18-.035-.27a80.139,80.139,0,0,1,1.359-29.067,40.012,40.012,0,0,1,2.85,3.215l.171.213a55.25,55.25,0,0,1,4.184,6.013l.165.277a46.4,46.4,0,0,1,4.064,8.764q.288.856.572,1.668c.045.131.091.26.135.39q.87,2.479,1.669,4.526l.106.274a83.519,83.519,0,0,0,4.233,9.491" transform="translate(-114.804 -24.885)" fill="#e09082"/>
            <path id="Trazado_732003" data-name="Trazado 732003" d="M208.934,76.215c-3.145-2.239-5.982-5.2-5.449-9.29A6.284,6.284,0,0,1,204,65.117l.165.277a7.336,7.336,0,0,0,.764,6.5,13.838,13.838,0,0,0,3.872,3.936c.045.131.091.26.135.39" transform="translate(-130.347 -41.725)" fill="#edbbb4"/>
            <path id="Trazado_732004" data-name="Trazado 732004" d="M186.963,70.2c-.408,1.968-1.552,3.911-3.609,4.454a.134.134,0,0,1-.073-.259c2.15-.568,3.192-2.711,3.509-4.749a17.442,17.442,0,0,0-.614-6.842c-.973-3.918-2.519-8.09-1.164-12.112a8.172,8.172,0,0,1,1.665-2.9l.171.213a7.947,7.947,0,0,0-1.618,2.886,12.741,12.741,0,0,0-.187,6.2c.782,4.318,2.845,8.646,1.919,13.114" transform="translate(-117.381 -30.619)" fill="#edbbb4"/>
            <path id="Trazado_732005" data-name="Trazado 732005" d="M213.107,111.9a8.349,8.349,0,0,0,2.793,6.632c.129.117-.061.309-.189.191-1.933-1.773-3.364-4.742-2.787-7.41a3.332,3.332,0,0,1,2.4-2.545,4.281,4.281,0,0,1,1.285-.159c.035.092.071.183.106.274a4.092,4.092,0,0,0-1.318.144,3.145,3.145,0,0,0-2.292,2.872" transform="translate(-136.354 -69.594)" fill="#edbbb4"/>
            <path id="Trazado_732006" data-name="Trazado 732006" d="M189.365,128.509a9.658,9.658,0,0,1,.693-4.585c.463-1.113,1.2-2.536,2.559-2.653a3,3,0,0,1,2.864,2.106,7.735,7.735,0,0,1,.241,4.625c-.04.169-.3.1-.26-.07a7.666,7.666,0,0,0-.116-4.14c-.4-1.222-1.506-2.564-2.957-2.214-1.255.3-1.915,1.9-2.29,2.995a9.465,9.465,0,0,0-.463,3.935c.016.173-.254.174-.269,0" transform="translate(-121.315 -77.701)" fill="#edbbb4"/>
            <path id="Trazado_732007" data-name="Trazado 732007" d="M165.739,29.912c-.173.025-.347.04-.517.056a2.9,2.9,0,0,0-1.892.745c-2.237,2.18-.516,5.649-1.539,8.257a3.415,3.415,0,0,1-2.129,2.163,2.979,2.979,0,0,1-3.025-1.2,6.823,6.823,0,0,1-1.2-3.793,9.479,9.479,0,0,1,.761-4.242c.708-1.663,1.817-3.241,1.9-5.1a3.758,3.758,0,0,0-.21-1.469l.341.18a4.845,4.845,0,0,1-.011,2.347,22.347,22.347,0,0,1-1.686,3.953,9.315,9.315,0,0,0-.813,4.493,5.736,5.736,0,0,0,1.611,3.971,2.441,2.441,0,0,0,3.579-.288c1.868-2.254.352-5.387,1.292-7.934a3.321,3.321,0,0,1,2.273-2.25,9.193,9.193,0,0,1,1.007-.112l.263.227" transform="translate(-99.589 -16.228)" fill="#edbbb4"/>
            <path id="Trazado_732008" data-name="Trazado 732008" d="M151.249,86.628a7.6,7.6,0,0,1,2.606-3.991,3.334,3.334,0,0,1,3.951-.027,4.57,4.57,0,0,1,1.366,3.951A6.412,6.412,0,0,1,152.1,92.4c-.171-.017-.174-.286,0-.269a6.223,6.223,0,0,0,6.642-4.618,5.082,5.082,0,0,0-.517-4.042,2.89,2.89,0,0,0-3.873-.809c-1.532.8-2.284,2.491-2.837,4.039-.058.162-.319.094-.26-.07" transform="translate(-96.911 -52.526)" fill="#edbbb4"/>
            <path id="Trazado_732009" data-name="Trazado 732009" d="M176.093,134.276a7.9,7.9,0,0,0-2.345-.53c-1.849-.184-4.339-.239-5.305-2.155a2.494,2.494,0,0,1-.086-2.266,2.937,2.937,0,0,1,2.094-1.239c1.041-.251,2.062-.552,2.433-1.678a2.309,2.309,0,0,0,.017-1.424,3.143,3.143,0,0,0-1.129-1.377c-.767-.633-1.706-1.524-1.222-2.618a2.753,2.753,0,0,1,2.266-1.371c.158-.027.316-.05.468-.072.171-.024.171.245,0,.269-.134.019-.281.042-.435.073-1.068.212-2.468.737-2.115,2.045.3,1.1,1.566,1.526,2.158,2.421a2.524,2.524,0,0,1-1.282,3.686c-.874.335-1.968.322-2.687.986a2.118,2.118,0,0,0-.1,2.687c1.222,1.892,4.018,1.561,5.939,1.894a6.231,6.231,0,0,1,1.257.349c.023.106.047.212.071.318" transform="translate(-107.729 -76.602)" fill="#edbbb4"/>
            <path id="Trazado_732010" data-name="Trazado 732010" d="M152.629,122.533c2.187-.363,4.982-.68,6.43,1.428a2.787,2.787,0,0,1,.2,2.8,3.78,3.78,0,0,1-2.484,1.956,8.008,8.008,0,0,1-4.315-.3.135.135,0,0,1,.07-.26,7.567,7.567,0,0,0,4.31.26,3.225,3.225,0,0,0,2.443-2.906,3.07,3.07,0,0,0-2.166-2.692,8.622,8.622,0,0,0-4.412-.022c-.17.028-.244-.231-.073-.259" transform="translate(-97.63 -78.347)" fill="#edbbb4"/>
            <path id="Trazado_732011" data-name="Trazado 732011" d="M155.6,154.053a3,3,0,0,1,3.153,1.038,2.355,2.355,0,0,1,.193,3.019,3.216,3.216,0,0,1-3.1.568,2.92,2.92,0,0,1-2.224-2.293c-.194-1.314.794-2.087,1.976-2.331.169-.035.243.224.073.259a2.53,2.53,0,0,0-1.476.75,1.775,1.775,0,0,0-.157,1.813,3.1,3.1,0,0,0,3.105,1.672,2.329,2.329,0,0,0,1.608-.627,1.843,1.843,0,0,0,.216-1.944,2.788,2.788,0,0,0-3.3-1.664.135.135,0,0,1-.073-.259" transform="translate(-98.423 -98.639)" fill="#edbbb4"/>
            <path id="Trazado_732012" data-name="Trazado 732012" d="M150.076,189.833c.331-1.206.727-3.04-.706-3.724-1.052-.5-1.875.817-2.92.5-.878-.264-.983-1.337-.8-2.089a9.5,9.5,0,0,0,.473-1.8c.029-.665-.564-1.644-1.327-1.119-.143.1-.28-.134-.138-.232a1.019,1.019,0,0,1,1.192.056,1.486,1.486,0,0,1,.539,1.369,16.131,16.131,0,0,1-.512,1.944c-.152.766.173,1.843,1.159,1.614.577-.134,1.048-.561,1.649-.626a1.608,1.608,0,0,1,1.256.45c1.064.979.731,2.5.394,3.725a.135.135,0,0,1-.26-.07" transform="translate(-92.655 -116.11)" fill="#edbbb4"/>
            <path id="Trazado_732013" data-name="Trazado 732013" d="M176.748,180.014a1.76,1.76,0,0,0-.938.9c-.4.773-.543,1.752-1.258,2.325-.908.726-2.267.315-3.334.433a5.262,5.262,0,0,0-3.449,1.635,3.487,3.487,0,0,0-.514,3.936.135.135,0,0,1-.231.137,3.588,3.588,0,0,1-.06-3.314,4.609,4.609,0,0,1,2.714-2.325,6.906,6.906,0,0,1,1.96-.372,7.478,7.478,0,0,0,2.355-.123c1.144-.448,1.166-1.943,1.8-2.833a1.83,1.83,0,0,1,.884-.687l.067.29" transform="translate(-106.746 -115.163)" fill="#edbbb4"/>
            <path id="Trazado_732014" data-name="Trazado 732014" d="M185.239,197.657a4.526,4.526,0,0,0-3.335-.763,2.022,2.022,0,0,0-1.59,2.539c.057.164-.2.236-.259.073a2.235,2.235,0,0,1,1.374-2.739,4.5,4.5,0,0,1,3.945.657.135.135,0,0,1-.135.234" transform="translate(-115.303 -125.935)" fill="#edbbb4"/>
            <path id="Trazado_732015" data-name="Trazado 732015" d="M203.051,128.285A11.949,11.949,0,0,1,197.6,131.8a21.952,21.952,0,0,1-6.892,1.395,10.363,10.363,0,0,1-3.24-.335.135.135,0,0,0-.071.26,14.07,14.07,0,0,0,6.4,0,20.633,20.633,0,0,0,6.908-2.493,9.13,9.13,0,0,0,2.577-2.2c.105-.138-.129-.272-.233-.136" transform="translate(-120.018 -82.166)" fill="#ad4651"/>
            <path id="Trazado_732016" data-name="Trazado 732016" d="M181.214,104.573q-1.245-9.243-2.7-18.455-.418-2.632-.853-5.261c-.028-.171-.288-.1-.26.072q1.522,9.2,2.829,18.436.373,2.639.729,5.279c.023.171.283.1.26-.071" transform="translate(-113.67 -51.749)" fill="#1e1d12"/>
            <path id="Trazado_732017" data-name="Trazado 732017" d="M60.541,82.8c-8.776,3.329-17.27,3.395-25.1-1.157,0,0,.842-3.408,1.864-7.759.022-.1.045-.191.067-.288.507-2.161,1.054-4.539,1.561-6.837.024-.108.047-.216.071-.323.333-1.513.646-2.986.919-4.333.312-1.542.57-2.919.739-4a10.788,10.788,0,0,0-1.044-5.988h0q-.147-.353-.3-.712h0c-.393-.9-.833-1.835-1.268-2.842v0q-.217-.5-.43-1.022A28.173,28.173,0,0,1,35.552,33.95a16.391,16.391,0,0,1,2.4-7.458q.075-.12.151-.237c.22-.34.449-.666.682-.975a.042.042,0,0,0,.007-.009,17.1,17.1,0,0,1,2.037-2.239l.03-.03c.1-.094.2-.185.3-.274s.174-.152.26-.225a17.5,17.5,0,0,1,4.929-2.987q1.286-.64,2.391-1.226l.345-.182a61.272,61.272,0,0,0,6.668-3.981c.354,2.8.953,4.55,3.408,6.152a12.982,12.982,0,0,1-.778,6.413s-3.547,10.156-3.547,18.76a130.055,130.055,0,0,0,5.7,37.346" transform="translate(-22.71 -9.052)" fill="#e09082"/>
            <path id="Trazado_732018" data-name="Trazado 732018" d="M49.142,169.31a20.392,20.392,0,0,0,9.764,1.106l-.13-.1A14.589,14.589,0,0,1,59,173.177a7.225,7.225,0,0,1-.087,1.019,1.574,1.574,0,0,1-.105.477c-.011.02.089-.031.033.011a1.911,1.911,0,0,1-.653.11,15.83,15.83,0,0,1-7.5-.56,9.788,9.788,0,0,1-1.331-.588.634.634,0,0,1-.4-.438,3.806,3.806,0,0,1-.128-.707,9.142,9.142,0,0,1,.484-3.286.135.135,0,0,0-.26-.071,7.815,7.815,0,0,0-.375,4.071.832.832,0,0,0,.246.5,4.261,4.261,0,0,0,.91.468,11.091,11.091,0,0,0,1.613.574,16.664,16.664,0,0,0,6.2.38c.435-.049.873-.1,1.3-.2a.135.135,0,0,0,.094-.094,10.276,10.276,0,0,0,0-4.6.134.134,0,0,0-.13-.1,20.227,20.227,0,0,1-9.693-1.1c-.162-.061-.233.2-.071.26" transform="translate(-31.096 -108.318)" fill="#ad4651"/>
            <path id="Trazado_732019" data-name="Trazado 732019" d="M166.608,169.051a20.218,20.218,0,0,1-9.693,1.1.134.134,0,0,0-.13.1,10.264,10.264,0,0,0,0,4.6.134.134,0,0,0,.094.094,16.812,16.812,0,0,0,3.63.316,15.771,15.771,0,0,0,3.358-.371,11.517,11.517,0,0,0,1.782-.556c.241-.1.48-.2.712-.321a1.857,1.857,0,0,0,.656-.393,2.088,2.088,0,0,0,.218-.832,5.338,5.338,0,0,0,.033-1.158,12.172,12.172,0,0,0-.5-2.477.135.135,0,0,0-.26.072,10.376,10.376,0,0,1,.5,2.854,3.128,3.128,0,0,1-.185,1.267c-.154.326-.72.5-1.036.637a12.935,12.935,0,0,1-4.528.987,18.914,18.914,0,0,1-3.344-.128,6.927,6.927,0,0,1-.85-.132c-.029-.007-.1,0-.12-.023.088.071-.015-.333-.023-.371a5.832,5.832,0,0,1-.078-.591,13.343,13.343,0,0,1,.194-3.4l-.13.1a20.392,20.392,0,0,0,9.764-1.106c.161-.06.091-.32-.071-.26" transform="translate(-100.295 -108.318)" fill="#ad4651"/>
            <path id="Trazado_732020" data-name="Trazado 732020" d="M19.509,67.891c-.011.091-.022.18-.035.268a70.409,70.409,0,0,1-1.833,9.507c-7.029,4.72-17.641-4-17.641-4a83.474,83.474,0,0,0,4.233-9.487l.106-.276q.784-2.025,1.648-4.47c.045-.129.091-.259.137-.39q.292-.839.592-1.727a46.415,46.415,0,0,1,4.1-8.823q.081-.139.164-.275a55.081,55.081,0,0,1,4.177-5.991l.17-.213a39.856,39.856,0,0,1,2.822-3.18,80.144,80.144,0,0,1,1.36,29.057" transform="translate(0 -24.884)" fill="#e09082"/>
            <path id="Trazado_732021" data-name="Trazado 732021" d="M16.667,76.172c.045-.129.091-.259.137-.39a13.961,13.961,0,0,0,3.953-3.995,7.312,7.312,0,0,0,.739-6.555q.081-.139.165-.275a6.283,6.283,0,0,1,.539,1.865c.537,4.126-2.354,7.1-5.531,9.349" transform="translate(-10.68 -41.624)" fill="#edbbb4"/>
            <path id="Trazado_732022" data-name="Trazado 732022" d="M45.155,74.587c-2.057-.542-3.2-2.486-3.608-4.454-.926-4.468,1.137-8.8,1.919-13.114a12.75,12.75,0,0,0-.188-6.2,7.92,7.92,0,0,0-1.65-2.92l.171-.213a8.167,8.167,0,0,1,1.7,2.937c1.354,4.023-.192,8.194-1.164,12.112a17.457,17.457,0,0,0-.614,6.843c.318,2.038,1.36,4.181,3.51,4.749a.135.135,0,0,1-.074.259" transform="translate(-26.472 -30.557)" fill="#edbbb4"/>
            <path id="Trazado_732023" data-name="Trazado 732023" d="M15.454,111.9a8.341,8.341,0,0,1-2.753,6.594h.375v.013c1.816-1.792,3.114-4.631,2.559-7.193a3.332,3.332,0,0,0-2.4-2.545,4.3,4.3,0,0,0-1.346-.157c-.035.093-.071.184-.106.276a4.1,4.1,0,0,1,1.379.141,3.147,3.147,0,0,1,2.292,2.872" transform="translate(-7.55 -69.594)" fill="#edbbb4"/>
            <path id="Trazado_732024" data-name="Trazado 732024" d="M34.46,128.509a9.658,9.658,0,0,0-.693-4.585c-.463-1.113-1.2-2.536-2.559-2.653a3,3,0,0,0-2.864,2.106A7.735,7.735,0,0,0,28.1,128c.04.169.3.1.26-.07a7.666,7.666,0,0,1,.116-4.14c.4-1.222,1.506-2.564,2.957-2.214,1.255.3,1.915,1.9,2.29,2.995a9.465,9.465,0,0,1,.463,3.935c-.016.173.254.174.269,0" transform="translate(-17.854 -77.701)" fill="#edbbb4"/>
            <path id="Trazado_732025" data-name="Trazado 732025" d="M61.727,36.066a6.829,6.829,0,0,1-1.2,3.793,2.98,2.98,0,0,1-3.025,1.2A3.412,3.412,0,0,1,55.369,38.9c-1.025-2.608.7-6.076-1.539-8.257a2.9,2.9,0,0,0-1.892-.745c-.188-.017-.38-.034-.57-.064.087-.078.174-.152.26-.226.361.04.733.047,1.064.119a3.322,3.322,0,0,1,2.272,2.25c.94,2.547-.576,5.68,1.293,7.934a2.439,2.439,0,0,0,3.578.288,5.739,5.739,0,0,0,1.612-3.971,9.33,9.33,0,0,0-.814-4.493,22.371,22.371,0,0,1-1.686-3.953,4.825,4.825,0,0,1,0-2.386l.345-.182a3.768,3.768,0,0,0-.226,1.51c.082,1.863,1.191,3.441,1.9,5.1a9.491,9.491,0,0,1,.761,4.241" transform="translate(-32.915 -16.154)" fill="#edbbb4"/>
            <path id="Trazado_732026" data-name="Trazado 732026" d="M70.222,86.628a7.6,7.6,0,0,0-2.606-3.991,3.334,3.334,0,0,0-3.951-.027A4.57,4.57,0,0,0,62.3,86.56,6.413,6.413,0,0,0,69.374,92.4c.171-.017.174-.286,0-.269a6.224,6.224,0,0,1-6.642-4.618,5.085,5.085,0,0,1,.517-4.042,2.89,2.89,0,0,1,3.873-.809c1.532.8,2.284,2.491,2.838,4.039.058.162.319.094.26-.07" transform="translate(-39.904 -52.526)" fill="#edbbb4"/>
            <path id="Trazado_732027" data-name="Trazado 732027" d="M52.881,131.591c-.966,1.916-3.456,1.971-5.305,2.155a7.709,7.709,0,0,0-2.414.561c.024-.108.048-.216.071-.322a6.222,6.222,0,0,1,1.326-.376c1.921-.333,4.717,0,5.939-1.894a2.118,2.118,0,0,0-.1-2.687c-.719-.665-1.813-.651-2.688-.986a2.524,2.524,0,0,1-1.281-3.687c.593-.9,1.861-1.326,2.158-2.421.36-1.332-1.1-1.853-2.175-2.056-.133-.024-.259-.045-.375-.061-.169-.024-.17-.294,0-.269.134.019.27.038.409.062a2.8,2.8,0,0,1,2.326,1.381c.483,1.094-.456,1.985-1.222,2.618a3.139,3.139,0,0,0-1.129,1.377,2.313,2.313,0,0,0,.016,1.423c.371,1.125,1.393,1.426,2.434,1.678a2.935,2.935,0,0,1,2.093,1.24,2.5,2.5,0,0,1-.085,2.266" transform="translate(-28.939 -76.602)" fill="#edbbb4"/>
            <path id="Trazado_732028" data-name="Trazado 732028" d="M70.23,122.533c-2.187-.363-4.982-.68-6.43,1.428a2.787,2.787,0,0,0-.2,2.8,3.78,3.78,0,0,0,2.484,1.956,8.008,8.008,0,0,0,4.315-.3.135.135,0,0,0-.07-.26,7.567,7.567,0,0,1-4.31.26,3.225,3.225,0,0,1-2.443-2.906,3.07,3.07,0,0,1,2.166-2.692,8.622,8.622,0,0,1,4.412-.022c.17.028.244-.231.073-.259" transform="translate(-40.573 -78.347)" fill="#edbbb4"/>
            <path id="Trazado_732029" data-name="Trazado 732029" d="M69.689,154.053a3,3,0,0,0-3.153,1.038,2.355,2.355,0,0,0-.193,3.019,3.216,3.216,0,0,0,3.1.568,2.92,2.92,0,0,0,2.224-2.293c.194-1.314-.794-2.087-1.976-2.331-.169-.035-.243.224-.073.259a2.531,2.531,0,0,1,1.476.75,1.775,1.775,0,0,1,.157,1.813,3.1,3.1,0,0,1-3.105,1.672,2.329,2.329,0,0,1-1.608-.627,1.843,1.843,0,0,1-.216-1.944,2.788,2.788,0,0,1,3.3-1.664.135.135,0,0,0,.073-.259" transform="translate(-42.209 -98.639)" fill="#edbbb4"/>
            <path id="Trazado_732030" data-name="Trazado 732030" d="M74.767,189.833c-.331-1.206-.727-3.04.705-3.724,1.052-.5,1.875.817,2.92.5.878-.264.983-1.337.8-2.089a9.5,9.5,0,0,1-.473-1.8c-.029-.665.564-1.644,1.327-1.119.143.1.279-.134.138-.232a1.019,1.019,0,0,0-1.192.056,1.486,1.486,0,0,0-.539,1.369,16.126,16.126,0,0,0,.512,1.944c.152.766-.174,1.843-1.159,1.614-.577-.134-1.048-.561-1.649-.626a1.608,1.608,0,0,0-1.256.45c-1.064.979-.731,2.5-.394,3.725a.135.135,0,0,0,.26-.07" transform="translate(-47.532 -116.11)" fill="#edbbb4"/>
            <path id="Trazado_732031" data-name="Trazado 732031" d="M50.413,189.346a.135.135,0,0,1-.232-.137,3.491,3.491,0,0,0-.514-3.936,5.266,5.266,0,0,0-3.45-1.635c-1.066-.118-2.426.293-3.334-.433-.716-.573-.859-1.552-1.258-2.325a1.744,1.744,0,0,0-1-.918c.022-.1.045-.191.067-.288a1.806,1.806,0,0,1,.942.706c.638.89.66,2.385,1.8,2.833a7.485,7.485,0,0,0,2.355.123,6.912,6.912,0,0,1,1.961.372,4.614,4.614,0,0,1,2.714,2.325,3.593,3.593,0,0,1-.059,3.314" transform="translate(-26.035 -115.13)" fill="#edbbb4"/>
            <path id="Trazado_732032" data-name="Trazado 732032" d="M40.62,197.657a4.525,4.525,0,0,1,3.335-.763,2.023,2.023,0,0,1,1.59,2.539c-.057.164.2.236.259.073a2.235,2.235,0,0,0-1.374-2.739,4.5,4.5,0,0,0-3.945.657.135.135,0,0,0,.135.234" transform="translate(-25.9 -125.935)" fill="#edbbb4"/>
            <path id="Trazado_732033" data-name="Trazado 732033" d="M4.318,128.293a12.1,12.1,0,0,0,5.415,3.558,22.678,22.678,0,0,0,7.291,1.523,10.6,10.6,0,0,0,3.337-.339.135.135,0,0,0-.071-.26,13.835,13.835,0,0,1-6.28-.01,21.183,21.183,0,0,1-6.771-2.384,9,9,0,0,1-2.689-2.225c-.1-.136-.338,0-.233.136" transform="translate(-2.75 -82.083)" fill="#ad4651"/>
            <path id="Trazado_732034" data-name="Trazado 732034" d="M48.823,104.644q1.245-9.243,2.7-18.455.418-2.632.853-5.261c.028-.17-.232-.242-.26-.071q-1.522,9.2-2.829,18.436-.373,2.639-.728,5.28c-.023.169.237.243.26.071" transform="translate(-31.117 -51.749)" fill="#1e1d12"/>
            <path id="Trazado_732035" data-name="Trazado 732035" d="M143.164,19.817a7.7,7.7,0,0,1-4.514,6.188c-.158.07-.022.3.136.232a7.964,7.964,0,0,0,4.648-6.421c.018-.172-.252-.171-.269,0" transform="translate(-88.798 -12.616)" fill="#ad4651"/>
            <path id="Trazado_732036" data-name="Trazado 732036" d="M137.678,37.4a88.733,88.733,0,0,1,4.682,23.055,87.544,87.544,0,0,1-1.568,23.4A85.622,85.622,0,0,1,137.167,96.5a.138.138,0,0,0,.094.166,21.886,21.886,0,0,0,4.454,1.153,28.832,28.832,0,0,0,10.377-.092,26.214,26.214,0,0,0,7.106-2.515c.154-.08.018-.313-.136-.232a27.631,27.631,0,0,1-20.313,1.891,14.808,14.808,0,0,1-1.415-.466l.094.166a86.352,86.352,0,0,0,5.1-22.933,88.659,88.659,0,0,0-4.588-36.3c-.056-.163-.316-.093-.26.071" transform="translate(-87.889 -23.862)" fill="#ad4651"/>
            <path id="Trazado_732037" data-name="Trazado 732037" d="M83.273,19.817a7.964,7.964,0,0,0,4.648,6.421c.157.069.294-.163.136-.232a7.7,7.7,0,0,1-4.514-6.188c-.017-.171-.287-.172-.269,0" transform="translate(-53.358 -12.616)" fill="#ad4651"/>
            <path id="Trazado_732038" data-name="Trazado 732038" d="M58,37.333a89,89,0,0,0-4.686,23.046,87.846,87.846,0,0,0,1.539,23.389,85.6,85.6,0,0,0,3.658,12.8l.094-.166a21.517,21.517,0,0,1-4.207,1.11,28.492,28.492,0,0,1-10.405-.033,26,26,0,0,1-7.116-2.5c-.153-.08-.29.152-.136.233a27.912,27.912,0,0,0,20.428,1.945,15.231,15.231,0,0,0,1.508-.492.137.137,0,0,0,.094-.166,86.1,86.1,0,0,1-5.1-22.942A88.385,88.385,0,0,1,58.259,37.4c.057-.164-.2-.235-.26-.071" transform="translate(-23.499 -23.863)" fill="#ad4651"/>
          </g>
        </g>
      </g>
    </g>
  </g>
</svg>
