<svg xmlns="http://www.w3.org/2000/svg" width="83" height="83" viewBox="0 0 83 83">
  <g id="Grupo_1042240" data-name="Grupo 1042240" transform="translate(-549 -10757)">
    <circle id="Elipse_7956" data-name="Elipse 7956" cx="41.5" cy="41.5" r="41.5" transform="translate(549 10757)" fill="#fff"/>
    <g id="evaluacion" transform="translate(570.744 10758.237)">
      <g id="Grupo_1042231" data-name="Grupo 1042231" transform="translate(36.703 50.564)">
        <path id="Trazado_769300" data-name="Trazado 769300" d="M390.388,373.373a3.376,3.376,0,0,1-4.726,0l-6.14-6.14,4.726-4.726,6.14,6.14A3.342,3.342,0,0,1,390.388,373.373Z" transform="translate(-379.522 -362.507)" fill="#eab7a2"/>
      </g>
      <g id="Grupo_1042232" data-name="Grupo 1042232" transform="translate(18.368 32.159)">
        <circle id="Elipse_7958" data-name="Elipse 7958" cx="8.322" cy="8.322" r="8.322" transform="translate(0 11.768) rotate(-45)" fill="#0ce6ea"/>
      </g>
      <g id="Grupo_1042233" data-name="Grupo 1042233" transform="translate(34.278 48.134)">
        <path id="Trazado_769301" data-name="Trazado 769301" d="M357.486,337.38l3.268,3.268-3.031,3.031-3.283-3.283a8.387,8.387,0,0,0,3.047-3.016Z" transform="translate(-354.439 -337.38)" fill="#fff"/>
      </g>
      <g id="Grupo_1042234" data-name="Grupo 1042234" transform="translate(0.967 18.133)">
        <path id="Trazado_769302" data-name="Trazado 769302" d="M41.063,29.186a2.021,2.021,0,0,0-2.021-2.021H12.021A2.021,2.021,0,0,0,10,29.186V66.261a2.021,2.021,0,0,0,2.021,2.021H39.042a2.021,2.021,0,0,0,2.021-2.021v-5.2a8.323,8.323,0,1,1,0-16.212V29.186Z" transform="translate(-10 -27.165)" fill="#fff"/>
      </g>
      <g id="Grupo_1042235" data-name="Grupo 1042235" transform="translate(6.174 25.043)">
        <path id="Trazado_769303" data-name="Trazado 769303" d="M63.84,98.612h5.424v5.424H63.84Z" transform="translate(-63.84 -98.612)" fill="#b7bcce"/>
      </g>
      <g id="Grupo_1042236" data-name="Grupo 1042236" transform="translate(6.174 35.979)">
        <path id="Trazado_769304" data-name="Trazado 769304" d="M63.84,211.7h5.424v5.424H63.84Z" transform="translate(-63.84 -211.701)" fill="#b7bcce"/>
      </g>
      <g id="Grupo_1042237" data-name="Grupo 1042237" transform="translate(6.174 46.916)">
        <path id="Trazado_769305" data-name="Trazado 769305" d="M63.84,324.791h5.424v5.424H63.84Z" transform="translate(-63.84 -324.791)" fill="#b7bcce"/>
      </g>
      <g id="Grupo_1042238" data-name="Grupo 1042238" transform="translate(0 17.166)">
        <path id="Trazado_769306" data-name="Trazado 769306" d="M48.253,56.02l-6.14-6.14a.967.967,0,0,0-1.368,0l-.154.154-2.08-2.08A9.279,9.279,0,0,0,33,35.091V32.1a.967.967,0,0,0-1.934,0v2.585a9.291,9.291,0,1,0,0,18.491v4.057a1.055,1.055,0,0,1-1.054,1.054H2.988a1.055,1.055,0,0,1-1.054-1.054V20.154A1.055,1.055,0,0,1,2.988,19.1H30.009a1.055,1.055,0,0,1,1.054,1.054v3.427a.967.967,0,0,0,1.934,0V20.154a2.992,2.992,0,0,0-2.988-2.988H2.988A2.992,2.992,0,0,0,0,20.154V57.229a2.992,2.992,0,0,0,2.988,2.988H30.009A2.992,2.992,0,0,0,33,57.229V52.762a9.228,9.228,0,0,0,1.1-.429l2.1,2.1-.173.173a.979.979,0,0,0,0,1.368l6.14,6.14a4.309,4.309,0,0,0,6.094-6.093ZM36.3,47.953a7.355,7.355,0,1,1-.954-9.228A7.4,7.4,0,0,1,36.3,47.953Zm-.5,3.345a9.414,9.414,0,0,0,1.671-1.656L39.224,51.4,37.56,53.065Zm11.092,9.447a2.4,2.4,0,0,1-3.358,0L38.071,55.29l3.358-3.358,5.457,5.457A2.377,2.377,0,0,1,46.886,60.746Z" transform="translate(0 -17.166)"/>
        <path id="Trazado_769307" data-name="Trazado 769307" d="M61.2,89.578a.967.967,0,0,0-.967-.967H54.807a.967.967,0,0,0-.967.967V95a.967.967,0,0,0,.967.967h5.424A.967.967,0,0,0,61.2,95Zm-1.934,4.457h-3.49v-3.49h3.49Z" transform="translate(-48.633 -81.702)"/>
        <path id="Trazado_769308" data-name="Trazado 769308" d="M61.2,202.668a.967.967,0,0,0-.967-.967H54.807a.967.967,0,0,0-.967.967v5.424a.967.967,0,0,0,.967.967h5.424a.967.967,0,0,0,.967-.967Zm-1.934,4.457h-3.49v-3.49h3.49Z" transform="translate(-48.633 -183.855)"/>
        <path id="Trazado_769309" data-name="Trazado 769309" d="M60.231,314.79H54.807a.967.967,0,0,0-.967.967v5.424a.967.967,0,0,0,.967.967h5.424a.967.967,0,0,0,.967-.967v-5.424A.967.967,0,0,0,60.231,314.79Zm-.967,5.424h-3.49v-3.49h3.49Z" transform="translate(-48.633 -286.007)"/>
        <path id="Trazado_769310" data-name="Trazado 769310" d="M177.969,89.578a.967.967,0,0,0-.967-.967h-9.684a.967.967,0,1,0,0,1.934H177a.967.967,0,0,0,.967-.967Z" transform="translate(-150.262 -81.702)"/>
        <path id="Trazado_769311" data-name="Trazado 769311" d="M175,132.223a.967.967,0,0,0-.967-.967h-6.712a.967.967,0,1,0,0,1.934h6.712A.967.967,0,0,0,175,132.223Z" transform="translate(-150.262 -120.222)"/>
        <path id="Trazado_769312" data-name="Trazado 769312" d="M172.318,203.063a.967.967,0,0,0-.967-.967h-4.034a.967.967,0,1,0,0,1.934h4.034A.967.967,0,0,0,172.318,203.063Z" transform="translate(-150.262 -184.211)"/>
        <path id="Trazado_769313" data-name="Trazado 769313" d="M168.246,244.74h-.929a.967.967,0,1,0,0,1.934h.929a.967.967,0,0,0,0-1.934Z" transform="translate(-150.262 -222.731)"/>
        <path id="Trazado_769314" data-name="Trazado 769314" d="M167.317,316.724h.929a.967.967,0,0,0,0-1.934h-.929a.967.967,0,0,0,0,1.934Z" transform="translate(-150.262 -286.007)"/>
        <path id="Trazado_769315" data-name="Trazado 769315" d="M167.317,359.368h4.034a.967.967,0,0,0,0-1.934h-4.034a.967.967,0,1,0,0,1.934Z" transform="translate(-150.262 -324.527)"/>
        <path id="Trazado_769316" data-name="Trazado 769316" d="M264.69,265.337a.967.967,0,0,0-1.368,1.368l2.307,2.307a.967.967,0,0,0,1.368,0l4.714-4.714a.967.967,0,0,0-1.368-1.368l-4.03,4.031Z" transform="translate(-237.601 -238.906)"/>
        <path id="Trazado_769317" data-name="Trazado 769317" d="M323.077,118.275a.966.966,0,1,0-.523,1.262A.975.975,0,0,0,323.077,118.275Z" transform="translate(-290.154 -107.959)"/>
      </g>
    </g>
  </g>
</svg>
