<svg xmlns="http://www.w3.org/2000/svg" xmlns:xlink="http://www.w3.org/1999/xlink" width="100" height="100" viewBox="0 0 100 100">
  <defs>
    <clipPath id="clip-path">
      <path id="path1905" d="M0-682.665H58.2v58.2H0Z" transform="translate(0 682.665)"/>
    </clipPath>
  </defs>
  <g id="Grupo_1042390" data-name="Grupo 1042390" transform="translate(-660 -605)">
    <circle id="Elipse_7985" data-name="Elipse 7985" cx="50" cy="50" r="50" transform="translate(660 605)" fill="#0ce6ea"/>
    <g id="g1899" transform="translate(677.643 1307.567)">
      <g id="g1901" transform="translate(0 -682.665)">
        <g id="g1903" clip-path="url(#clip-path)">
          <g id="g1909" transform="translate(12.152 11.859)">
            <path id="path1911" d="M0,0V41.718a3.766,3.766,0,0,0,3.766,3.766H39.544a3.766,3.766,0,0,0,3.766-3.766V0Z" fill="#f9f5f3"/>
          </g>
          <g id="g1913" transform="translate(49.081 11.859)">
            <path id="path1915" d="M-40.411,0V41.718a3.766,3.766,0,0,1-3.766,3.766h2.614A3.766,3.766,0,0,0-37.8,41.718V0Z" transform="translate(44.177)" fill="#f9eae0"/>
          </g>
          <g id="g1917" transform="translate(5.598 30.076)">
            <path id="path1919" d="M-214.856-157.705l-14.7-14.7-5.326,5.326,14.7,14.7a.909.909,0,0,0,.643.266h.812l4.138-4.138v-.812a.909.909,0,0,0-.266-.643" transform="translate(234.879 172.402)" fill="#a0c8ff"/>
          </g>
          <g id="g1921" transform="translate(9.62 30.076)">
            <path id="path1923" d="M-171.7-157.705l-14.7-14.7-1.3,1.3,15.209,15.209a.908.908,0,0,1,.246.452l.813-.814v-.812a.909.909,0,0,0-.266-.643" transform="translate(187.704 172.402)" fill="#91b2fa"/>
          </g>
          <g id="g1925" transform="translate(20.62 45.098)">
            <path id="path1927" d="M-56.523-46.766v-4.04a.908.908,0,0,0-.059-.318l-5.209,5.209a.908.908,0,0,0,.318.059h4.04a.909.909,0,0,0,.909-.909" transform="translate(61.791 51.124)" fill="#f9eae0"/>
          </g>
          <g id="g1929" transform="translate(2.734 27.212)">
            <path id="path1931" d="M-34.493-5.918l-2.663,2.663a1.883,1.883,0,0,0,0,2.663l2.663,2.663,5.326-5.326L-31.83-5.918a1.883,1.883,0,0,0-2.663,0" transform="translate(37.708 6.47)" fill="#fa8ebb"/>
          </g>
          <g id="g1933" transform="translate(5.976 27.213)">
            <path id="path1935" d="M0-5.649l.027.024L3.994-1.657l1.3-1.3L2.636-5.624A1.882,1.882,0,0,0,0-5.649" transform="translate(0 6.175)" fill="#f57fb0"/>
          </g>
          <g id="g1937" transform="translate(12.152 4.619)">
            <path id="path1939" d="M-424.323,0H-460.1a3.766,3.766,0,0,0-3.766,3.766V9.415h43.31V3.766A3.766,3.766,0,0,0-424.323,0" transform="translate(463.867)" fill="#ea526f"/>
          </g>
          <g id="g1941" transform="translate(49.081 4.619)">
            <path id="path1943" d="M-28.052,0h-2.614A3.766,3.766,0,0,1-26.9,3.766V9.415h2.614V3.766A3.766,3.766,0,0,0-28.052,0" transform="translate(30.667)" fill="#ffbd61"/>
          </g>
          <g id="g1945" transform="translate(17.801 0.852)">
            <path id="path1947" d="M0-60.617a1.883,1.883,0,0,0,1.883,1.883,1.883,1.883,0,0,0,1.883-1.883v-3.766a1.883,1.883,0,0,0-1.883-1.883A1.883,1.883,0,0,0,0-64.383Z" transform="translate(0 66.267)" fill="#bdd3dd"/>
          </g>
          <g id="g1949" transform="translate(46.047 0.852)">
            <path id="path1951" d="M0-60.617a1.883,1.883,0,0,0,1.883,1.883,1.883,1.883,0,0,0,1.883-1.883v-3.766a1.883,1.883,0,0,0-1.883-1.883A1.883,1.883,0,0,0,0-64.383Z" transform="translate(0 66.267)" fill="#bdd3dd"/>
          </g>
          <g id="g1953" transform="translate(27.216 0.852)">
            <path id="path1955" d="M0-60.617a1.883,1.883,0,0,0,1.883,1.883,1.883,1.883,0,0,0,1.883-1.883v-3.766a1.883,1.883,0,0,0-1.883-1.883A1.883,1.883,0,0,0,0-64.383Z" transform="translate(0 66.267)" fill="#bdd3dd"/>
          </g>
          <g id="g1957" transform="translate(36.631 0.852)">
            <path id="path1959" d="M0-60.617a1.883,1.883,0,0,0,1.883,1.883,1.883,1.883,0,0,0,1.883-1.883v-3.766a1.883,1.883,0,0,0-1.883-1.883A1.883,1.883,0,0,0,0-64.383Z" transform="translate(0 66.267)" fill="#bdd3dd"/>
          </g>
          <g id="g1961" transform="translate(46.622 0.852)">
            <path id="path1963" d="M-14.026,0a1.875,1.875,0,0,0-1.307.529,1.877,1.877,0,0,1,.576,1.354V5.649A1.876,1.876,0,0,1-15.333,7a1.875,1.875,0,0,0,1.307.529,1.883,1.883,0,0,0,1.883-1.883V1.883A1.883,1.883,0,0,0-14.026,0" transform="translate(15.333)" fill="#abc4d6"/>
          </g>
          <g id="g1965" transform="translate(37.207 0.852)">
            <path id="path1967" d="M-14.026,0a1.876,1.876,0,0,0-1.307.529,1.876,1.876,0,0,1,.576,1.354V5.649A1.876,1.876,0,0,1-15.333,7a1.875,1.875,0,0,0,1.307.529,1.883,1.883,0,0,0,1.883-1.883V1.883A1.883,1.883,0,0,0-14.026,0" transform="translate(15.333)" fill="#abc4d6"/>
          </g>
          <g id="g1969" transform="translate(27.792 0.852)">
            <path id="path1971" d="M-14.026,0a1.875,1.875,0,0,0-1.307.529,1.877,1.877,0,0,1,.576,1.354V5.649A1.876,1.876,0,0,1-15.333,7a1.875,1.875,0,0,0,1.307.529,1.883,1.883,0,0,0,1.883-1.883V1.883A1.883,1.883,0,0,0-14.026,0" transform="translate(15.333)" fill="#abc4d6"/>
          </g>
          <g id="g1973" transform="translate(18.377 0.852)">
            <path id="path1975" d="M-14.026,0a1.875,1.875,0,0,0-1.307.529,1.876,1.876,0,0,1,.576,1.354V5.649A1.876,1.876,0,0,1-15.333,7a1.875,1.875,0,0,0,1.307.529,1.883,1.883,0,0,0,1.883-1.883V1.883A1.883,1.883,0,0,0-14.026,0" transform="translate(15.333)" fill="#abc4d6"/>
          </g>
          <g id="g1977" transform="translate(2.734 27.212)">
            <path id="path1979" d="M-191.3-248.452l-17.276-17.276a1.883,1.883,0,0,1,0-2.663l2.663-2.663a1.883,1.883,0,0,1,2.663,0l17.276,17.276v5.326Z" transform="translate(209.128 271.605)" fill="none" stroke="#000" stroke-linecap="round" stroke-linejoin="round" stroke-miterlimit="10" stroke-width="2"/>
          </g>
          <g id="g1981" transform="translate(25.888 50.366)">
            <path id="path1983" d="M0,0,1.331,1.331" fill="none" stroke="#000" stroke-linecap="round" stroke-linejoin="round" stroke-miterlimit="10" stroke-width="2"/>
          </g>
          <g id="g1985" transform="translate(5.949 30.426)">
            <path id="path1987" d="M-57.151,0l-5.326,5.326" transform="translate(62.477)" fill="none" stroke="#000" stroke-linecap="round" stroke-linejoin="round" stroke-miterlimit="10" stroke-width="2"/>
          </g>
          <g id="g1989" transform="translate(20.562 45.04)">
            <path id="path1991" d="M-57.151,0l-5.326,5.326" transform="translate(62.477)" fill="none" stroke="#000" stroke-linecap="round" stroke-linejoin="round" stroke-miterlimit="10" stroke-width="2"/>
          </g>
          <g id="g1993" transform="translate(8.612 33.089)">
            <path id="path1995" d="M0,0,14.613,14.613" fill="none" stroke="#000" stroke-linecap="round" stroke-linejoin="round" stroke-miterlimit="10" stroke-width="2"/>
          </g>
          <g id="g1997" transform="translate(49.813 4.619)">
            <path id="path1999" d="M-60.617-172.563v-12.316a3.766,3.766,0,0,0-3.766-3.766h-1.883" transform="translate(66.267 188.645)" fill="none" stroke="#000" stroke-linecap="round" stroke-linejoin="round" stroke-miterlimit="10" stroke-width="2"/>
          </g>
          <g id="g2001" transform="translate(48.327 24.11)">
            <path id="path2003" d="M0-356.607H3.368a3.766,3.766,0,0,0,3.766-3.766V-389.84" transform="translate(0 389.84)" fill="none" stroke="#000" stroke-linecap="round" stroke-linejoin="round" stroke-miterlimit="10" stroke-width="2"/>
          </g>
          <g id="g2005" transform="translate(12.152 42.103)">
            <path id="path2007" d="M0,0V11.475a3.766,3.766,0,0,0,3.766,3.766h29" fill="none" stroke="#000" stroke-linecap="round" stroke-linejoin="round" stroke-miterlimit="10" stroke-width="2"/>
          </g>
          <g id="g2009" transform="translate(12.152 4.619)">
            <path id="path2011" d="M-60.619,0H-62.5a3.766,3.766,0,0,0-3.766,3.766V26.539" transform="translate(66.268)" fill="none" stroke="#000" stroke-linecap="round" stroke-linejoin="round" stroke-miterlimit="10" stroke-width="2"/>
          </g>
          <g id="g2013" transform="translate(21.567 4.619)">
            <path id="path2015" d="M-60.617,0h-5.649" transform="translate(66.267)" fill="none" stroke="#000" stroke-linecap="round" stroke-linejoin="round" stroke-miterlimit="10" stroke-width="2"/>
          </g>
          <g id="g2017" transform="translate(30.982 4.619)">
            <path id="path2019" d="M-60.619,0h-5.649" transform="translate(66.268)" fill="none" stroke="#000" stroke-linecap="round" stroke-linejoin="round" stroke-miterlimit="10" stroke-width="2"/>
          </g>
          <g id="g2021" transform="translate(40.417 4.619)">
            <path id="path2023" d="M-60.406,0h-5.629" transform="translate(66.036)" fill="none" stroke="#000" stroke-linecap="round" stroke-linejoin="round" stroke-miterlimit="10" stroke-width="2"/>
          </g>
          <g id="g2025" transform="translate(12.152 14.034)">
            <path id="path2027" d="M0,0H43.31" fill="none" stroke="#000" stroke-linecap="round" stroke-linejoin="round" stroke-miterlimit="10" stroke-width="2"/>
          </g>
          <g id="g2029" transform="translate(18.743 19.683)">
            <path id="path2031" d="M0,0H30.128" fill="none" stroke="#000" stroke-linecap="round" stroke-linejoin="round" stroke-miterlimit="10" stroke-width="2"/>
          </g>
          <g id="g2033" transform="translate(18.743 25.332)">
            <path id="path2035" d="M0,0H30.128" fill="none" stroke="#000" stroke-linecap="round" stroke-linejoin="round" stroke-miterlimit="10" stroke-width="2"/>
          </g>
          <g id="g2037" transform="translate(18.743 30.981)">
            <path id="path2039" d="M0,0H30.128" fill="none" stroke="#000" stroke-linecap="round" stroke-linejoin="round" stroke-miterlimit="10" stroke-width="2"/>
          </g>
          <g id="g2041" transform="translate(18.743 36.63)">
            <path id="path2043" d="M0,0H30.128" fill="none" stroke="#000" stroke-linecap="round" stroke-linejoin="round" stroke-miterlimit="10" stroke-width="2"/>
          </g>
          <g id="g2045" transform="translate(29.099 42.279)">
            <path id="path2047" d="M0,0H19.772" fill="none" stroke="#000" stroke-linecap="round" stroke-linejoin="round" stroke-miterlimit="10" stroke-width="2"/>
          </g>
          <g id="g2049" transform="translate(17.801 0.852)">
            <path id="path2051" d="M0-60.617a1.883,1.883,0,0,0,1.883,1.883,1.883,1.883,0,0,0,1.883-1.883v-3.766a1.883,1.883,0,0,0-1.883-1.883A1.883,1.883,0,0,0,0-64.383Z" transform="translate(0 66.267)" fill="none" stroke="#000" stroke-linecap="round" stroke-linejoin="round" stroke-miterlimit="10" stroke-width="2"/>
          </g>
          <g id="g2053" transform="translate(46.047 0.852)">
            <path id="path2055" d="M0-60.617a1.883,1.883,0,0,0,1.883,1.883,1.883,1.883,0,0,0,1.883-1.883v-3.766a1.883,1.883,0,0,0-1.883-1.883A1.883,1.883,0,0,0,0-64.383Z" transform="translate(0 66.267)" fill="none" stroke="#000" stroke-linecap="round" stroke-linejoin="round" stroke-miterlimit="10" stroke-width="2"/>
          </g>
          <g id="g2057" transform="translate(27.216 0.852)">
            <path id="path2059" d="M0-60.617a1.883,1.883,0,0,0,1.883,1.883,1.883,1.883,0,0,0,1.883-1.883v-3.766a1.883,1.883,0,0,0-1.883-1.883A1.883,1.883,0,0,0,0-64.383Z" transform="translate(0 66.267)" fill="none" stroke="#000" stroke-linecap="round" stroke-linejoin="round" stroke-miterlimit="10" stroke-width="2"/>
          </g>
          <g id="g2061" transform="translate(36.631 0.852)">
            <path id="path2063" d="M0-60.617a1.883,1.883,0,0,0,1.883,1.883,1.883,1.883,0,0,0,1.883-1.883v-3.766a1.883,1.883,0,0,0-1.883-1.883A1.883,1.883,0,0,0,0-64.383Z" transform="translate(0 66.267)" fill="none" stroke="#000" stroke-linecap="round" stroke-linejoin="round" stroke-miterlimit="10" stroke-width="2"/>
          </g>
        </g>
      </g>
    </g>
  </g>
</svg>
