<svg xmlns="http://www.w3.org/2000/svg" width="100" height="100" viewBox="0 0 100 100">
  <g id="Grupo_1042392" data-name="Grupo 1042392" transform="translate(-832 -1000)">
    <circle id="Elipse_7988" data-name="Elipse 7988" cx="50" cy="50" r="50" transform="translate(832 1000)" fill="#0ce6ea"/>
    <g id="empresario" transform="translate(803.345 1015.582)">
      <g id="Grupo_1042388" data-name="Grupo 1042388" transform="translate(51.828 1.005)">
        <path id="Trazado_769862" data-name="Trazado 769862" d="M285.811,276.426c-1.78-6.022-5-7.261-10.484-8.816l-5.8,4.307c-1.227.77-.385.865-2.275-.766l-.869-.823-.968,3.8-1.155,5.565,15.907,17.845c7.058-2.9,11.124-2.569,9-9.761Z" transform="translate(-236.573 -232.636)" fill="#f3eae6" fill-rule="evenodd"/>
        <path id="Trazado_769863" data-name="Trazado 769863" d="M72.515,267.61c-4.5,1.277-8.43,2.489-10.3,8.816L58.86,287.78c-2.107,7.124,1.864,6.868,8.8,9.681l15.72-17.033,1.631-6.525-3.559-3.56Z" transform="translate(-58.295 -232.636)" fill="#f3eae6" fill-rule="evenodd"/>
        <path id="Trazado_769864" data-name="Trazado 769864" d="M231.733,310.619l-2.359-.854-2.359.854-1.669,5.565,4.028,1.589,4.024-1.589Z" transform="translate(-202.887 -269.124)" fill="#6bd9e7" fill-rule="evenodd"/>
        <path id="Trazado_769865" data-name="Trazado 769865" d="M151.552,357.505H119.7a.645.645,0,0,0-.659.659l1.2,17.105.1,1.338a.683.683,0,0,0,.659.663H153.72a.681.681,0,0,0,.659-.663l.091-1.258,1.2-17.186a.645.645,0,0,0-.659-.659Z" transform="translate(-110.873 -310.446)" fill="#9d9696" fill-rule="evenodd"/>
        <path id="Trazado_769866" data-name="Trazado 769866" d="M344.449,138.174a1.315,1.315,0,0,0-1.307-1.311h-1.955l-1.608,2.965,1.38,2.961a3.746,3.746,0,0,0,3.491-3.32Z" transform="translate(-301.762 -119.468)" fill="#f9a78a" fill-rule="evenodd"/>
        <path id="Trazado_769867" data-name="Trazado 769867" d="M239.159,414.612a2.837,2.837,0,1,0-4,.255A2.84,2.84,0,0,0,239.159,414.612Z" transform="translate(-210.545 -355.795)" fill="#fece85" fill-rule="evenodd"/>
        <path id="Trazado_769868" data-name="Trazado 769868" d="M237.191,250.329l-3.327-5.824-3.331,5.828,0,.011.968,3.788h4.718Z" transform="translate(-207.377 -212.638)" fill="#00c7dd" fill-rule="evenodd"/>
        <path id="Trazado_769869" data-name="Trazado 769869" d="M176.33,243.733l-1.905-2.977-5.633-.248c-1.707,1.3-4.108,3.19-4.729,3.644l5.8,4.307c.64.4.716.618.911.5.179-.107.457-.492,1.345-1.262l.229-.21.655-.617Z" transform="translate(-149.843 -209.178)" fill="#b8acac" fill-rule="evenodd"/>
        <path id="Trazado_769870" data-name="Trazado 769870" d="M267.575,244.127c-.621-.454-3.022-2.352-4.733-3.647l-4.207,0-3.22,3.224h-.107l3.327,3.137.869.823c1.89,1.631,1.048,1.536,2.275.766Z" transform="translate(-228.821 -209.154)" fill="#b8acac" fill-rule="evenodd"/>
        <path id="Trazado_769871" data-name="Trazado 769871" d="M138.044,136.863h-1.951a1.316,1.316,0,0,0-1.311,1.311v1.3a3.746,3.746,0,0,0,3.495,3.32l2.915-2.371Z" transform="translate(-124.499 -119.468)" fill="#f9a78a" fill-rule="evenodd"/>
        <path id="Trazado_769872" data-name="Trazado 769872" d="M268.984,357.505h-.64a.644.644,0,0,1,.655.659l-1.2,17.186-.091,1.258a.681.681,0,0,1-.659.663h4.108a.681.681,0,0,0,.659-.663l.091-1.258,1.2-17.186a.645.645,0,0,0-.659-.659Zm-14.272,0Z" transform="translate(-228.305 -310.446)" fill="#746e6e" fill-rule="evenodd"/>
        <path id="Trazado_769873" data-name="Trazado 769873" d="M184.925,76.961c-3.091,1.326-7.8-4.821-12.938-5.908-4.222-.888-8.727,2.984-12.942,5.717v7a8.7,8.7,0,0,0,.232,1.944,15.681,15.681,0,0,0,5.171,8.008,15.469,15.469,0,0,0,3.11,2.054c.389.191.785.362,1.185.511a9.078,9.078,0,0,0,3.243.659h.107a9.184,9.184,0,0,0,3.133-.659c.4-.149.8-.32,1.185-.511a15.124,15.124,0,0,0,3.11-2.058,15.664,15.664,0,0,0,5.175-8,8.918,8.918,0,0,0,.229-1.944V76.961Z" transform="translate(-145.5 -62.394)" fill="#ffdbc2" fill-rule="evenodd"/>
        <path id="Trazado_769874" data-name="Trazado 769874" d="M183.511,7.811C174.678,11.405,158.6,4.065,159,21.852c9.341-6.06,20.251,2.6,25.88.191a4.432,4.432,0,0,0,1.3-.85c3.556-4.2,3.354-15.832-2.664-13.382Z" transform="translate(-145.454 -7.475)" fill="#9d9696" fill-rule="evenodd"/>
        <path id="Trazado_769875" data-name="Trazado 769875" d="M219.4,115.828h0l-.008,0a6.859,6.859,0,0,1-3.274.393v4.254a8.912,8.912,0,0,1-.229,1.944,15.658,15.658,0,0,1-5.175,8.008,15.105,15.105,0,0,1-3.11,2.054c-.389.191-.785.362-1.185.515a8.318,8.318,0,0,1-6.482,0c-.358-.133-.713-.286-1.059-.454l.049.046a15.469,15.469,0,0,0,3.11,2.054c.389.191.785.362,1.185.511a9.078,9.078,0,0,0,3.243.659h.107a9.184,9.184,0,0,0,3.133-.659c.4-.149.8-.32,1.185-.511a15.124,15.124,0,0,0,3.11-2.058,15.664,15.664,0,0,0,5.175-8,8.918,8.918,0,0,0,.229-1.944v-6.811Z" transform="translate(-179.972 -101.261)" fill="#fcbda4" fill-rule="evenodd"/>
        <path id="Trazado_769876" data-name="Trazado 769876" d="M302.5,7.811a13.306,13.306,0,0,1-2.191.659c1.627,3.007.934,9.185-1.456,12.006a4.416,4.416,0,0,1-1.292.85,5,5,0,0,1-1.1.324c2.908.743,5.469,1.223,7.4.393a4.432,4.432,0,0,0,1.3-.85c3.556-4.2,3.354-15.832-2.664-13.382Z" transform="translate(-264.444 -7.475)" fill="#746e6e" fill-rule="evenodd"/>
        <path id="Trazado_769877" data-name="Trazado 769877" d="M255.308,243.708l2.988,2.817c.042-.015.088-.027.133-.042.107-.031.213-.065.324-.1.2-.065.4-.137.61-.213.5-.191,1-.4,1.486-.644a19.011,19.011,0,0,0,3.895-2.576c.206-.172.408-.351.606-.534-.823-.64-1.734-1.345-2.508-1.932a15.129,15.129,0,0,1-3.11,2.058c-.389.191-.785.362-1.185.511a11.092,11.092,0,0,1-1.784.518,8.04,8.04,0,0,1-.976.126h-.008c-.122.008-.244.015-.366.015h-.107Z" transform="translate(-228.821 -209.154)" fill="#9d9696" fill-rule="evenodd"/>
        <path id="Trazado_769878" data-name="Trazado 769878" d="M187.39,243.075c-.015,0-.031-.011-.046-.015C187.36,243.063,187.375,243.071,187.39,243.075Zm-6.8-.633c.2.179.4.358.61.534a19.229,19.229,0,0,0,3.891,2.573c.488.24.983.454,1.486.644.206.076.412.149.61.214.111.038.217.072.328.1.046.015.088.031.133.042l2.988-2.817c-.084,0-.164,0-.248,0a7.42,7.42,0,0,1-1.208-.137,11.264,11.264,0,0,1-1.662-.469c-.042-.015-.084-.031-.126-.05-.015,0-.031-.011-.046-.015-.385-.145-.766-.313-1.139-.5-.4-.2-.8-.419-1.185-.656L185,241.9a.372.372,0,0,0-.042-.027,15.98,15.98,0,0,1-1.738-1.258c-.008,0-.011-.011-.019-.015-.034-.031-.072-.061-.107-.088-.77.583-1.68,1.288-2.507,1.932Z" transform="translate(-164.146 -209.18)" fill="#9d9696" fill-rule="evenodd"/>
        <path id="Trazado_769879" data-name="Trazado 769879" d="M246.818,268.3l.343.32-.579,2.279-.137.533h1.825l.968-3.8-.339-.32-2.988-2.817-1.46,1.376Z" transform="translate(-219.423 -229.938)" fill="#00b1cd" fill-rule="evenodd"/>
        <path id="Trazado_769880" data-name="Trazado 769880" d="M260.606,321.68h2.161l-1.665-5.565h-1.825Z" transform="translate(-232.255 -274.62)" fill="#00c7dd" fill-rule="evenodd"/>
        <path id="Trazado_769881" data-name="Trazado 769881" d="M339.69,276.426c-1.78-6.022-5-7.261-10.484-8.816l-2.694,2c.888.377,1.662.7,1.925.785,4.211,1.353,6.818,2.984,8.357,8.183l3.887,13.9a14.581,14.581,0,0,1,.5,2.287c2.26-1.2,3.083-2.855,1.864-6.986Z" transform="translate(-290.452 -232.636)" fill="#e0d2ce" fill-rule="evenodd"/>
        <path id="Trazado_769882" data-name="Trazado 769882" d="M230.891,195.943h-7.119a.9.9,0,0,0-.892.892c0,5.294,8.906,5.294,8.906,0A.9.9,0,0,0,230.891,195.943Z" transform="translate(-200.752 -170.605)" fill="#fbf8f8" fill-rule="evenodd"/>
        <path id="Trazado_769883" data-name="Trazado 769883" d="M245.054,410.6a2.84,2.84,0,0,1,.255,4.006,2.9,2.9,0,0,1-.716.587,2.839,2.839,0,1,0,.027-4.909,2.878,2.878,0,0,1,.434.316Z" transform="translate(-219.546 -355.806)" fill="#fdb440" fill-rule="evenodd"/>
        <path id="Trazado_769884" data-name="Trazado 769884" d="M222.968,197.7H231.7a4.2,4.2,0,0,0,.088-.869.9.9,0,0,0-.9-.892h-7.119a.9.9,0,0,0-.892.892A4.2,4.2,0,0,0,222.968,197.7Z" transform="translate(-200.752 -170.604)" fill="#f3eae6" fill-rule="evenodd"/>
      </g>
      <path id="Trazado_769885" data-name="Trazado 769885" d="M233.081,403.332a3.846,3.846,0,1,0-2.549,6.732c.083,0,.167,0,.251-.008a3.816,3.816,0,0,0,2.64-1.3A3.855,3.855,0,0,0,233.081,403.332Zm-1.172,4.1a1.828,1.828,0,0,1-2.744-2.417h0a1.818,1.818,0,0,1,1.257-.618q.06,0,.119,0a1.815,1.815,0,0,1,1.205.456A1.835,1.835,0,0,1,231.909,407.429Z" transform="translate(-152.224 -348.276)"/>
      <path id="Trazado_769886" data-name="Trazado 769886" d="M105.391,55.859l-3.357-11.354c-1.885-6.378-5.419-7.859-11-9.449-.343-.258-.974-.748-1.69-1.3-.606-.471-1.264-.982-1.9-1.468a16.572,16.572,0,0,0,4.419-7.038,4.915,4.915,0,0,0,2.353-1.318A4.229,4.229,0,0,0,95.572,21v-1.3a2.32,2.32,0,0,0-2.316-2.32H92.31v-1.2a5.382,5.382,0,0,0,.98-.736,1.027,1.027,0,0,0,.077-.081,12.715,12.715,0,0,0,2.509-6.887c.262-2.84-.217-5.337-1.315-6.851A3.939,3.939,0,0,0,89.553.4c-2.509,1.021-5.819,1.1-9.021,1.184-1.842.046-3.747.094-5.536.315a1.008,1.008,0,0,0,.248,2c1.691-.209,3.545-.256,5.339-.3,3.382-.085,6.88-.172,9.73-1.332,1.536-.626,2.228.012,2.615.545,1.734,2.391,1.143,8.54-1.064,11.207a4.255,4.255,0,0,1-.774.561,1.007,1.007,0,0,0-.186.057c-1.951.836-4.887.059-8.287-.842-4.795-1.271-10.659-2.823-16.166-.158h0c.279-5.982,2.813-7.84,4.77-8.718a1.008,1.008,0,1,0-.825-1.84c-4.161,1.865-6.117,5.886-5.981,12.294v2.01H63.47a2.322,2.322,0,0,0-2.319,2.32V21A4.228,4.228,0,0,0,62.5,23.927a4.917,4.917,0,0,0,2.356,1.319,16.527,16.527,0,0,0,4.376,7c-.6.461-1.221.945-1.8,1.392-.783.609-1.473,1.145-1.839,1.42-4.2,1.195-8.51,2.5-10.618,8.83a1.008,1.008,0,1,0,1.914.637c1.73-5.2,5.064-6.328,8.955-7.441l5.4,4.01c.021.016.043.031.065.045a4.972,4.972,0,0,1,.435.308,1.523,1.523,0,0,0,.926.378A1.658,1.658,0,0,0,73.8,41.2c.143-.145.341-.346.627-.609l.483,1.887-1.373,4.578H65.315v-1.8a1.008,1.008,0,1,0-2.017,0v1.8H60.656a1.694,1.694,0,0,0-1.237.54,1.579,1.579,0,0,0-.428,1.2l1.09,15.521c-.672-.251-1.308-.477-1.9-.686-2.2-.78-3.938-1.4-4.744-2.349-.522-.617-1-1.726-.08-4.846l2.2-7.44a1.008,1.008,0,1,0-1.934-.572l-2.2,7.439c-.934,3.157-.788,5.229.474,6.721,1.158,1.369,3.122,2.065,5.609,2.948.828.294,1.751.622,2.727,1l.05.707a1.682,1.682,0,0,0,1.665,1.6H94.676a1.693,1.693,0,0,0,1.665-1.6l.044-.629c1.047-.414,2.032-.764,2.917-1.077,2.489-.882,4.455-1.579,5.613-2.948,1.262-1.492,1.409-3.565.476-6.722ZM92.309,22.38V19.406h.947a.309.309,0,0,1,.3.3V21a2.259,2.259,0,0,1-.748,1.489,3.244,3.244,0,0,1-.513.41Q92.309,22.638,92.309,22.38Zm-28.394.112A2.257,2.257,0,0,1,63.167,21v-1.3a.307.307,0,0,1,.3-.3h.943V22.38q0,.259.016.524A3.26,3.26,0,0,1,63.915,22.492ZM88.11,35.344l.8.62L84.216,39.45c-.061.038-.117.076-.169.111-.2-.2-.478-.464-.86-.793l-.83-.784c-.008-.008-.015-.017-.023-.025l-1.778-1.676a12.853,12.853,0,0,0,1.4-.441,15.365,15.365,0,0,0,3.937-2.215C86.615,34.182,87.4,34.791,88.11,35.344Zm-8.219,6.144H76.74l-.631-2.465,2.206-2.08,2.2,2.079ZM76.707,43.5h3.217l1.062,3.548H75.643ZM66.636,24.1a7.708,7.708,0,0,1-.207-1.718V15.94c5.078-3,10.7-1.508,15.671-.19,3.108.824,5.866,1.554,8.192,1.156V22.38a7.916,7.916,0,0,1-.2,1.719,15.116,15.116,0,0,1-8.841,9.853,7.3,7.3,0,0,1-5.776,0A15.1,15.1,0,0,1,66.636,24.1Zm8.239,13.316L73.44,38.768c-.38.329-.653.59-.857.793q-.078-.053-.168-.11l-4.691-3.486.948-.736c.67-.52,1.407-1.094,2.089-1.618a15.113,15.113,0,0,0,3.958,2.23,12.9,12.9,0,0,0,1.366.433Zm19.56,28.171a1,1,0,0,0-.038.539l-.049.695H62.279L61.032,49.069H95.6Zm8.941-4.308c-.807.953-2.546,1.569-4.748,2.35-.647.229-1.346.478-2.087.757l1.1-15.589a1.58,1.58,0,0,0-.428-1.2,1.694,1.694,0,0,0-1.237-.54H93.516v-1.8a1.008,1.008,0,1,0-2.017,0v1.8H83.091l-1.37-4.578.48-1.887c.287.262.486.463.629.609a1.659,1.659,0,0,0,1.127.632,1.536,1.536,0,0,0,.931-.384,5.016,5.016,0,0,1,.435-.308q.034-.021.065-.045l5.4-4.01c4.994,1.433,7.714,2.579,9.315,8l3.357,11.354c.923,3.12.442,4.229-.081,4.846Z" transform="translate(0 0)"/>
      <path id="Trazado_769887" data-name="Trazado 769887" d="M224.4,188.418H217.28a1.9,1.9,0,0,0-1.9,1.9,4.7,4.7,0,0,0,1.774,3.768,5.937,5.937,0,0,0,3.688,1.211c2.714,0,5.461-1.71,5.461-4.979A1.9,1.9,0,0,0,224.4,188.418Zm-3.558,4.862c-1.258,0-3.372-.6-3.443-2.845h6.886C224.214,192.677,222.1,193.28,220.841,193.28Z" transform="translate(-142.432 -163.086)"/>
      <path id="Trazado_769888" data-name="Trazado 769888" d="M199.993,144.729a1,1,0,0,1-.713-.3,1.291,1.291,0,0,0-1.823,0,1.008,1.008,0,0,1-1.426-1.426,3.31,3.31,0,0,1,4.675,0,1.008,1.008,0,0,1-.713,1.721Z" transform="translate(-125.429 -122.944)"/>
      <path id="Trazado_769889" data-name="Trazado 769889" d="M279.928,144.737a1,1,0,0,1-.712-.294,1.3,1.3,0,0,0-1.827,0,1.008,1.008,0,0,1-1.424-1.428,3.315,3.315,0,0,1,4.676,0,1.008,1.008,0,0,1-.712,1.722Z" transform="translate(-194.615 -122.953)"/>
    </g>
  </g>
</svg>
