<svg xmlns="http://www.w3.org/2000/svg" xmlns:xlink="http://www.w3.org/1999/xlink" width="279.653" height="181.407" viewBox="0 0 279.653 181.407">
  <defs>
    <clipPath id="clip-path">
      <rect id="Rectángulo_355374" data-name="Rectángulo 355374" width="279.653" height="181.407" fill="none"/>
    </clipPath>
    <clipPath id="clip-path-2">
      <rect id="Rectángulo_355354" data-name="Rectángulo 355354" width="18.038" height="17.05" fill="none"/>
    </clipPath>
    <clipPath id="clip-path-3">
      <rect id="Rectángulo_355355" data-name="Rectángulo 355355" width="18.038" height="17.049" fill="none"/>
    </clipPath>
  </defs>
  <g id="Grupo_1042406" data-name="Grupo 1042406" transform="translate(-660.22 -728.978)">
    <circle id="Elipse_7982" data-name="Elipse 7982" cx="61.5" cy="61.5" r="61.5" transform="translate(739 758.181)" fill="#12263f"/>
    <g id="Grupo_1042374" data-name="Grupo 1042374" transform="translate(660.22 728.978)">
      <g id="Grupo_1042375" data-name="Grupo 1042375">
        <g id="Grupo_1042372" data-name="Grupo 1042372">
          <g id="Grupo_1042371" data-name="Grupo 1042371" clip-path="url(#clip-path)">
            <path id="Trazado_769787" data-name="Trazado 769787" d="M214.742,121.038a22.011,22.011,0,0,1-2.288-1.351c-.054,3.827-.752,8.225-3.265,10.88-2.858,3.02,4.966,7.206,13.8,5.9a75.862,75.862,0,0,0,13.35-2.938s-4.9-3.816-5.113-13.307q-.422.266-.858.517a16.481,16.481,0,0,1-15.629.3" transform="translate(-83.437 -47.875)" fill="#e29b8d"/>
            <path id="Trazado_769788" data-name="Trazado 769788" d="M239.951,47.562c-.86-2.972-4.12-1.46-4.12-1.46.938-10.169-.573-38.9-28.732-36.868s-23.414,36.972-23.414,36.972c-3.611-1.773-5.72,2.14-3.165,8.657,2.33,5.944,7.493,4.9,7.493,4.9a37.08,37.08,0,0,0,12.762,15.7,21.842,21.842,0,0,0,2.288,1.351,16.483,16.483,0,0,0,15.629-.295c.291-.167.577-.341.857-.518C228.7,70.241,232.6,59.556,232.6,59.556c6.466,1.669,8.213-9.022,7.352-11.994" transform="translate(-71.759 -3.653)" fill="#eab2a5"/>
            <path id="Trazado_769789" data-name="Trazado 769789" d="M275.773,73.432c.168.191-.661-1.007-1.568-.389a3.383,3.383,0,0,0-.761,3.586c.536.742,1.2,2.391.041,3.133s-.821,1.114-.821,1.114A3.051,3.051,0,0,1,274,79.926c.845-.289.848-1.768,0-2.927s.326-5.217,1.773-3.567" transform="translate(-109.049 -29.146)" fill="#bc6262"/>
            <path id="Trazado_769790" data-name="Trazado 769790" d="M182.468,73.635c-.146.208.549-1.073,1.517-.556a3.38,3.38,0,0,1,1.143,3.482c-.453.8-.931,2.506.3,3.119s.935,1.018.935,1.018a3.053,3.053,0,0,0-1.43-.8c-.871-.2-1.034-1.666-.315-2.91s-.886-5.152-2.147-3.355" transform="translate(-72.98 -29.183)" fill="#bc6262"/>
            <path id="Trazado_769791" data-name="Trazado 769791" d="M225.064,89.227a2.861,2.861,0,0,0,3,1.991c2.912,0,3.518-1.991,3.518-1.991a4.73,4.73,0,0,1-3.5,1.278,5.127,5.127,0,0,1-3.01-1.278" transform="translate(-90.027 -35.691)" fill="#bc6262"/>
            <path id="Trazado_769792" data-name="Trazado 769792" d="M207.921,86.391a2.907,2.907,0,1,1-2.824-2.218,2.577,2.577,0,0,1,2.824,2.218" transform="translate(-80.91 -33.67)" fill="#e29f91"/>
            <path id="Trazado_769793" data-name="Trazado 769793" d="M203.057,67.121a2.511,2.511,0,0,1,1.447-1.549,11.725,11.725,0,0,1,2.614-.661c3.716-.545,4.5,1.4,3.679,2.139s-1.352-.157-3.694.27c-2.113.385-4.619,1.508-4.045-.2" transform="translate(-81.19 -25.927)" fill="#3a1751"/>
            <path id="Trazado_769794" data-name="Trazado 769794" d="M211.417,75.372a2.465,2.465,0,1,1-2.465-2.465,2.465,2.465,0,0,1,2.465,2.465" transform="translate(-82.595 -29.163)" fill="#3a1751"/>
            <path id="Trazado_769795" data-name="Trazado 769795" d="M249.011,86.391a2.907,2.907,0,1,0,2.824-2.218,2.577,2.577,0,0,0-2.824,2.218" transform="translate(-99.606 -33.67)" fill="#e29f91"/>
            <path id="Trazado_769796" data-name="Trazado 769796" d="M252.229,67.121a2.511,2.511,0,0,0-1.447-1.549,11.726,11.726,0,0,0-2.614-.661c-3.716-.545-4.5,1.4-3.679,2.139s1.352-.157,3.694.27c2.113.385,4.619,1.508,4.045-.2" transform="translate(-97.678 -25.927)" fill="#3a1751"/>
            <path id="Trazado_769797" data-name="Trazado 769797" d="M245.994,75.372a2.465,2.465,0,1,0,2.465-2.465,2.466,2.466,0,0,0-2.465,2.465" transform="translate(-98.399 -29.163)" fill="#3a1751"/>
            <path id="Trazado_769798" data-name="Trazado 769798" d="M222.787,102.813c2.249,2.879,7.15,2.98,9.224-.152.535-.807-.764-1.559-1.3-.757-1.582,2.388-5.253,1.916-6.868-.152-.594-.76-1.649.308-1.061,1.061" transform="translate(-89.047 -40.597)" fill="#3a1751"/>
            <g id="Grupo_1042367" data-name="Grupo 1042367" transform="translate(116.63 36.027)" opacity="0.2">
              <g id="Grupo_1042366" data-name="Grupo 1042366">
                <g id="Grupo_1042365" data-name="Grupo 1042365" clip-path="url(#clip-path-2)">
                  <path id="Trazado_769799" data-name="Trazado 769799" d="M212.423,68.57a9.033,9.033,0,1,1-9.019-8.525,8.782,8.782,0,0,1,9.019,8.525" transform="translate(-194.385 -60.045)" fill="#feffff"/>
                </g>
              </g>
            </g>
            <g id="Grupo_1042370" data-name="Grupo 1042370" transform="translate(141.022 35.914)" opacity="0.2">
              <g id="Grupo_1042369" data-name="Grupo 1042369">
                <g id="Grupo_1042368" data-name="Grupo 1042368" clip-path="url(#clip-path-3)">
                  <path id="Trazado_769800" data-name="Trazado 769800" d="M253.076,68.382a9.033,9.033,0,1,1-9.019-8.525,8.782,8.782,0,0,1,9.019,8.525" transform="translate(-235.038 -59.857)" fill="#feffff"/>
                </g>
              </g>
            </g>
            <path id="Trazado_769801" data-name="Trazado 769801" d="M202.9,77.313a9.458,9.458,0,1,1,9.683-9.455,9.582,9.582,0,0,1-9.683,9.455m0-17.665a8.213,8.213,0,1,0,8.437,8.21,8.335,8.335,0,0,0-8.437-8.21" transform="translate(-77.288 -23.361)" fill="#2d2d2e"/>
            <path id="Trazado_769802" data-name="Trazado 769802" d="M243.615,77.313a9.458,9.458,0,1,1,9.683-9.455,9.582,9.582,0,0,1-9.683,9.455m0-17.665a8.213,8.213,0,1,0,8.437,8.21,8.335,8.335,0,0,0-8.437-8.21" transform="translate(-93.574 -23.361)"/>
            <rect id="Rectángulo_355356" data-name="Rectángulo 355356" width="6.101" height="1.246" transform="translate(134.668 43.666)" fill="#12263f"/>
            <path id="Trazado_769803" data-name="Trazado 769803" d="M235.41,18.516l-.005-.037a20.008,20.008,0,0,0-1.7-7c-1.163-2.053-3.514-3.588-6.2-4.713A5.177,5.177,0,0,0,225.875,4.2C212.366-7.411,192.769,9.08,184.152,5.869a4.907,4.907,0,0,0-6.6,3.514c-.972,4.61-.905,10.276,3.526,13.993.082.068.163.134.244.2-.055.562-.1,1.133-.126,1.718a103.185,103.185,0,0,0,.525,16.9,4.181,4.181,0,0,1,1.594.887c.217,1.4,1.081,6.568,2.031,6.595,1.066.03,1.846-4.705,1.1-9.125.3-3.656.991-9.559,2.494-12.7,4.273,1.3,9.662,1.375,17.954.219a24.558,24.558,0,0,0,9.816-3.782c6.237-.074,10.048,1.355,11.456,2.926a11.231,11.231,0,0,1,2.167,5.516,54.418,54.418,0,0,1,.32,9.465,22.535,22.535,0,0,0-.227,3.353l0,.037,0,0c.026,2.673.547,4.748,1.251,4.748,1.1,0,2.276-6.885,2.276-6.885.05-.146.094-.291.132-.434l.8-.562s2.452-9.337.517-23.933" transform="translate(-70.822 0)" fill="#12263f"/>
            <path id="Trazado_769804" data-name="Trazado 769804" d="M344.126,174.37l1.238,1.69s2.6,1.637,7.621-.532,9.528-12.2,10.72-15.875.929-5.307,1.684-8.111-2.557-9.406-4.26-13.6-4.8-3.662-6.1-3.388-6.153,14.984-6.932,16.33-6.251,13.28-3.967,23.484" transform="translate(-137.431 -53.75)" fill="#eab2a5"/>
            <path id="Trazado_769805" data-name="Trazado 769805" d="M362.667,151.7,335.021,145.7a1.449,1.449,0,0,1-1.109-1.725l9.907-45.591a1.449,1.449,0,0,1,1.725-1.109l27.645,6.007A1.45,1.45,0,0,1,374.3,105l-9.906,45.591a1.451,1.451,0,0,1-1.725,1.109" transform="translate(-133.553 -38.895)" fill="#c1c1c1"/>
            <path id="Trazado_769806" data-name="Trazado 769806" d="M365.027,147.009l-25.3-5.5a.718.718,0,0,1-.55-.855l8.407-38.688a.718.718,0,0,1,.855-.55l25.3,5.5a.719.719,0,0,1,.55.855l-8.407,38.688a.719.719,0,0,1-.855.55" transform="translate(-135.666 -40.561)" fill="#fff"/>
            <path id="Trazado_769807" data-name="Trazado 769807" d="M360.595,177.163a1.587,1.587,0,1,1-1.228-1.812,1.549,1.549,0,0,1,1.228,1.812" transform="translate(-142.987 -70.126)" fill="#fff"/>
            <rect id="Rectángulo_355358" data-name="Rectángulo 355358" width="9.933" height="24.36" transform="translate(205.25 98.845) rotate(-77.741)" fill="#d1d1d1"/>
            <rect id="Rectángulo_355359" data-name="Rectángulo 355359" width="1.448" height="24.36" transform="translate(209.215 80.404) rotate(-77.741)" fill="#d1d1d1"/>
            <rect id="Rectángulo_355360" data-name="Rectángulo 355360" width="1.448" height="24.36" transform="translate(212.397 65.758) rotate(-77.741)" fill="#d1d1d1"/>
            <rect id="Rectángulo_355361" data-name="Rectángulo 355361" width="1.448" height="24.36" transform="translate(208.76 82.499) rotate(-77.741)" fill="#d1d1d1"/>
            <rect id="Rectángulo_355362" data-name="Rectángulo 355362" width="1.448" height="24.36" transform="translate(208.304 84.593) rotate(-77.741)" fill="#d1d1d1"/>
            <rect id="Rectángulo_355363" data-name="Rectángulo 355363" width="1.448" height="24.36" transform="translate(207.849 86.688) rotate(-77.741)" fill="#d1d1d1"/>
            <path id="Trazado_769808" data-name="Trazado 769808" d="M340.3,183.283s-1.556-10.177-1.66-11.719,1.151-5.416,1.3-7.271,2.6-1.808,5.129-6.488c.96-1.78,3.364.937,1.883,3.714s-2.929,4.664-1.775,6.246,3.122,3.032,3.8,6.458-3.427,15.654-8.681,9.06" transform="translate(-135.454 -62.896)" fill="#eab2a5"/>
            <path id="Trazado_769809" data-name="Trazado 769809" d="M280.789,200.035s11.54,32.814,14.128,39.284,7.343,5.77,11.161,4.815c7.118-1.78,22.439-46.55,23.9-50.594,0,0-10.7-1.1-13.934-4.007,0,0-8.387,15.006-9.259,15.492s-5.221-24.485-5.221-24.485-23.394-.7-20.77,19.5" transform="translate(-112.235 -72.216)" fill="#ea526f"/>
            <path id="Trazado_769810" data-name="Trazado 769810" d="M319.9,217.312s-4,6.737-7.124,12.453a29.123,29.123,0,0,0-3.451,11s-.061-9.807,7.95-23.453c0,0,.521,1.994.893,2.153s1.732-2.153,1.732-2.153" transform="translate(-123.732 -86.926)" fill="#415499"/>
            <path id="Trazado_769811" data-name="Trazado 769811" d="M338.8,194.087l-2.425,3.727s.2,2.507,6.147,4.246,8.705,1.027,8.705,1.027l1.405-4.949s-8.7-.133-13.832-4.05" transform="translate(-134.553 -77.636)" fill="#9f0925"/>
            <path id="Trazado_769812" data-name="Trazado 769812" d="M235.16,174.524c-.97-4.4-1.65-26.875-11.919-31.46-11.406-5.092-27.929-9.718-27.929-9.718-1.984,5.931-8.421,7.933-11.36,8.548,0,0-12.371-.046-14.271-8.018,0,0-18.159,3.749-27.42,8.658-6.65,3.525-27.143,30.728-28.5,35.025-1.006,3.183,3.248,10.982,5.855,15.825-5.771,7.4-9.727,12.594-9.727,12.594s5.321.881,11.321-4.319c4.04-3.5,17.28-16.746,25.5-25.029.959,16.455,2.668,43.476,3.592,44.483,2.1,2.291,47.607,1.633,59.606,0,0,0,2.848-22.715,4.522-40.947,3.038,9.281,7.514,22.878,7.892,24.37.266,1.052,14.049-24.512,12.836-30.012m-52.17-31.541.043-.046.03.038h0Z" transform="translate(-43.957 -53.339)" fill="#ea526f"/>
            <path id="Trazado_769813" data-name="Trazado 769813" d="M211.951,127.86l-3.344,3.85s2.726,9.045,12.082,9.045c9.571,0,13.232-6.657,14.111-9.719l-3.129-3.464s-2.779,6.784-9.661,6.955c-6.976.174-10.06-6.666-10.06-6.666" transform="translate(-83.444 -51.029)" fill="#fdb9c6"/>
            <path id="Trazado_769814" data-name="Trazado 769814" d="M283.32,204.611s1.519-15.474,4.649-19.747c0,0-6.414,4.152-4.649,19.747" transform="translate(-113.207 -73.947)" fill="#415499"/>
            <path id="Trazado_769815" data-name="Trazado 769815" d="M169.267,193.461s-1.465-11.8-4.6-16.076c0,0,4.346,1.36,4.6,16.076" transform="translate(-65.869 -70.955)" fill="#415499"/>
            <path id="Trazado_769816" data-name="Trazado 769816" d="M84.454,123.936l-1.414,1.547s-2.762,1.346-7.519-1.351-8.158-13.152-8.946-16.938-.353-5.376-.8-8.246,3.556-9.075,5.7-13.059,5.165-3.124,6.434-2.711,4.5,15.56,5.132,16.982,4.783,13.877,1.412,23.775" transform="translate(-26.296 -33.122)" fill="#eab2a5"/>
            <rect id="Rectángulo_355364" data-name="Rectángulo 355364" width="11.175" height="1.05" transform="matrix(0.984, -0.176, 0.176, 0.984, 31.783, 17.664)" fill="#71a8c6"/>
            <rect id="Rectángulo_355365" data-name="Rectángulo 355365" width="1.075" height="3.3" transform="translate(31.782 17.664) rotate(-10.125)" fill="#71a8c6"/>
            <rect id="Rectángulo_355366" data-name="Rectángulo 355366" width="1.075" height="3.3" transform="translate(41.725 15.891) rotate(-10.125)" fill="#71a8c6"/>
            <path id="Trazado_769817" data-name="Trazado 769817" d="M79.943,87.935,38.9,95.256A1.551,1.551,0,0,1,37.1,94L27.063,37.734a1.551,1.551,0,0,1,1.255-1.8l41.046-7.321a1.55,1.55,0,0,1,1.8,1.255L81.2,86.136a1.551,1.551,0,0,1-1.255,1.8" transform="translate(-10.815 -11.436)" fill="#0ce6ea"/>
            <path id="Trazado_769818" data-name="Trazado 769818" d="M79.415,87.765,41.75,94.483a1.269,1.269,0,0,1-1.472-1.027L31.095,41.968A1.269,1.269,0,0,1,32.121,40.5l37.664-6.718A1.269,1.269,0,0,1,71.258,34.8l9.184,51.488a1.269,1.269,0,0,1-1.027,1.472" transform="translate(-12.43 -13.503)" fill="#fff"/>
            <rect id="Rectángulo_355367" data-name="Rectángulo 355367" width="18.3" height="6.3" transform="matrix(0.984, -0.176, 0.176, 0.984, 28.763, 21.022)" fill="#0ce6ea"/>
            <rect id="Rectángulo_355368" data-name="Rectángulo 355368" width="6.9" height="15.4" transform="translate(24.586 34.336) rotate(-10.112)" fill="#d2d7e3"/>
            <rect id="Rectángulo_355369" data-name="Rectángulo 355369" width="6.9" height="11.8" transform="translate(33.488 36.406) rotate(-10.112)" fill="#d2d7e3"/>
            <rect id="Rectángulo_355370" data-name="Rectángulo 355370" width="6.9" height="10" transform="translate(42.073 36.703) rotate(-10.112)" fill="#d2d7e3"/>
            <rect id="Rectángulo_355371" data-name="Rectángulo 355371" width="6.9" height="5.9" transform="translate(51.063 39.264) rotate(-10.112)" fill="#d2d7e3"/>
            <rect id="Rectángulo_355372" data-name="Rectángulo 355372" width="32.1" height="13.125" transform="translate(27.957 53.238) rotate(-10.113)" fill="#d2d7e3"/>
            <rect id="Rectángulo_355373" data-name="Rectángulo 355373" width="32.1" height="7.05" transform="translate(30.71 68.67) rotate(-10.113)" fill="#d2d7e3"/>
            <path id="Trazado_769819" data-name="Trazado 769819" d="M94.8,133.639s2.644-9.95,2.913-11.471-.56-5.508-.51-7.369-2.394-2.078-4.4-7c-.763-1.873-3.446.569-2.272,3.49s2.409,4.953,1.091,6.4-3.431,2.678-4.476,6.011,1.72,15.932,7.654,9.943" transform="translate(-34.771 -42.857)" fill="#eab2a5"/>
            <path id="Trazado_769820" data-name="Trazado 769820" d="M78.708,148.3s7.881,47.775,11.481,56.474,12.246,10.5,24.645-5.453c13.949-17.947-.645,0-.645,0l-9.3-16.146s-11.025-36.355-11.325-36.525-10.35,1.687-14.856,1.65" transform="translate(-31.484 -58.657)" fill="#ea526f"/>
            <path id="Trazado_769821" data-name="Trazado 769821" d="M78.433,146.539l.741,4.958s1.867,1.032,6.985.272c6.127-.91,8.366-3.124,8.366-3.124l-1.5-4.937s-7.328,3.068-14.591,2.83" transform="translate(-31.374 -57.484)" fill="#9f0925"/>
            <path id="Trazado_769822" data-name="Trazado 769822" d="M120.127,199.481s3.079,14.649,2.979,21.249a54.312,54.312,0,0,0,0-12.275,57.181,57.181,0,0,0-2.23-10.118Z" transform="translate(-48.051 -79.336)" fill="#415499"/>
            <path id="Trazado_769823" data-name="Trazado 769823" d="M254.241,294.386l18.191-11.944-43.99.655Z" transform="translate(-91.378 -112.978)" fill="#0ce6ea"/>
            <path id="Trazado_769824" data-name="Trazado 769824" d="M213.807,269H133.783l-6.422-50.025h79.5Z" transform="translate(-50.945 -87.59)" fill="#0ce6ea"/>
            <path id="Trazado_769825" data-name="Trazado 769825" d="M216.782,293.715H136.956l.665,5.18h80.025Z" transform="translate(-54.783 -117.488)" fill="#0ce6ea"/>
            <path id="Trazado_769826" data-name="Trazado 769826" d="M196.241,252.7c0,2.872-3.1,5.2-6.915,5.2s-6.916-2.329-6.916-5.2,3.1-5.2,6.916-5.2,6.915,2.329,6.915,5.2" transform="translate(-72.965 -99.003)" fill="#effefe"/>
            <path id="Trazado_769827" data-name="Trazado 769827" d="M258.127,218.972h-2.6L263.067,269h2.009Z" transform="translate(-102.213 -87.59)" fill="#b3eeef"/>
          </g>
        </g>
      </g>
    </g>
  </g>
</svg>
