<svg xmlns="http://www.w3.org/2000/svg" width="77" height="77" viewBox="0 0 77 77">
  <g id="Grupo_1042747" data-name="Grupo 1042747" transform="translate(-762 -2531)">
    <circle id="Elipse_7989" data-name="Elipse 7989" cx="38.5" cy="38.5" r="38.5" transform="translate(762 2531)" fill="#ea526f"/>
    <g id="signo-de-interrogacion" transform="translate(715.781 2542.68)">
      <g id="Grupo_1042403" data-name="Grupo 1042403" transform="translate(64.902 0.785)">
        <g id="Grupo_1042396" data-name="Grupo 1042396" transform="translate(0 0)">
          <g id="Grupo_1042395" data-name="Grupo 1042395">
            <g id="Grupo_1042394" data-name="Grupo 1042394">
              <path id="Trazado_769890" data-name="Trazado 769890" d="M194.955,68.287l9.14-7.16,1.427-12.466-10.568-5.818-4.29,5.9a7.255,7.255,0,0,1-.831,13.328A10.3,10.3,0,0,0,183,71.774v1.873a4.418,4.418,0,0,0,4.417,4.418h6.461Z" transform="translate(-171.333 -39.141)" fill="#fe7d43"/>
              <path id="Trazado_769891" data-name="Trazado 769891" d="M88.776,7.534A16.078,16.078,0,0,0,71.615,23.586,4.418,4.418,0,0,0,76.033,28h6.461" transform="translate(-71.615 -7.5)" fill="#fe7d43"/>
            </g>
            <path id="Trazado_769892" data-name="Trazado 769892" d="M193.878,419.815h-6.461A4.418,4.418,0,0,0,183,424.233v.037a4.418,4.418,0,0,0,4.418,4.418h5.675" transform="translate(-171.331 -376.618)" fill="#fe7d43"/>
          </g>
          <path id="Trazado_769893" data-name="Trazado 769893" d="M241.882,7.5h-6.461" transform="translate(-218.26 -7.5)" fill="#fe7d43"/>
        </g>
        <g id="Grupo_1042402" data-name="Grupo 1042402" transform="translate(6.461)">
          <g id="Grupo_1042401" data-name="Grupo 1042401">
            <g id="Grupo_1042398" data-name="Grupo 1042398" transform="translate(0 0)">
              <g id="Grupo_1042397" data-name="Grupo 1042397">
                <path id="Trazado_769894" data-name="Trazado 769894" d="M149.369,46.424a4.418,4.418,0,0,1-4.418-4.418V40.133a10.3,10.3,0,0,1,6.833-9.706,7.254,7.254,0,1,0-9.6-7.858,7.377,7.377,0,0,0-.07,1.017,4.418,4.418,0,0,1-8.835,0,16.088,16.088,0,1,1,21.447,15.17,1.447,1.447,0,0,0-.943,1.376v1.874a4.418,4.418,0,0,1-4.418,4.418Z" transform="translate(-133.282 -7.5)" fill="#ffd15b"/>
              </g>
              <path id="Trazado_769895" data-name="Trazado 769895" d="M249.086,428.687a4.418,4.418,0,0,1-4.418-4.418v-.037a4.418,4.418,0,1,1,8.835,0v.037A4.418,4.418,0,0,1,249.086,428.687Z" transform="translate(-232.998 -376.618)" fill="#ffd15b"/>
            </g>
            <g id="Grupo_1042400" data-name="Grupo 1042400" transform="translate(0)">
              <g id="Grupo_1042399" data-name="Grupo 1042399">
                <path id="Trazado_769896" data-name="Trazado 769896" d="M137.343,21.345a16.1,16.1,0,0,0-.154,2.237,4.414,4.414,0,0,0,2.465,3.963,4.418,4.418,0,0,1-6.37-3.963A16.09,16.09,0,0,1,150.445,7.53q.45.03.894.086a16.161,16.161,0,0,0-14,13.729Z" transform="translate(-133.283 -7.495)" fill="#ffc344"/>
                <path id="Trazado_769897" data-name="Trazado 769897" d="M255.414,105.926a10.3,10.3,0,0,0-6.834,9.707v1.873a4.416,4.416,0,0,0,2.467,3.963,4.418,4.418,0,0,1-6.37-3.963v-1.873a10.3,10.3,0,0,1,6.834-9.707,7.255,7.255,0,0,0-.45-13.822,7.25,7.25,0,0,1,4.353,13.822Z" transform="translate(-233.007 -82.999)" fill="#ffc344"/>
              </g>
              <path id="Trazado_769898" data-name="Trazado 769898" d="M251.047,428.223a4.418,4.418,0,0,1-6.37-3.963v-.038a4.418,4.418,0,0,1,6.37-3.963,4.421,4.421,0,0,0-2.467,3.963v.038A4.416,4.416,0,0,0,251.047,428.223Z" transform="translate(-233.007 -376.609)" fill="#ffc344"/>
            </g>
          </g>
        </g>
      </g>
      <g id="Grupo_1042404" data-name="Grupo 1042404" transform="translate(64.116 0)">
        <path id="Trazado_769899" data-name="Trazado 769899" d="M104.277,15.621A16.917,16.917,0,0,0,88.575.036C88.188.011,80.984,0,80.984,0h-.02a16.822,16.822,0,0,0-8.02,2.064,17.01,17.01,0,0,0-6.581,6.41.786.786,0,1,0,1.36.787A15.439,15.439,0,0,1,73.7,3.444a15.268,15.268,0,0,1,6.655-1.857,16.817,16.817,0,0,0-9.776,15.286A5.185,5.185,0,0,0,72.059,20.5h-2.74a3.636,3.636,0,0,1-3.631-3.632,15.492,15.492,0,0,1,.147-2.129,15.216,15.216,0,0,1,.5-2.286.786.786,0,0,0-1.5-.455,16.8,16.8,0,0,0-.554,2.523,17.068,17.068,0,0,0-.162,2.346,5.209,5.209,0,0,0,5.2,5.2h6.465a5.209,5.209,0,0,0,5.2-5.2,6.6,6.6,0,0,1,.063-.908,6.448,6.448,0,0,1,3.186-4.687,6.469,6.469,0,0,1-1.091,11.7,11.086,11.086,0,0,0-7.355,10.447v1.873a5.209,5.209,0,0,0,5.2,5.2h6.461a5.209,5.209,0,0,0,5.2-5.2V33.419a.661.661,0,0,1,.419-.635,16.933,16.933,0,0,0,11.205-17.163ZM77.357,35.292V33.419a9.512,9.512,0,0,1,6.308-8.966A8.037,8.037,0,0,0,85.987,10.58,6.464,6.464,0,0,1,89.6,22.972a11.083,11.083,0,0,0-7.356,10.446v1.874a5.185,5.185,0,0,0,1.482,3.632h-2.74a3.636,3.636,0,0,1-3.631-3.632ZM92.548,31.3a2.234,2.234,0,0,0-1.466,2.117v1.874a3.632,3.632,0,0,1-7.264,0V33.419a9.509,9.509,0,0,1,6.309-8.965A8.039,8.039,0,0,0,88,8.853q-.267-.018-.532-.017a8.072,8.072,0,0,0-7.977,6.912,8.181,8.181,0,0,0-.078,1.126,3.632,3.632,0,1,1-7.264,0,15.3,15.3,0,1,1,20.4,14.43Z" transform="translate(-64.116 0)"/>
        <path id="Trazado_769900" data-name="Trazado 769900" d="M187.165,412.315H180.7a5.209,5.209,0,0,0-5.2,5.2v.037a5.209,5.209,0,0,0,5.2,5.2s6.6,0,6.665,0a.786.786,0,1,0-.056-1.57l-.148,0a3.636,3.636,0,0,1-3.632-3.632v-.037a3.632,3.632,0,0,1,7.263,0v.037a3.64,3.64,0,0,1-.841,2.326.786.786,0,0,0,1.207,1.006,5.214,5.214,0,0,0,1.206-3.332v-.037A5.209,5.209,0,0,0,187.165,412.315Zm-10.093,5.24v-.037a3.636,3.636,0,0,1,3.632-3.632h2.739a5.184,5.184,0,0,0-1.482,3.631v.037a5.186,5.186,0,0,0,1.482,3.632H180.7A3.636,3.636,0,0,1,177.072,417.555Z" transform="translate(-163.832 -369.118)"/>
      </g>
    </g>
  </g>
</svg>
