<svg xmlns="http://www.w3.org/2000/svg" width="100" height="100" viewBox="0 0 100 100">
  <g id="Grupo_1023776" data-name="Grupo 1023776" transform="translate(-525 -1861)">
    <circle id="Elipse_6017" data-name="Elipse 6017" cx="50" cy="50" r="50" transform="translate(525 1861)" fill="#fff"/>
    <g id="productividad" transform="translate(534.863 1844.841)">
      <g id="Grupo_1023770" data-name="Grupo 1023770" transform="translate(7.5 38.031)">
        <path id="Trazado_732640" data-name="Trazado 732640" d="M236.692,38.037l-9.978,1.428a.558.558,0,0,0-.349.91l1.764,2.111a.57.57,0,0,1-.072.8L219.4,50.523a1.015,1.015,0,0,1-1.475-.186l-3.578-4.975a1.3,1.3,0,0,0-1.882-.238L196.935,58.107l2.653,3.175L211.94,50.959a1.015,1.015,0,0,1,1.475.186l3.578,4.974a1.3,1.3,0,0,0,1.882.238l11.837-9.893a.57.57,0,0,1,.8.072l1.653,1.978a.558.558,0,0,0,.958-.182l3.176-9.566A.558.558,0,0,0,236.692,38.037Z" transform="translate(-172.055 -38.031)" fill="#bbec6c"/>
        <path id="Trazado_732641" data-name="Trazado 732641" d="M278.313,298.444v19.779h9.342V297.787H278.97A.657.657,0,0,0,278.313,298.444Z" transform="translate(-242.745 -263.671)" fill="#fd8087"/>
        <path id="Trazado_732642" data-name="Trazado 732642" d="M349.443,250.695v26.05h9.342V250.038H350.1A.657.657,0,0,0,349.443,250.695Z" transform="translate(-304.533 -222.194)" fill="#fee97d"/>
        <path id="Trazado_732643" data-name="Trazado 732643" d="M420.574,202.946v32.321h8.685a.657.657,0,0,0,.657-.657V202.946a.657.657,0,0,0-.657-.657h-8.029A.657.657,0,0,0,420.574,202.946Z" transform="translate(-366.322 -180.716)" fill="#8ac9fe"/>
        <rect id="Rectángulo_345069" data-name="Rectángulo 345069" width="2.627" height="20.435" transform="translate(42.283 34.116)" fill="#fe646f"/>
        <rect id="Rectángulo_345070" data-name="Rectángulo 345070" width="2.627" height="26.707" transform="translate(51.625 27.844)" fill="#fed402"/>
        <path id="Trazado_732644" data-name="Trazado 732644" d="M469.33,202.289H466.7a.657.657,0,0,1,.657.657V234.61a.657.657,0,0,1-.657.657h2.627a.657.657,0,0,0,.657-.657V202.946A.657.657,0,0,0,469.33,202.289Z" transform="translate(-406.393 -180.716)" fill="#60b7ff"/>
        <path id="Trazado_732645" data-name="Trazado 732645" d="M42.366,87.351a.578.578,0,0,1-.19-.771,4.18,4.18,0,0,0-1.22-5.509.591.591,0,0,1-.254-.483V68.581a7.663,7.663,0,0,0-7.418-7.659.449.449,0,0,1-.373-.214l-.091-.151a7.437,7.437,0,0,0-6.359-3.58H22.211A10.636,10.636,0,0,0,11.576,67.614V80.589a.591.591,0,0,1-.254.483A4.18,4.18,0,0,0,10.1,86.58a.578.578,0,0,1-.19.771,5.252,5.252,0,1,0,7.428,6.974h17.6a5.252,5.252,0,1,0,7.428-6.974Z" transform="translate(-7.501 -54.49)" fill="#8b8089"/>
        <path id="Trazado_732646" data-name="Trazado 732646" d="M150.4,87.351a.578.578,0,0,1-.19-.771,4.18,4.18,0,0,0-1.22-5.509.591.591,0,0,1-.254-.483V68.581a7.663,7.663,0,0,0-7.418-7.659.449.449,0,0,1-.373-.214l-.091-.151a7.437,7.437,0,0,0-6.359-3.58h-2.627a7.437,7.437,0,0,1,6.359,3.58l.091.151a.45.45,0,0,0,.373.214,7.663,7.663,0,0,1,7.418,7.659V80.589a.591.591,0,0,0,.254.483,4.18,4.18,0,0,1,1.22,5.509.578.578,0,0,0,.19.771,5.251,5.251,0,0,1-1.526,9.5,5.251,5.251,0,0,0,4.153-9.5Z" transform="translate(-115.537 -54.49)" fill="#7b7179"/>
        <path id="Trazado_732647" data-name="Trazado 732647" d="M7.5,322.274v-15.41a4.057,4.057,0,0,1,3.3-3.987l15.333-2.894,15.333,2.894a4.057,4.057,0,0,1,3.3,3.987v15.41a.559.559,0,0,1-.559.559H8.059A.559.559,0,0,1,7.5,322.274Z" transform="translate(-7.5 -265.579)" fill="#b3dafe"/>
        <path id="Trazado_732648" data-name="Trazado 732648" d="M177.2,305.228l-13.45-2.539v1.373a.843.843,0,0,0,.687.829l10.731,2.026a3.327,3.327,0,0,1,2.71,3.269v14.44a.559.559,0,0,1-.559.559h2.627a.559.559,0,0,0,.559-.559v-15.41A4.057,4.057,0,0,0,177.2,305.228Z" transform="translate(-143.229 -267.93)" fill="#8ac9fe"/>
        <path id="Trazado_732649" data-name="Trazado 732649" d="M125.2,364.676l-2.051,14.354h6.9L128,364.676Z" transform="translate(-107.963 -321.775)" fill="#8b8089"/>
        <path id="Trazado_732650" data-name="Trazado 732650" d="M96.571,299.983l-7.989,1.508,1.294,6.413a.847.847,0,0,0,1.387.471l5.308-4.624,5.613,4.673a.847.847,0,0,0,1.372-.482l1.3-6.4Z" transform="translate(-77.933 -265.579)" fill="#8ac9fe"/>
        <path id="Trazado_732651" data-name="Trazado 732651" d="M163.751,304.061a.843.843,0,0,0,.687.829l5.308,1,.405-2-6.4-1.208Z" transform="translate(-143.229 -267.929)" fill="#60b7ff"/>
        <path id="Trazado_732652" data-name="Trazado 732652" d="M115.07,254.371v7.354a4.51,4.51,0,0,0,9.02,0v-7.354Z" transform="translate(-100.942 -225.958)" fill="#fed2a4"/>
        <path id="Trazado_732653" data-name="Trazado 732653" d="M164.438,262.919l1.68.317a4.5,4.5,0,0,0,.26-1.51v-7.354h-2.627v7.719A.843.843,0,0,0,164.438,262.919Z" transform="translate(-143.229 -225.958)" fill="#ffbd86"/>
        <path id="Trazado_732654" data-name="Trazado 732654" d="M131.318,342.4l-1.371,3.14a.892.892,0,0,1-.817.535h-2.164a.892.892,0,0,1-.817-.535l-1.331-3.048,1.307-1.151h3.9Z" transform="translate(-109.41 -301.501)" fill="#7b7179"/>
        <path id="Trazado_732655" data-name="Trazado 732655" d="M83.1,123.255H81.443a1.087,1.087,0,0,0-.671.228,13.974,13.974,0,0,1-12.916,2.277.714.714,0,0,0-.93.683v8.543a10.834,10.834,0,1,0,21.667.136v-6.378A5.489,5.489,0,0,0,83.1,123.255Z" transform="translate(-59.121 -112.062)" fill="#fed2a4"/>
      </g>
      <g id="Grupo_1023773" data-name="Grupo 1023773" transform="translate(7.5 38.032)">
        <path id="Trazado_732656" data-name="Trazado 732656" d="M260.3,140.48l6.682-5.586a1.014,1.014,0,0,1,1.475.187l3.578,4.974a1.3,1.3,0,0,0,1.882.238l4.832-4.039" transform="translate(-227.098 -121.968)" fill="none" stroke="#000" stroke-linecap="round" stroke-linejoin="round" stroke-miterlimit="10" stroke-width="1.8"/>
        <path id="Trazado_732657" data-name="Trazado 732657" d="M259.88,51.2l7.267-6.073a1.3,1.3,0,0,1,1.882.238l3.578,4.975a1.015,1.015,0,0,0,1.475.185l8.654-7.234a.569.569,0,0,0,.072-.8l-1.764-2.111a.557.557,0,0,1,.348-.91l9.979-1.428a.557.557,0,0,1,.608.728L288.8,48.333a.558.558,0,0,1-.957.181l-1.654-1.978a.57.57,0,0,0-.8-.072l-3.479,2.909" transform="translate(-226.733 -38.033)" fill="none" stroke="#000" stroke-linecap="round" stroke-linejoin="round" stroke-miterlimit="10" stroke-width="1.8"/>
        <path id="Trazado_732658" data-name="Trazado 732658" d="M283.25,297.788h8.693v20.435H284.31" transform="translate(-247.034 -263.673)" fill="none" stroke="#000" stroke-linecap="round" stroke-linejoin="round" stroke-miterlimit="10" stroke-width="1.8"/>
        <path id="Trazado_732659" data-name="Trazado 732659" d="M349.443,250.695v26.05h9.342V250.038H350.1A.657.657,0,0,0,349.443,250.695Z" transform="translate(-304.533 -222.194)" fill="none" stroke="#000" stroke-linecap="round" stroke-linejoin="round" stroke-miterlimit="10" stroke-width="1.8"/>
        <path id="Trazado_732660" data-name="Trazado 732660" d="M420.574,202.946v32.321h8.685a.657.657,0,0,0,.657-.657V202.946a.657.657,0,0,0-.657-.657h-8.029A.657.657,0,0,0,420.574,202.946Z" transform="translate(-366.322 -180.716)" fill="none" stroke="#000" stroke-linecap="round" stroke-linejoin="round" stroke-miterlimit="10" stroke-width="1.8"/>
        <path id="Trazado_732661" data-name="Trazado 732661" d="M128.212,376.057l1.837,12.859h-6.9l1.837-12.859" transform="translate(-107.963 -331.662)" fill="none" stroke="#000" stroke-linecap="round" stroke-linejoin="round" stroke-miterlimit="10" stroke-width="1.8"/>
        <path id="Trazado_732662" data-name="Trazado 732662" d="M30.648,306.468l10.823,2.042a4.059,4.059,0,0,1,3.3,3.987v15.41a.559.559,0,0,1-.559.559H8.059a.559.559,0,0,1-.559-.559V324.3" transform="translate(-7.5 -271.213)" fill="none" stroke="#000" stroke-linecap="round" stroke-linejoin="round" stroke-miterlimit="10" stroke-width="1.8"/>
        <path id="Trazado_732663" data-name="Trazado 732663" d="M7.5,319.7V312.5a4.059,4.059,0,0,1,3.3-3.987l10.823-2.042" transform="translate(-7.5 -271.213)" fill="none" stroke="#000" stroke-linecap="round" stroke-linejoin="round" stroke-miterlimit="10" stroke-width="1.8"/>
        <path id="Trazado_732664" data-name="Trazado 732664" d="M174.311,316.815l2.343,1.951a.847.847,0,0,0,1.372-.482l1.3-6.4" transform="translate(-152.403 -275.92)" fill="none" stroke="#000" stroke-linecap="round" stroke-linejoin="round" stroke-miterlimit="10" stroke-width="1.8"/>
        <path id="Trazado_732665" data-name="Trazado 732665" d="M93.4,316.493l-2.133,1.858a.847.847,0,0,1-1.387-.471l-1.294-6.413" transform="translate(-77.934 -275.554)" fill="none" stroke="#000" stroke-linecap="round" stroke-linejoin="round" stroke-miterlimit="10" stroke-width="1.8"/>
        <path id="Trazado_732666" data-name="Trazado 732666" d="M115.07,288.618v2.857a4.509,4.509,0,0,0,2.578,4.075" transform="translate(-100.942 -255.707)" fill="none" stroke="#000" stroke-linecap="round" stroke-linejoin="round" stroke-miterlimit="10" stroke-width="1.8"/>
        <path id="Trazado_732667" data-name="Trazado 732667" d="M166.82,288.628v2.855a4.512,4.512,0,0,1-2.56,4.068" transform="translate(-143.672 -255.716)" fill="none" stroke="#000" stroke-linecap="round" stroke-linejoin="round" stroke-miterlimit="10" stroke-width="1.8"/>
        <g id="Grupo_1023771" data-name="Grupo 1023771" transform="translate(6.32 46.86)">
          <line id="Línea_223" data-name="Línea 223" y1="10.394" transform="translate(24.637)" fill="none" stroke="#000" stroke-linecap="round" stroke-linejoin="round" stroke-miterlimit="10" stroke-width="1.8"/>
          <line id="Línea_224" data-name="Línea 224" y1="10.394" fill="none" stroke="#000" stroke-linecap="round" stroke-linejoin="round" stroke-miterlimit="10" stroke-width="1.8"/>
        </g>
        <g id="Grupo_1023772" data-name="Grupo 1023772" transform="translate(12.173 17.693)">
          <line id="Línea_225" data-name="Línea 225" y2="1.341" transform="translate(10.94 3.88)" fill="none" stroke="#000" stroke-linecap="round" stroke-linejoin="round" stroke-miterlimit="10" stroke-width="1.8"/>
          <path id="Trazado_732668" data-name="Trazado 732668" d="M171.29,173.23a3.012,3.012,0,0,1,3.591.23" transform="translate(-161.952 -172.748)" fill="none" stroke="#000" stroke-linecap="round" stroke-linejoin="round" stroke-miterlimit="10" stroke-width="1.8"/>
          <line id="Línea_226" data-name="Línea 226" y2="1.341" transform="translate(1.99 3.88)" fill="none" stroke="#000" stroke-linecap="round" stroke-linejoin="round" stroke-miterlimit="10" stroke-width="1.8"/>
          <path id="Trazado_732669" data-name="Trazado 732669" d="M103.778,173.23a3.012,3.012,0,0,0-3.591.23" transform="translate(-100.187 -172.748)" fill="none" stroke="#000" stroke-linecap="round" stroke-linejoin="round" stroke-miterlimit="10" stroke-width="1.8"/>
        </g>
        <path id="Trazado_732670" data-name="Trazado 732670" d="M130.747,242.838a3.46,3.46,0,0,0,4.9,0" transform="translate(-114.56 -215.939)" fill="none" stroke="#000" stroke-linecap="round" stroke-linejoin="round" stroke-miterlimit="10" stroke-width="1.8"/>
        <path id="Trazado_732671" data-name="Trazado 732671" d="M131.318,342.4l-1.371,3.14a.892.892,0,0,1-.817.535h-2.164a.892.892,0,0,1-.817-.535l-1.331-3.048,1.307-1.151h3.9Z" transform="translate(-109.41 -301.501)" fill="none" stroke="#000" stroke-linecap="round" stroke-linejoin="round" stroke-miterlimit="10" stroke-width="1.8"/>
        <path id="Trazado_732672" data-name="Trazado 732672" d="M83.1,123.255H81.443a1.087,1.087,0,0,0-.671.228,13.974,13.974,0,0,1-12.916,2.277.714.714,0,0,0-.93.683v8.543a10.834,10.834,0,1,0,21.667.136v-6.378A5.489,5.489,0,0,0,83.1,123.255Z" transform="translate(-59.121 -112.062)" fill="none" stroke="#000" stroke-linecap="round" stroke-linejoin="round" stroke-miterlimit="10" stroke-width="1.8"/>
        <path id="Trazado_732673" data-name="Trazado 732673" d="M44.321,93.9h0a5.242,5.242,0,0,0-1.954-6.552.58.58,0,0,1-.189-.771,4.18,4.18,0,0,0-1.22-5.508.593.593,0,0,1-.253-.483V68.582a7.664,7.664,0,0,0-7.418-7.66.45.45,0,0,1-.373-.214l-.091-.15a7.441,7.441,0,0,0-6.359-3.58H22.212A10.636,10.636,0,0,0,11.576,67.614V80.588a.593.593,0,0,1-.253.483A4.18,4.18,0,0,0,10.1,86.58a.579.579,0,0,1-.189.771A5.242,5.242,0,0,0,7.959,93.9h0" transform="translate(-7.502 -54.49)" fill="none" stroke="#000" stroke-linecap="round" stroke-linejoin="round" stroke-miterlimit="10" stroke-width="1.8"/>
      </g>
    </g>
  </g>
</svg>
