<svg xmlns="http://www.w3.org/2000/svg" width="125" height="125" viewBox="0 0 125 125">
  <g id="Grupo_1042415" data-name="Grupo 1042415" transform="translate(-218 -5579)">
    <circle id="Elipse_7992" data-name="Elipse 7992" cx="62.5" cy="62.5" r="62.5" transform="translate(218 5579)" fill="#fff"/>
    <g id="mision_1_" data-name="mision (1)" transform="translate(247.363 5608.363)">
      <line id="Línea_813" data-name="Línea 813" y1="38.551" transform="translate(31.451 9.535)" fill="none" stroke="#000" stroke-linecap="round" stroke-linejoin="round" stroke-miterlimit="10" stroke-width="2.5"/>
      <path id="Trazado_769910" data-name="Trazado 769910" d="M307.343,292.676c1.561,0,1.561,1.164,3.122,1.164s1.561-1.164,3.122-1.164,1.561,1.164,3.122,1.164c1.446,0,1.554-1,2.8-1.145a98.825,98.825,0,0,0-5.977-9.314,3.8,3.8,0,0,0-6.139,0,98.831,98.831,0,0,0-5.977,9.314c1.249.147,1.356,1.145,2.8,1.145C305.783,293.84,305.783,292.676,307.343,292.676Z" transform="translate(-262.56 -245.549)" fill="#b7efff"/>
      <path id="Trazado_769911" data-name="Trazado 769911" d="M358.454,282.129c1.35,2.066,4.131,6.445,6.924,11.573a2.263,2.263,0,0,0,.827.14c1.446,0,1.554-1,2.8-1.145a98.78,98.78,0,0,0-5.977-9.314A3.8,3.8,0,0,0,358.454,282.129Z" transform="translate(-312.054 -245.552)" fill="#68e7fd"/>
      <path id="Trazado_769912" data-name="Trazado 769912" d="M307.343,292.676c1.561,0,1.561,1.164,3.122,1.164s1.561-1.164,3.122-1.164,1.561,1.164,3.122,1.164c1.446,0,1.554-1,2.8-1.145a98.825,98.825,0,0,0-5.977-9.314,3.8,3.8,0,0,0-6.139,0,98.831,98.831,0,0,0-5.977,9.314c1.249.147,1.356,1.145,2.8,1.145C305.783,293.84,305.783,292.676,307.343,292.676Z" transform="translate(-262.56 -245.549)" fill="none" stroke="#000" stroke-linecap="round" stroke-linejoin="round" stroke-miterlimit="10" stroke-width="2.5"/>
      <path id="Trazado_769913" data-name="Trazado 769913" d="M270.8,382.532a147.305,147.305,0,0,0-8.756-18.564c-1.249.147-1.356,1.145-2.8,1.145-1.561,0-1.561-1.164-3.122-1.164s-1.561,1.164-3.122,1.164-1.561-1.164-3.122-1.164-1.561,1.164-3.122,1.164c-1.446,0-1.553-1-2.8-1.145a147.3,147.3,0,0,0-8.756,18.564Z" transform="translate(-205.09 -316.823)" fill="#ccc"/>
      <path id="Trazado_769916" data-name="Trazado 769916" d="M274.055,368.349q-1.151-2.233-2.37-4.381c-1.249.147-1.357,1.145-2.8,1.145-1.561,0-1.561-1.164-3.122-1.164s-1.561,1.164-3.122,1.164-1.561-1.164-3.122-1.164-1.561,1.164-3.122,1.164c-1.446,0-1.553-1-2.8-1.145a140.23,140.23,0,0,0-7.287,14.963" transform="translate(-214.731 -316.823)" fill="none" stroke="#000" stroke-linecap="round" stroke-linejoin="round" stroke-miterlimit="10" stroke-width="2.5"/>
      <path id="Trazado_769917" data-name="Trazado 769917" d="M474.411,435.23q-2.157-5.446-4.584-10.554" transform="translate(-408.702 -369.521)" fill="none" stroke="#000" stroke-linecap="round" stroke-linejoin="round" stroke-miterlimit="10" stroke-width="2.5"/>
      <path id="Trazado_769918" data-name="Trazado 769918" d="M89.455,263.895c1.773,0,1.773,1.322,3.546,1.322s1.773-1.322,3.546-1.322,1.773,1.322,3.547,1.322c1.643,0,1.765-1.134,3.184-1.3a112.242,112.242,0,0,0-6.789-10.58,4.311,4.311,0,0,0-6.973,0,112.23,112.23,0,0,0-6.789,10.58c1.419.167,1.541,1.3,3.183,1.3C87.682,265.217,87.682,263.895,89.455,263.895Z" transform="translate(-72.78 -219.293)" fill="#b7efff"/>
      <path id="Trazado_769919" data-name="Trazado 769919" d="M47.943,365.96A167.316,167.316,0,0,0,38,344.874c-1.419.167-1.541,1.3-3.184,1.3-1.773,0-1.773-1.322-3.547-1.322s-1.773,1.322-3.546,1.322-1.773-1.322-3.546-1.322-1.773,1.322-3.546,1.322c-1.643,0-1.764-1.134-3.183-1.3A167.3,167.3,0,0,0,7.5,365.96Z" transform="translate(-7.5 -300.251)" fill="#ccc"/>
      <path id="Trazado_769920" data-name="Trazado 769920" d="M47.943,365.96A167.316,167.316,0,0,0,38,344.874c-1.419.167-1.541,1.3-3.184,1.3-1.773,0-1.773-1.322-3.547-1.322s-1.773,1.322-3.546,1.322-1.773-1.322-3.546-1.322-1.773,1.322-3.546,1.322c-1.643,0-1.764-1.134-3.183-1.3A167.3,167.3,0,0,0,7.5,365.96" transform="translate(-7.5 -300.251)" fill="none" stroke="#000" stroke-linecap="round" stroke-linejoin="round" stroke-miterlimit="10" stroke-width="2.5"/>
      <path id="Trazado_769921" data-name="Trazado 769921" d="M258.217,104.055H245.386V94.1h12.831a1.261,1.261,0,0,1,1.261,1.261v7.434A1.261,1.261,0,0,1,258.217,104.055Z" transform="translate(-213.935 -82.65)" fill="#ff7383"/>
      <path id="Trazado_769922" data-name="Trazado 769922" d="M323.473,94.1h-1.263c.087,3.422-.371,7.461-1.626,9.956h2.888a1.261,1.261,0,0,0,1.261-1.261V95.36A1.261,1.261,0,0,0,323.473,94.1Z" transform="translate(-279.192 -82.65)" fill="#ff546a"/>
      <circle id="Elipse_7991" data-name="Elipse 7991" cx="14.733" cy="14.733" r="14.733" transform="translate(23.764 1.695)" fill="none" stroke="#000" stroke-linecap="round" stroke-linejoin="round" stroke-miterlimit="10" stroke-width="2.5"/>
      <g id="Grupo_1042413" data-name="Grupo 1042413" transform="translate(22.07 0)">
        <line id="Línea_814" data-name="Línea 814" y2="3.389" transform="translate(16.427)" fill="none" stroke="#000" stroke-linecap="round" stroke-linejoin="round" stroke-miterlimit="10" stroke-width="2.5"/>
        <line id="Línea_815" data-name="Línea 815" x1="3.389" transform="translate(29.465 16.427)" fill="none" stroke="#000" stroke-linecap="round" stroke-linejoin="round" stroke-miterlimit="10" stroke-width="2.5"/>
        <line id="Línea_816" data-name="Línea 816" y1="3.389" transform="translate(16.427 29.465)" fill="none" stroke="#000" stroke-linecap="round" stroke-linejoin="round" stroke-miterlimit="10" stroke-width="2.5"/>
        <line id="Línea_817" data-name="Línea 817" x2="3.389" transform="translate(0 16.427)" fill="none" stroke="#000" stroke-linecap="round" stroke-linejoin="round" stroke-miterlimit="10" stroke-width="2.5"/>
      </g>
      <path id="Trazado_769923" data-name="Trazado 769923" d="M85.335,259.54q-1.34,2.144-2.61,4.376c1.419.167,1.541,1.3,3.183,1.3,1.773,0,1.773-1.322,3.546-1.322s1.773,1.322,3.546,1.322,1.773-1.322,3.546-1.322,1.773,1.322,3.547,1.322c1.643,0,1.765-1.134,3.184-1.3a112.241,112.241,0,0,0-6.789-10.58,4.311,4.311,0,0,0-6.973,0q-1.06,1.456-2.076,2.967" transform="translate(-72.779 -219.293)" fill="none" stroke="#000" stroke-linecap="round" stroke-linejoin="round" stroke-miterlimit="10" stroke-width="2.5"/>
      <path id="Trazado_769924" data-name="Trazado 769924" d="M250.019,94.1h-4.634v9.956h12.831a1.261,1.261,0,0,0,1.261-1.261V95.359a1.261,1.261,0,0,0-1.261-1.261h-4.363" transform="translate(-213.934 -82.649)" fill="none" stroke="#000" stroke-linecap="round" stroke-linejoin="round" stroke-miterlimit="10" stroke-width="2.5"/>
    </g>
  </g>
</svg>
