<svg xmlns="http://www.w3.org/2000/svg" width="77" height="77" viewBox="0 0 77 77">
  <g id="Grupo_1042442" data-name="Grupo 1042442" transform="translate(-1024 -6234)">
    <circle id="Elipse_7994" data-name="Elipse 7994" cx="38.5" cy="38.5" r="38.5" transform="translate(1024 6234)" fill="#ea526f"/>
    <g id="escritura" transform="translate(1036.565 6242.068)">
      <g id="Grupo_1042439" data-name="Grupo 1042439" transform="translate(0.792 0.79)">
        <g id="Grupo_1042417" data-name="Grupo 1042417" transform="translate(0 16.92)">
          <path id="Trazado_769937" data-name="Trazado 769937" d="M9.607,168.345H42.874a2.1,2.1,0,0,1,2.1,2.1v31.157a2.1,2.1,0,0,1-2.1,2.1H9.607a2.1,2.1,0,0,1-2.1-2.1V170.449a2.1,2.1,0,0,1,2.1-2.1Z" transform="translate(-7.503 -168.345)" fill="#e8edf2"/>
        </g>
        <g id="Grupo_1042418" data-name="Grupo 1042418" transform="translate(7.663 16.92)">
          <path id="Trazado_769938" data-name="Trazado 769938" d="M110.154,170.449a2.1,2.1,0,0,0-2.1-2.1H82.784l-1.489,2.63a4.859,4.859,0,0,0,2.7,7l-2.161,3.2-.158.234.008.005a4.771,4.771,0,0,0-.6,1.641l-.7,4.269a3.684,3.684,0,0,0,3.635,4.281h0a3.679,3.679,0,0,0,1.913-.54l3.7-2.25a4.7,4.7,0,0,0,1.3-1.167l.007,0,1.31-1.942a4.561,4.561,0,0,0,3.04,1.158h.871a4.554,4.554,0,0,0,1.95-.436,4.554,4.554,0,0,0,1.95.436h.871a4.587,4.587,0,0,0,4.234-2.832q.422.035.849.035h4.139V170.449Z" transform="translate(-80.342 -168.345)" fill="#c5d3dd"/>
        </g>
        <g id="Grupo_1042419" data-name="Grupo 1042419" transform="translate(0 16.92)">
          <path id="Trazado_769939" data-name="Trazado 769939" d="M10.179,201.606V170.449a2.1,2.1,0,0,1,2.1-2.1H9.607a2.1,2.1,0,0,0-2.1,2.1v31.157a2.1,2.1,0,0,0,2.1,2.1h2.676A2.1,2.1,0,0,1,10.179,201.606Z" transform="translate(-7.503 -168.345)" fill="#c5d3dd"/>
        </g>
        <g id="Grupo_1042420" data-name="Grupo 1042420" transform="translate(10.613 10.913)">
          <path id="Trazado_769940" data-name="Trazado 769940" d="M138.439,115.715a4.926,4.926,0,0,1-2.61-.749l-5.96-3.725H117.5a5.485,5.485,0,0,0-4.773,2.783l-4.047,7.15a2.222,2.222,0,0,0,1.934,3.316h1.53v.732a2.63,2.63,0,0,0,2.63,2.63h3.662l1.742,2.38h6.552l1.25-.561.094.041a7.541,7.541,0,0,0,3.039.639h6.5a7.54,7.54,0,0,0,2.164-.317l2.8-.84v-13.48Z" transform="translate(-108.39 -111.241)" fill="#ffb8a9"/>
        </g>
        <g id="Grupo_1042421" data-name="Grupo 1042421" transform="translate(20.659 27.524)">
          <path id="Trazado_769941" data-name="Trazado 769941" d="M208.806,269.141h-4.923v3.346a1.95,1.95,0,0,0,1.95,1.95h.871a1.95,1.95,0,0,0,1.95-1.95,1.95,1.95,0,0,0,1.95,1.95h.871a1.95,1.95,0,0,0,1.95-1.95V270.96l-3.686-1.623A2.322,2.322,0,0,0,208.806,269.141Z" transform="translate(-203.883 -269.141)" fill="#ff947e"/>
        </g>
        <g id="Grupo_1042422" data-name="Grupo 1042422" transform="translate(10.613 10.913)">
          <path id="Trazado_769942" data-name="Trazado 769942" d="M110.719,121.173l4.047-7.15a5.485,5.485,0,0,1,4.773-2.783H117.5a5.485,5.485,0,0,0-4.773,2.783l-4.047,7.15a2.222,2.222,0,0,0,1.934,3.316h2.039A2.222,2.222,0,0,1,110.719,121.173Z" transform="translate(-108.389 -111.24)" fill="#ff947e"/>
        </g>
        <g id="Grupo_1042423" data-name="Grupo 1042423" transform="translate(10.293 29.281)">
          <path id="Trazado_769943" data-name="Trazado 769943" d="M107.7,285.836l-1.312,1.946a2.1,2.1,0,0,0-.332.836l-.7,4.269a1.052,1.052,0,0,0,1.585,1.069l3.7-2.25a2.105,2.105,0,0,0,.65-.621l1.312-1.946Z" transform="translate(-105.34 -285.836)" fill="#4a80aa"/>
        </g>
        <g id="Grupo_1042426" data-name="Grupo 1042426" transform="translate(12.652)">
          <g id="Grupo_1042425" data-name="Grupo 1042425">
            <g id="Grupo_1042424" data-name="Grupo 1042424">
              <path id="Trazado_769944" data-name="Trazado 769944" d="M132.666,40.09l-4.9-3.3L147.2,7.97a1.052,1.052,0,0,1,1.46-.284l3.154,2.127a1.052,1.052,0,0,1,.284,1.46Z" transform="translate(-127.768 -7.506)" fill="#dd636e"/>
            </g>
          </g>
        </g>
        <g id="Grupo_1042427" data-name="Grupo 1042427" transform="translate(10.292 29.281)">
          <path id="Trazado_769945" data-name="Trazado 769945" d="M107.813,289.8a2.105,2.105,0,0,1,.332-.836l1.312-1.946-1.758-1.186-1.312,1.946a2.105,2.105,0,0,0-.332.836l-.7,4.269a1.052,1.052,0,0,0,1.585,1.069l.214-.13Z" transform="translate(-105.339 -285.836)" fill="#407093"/>
        </g>
        <g id="Grupo_1042430" data-name="Grupo 1042430" transform="translate(12.652 0)">
          <g id="Grupo_1042429" data-name="Grupo 1042429">
            <g id="Grupo_1042428" data-name="Grupo 1042428">
              <path id="Trazado_769946" data-name="Trazado 769946" d="M150.42,8.872l-1.758-1.186a1.052,1.052,0,0,0-1.46.284L127.769,36.787l1.758,1.186L148.959,9.156a1.052,1.052,0,0,1,1.46-.284Z" transform="translate(-127.769 -7.506)" fill="#c63d4f"/>
            </g>
          </g>
        </g>
        <g id="Grupo_1042431" data-name="Grupo 1042431" transform="translate(14.368 19.277)">
          <path id="Trazado_769947" data-name="Trazado 769947" d="M159.454,192.6a2.314,2.314,0,0,1-1.555.6H146.376a2.3,2.3,0,0,0-2.3,2.3v.858a2.63,2.63,0,0,0,2.63,2.63h8.585l6.214-8.248Z" transform="translate(-144.078 -190.741)" fill="#ffb8a9"/>
        </g>
        <g id="Grupo_1042432" data-name="Grupo 1042432" transform="translate(14.368 21.738)">
          <path id="Trazado_769948" data-name="Trazado 769948" d="M145.838,217.3v-.858a2.3,2.3,0,0,1,2.3-2.3h-1.76a2.3,2.3,0,0,0-2.3,2.3v.858a2.63,2.63,0,0,0,2.63,2.63h1.76A2.63,2.63,0,0,1,145.838,217.3Z" transform="translate(-144.078 -214.141)" fill="#ff947e"/>
        </g>
        <g id="Grupo_1042435" data-name="Grupo 1042435" transform="translate(43.953 12.194)">
          <g id="Grupo_1042434" data-name="Grupo 1042434">
            <g id="Grupo_1042433" data-name="Grupo 1042433">
              <path id="Trazado_769949" data-name="Trazado 769949" d="M425.3,124.473v19.12a1.052,1.052,0,0,0,1.052,1.052h6.228a1.052,1.052,0,0,0,1.052-1.052v-19.12a1.052,1.052,0,0,0-1.052-1.052h-6.228A1.052,1.052,0,0,0,425.3,124.473Z" transform="translate(-425.303 -123.421)" fill="#90d8f9"/>
            </g>
          </g>
        </g>
        <g id="Grupo_1042438" data-name="Grupo 1042438" transform="translate(43.953 12.194)">
          <g id="Grupo_1042437" data-name="Grupo 1042437">
            <g id="Grupo_1042436" data-name="Grupo 1042436">
              <path id="Trazado_769950" data-name="Trazado 769950" d="M427.386,143.593v-19.12a1.052,1.052,0,0,1,1.052-1.052h-2.083a1.052,1.052,0,0,0-1.052,1.052v19.12a1.052,1.052,0,0,0,1.052,1.052h2.083A1.052,1.052,0,0,1,427.386,143.593Z" transform="translate(-425.303 -123.421)" fill="#75cef9"/>
            </g>
          </g>
        </g>
      </g>
      <g id="Grupo_1042440" data-name="Grupo 1042440" transform="translate(0.003 0)">
        <path id="Trazado_769951" data-name="Trazado 769951" d="M.792,170.593a.789.789,0,0,0,.789-.789v-6.066A1.316,1.316,0,0,1,2.9,162.423H9.332a.789.789,0,1,0,0-1.578H2.9A2.9,2.9,0,0,0,0,163.738V169.8a.789.789,0,0,0,.789.789Z" transform="translate(-0.003 -143.924)"/>
        <path id="Trazado_769952" data-name="Trazado 769952" d="M38.267,278.809a.789.789,0,0,0-.789.789V296.15a1.316,1.316,0,0,1-1.315,1.315H2.9a1.316,1.316,0,0,1-1.315-1.315V274.794a.789.789,0,0,0-1.578,0V296.15A2.9,2.9,0,0,0,2.9,299.043H36.163a2.9,2.9,0,0,0,2.893-2.893V279.6A.789.789,0,0,0,38.267,278.809Z" transform="translate(-0.003 -245.179)"/>
        <path id="Trazado_769953" data-name="Trazado 769953" d="M140.623,19.117a.789.789,0,0,0,.789-.789V14.036a1.843,1.843,0,0,0-1.841-1.841h-6.228a1.843,1.843,0,0,0-1.841,1.841v1.351H129a4.131,4.131,0,0,1-2.192-.629L121.591,11.5,124.3,7.486h0L125.974,5a1.841,1.841,0,0,0-.5-2.556L122.323.316a1.841,1.841,0,0,0-2.556.5l-6.812,10.1h-4.894A6.284,6.284,0,0,0,102.6,14.1l-4.047,7.15a3.011,3.011,0,0,0,2.62,4.494h.741a3.4,3.4,0,0,0,.237,1.192l-3.13,4.642a2.913,2.913,0,0,0-.456,1.149l-.7,4.269a1.838,1.838,0,0,0,2.774,1.871l3.7-2.25a2.874,2.874,0,0,0,.894-.854l2.978-4.416v.315a2.743,2.743,0,0,0,2.739,2.739h.871a2.731,2.731,0,0,0,1.95-.818,2.731,2.731,0,0,0,1.95.818h.871a2.743,2.743,0,0,0,2.739-2.739v-.4a8.282,8.282,0,0,0,2.343.338h6.5a8.324,8.324,0,0,0,2.39-.35l.938-.281v2.185A1.843,1.843,0,0,0,133.343,35h6.228a1.843,1.843,0,0,0,1.841-1.841V22.484a.789.789,0,1,0-1.578,0V33.157a.263.263,0,0,1-.263.263h-6.228a.263.263,0,0,1-.263-.263V14.036a.263.263,0,0,1,.263-.263h6.228a.263.263,0,0,1,.263.263v4.291a.789.789,0,0,0,.789.789ZM107.56,21.739l11.4-16.9,3.59,2.421-9.765,14.481ZM121.076,1.695a.263.263,0,0,1,.365-.071L124.6,3.751a.263.263,0,0,1,.071.365L123.43,5.949l-3.59-2.421ZM99.938,23.452a1.419,1.419,0,0,1-.009-1.427l4.047-7.15a4.7,4.7,0,0,1,4.087-2.383h3.829l-6.236,9.247H105a3.092,3.092,0,0,0-3.014,2.424h-.813A1.419,1.419,0,0,1,99.938,23.452Zm5.737,8.826-3.59-2.421,1.051-1.559a3.4,3.4,0,0,0,2.2.8h2.481Zm-1.754,2.6a1.3,1.3,0,0,1-.407.388l-3.7,2.25a.263.263,0,0,1-.4-.267l.7-4.269a1.326,1.326,0,0,1,.207-.522l.871-1.292,3.59,2.421Zm7.9-2.057h-.871a1.163,1.163,0,0,1-1.161-1.161V29.1h3.194V31.66A1.163,1.163,0,0,1,111.819,32.822Zm4.772,0h-.871a1.163,1.163,0,0,1-1.161-1.161V29.242l3.194,1.406V31.66a1.163,1.163,0,0,1-1.161,1.162Zm13.52-3.081a6.749,6.749,0,0,1-1.937.284h-6.5a6.714,6.714,0,0,1-2.721-.572l-3.78-1.664a3.091,3.091,0,0,0-1.252-.263h-8.585a1.843,1.843,0,0,1-1.841-1.841v-.858A1.51,1.51,0,0,1,105,23.317h11.523a3.1,3.1,0,0,0,2.085-.8l2.053-1.862a.789.789,0,0,0-1.06-1.169l-2.053,1.862a1.522,1.522,0,0,1-1.025.4h-1.841l6.023-8.932,5.263,3.29a5.709,5.709,0,0,0,3.029.869h2.5V29.325Z" transform="translate(-87.549 0)"/>
        <path id="Trazado_769954" data-name="Trazado 769954" d="M42.372,358.584h2.007a.789.789,0,1,0,0-1.578H42.372a.789.789,0,0,0,0,1.578Z" transform="translate(-37.209 -319.449)"/>
        <path id="Trazado_769955" data-name="Trazado 769955" d="M70.853,396.946H42.372a.789.789,0,1,0,0,1.578H70.853a.789.789,0,0,0,0-1.578Z" transform="translate(-37.209 -355.187)"/>
        <path id="Trazado_769956" data-name="Trazado 769956" d="M70.853,436.887H42.372a.789.789,0,1,0,0,1.578H70.853a.789.789,0,1,0,0-1.578Z" transform="translate(-37.209 -390.926)"/>
      </g>
    </g>
  </g>
</svg>
