<svg xmlns="http://www.w3.org/2000/svg" width="118.494" height="112.823" viewBox="0 0 118.494 112.823">
  <g id="Grupo_1042728" data-name="Grupo 1042728" transform="translate(-741 -1368)">
    <rect id="Rectángulo_338875" data-name="Rectángulo 338875" width="118.494" height="112.823" rx="10" transform="translate(741 1368)" fill="#ea526f"/>
    <g id="editor" transform="translate(761.579 1389)">
      <path id="Trazado_771300" data-name="Trazado 771300" d="M13,65.592H59.414V56.024L13,29.227Zm8.55-24.449h9.771a1.221,1.221,0,1,1,0,2.443H21.55a1.221,1.221,0,1,1,0-2.443Zm0,4.886H36.207a1.221,1.221,0,1,1,0,2.443H21.55a1.221,1.221,0,1,1,0-2.443Zm0,4.886H45.978a1.221,1.221,0,0,1,0,2.443H21.55a1.221,1.221,0,0,1,0-2.443Zm0,4.886H50.864a1.221,1.221,0,1,1,0,2.443H21.55a1.221,1.221,0,1,1,0-2.443Z" transform="translate(2.214 5.807)" fill="#e9efff"/>
      <path id="Trazado_771301" data-name="Trazado 771301" d="M17.845,18.813l41.568,24V14.056L50.358,5H13V18.393l4.287.256a1.214,1.214,0,0,1,.558.164ZM50.864,29.428H38.65a1.221,1.221,0,1,1,0-2.443H50.864a1.221,1.221,0,1,1,0,2.443Zm0-4.886H31.321a1.221,1.221,0,0,1,0-2.443H50.864a1.221,1.221,0,1,1,0,2.443ZM21.55,12.328H50.864a1.221,1.221,0,1,1,0,2.443H21.55a1.221,1.221,0,0,1,0-2.443Zm0,4.886H50.864a1.221,1.221,0,1,1,0,2.443H21.55a1.221,1.221,0,0,1,0-2.443Z" transform="translate(2.214 0.443)" fill="#e9efff"/>
      <path id="Trazado_771302" data-name="Trazado 771302" d="M0,0H11.2V45.311H0Z" transform="matrix(0.5, -0.866, 0.866, 0.5, 14.293, 31.682)" fill="#ffdd40"/>
      <path id="Trazado_771303" data-name="Trazado 771303" d="M0,0H11.2V11.2H0Z" transform="matrix(0.5, -0.866, 0.866, 0.5, 55.648, 55.559)" fill="#ff4155"/>
      <path id="Trazado_771304" data-name="Trazado 771304" d="M16.753,18.194l-10.817-.65,5.97,9.042Z" transform="translate(0.65 3.22)" fill="#ffb332"/>
      <path id="Trazado_771305" data-name="Trazado 771305" d="M73.231,49.953,64.07,44.665V13.993a1.221,1.221,0,0,0-.358-.863L53.941,3.358A1.221,1.221,0,0,0,53.078,3H13.993a1.221,1.221,0,0,0-1.221,1.221V18.689L4.295,18.18A1.221,1.221,0,0,0,3.2,20.072L11.6,32.785a1.23,1.23,0,0,0,.42.4l.756.436v39a1.221,1.221,0,0,0,1.221,1.221H62.849A1.221,1.221,0,0,0,64.07,72.62V63.241l1.118.645a1.221,1.221,0,0,0,1.668-.447l6.822-11.816a1.221,1.221,0,0,0-.447-1.67ZM61.628,71.4H15.214V35.034l46.414,26.8ZM6.586,20.764l10.816.65-4.845,8.392ZM15.214,5.443H52.572L61.628,14.5V43.255l-41.568-24a1.214,1.214,0,0,0-.558-.164l-4.287-.256ZM59.136,44.637l-5.6,9.7L14.294,31.682l5.6-9.7ZM55.651,55.559l5.6-9.7,9.7,5.6-5.6,9.7Z"/>
      <path id="Trazado_771306" data-name="Trazado 771306" d="M20.221,13.443H49.535a1.221,1.221,0,1,0,0-2.443H20.221a1.221,1.221,0,0,0,0,2.443Z" transform="translate(3.542 1.771)"/>
      <path id="Trazado_771307" data-name="Trazado 771307" d="M20.221,17.443H49.535a1.221,1.221,0,1,0,0-2.443H20.221a1.221,1.221,0,0,0,0,2.443Z" transform="translate(3.542 2.657)"/>
      <path id="Trazado_771308" data-name="Trazado 771308" d="M20.221,53.426H49.535a1.221,1.221,0,1,0,0-2.443H20.221a1.221,1.221,0,1,0,0,2.443Z" transform="translate(3.542 10.624)"/>
      <path id="Trazado_771309" data-name="Trazado 771309" d="M47.764,19H28.221a1.221,1.221,0,0,0,0,2.443H47.764a1.221,1.221,0,1,0,0-2.443Z" transform="translate(5.314 3.543)"/>
      <path id="Trazado_771310" data-name="Trazado 771310" d="M20.221,49.426H44.65a1.221,1.221,0,0,0,0-2.443H20.221a1.221,1.221,0,0,0,0,2.443Z" transform="translate(3.542 9.738)"/>
      <path id="Trazado_771311" data-name="Trazado 771311" d="M46.436,23H34.221a1.221,1.221,0,1,0,0,2.443H46.436a1.221,1.221,0,1,0,0-2.443Z" transform="translate(6.642 4.428)"/>
      <path id="Trazado_771312" data-name="Trazado 771312" d="M20.221,45.426H34.878a1.221,1.221,0,0,0,0-2.443H20.221a1.221,1.221,0,1,0,0,2.443Z" transform="translate(3.542 8.853)"/>
      <path id="Trazado_771313" data-name="Trazado 771313" d="M20.221,41.426h9.771a1.221,1.221,0,1,0,0-2.443H20.221a1.221,1.221,0,0,0,0,2.443Z" transform="translate(3.542 7.967)"/>
    </g>
  </g>
</svg>
