<svg xmlns="http://www.w3.org/2000/svg" width="118.494" height="112.823" viewBox="0 0 118.494 112.823">
  <g id="Grupo_1042731" data-name="Grupo 1042731" transform="translate(-6848 10324)">
    <rect id="Rectángulo_338875" data-name="Rectángulo 338875" width="118.494" height="112.823" rx="10" transform="translate(6848 -10324)" fill="#ea526f"/>
    <g id="habilidades" transform="translate(6866.29 -10307.101)">
      <ellipse id="Elipse_8018" data-name="Elipse 8018" cx="5" cy="5.5" rx="5" ry="5.5" transform="translate(54 61.024)" fill="#89c683"/>
      <ellipse id="Elipse_8019" data-name="Elipse 8019" cx="5" cy="5.5" rx="5" ry="5.5" transform="translate(54 43.024)" fill="#89c683"/>
      <ellipse id="Elipse_8020" data-name="Elipse 8020" cx="5" cy="5.5" rx="5" ry="5.5" transform="translate(54 25.024)" fill="#89c683"/>
      <ellipse id="Elipse_8021" data-name="Elipse 8021" cx="5" cy="5.5" rx="5" ry="5.5" transform="translate(54 7.024)" fill="#89c683"/>
      <path id="Trazado_771314" data-name="Trazado 771314" d="M46.867,49a5.126,5.126,0,0,0-2.944.931A5.147,5.147,0,0,0,51.1,57.089,5.148,5.148,0,0,0,46.867,49Z" transform="translate(12.135 12.424)" fill="#a7d8a1"/>
      <path id="Trazado_771315" data-name="Trazado 771315" d="M46.867,35a5.126,5.126,0,0,0-2.944.931A5.147,5.147,0,0,0,51.1,43.09,5.148,5.148,0,0,0,46.867,35Z" transform="translate(12.135 8.379)" fill="#a7d8a1"/>
      <path id="Trazado_771316" data-name="Trazado 771316" d="M46.867,21a5.126,5.126,0,0,0-2.944.931A5.147,5.147,0,0,0,51.1,29.09,5.148,5.148,0,0,0,46.867,21Z" transform="translate(12.135 4.334)" fill="#a7d8a1"/>
      <path id="Trazado_771317" data-name="Trazado 771317" d="M48.156,16.022A5.118,5.118,0,0,0,51.1,15.09a5.148,5.148,0,0,0-7.177-7.159,5.149,5.149,0,0,0,4.233,8.091Z" transform="translate(12.135 0.289)" fill="#a7d8a1"/>
      <g id="Grupo_1042729" data-name="Grupo 1042729" transform="translate(68.025 6)">
        <path id="Trazado_771318" data-name="Trazado 771318" d="M53,6h9.023V8.578H53Z" transform="translate(-53 -6)" fill="#c8c8c8"/>
        <path id="Trazado_771319" data-name="Trazado 771319" d="M53,10H65.889v2.578H53Z" transform="translate(-53 -4.844)" fill="#c8c8c8"/>
        <path id="Trazado_771320" data-name="Trazado 771320" d="M53,14h6.445v2.578H53Z" transform="translate(-53 -3.689)" fill="#c8c8c8"/>
        <path id="Trazado_771321" data-name="Trazado 771321" d="M53,20h9.023v2.578H53Z" transform="translate(-53 -1.955)" fill="#c8c8c8"/>
        <path id="Trazado_771322" data-name="Trazado 771322" d="M53,24H65.889v2.578H53Z" transform="translate(-53 -0.799)" fill="#c8c8c8"/>
        <path id="Trazado_771323" data-name="Trazado 771323" d="M53,28h6.445v2.578H53Z" transform="translate(-53 0.357)" fill="#c8c8c8"/>
        <path id="Trazado_771324" data-name="Trazado 771324" d="M53,34h9.023v2.578H53Z" transform="translate(-53 2.09)" fill="#c8c8c8"/>
        <path id="Trazado_771325" data-name="Trazado 771325" d="M53,38H65.889v2.578H53Z" transform="translate(-53 3.246)" fill="#c8c8c8"/>
        <path id="Trazado_771326" data-name="Trazado 771326" d="M53,42h6.445v2.578H53Z" transform="translate(-53 4.402)" fill="#c8c8c8"/>
        <path id="Trazado_771327" data-name="Trazado 771327" d="M53,48h9.023v2.578H53Z" transform="translate(-53 6.135)" fill="#c8c8c8"/>
        <path id="Trazado_771328" data-name="Trazado 771328" d="M53,52H65.889v2.578H53Z" transform="translate(-53 7.291)" fill="#c8c8c8"/>
        <path id="Trazado_771329" data-name="Trazado 771329" d="M53,56h6.445v2.578H53Z" transform="translate(-53 8.447)" fill="#c8c8c8"/>
      </g>
      <path id="Trazado_771330" data-name="Trazado 771330" d="M0,0H10.068V2.578H0Z" transform="matrix(0.768, -0.64, 0.64, 0.768, 56.862, 66.88)" fill="#e66967"/>
      <path id="Trazado_771331" data-name="Trazado 771331" d="M0,0H10.068V2.578H0Z" transform="matrix(0.768, -0.64, 0.64, 0.768, 56.866, 48.841)" fill="#e66967"/>
      <path id="Trazado_771332" data-name="Trazado 771332" d="M0,0H10.068V2.578H0Z" transform="matrix(0.768, -0.64, 0.64, 0.768, 56.87, 30.799)" fill="#e66967"/>
      <path id="Trazado_771333" data-name="Trazado 771333" d="M0,0H10.068V2.578H0Z" transform="matrix(0.768, -0.64, 0.64, 0.768, 56.875, 12.757)" fill="#e66967"/>
      <path id="Trazado_771334" data-name="Trazado 771334" d="M20.045,39l-9.369,2.677A11.962,11.962,0,0,0,2,53.178V62.2H48.4V53.178a11.962,11.962,0,0,0-8.676-11.5L30.357,39Z" transform="translate(0.289 9.535)" fill="#b4b4b4"/>
      <path id="Trazado_771335" data-name="Trazado 771335" d="M38.57,41.677,29.2,39H24.045l-9.369,2.677A11.962,11.962,0,0,0,6,53.178V62.2H47.246V53.178a11.962,11.962,0,0,0-8.676-11.5Z" transform="translate(1.445 9.535)" fill="#c8c8c8"/>
      <path id="Trazado_771336" data-name="Trazado 771336" d="M16,36.064v3.784l5.156,2.578,5.156-2.578V36.064Z" transform="translate(4.334 8.687)" fill="#eeb8ab"/>
      <path id="Trazado_771337" data-name="Trazado 771337" d="M8,28.609V18.6A11.6,11.6,0,0,1,19.6,7h9.023a5.156,5.156,0,0,1,5.156,5.156h0a5.155,5.155,0,0,1,5.154,5.156V28.617" transform="translate(2.023 0.289)" fill="#3f4042"/>
      <path id="Trazado_771338" data-name="Trazado 771338" d="M38.357,17.31A5.156,5.156,0,0,0,33.2,12.155h0A5.156,5.156,0,0,0,28.045,7H19.023a11.566,11.566,0,0,0-8.164,3.362A11.59,11.59,0,0,0,10,14.734v4.853a5.158,5.158,0,0,0,5.156,5.157l23.2.005Z" transform="translate(2.6 0.289)" fill="#5a5b5d"/>
      <path id="Trazado_771339" data-name="Trazado 771339" d="M34.2,23.445v7.734a11.6,11.6,0,1,1-23.2,0V23.445h7.237A10.252,10.252,0,0,0,27.756,17Z" transform="translate(2.889 3.178)" fill="#eeb8ab"/>
      <path id="Trazado_771340" data-name="Trazado 771340" d="M12.156,23H10.867a3.867,3.867,0,1,0,0,7.734h1.361" transform="translate(1.734 4.912)" fill="#eeb8ab"/>
      <path id="Trazado_771341" data-name="Trazado 771341" d="M29.016,23h1.289a3.867,3.867,0,1,1,0,7.734H28.944" transform="translate(8.074 4.912)" fill="#eeb8ab"/>
      <path id="Trazado_771342" data-name="Trazado 771342" d="M25.259,45.3l-1.718,3.438H18.385L16.667,45.3l4.3-4.3Z" transform="translate(4.527 10.113)" fill="#e66967"/>
      <path id="Trazado_771343" data-name="Trazado 771343" d="M24.733,59.889,23.445,47H18.289L17,59.889Z" transform="translate(4.623 11.846)" fill="#e66967"/>
      <path id="Trazado_771344" data-name="Trazado 771344" d="M31,51h2.578v7.734H31Z" transform="translate(8.668 13.002)" fill="#777"/>
      <path id="Trazado_771345" data-name="Trazado 771345" d="M7,51H9.578v7.734H7Z" transform="translate(1.734 13.002)" fill="#777"/>
      <path id="Trazado_771346" data-name="Trazado 771346" d="M17.66,23.445H13v7.734A11.6,11.6,0,0,0,23.311,42.7,11.6,11.6,0,0,0,33.623,31.178V23.445L27.178,17a10.252,10.252,0,0,1-9.519,6.445Z" transform="translate(3.467 3.178)" fill="#ffe1d3"/>
      <path id="Trazado_771347" data-name="Trazado 771347" d="M25.734,37.053A11.436,11.436,0,0,1,18,37.976v1.587L21.867,41.5l3.867-1.933Z" transform="translate(4.912 8.972)" fill="#ffe1d3"/>
      <path id="Trazado_771348" data-name="Trazado 771348" d="M22.5,41.578,17.348,39l-6.015,1.718,6.015,6.015Z" transform="translate(2.986 9.535)" fill="#b4b4b4"/>
      <path id="Trazado_771349" data-name="Trazado 771349" d="M25.156,46.734l6.015-6.015L25.156,39,20,41.578Z" transform="translate(5.49 9.535)" fill="#b4b4b4"/>
      <path id="Trazado_771350" data-name="Trazado 771350" d="M19.29,47,18,59.889h6.443L23.156,47Z" transform="translate(4.912 11.846)" fill="#ee8382"/>
      <path id="Trazado_771351" data-name="Trazado 771351" d="M2.289,73.025h46.4a1.289,1.289,0,0,0,1.289-1.289V62.713a13.306,13.306,0,0,0-9.61-12.74l-8.435-2.41V45.5a12.917,12.917,0,0,0,6.184-8.568h.26a5.13,5.13,0,0,0,3.867-8.53V17.6a6.459,6.459,0,0,0-5.264-6.336A6.457,6.457,0,0,0,30.646,6H21.623A12.9,12.9,0,0,0,8.734,18.889V28.4a5.13,5.13,0,0,0,3.867,8.53h.26A12.917,12.917,0,0,0,19.045,45.5v2.061l-8.435,2.41A13.306,13.306,0,0,0,1,62.713v9.023a1.289,1.289,0,0,0,1.289,1.289ZM20.206,49.911l3.108,1.554-2.98,2.98-3.555-3.555Zm10.567,0,3.426.98-3.554,3.555-2.98-2.98ZM25.49,52.935l2.729,2.729-.947,1.893H23.708l-.947-1.893Zm-1.411,7.2H26.9l1.03,10.311H23.046ZM47.4,62.713v7.734H42.246V64H39.668v6.445H30.522L29.388,59.09l.809-1.619a1.314,1.314,0,0,0,.449.086,1.285,1.285,0,0,0,.911-.378L37.035,51.7l2.626.75A10.716,10.716,0,0,1,47.4,62.713ZM38.379,34.357V29.2a2.578,2.578,0,1,1,0,5.156ZM21.623,8.578h9.023a3.872,3.872,0,0,1,3.867,3.867A1.289,1.289,0,0,0,35.8,13.734,3.871,3.871,0,0,1,39.667,17.6v9.207a5,5,0,0,0-1.288-.184A1.286,1.286,0,0,0,38,25.712l-6.445-6.445a1.29,1.29,0,0,0-2.109.433,8.92,8.92,0,0,1-8.321,5.634H13.889A1.289,1.289,0,0,0,12.6,26.623a5.077,5.077,0,0,0-1.289.183V18.889A10.324,10.324,0,0,1,21.623,8.578Zm-11.6,23.2A2.58,2.58,0,0,1,12.6,29.2v5.156A2.58,2.58,0,0,1,10.023,31.779Zm5.156,2.578V27.912h5.948A11.476,11.476,0,0,0,31,22.354l4.8,4.8v7.2a10.311,10.311,0,1,1-20.623,0ZM25.49,47.246a12.83,12.83,0,0,0,3.867-.594v1.087L25.49,49.672l-3.867-1.933V46.652A12.83,12.83,0,0,0,25.49,47.246ZM3.578,62.713a10.717,10.717,0,0,1,7.74-10.261l2.626-.75,5.478,5.478a1.259,1.259,0,0,0,1.361.29l.809,1.619L20.455,70.447H11.311V64H8.734v6.445H3.578Z" transform="translate(0 0)"/>
      <path id="Trazado_771352" data-name="Trazado 771352" d="M53,6h9.023V8.578H53Z" transform="translate(15.025)"/>
      <path id="Trazado_771353" data-name="Trazado 771353" d="M53,10H65.889v2.578H53Z" transform="translate(15.025 1.156)"/>
      <path id="Trazado_771354" data-name="Trazado 771354" d="M53,14h6.445v2.578H53Z" transform="translate(15.025 2.311)"/>
      <path id="Trazado_771355" data-name="Trazado 771355" d="M53,20h9.023v2.578H53Z" transform="translate(15.025 4.045)"/>
      <path id="Trazado_771356" data-name="Trazado 771356" d="M53,24H65.889v2.578H53Z" transform="translate(15.025 5.201)"/>
      <path id="Trazado_771357" data-name="Trazado 771357" d="M53,28h6.445v2.578H53Z" transform="translate(15.025 6.357)"/>
      <path id="Trazado_771358" data-name="Trazado 771358" d="M53,34h9.023v2.578H53Z" transform="translate(15.025 8.09)"/>
      <path id="Trazado_771359" data-name="Trazado 771359" d="M53,38H65.889v2.578H53Z" transform="translate(15.025 9.246)"/>
      <path id="Trazado_771360" data-name="Trazado 771360" d="M53,42h6.445v2.578H53Z" transform="translate(15.025 10.402)"/>
      <path id="Trazado_771361" data-name="Trazado 771361" d="M53,48h9.023v2.578H53Z" transform="translate(15.025 12.135)"/>
      <path id="Trazado_771362" data-name="Trazado 771362" d="M53,52H65.889v2.578H53Z" transform="translate(15.025 13.291)"/>
      <path id="Trazado_771363" data-name="Trazado 771363" d="M53,56h6.445v2.578H53Z" transform="translate(15.025 14.447)"/>
      <path id="Trazado_771364" data-name="Trazado 771364" d="M47.445,60.889a6.452,6.452,0,0,0,6.445-6.445,6.361,6.361,0,0,0-.713-2.885l1.539-1.282-1.65-1.98-1.49,1.243A6.383,6.383,0,0,0,47.445,48a6.445,6.445,0,1,0,0,12.889Zm0-10.311a3.837,3.837,0,0,1,2.118.638l-4.232,3.528,1.65,1.98,4.132-3.444a3.856,3.856,0,1,1-3.668-2.7Z" transform="translate(11.557 12.135)"/>
      <path id="Trazado_771365" data-name="Trazado 771365" d="M47.444,46.89a6.452,6.452,0,0,0,6.445-6.445,6.361,6.361,0,0,0-.713-2.885l1.539-1.282-1.65-1.98-1.49,1.243A6.382,6.382,0,0,0,47.446,34a6.444,6.444,0,0,0,0,12.888Zm0-10.311a3.837,3.837,0,0,1,2.118.638l-4.232,3.528,1.65,1.98,4.132-3.444a3.856,3.856,0,1,1-3.668-2.7Z" transform="translate(11.558 8.091)"/>
      <path id="Trazado_771366" data-name="Trazado 771366" d="M47.444,32.89a6.452,6.452,0,0,0,6.445-6.445,6.361,6.361,0,0,0-.713-2.885l1.539-1.282-1.65-1.98-1.49,1.243A6.382,6.382,0,0,0,47.446,20a6.444,6.444,0,1,0,0,12.888Zm0-10.311a3.837,3.837,0,0,1,2.118.638l-4.232,3.528,1.65,1.98,4.132-3.444a3.856,3.856,0,1,1-3.668-2.7Z" transform="translate(11.558 4.046)"/>
      <path id="Trazado_771367" data-name="Trazado 771367" d="M53.064,6.3l-1.49,1.243A6.377,6.377,0,0,0,47.445,6a6.445,6.445,0,1,0,6.445,6.445,6.361,6.361,0,0,0-.713-2.885l1.539-1.282Zm-1.753,6.147a3.881,3.881,0,1,1-1.749-3.229l-4.232,3.528,1.65,1.98,4.132-3.444a3.843,3.843,0,0,1,.2,1.165Z" transform="translate(11.557 0)"/>
    </g>
  </g>
</svg>
