<svg xmlns="http://www.w3.org/2000/svg" width="83" height="83" viewBox="0 0 83 83">
  <g id="Grupo_1042193" data-name="Grupo 1042193" transform="translate(-970 -4883)">
    <circle id="Elipse_7956" data-name="Elipse 7956" cx="41.5" cy="41.5" r="41.5" transform="translate(970 4883)" fill="#fff"/>
    <g id="mejorar" transform="translate(940.531 4888.062)">
      <g id="Grupo_1042188" data-name="Grupo 1042188" transform="translate(46.592 7.499)">
        <path id="Trazado_769125" data-name="Trazado 769125" d="M93.851,40.506l-1.266.461a1.807,1.807,0,0,0-1.193,1.7v.511c0,1.038.008,7.331-.222,8.312a8.261,8.261,0,0,1-8.278,6.339l-2.568-.076h0l-3.443-.1a2.363,2.363,0,0,0-2.432,2.36v5.344H55.673v-15a3.736,3.736,0,0,0-1.29-2.811,23.314,23.314,0,0,1,.017-34.8A21.038,21.038,0,0,1,68.269,7.5h3.5c10.445,0,19.782,5.838,21.2,17.8a5.38,5.38,0,0,1-1.078,4.349,2.55,2.55,0,0,0-.093,2.792l3.155,4.661A2.265,2.265,0,0,1,93.851,40.506Z" transform="translate(-46.592 -7.5)" fill="#ffdfcf"/>
        <path id="Trazado_769126" data-name="Trazado 769126" d="M252.17,438.424a2.364,2.364,0,0,0-1.633,2.247v5.344H245.88v-5.344a2.361,2.361,0,0,1,2.432-2.36l3.443.1h0Z" transform="translate(-222.681 -388.159)" fill="#ffcebf"/>
        <path id="Trazado_769127" data-name="Trazado 769127" d="M254.177,40.506l-1.265.461a1.807,1.807,0,0,0-1.193,1.7v.51c0,1.038.008,7.332-.222,8.312a8.26,8.26,0,0,1-8.278,6.34l-2.568-.076h0l-.577-.017a8.266,8.266,0,0,0,6.768-6.247c.23-.98.222-7.273.222-8.312v-.51a1.807,1.807,0,0,1,1.193-1.7l1.265-.461a2.266,2.266,0,0,0,1.1-3.4l-3.155-4.661a2.548,2.548,0,0,1,.093-2.792,5.386,5.386,0,0,0,1.078-4.349c-1.392-11.737-10.4-17.578-20.6-17.8.184,0,.369-.007.554-.007h3.5c10.446,0,19.782,5.838,21.2,17.8a5.386,5.386,0,0,1-1.078,4.349,2.549,2.549,0,0,0-.093,2.792l3.155,4.661A2.266,2.266,0,0,1,254.177,40.506Z" transform="translate(-206.918 -7.5)" fill="#ffcebf"/>
        <path id="Trazado_769128" data-name="Trazado 769128" d="M198.891,7.829l-3.931,4.51a.53.53,0,0,0,.4.878h2.115V26.359a1.128,1.128,0,0,0,1.128,1.128h2.022a1.128,1.128,0,0,0,1.128-1.128V13.217h2.116a.53.53,0,0,0,.4-.878l-3.931-4.51A.959.959,0,0,0,198.891,7.829Z" transform="translate(-177.572 -7.5)" fill="#ffcebf"/>
        <g id="Grupo_1042185" data-name="Grupo 1042185" transform="translate(9.845 9.761)">
          <path id="Trazado_769129" data-name="Trazado 769129" d="M153.73,101.059h-2.409a8.54,8.54,0,0,0-.922-2.226l1.7-1.7a1.128,1.128,0,0,0,0-1.595L150.672,94.1a1.128,1.128,0,0,0-1.595,0l-1.7,1.7a8.512,8.512,0,0,0-2.225-.923V92.478a1.128,1.128,0,0,0-1.128-1.128h-1.79a1.034,1.034,0,0,0-1.011,1.128v2.407a11.021,11.021,0,0,0-2.575.923l-1.7-1.7a1.128,1.128,0,0,0-1.595,0l-1.431,1.431a1.128,1.128,0,0,0,0,1.595l1.7,1.7a8.539,8.539,0,0,0-.922,2.226H132.29a1.127,1.127,0,0,0-1.127,1.127v2.023a1.128,1.128,0,0,0,1.127,1.128H134.7a8.532,8.532,0,0,0,.922,2.225l-1.7,1.7a1.128,1.128,0,0,0,0,1.595l1.431,1.431a1.128,1.128,0,0,0,1.595,0l1.7-1.7a8.549,8.549,0,0,0,2.225.922v2.409A1.128,1.128,0,0,0,142,115.044h2.023a1.128,1.128,0,0,0,1.128-1.127v-2.409a8.549,8.549,0,0,0,2.225-.922l1.7,1.7a1.128,1.128,0,0,0,1.595,0l1.431-1.431a1.128,1.128,0,0,0,0-1.595l-1.7-1.7a8.532,8.532,0,0,0,.922-2.225h2.409a1.128,1.128,0,0,0,1.127-1.128v-2.023A1.127,1.127,0,0,0,153.73,101.059Zm-10.72,6.213a4.074,4.074,0,1,1,4.074-4.074A4.074,4.074,0,0,1,143.01,107.271Z" transform="translate(-131.163 -91.35)" fill="#ffcebf"/>
        </g>
        <g id="Grupo_1042186" data-name="Grupo 1042186" transform="translate(12.53 9.761)">
          <path id="Trazado_769130" data-name="Trazado 769130" d="M176.8,101.059h-2.409a8.54,8.54,0,0,0-.922-2.226l1.7-1.7a1.128,1.128,0,0,0,0-1.595L173.739,94.1a1.128,1.128,0,0,0-1.595,0l-1.7,1.7a8.512,8.512,0,0,0-2.225-.923V92.478a1.128,1.128,0,0,0-1.128-1.128h-2.023a1.128,1.128,0,0,0-1.128,1.128v2.407a8.512,8.512,0,0,0-2.225.923L161.6,95.7,160.01,94.1a1.128,1.128,0,0,0-1.595,0l-1.431,1.431a1.128,1.128,0,0,0,0,1.595l1.7,1.7a8.54,8.54,0,0,0-.922,2.226h-2.409a1.127,1.127,0,0,0-1.127,1.127v2.023a1.128,1.128,0,0,0,1.127,1.128h2.409a8.532,8.532,0,0,0,.922,2.225l-1.7,1.7a1.128,1.128,0,0,0,0,1.595l1.431,1.431a1.128,1.128,0,0,0,1.595,0l1.7-1.7a8.55,8.55,0,0,0,2.225.922v2.409a1.128,1.128,0,0,0,1.128,1.127h2.023a1.128,1.128,0,0,0,1.128-1.127v-2.409a8.549,8.549,0,0,0,2.225-.922l1.7,1.7a1.128,1.128,0,0,0,1.595,0l1.431-1.431a1.128,1.128,0,0,0,0-1.595l-1.7-1.7a8.531,8.531,0,0,0,.922-2.225H176.8a1.128,1.128,0,0,0,1.127-1.128v-2.023A1.127,1.127,0,0,0,176.8,101.059Zm-10.72,6.213a4.074,4.074,0,0,1-.2-8.143c.065,0,.132-.006.2-.006a4.074,4.074,0,0,1,0,8.149Z" transform="translate(-154.23 -91.35)" fill="#9e9797"/>
        </g>
        <path id="Trazado_769131" data-name="Trazado 769131" d="M221.837,91.35v7.779a4.071,4.071,0,0,0-3.513,2.386,1.126,1.126,0,0,1-.764-1.066V95.7l.111.111a8.512,8.512,0,0,1,2.225-.923V92.478a1.128,1.128,0,0,1,1.128-1.128Z" transform="translate(-197.658 -81.589)" fill="#8c8787"/>
        <g id="Grupo_1042187" data-name="Grupo 1042187" transform="translate(17.618 12.185)">
          <path id="Trazado_769132" data-name="Trazado 769132" d="M245.264,264.968v1.959a1.128,1.128,0,0,1-.8,1.078,1.126,1.126,0,0,0,.331.05h2.023a1.128,1.128,0,0,0,1.128-1.127V264.52h-2.237A.448.448,0,0,0,245.264,264.968Z" transform="translate(-239.05 -246.785)" fill="#8c8787"/>
          <path id="Trazado_769133" data-name="Trazado 769133" d="M200.617,162.194a4.075,4.075,0,0,1,2.732-3.847,4.074,4.074,0,1,0,0,7.694A4.075,4.075,0,0,1,200.617,162.194Z" transform="translate(-197.932 -152.772)" fill="#8c8787"/>
          <path id="Trazado_769134" data-name="Trazado 769134" d="M298.248,211.9a8.53,8.53,0,0,1-.61,1.471.558.558,0,0,0,.1.656l1.406,1.406a1.128,1.128,0,0,1,0,1.595l-.885.885.545.545a1.128,1.128,0,0,0,1.595,0l1.431-1.431a1.128,1.128,0,0,0,0-1.595l-1.7-1.7a8.533,8.533,0,0,0,.922-2.225h-2.265A.557.557,0,0,0,298.248,211.9Z" transform="translate(-285.973 -199.937)" fill="#8c8787"/>
          <path id="Trazado_769135" data-name="Trazado 769135" d="M329.809,174.75H327.4c.622,0,.85.5.85,1.127V177.9c0,.623-.229,1.128-.85,1.128h2.409a1.128,1.128,0,0,0,1.127-1.128v-2.023A1.127,1.127,0,0,0,329.809,174.75Z" transform="translate(-312.329 -167.466)" fill="#8c8787"/>
          <path id="Trazado_769136" data-name="Trazado 769136" d="M301.825,115.531a1.128,1.128,0,0,0,0-1.595l-1.431-1.431a1.128,1.128,0,0,0-1.595,0l-.545.545.885.885a1.128,1.128,0,0,1,0,1.595l-1.406,1.406a.557.557,0,0,0-.1.656,8.525,8.525,0,0,1,.61,1.472.557.557,0,0,0,.532.4h2.265a8.541,8.541,0,0,0-.922-2.226Z" transform="translate(-285.972 -112.175)" fill="#8c8787"/>
        </g>
        <path id="Trazado_769137" data-name="Trazado 769137" d="M218.958,7.829l-3.931,4.51a.53.53,0,0,0,.4.878h2.115V26.359a1.128,1.128,0,0,0,1.128,1.128h2.022a1.128,1.128,0,0,0,1.128-1.128V13.217h2.116a.53.53,0,0,0,.4-.878L220.4,7.829A.959.959,0,0,0,218.958,7.829Z" transform="translate(-195.303 -7.5)" fill="#8ac9fe"/>
        <path id="Trazado_769138" data-name="Trazado 769138" d="M251.785,12.338l-3.931-4.51a.959.959,0,0,0-1.445,0l-.445.511,3.486,4c.3.343.275.878-.18.878h-1.48a.856.856,0,0,0-.856.856V26.359a1.127,1.127,0,0,1-.97,1.115,1.13,1.13,0,0,0,.157.012h2.022a1.128,1.128,0,0,0,1.128-1.128V13.217h2.116A.53.53,0,0,0,251.785,12.338Z" transform="translate(-222.754 -7.5)" fill="#60b7ff"/>
      </g>
      <g id="Grupo_1042192" data-name="Grupo 1042192" transform="translate(46.592 7.499)">
        <g id="Grupo_1042190" data-name="Grupo 1042190" transform="translate(12.53)">
          <g id="Grupo_1042189" data-name="Grupo 1042189" transform="translate(0 10.831)">
            <path id="Trazado_769139" data-name="Trazado 769139" d="M227.213,163.32a4.074,4.074,0,1,1-4.277,0" transform="translate(-213.227 -156.012)" fill="none" stroke="#000" stroke-linecap="round" stroke-linejoin="round" stroke-miterlimit="10" stroke-width="1.7"/>
            <path id="Trazado_769140" data-name="Trazado 769140" d="M168.216,100.54c0,.02,0,.038,0,.058v2.407a8.512,8.512,0,0,1,2.225.923l1.7-1.7a1.128,1.128,0,0,1,1.595,0l1.431,1.431a1.128,1.128,0,0,1,0,1.595l-1.7,1.7a8.54,8.54,0,0,1,.922,2.226H176.8a1.127,1.127,0,0,1,1.127,1.127v2.023a1.128,1.128,0,0,1-1.127,1.128h-2.409a8.532,8.532,0,0,1-.922,2.225l1.7,1.7a1.128,1.128,0,0,1,0,1.595l-1.431,1.431a1.128,1.128,0,0,1-1.595,0l-1.7-1.7a8.549,8.549,0,0,1-2.225.922v2.409a1.128,1.128,0,0,1-1.128,1.127h-2.023a1.128,1.128,0,0,1-1.128-1.127v-2.409a8.549,8.549,0,0,1-2.225-.922l-1.7,1.7a1.128,1.128,0,0,1-1.595,0l-1.431-1.431a1.128,1.128,0,0,1,0-1.595l1.7-1.7a8.532,8.532,0,0,1-.922-2.225h-2.409a1.128,1.128,0,0,1-1.127-1.128v-2.023a1.127,1.127,0,0,1,1.127-1.127h2.409a8.54,8.54,0,0,1,.922-2.226l-1.7-1.7a1.128,1.128,0,0,1,0-1.595l1.431-1.431a1.128,1.128,0,0,1,1.595,0l1.7,1.7a8.512,8.512,0,0,1,2.225-.923V100.6c0-.02,0-.038,0-.058" transform="translate(-154.23 -100.54)" fill="none" stroke="#000" stroke-linecap="round" stroke-linejoin="round" stroke-miterlimit="10" stroke-width="1.7"/>
          </g>
          <path id="Trazado_769141" data-name="Trazado 769141" d="M217.543,17.3v9.055a1.128,1.128,0,0,0,1.128,1.128h2.022a1.128,1.128,0,0,0,1.128-1.128V13.217h2.116a.53.53,0,0,0,.4-.878l-3.931-4.51a.959.959,0,0,0-1.445,0l-3.931,4.51a.53.53,0,0,0,.4.878h2.115" transform="translate(-207.835 -7.499)" fill="none" stroke="#000" stroke-linecap="round" stroke-linejoin="round" stroke-miterlimit="10" stroke-width="1.7"/>
        </g>
        <g id="Grupo_1042191" data-name="Grupo 1042191" transform="translate(5.882 12.537)">
          <line id="Línea_795" data-name="Línea 795" x1="3.68" transform="translate(0 1.84)" fill="none" stroke="#000" stroke-linecap="round" stroke-linejoin="round" stroke-miterlimit="10" stroke-width="1.7"/>
          <line id="Línea_796" data-name="Línea 796" y2="3.68" transform="translate(1.84)" fill="none" stroke="#000" stroke-linecap="round" stroke-linejoin="round" stroke-miterlimit="10" stroke-width="1.7"/>
        </g>
        <line id="Línea_797" data-name="Línea 797" transform="translate(12.751 8.428)" fill="none" stroke="#000" stroke-linecap="round" stroke-linejoin="round" stroke-miterlimit="10" stroke-width="1.7"/>
        <path id="Trazado_769142" data-name="Trazado 769142" d="M55.673,65.356v-15a3.736,3.736,0,0,0-1.29-2.811,23.314,23.314,0,0,1,.017-34.8A21.038,21.038,0,0,1,68.269,7.5h3.5c10.445,0,19.782,5.838,21.2,17.8a5.38,5.38,0,0,1-1.078,4.349,2.55,2.55,0,0,0-.093,2.792l3.155,4.661a2.265,2.265,0,0,1-1.1,3.4l-1.265.461a1.807,1.807,0,0,0-1.193,1.7v.511c0,1.038.008,7.331-.222,8.312a8.261,8.261,0,0,1-8.278,6.339l-2.568-.076h0l-3.443-.1a2.363,2.363,0,0,0-2.432,2.36v5.344" transform="translate(-46.592 -7.5)" fill="none" stroke="#000" stroke-linecap="round" stroke-linejoin="round" stroke-miterlimit="10" stroke-width="1.7"/>
        <path id="Trazado_769143" data-name="Trazado 769143" d="M113.517,351.529a24.7,24.7,0,0,0,5.262,3.427" transform="translate(-105.726 -311.48)" fill="none" stroke="#000" stroke-linecap="round" stroke-linejoin="round" stroke-miterlimit="10" stroke-width="1.7"/>
      </g>
    </g>
  </g>
</svg>
