<svg xmlns="http://www.w3.org/2000/svg" width="83" height="83" viewBox="0 0 83 83">
  <g id="Grupo_1042194" data-name="Grupo 1042194" transform="translate(-552 -4883)">
    <circle id="Elipse_7955" data-name="Elipse 7955" cx="41.5" cy="41.5" r="41.5" transform="translate(552 4883)" fill="#fff"/>
    <g id="habilidades" transform="translate(564.22 4897)">
      <path id="Trazado_769112" data-name="Trazado 769112" d="M47.214,34.271,44.523,33.4l.457-3.361a9.622,9.622,0,0,1-1.58-1.149l-3.056,1.472-1.67-2.293,2.343-2.452a9.524,9.524,0,0,1-.6-1.858l-3.336-.606V20.314l3.336-.606a9.538,9.538,0,0,1,.6-1.858L38.674,15.4l1.67-2.293.98.472A18.807,18.807,0,0,0,29.747,9.211a19.066,19.066,0,0,0-19.574,19.06c0,.031,1.674,3.348,1.674,3.348L10.173,46.965h6.51v9.487H27.844v6.192H48.305v-30.4Z" transform="translate(-7.5 -8.226)" fill="#fdd8a8"/>
      <path id="Trazado_769113" data-name="Trazado 769113" d="M288.754,23.056V20.219l-3.336-.606a9.536,9.536,0,0,0-.6-1.858l2.343-2.452-1.67-2.293-3.056,1.472a9.629,9.629,0,0,0-1.58-1.149l.457-3.361L278.617,9.1l-1.607,2.988a9.731,9.731,0,0,0-1.955,0L273.449,9.1l-2.692.874.457,3.361a9.623,9.623,0,0,0-1.58,1.149l-3.056-1.472-1.67,2.293,2.343,2.452a9.514,9.514,0,0,0-.6,1.858l-3.336.606v2.837l3.336.606a9.532,9.532,0,0,0,.6,1.858l-2.343,2.452,1.67,2.293,3.056-1.472a9.625,9.625,0,0,0,1.58,1.149l-.457,3.361,2.692.874,1.607-2.988a9.73,9.73,0,0,0,1.955,0l1.607,2.988,2.692-.874-.457-3.361a9.622,9.622,0,0,0,1.58-1.149l3.056,1.472,1.67-2.293-2.343-2.452a9.516,9.516,0,0,0,.6-1.858Zm-12.721,3.915a5.333,5.333,0,1,1,5.333-5.333A5.333,5.333,0,0,1,276.033,26.971Z" transform="translate(-233.735 -8.132)" fill="#fdd844"/>
      <g id="Grupo_1042184" data-name="Grupo 1042184" transform="translate(9.183 46.092)">
        <rect id="Rectángulo_355226" data-name="Rectángulo 355226" width="18.502" height="2.133" fill="#ffc477"/>
        <rect id="Rectángulo_355227" data-name="Rectángulo 355227" width="20.462" height="1.333" transform="translate(11.161 6.992)" fill="#ffc477"/>
      </g>
      <path id="Trazado_769114" data-name="Trazado 769114" d="M65.539,63.57l-1.58-.252a8.3,8.3,0,0,1,.5-1.795l1.484.6A6.688,6.688,0,0,0,65.539,63.57Zm1.073-2.7L65.3,59.963a10.616,10.616,0,0,1,5.891-3.914l.347,1.562-.174-.781.175.781A9.128,9.128,0,0,0,66.612,60.874Z" transform="translate(-55.569 -50.092)" fill="#fff"/>
      <circle id="Elipse_7954" data-name="Elipse 7954" cx="1.6" cy="1.6" r="1.6" transform="translate(40.698 11.906)" fill="#fdd844"/>
      <path id="Trazado_769115" data-name="Trazado 769115" d="M154.081,55.613l-2.692-.874.457-3.361a9.623,9.623,0,0,1-1.58-1.149L147.21,51.7l-1.67-2.293,2.343-2.452a9.525,9.525,0,0,1-.6-1.858l-3.336-.606V41.656l3.336-.606a9.537,9.537,0,0,1,.6-1.858l-2.343-2.452,1.67-2.293.98.472a19.1,19.1,0,0,0-2.627-1.835l-2.8,3.841,2.261,2.366-3.216.584v6.4l3.216.584-2.261,2.366,3.389,4.654-1.075.514-.1-.041-.96-2.721H138.7l-.96,2.721-.1.041-2.6-1.244-3.768,3.767,1.244,2.6-.041.1-2.721.96V65.9l2.721.96.041.1-1.244,2.6,3.767,3.768,2.6-1.244.1.041.96,2.721h5.327l.96-2.721.1-.041,2.6,1.244,3.768-3.767-1.244-2.6.041-.1,2.721-.96V60.576l-2.721-.96-.041-.1,1.208-2.527,3.7,1.2.056-.1v-4.5Z" transform="translate(-114.367 -29.569)" fill="#ffc477"/>
      <path id="Trazado_769116" data-name="Trazado 769116" d="M168.777,238.268V235.96l-2.271-.8a7.424,7.424,0,0,0-.727-1.754l1.039-2.174-1.634-1.634-2.174,1.039a7.414,7.414,0,0,0-1.754-.727l-.8-2.271h-2.308l-.8,2.271a7.425,7.425,0,0,0-1.754.727l-2.174-1.039-1.634,1.634,1.039,2.174a7.414,7.414,0,0,0-.727,1.754l-2.271.8v2.308l2.271.8a7.425,7.425,0,0,0,.727,1.754L151.782,243l1.634,1.634,2.174-1.039a7.415,7.415,0,0,0,1.754.727l.8,2.271h2.308l.8-2.271a7.423,7.423,0,0,0,1.754-.727l2.174,1.039L166.818,243l-1.039-2.174a7.413,7.413,0,0,0,.727-1.754Zm-9.477,2.046a3.2,3.2,0,1,1,3.2-3.2A3.2,3.2,0,0,1,159.3,240.314Z" transform="translate(-132.308 -203.443)" fill="#d8d7da"/>
      <path id="Trazado_769117" data-name="Trazado 769117" d="M282.827,15.592V11.42l-3.481-.632c-.09-.334-.2-.664-.32-.987l2.446-2.559-2.456-3.373L275.826,5.4q-.4-.326-.838-.61l.477-3.509L271.5,0l-1.677,3.119q-.519-.026-1.038,0L267.11,0l-3.963,1.286.477,3.509q-.434.283-.838.61L259.6,3.868l-2.456,3.373L259.587,9.8a10.374,10.374,0,0,0-.321.987l-3.481.632v4.172l3.481.632c.09.334.2.664.321.987l-2.446,2.559,2.456,3.373,3.189-1.536q.4.325.838.61l-.477,3.509,3.963,1.286,1.677-3.119q.519.026,1.038,0l1.677,3.119,3.963-1.286-.477-3.509q.434-.283.838-.61l3.189,1.536,2.456-3.373-2.446-2.559a10.374,10.374,0,0,0,.321-.987Zm-3.437,4.317-.883,1.213-2.937-1.415-.4.357a8.839,8.839,0,0,1-1.449,1.053l-.463.269.439,3.229-1.421.461-1.544-2.871-.532.054a8.968,8.968,0,0,1-1.794,0l-.532-.054-1.544,2.871-1.421-.461.439-3.229-.463-.269a8.847,8.847,0,0,1-1.449-1.053l-.4-.357L260.1,21.123l-.883-1.213,2.251-2.356-.217-.489a8.762,8.762,0,0,1-.553-1.7l-.112-.524-3.206-.582v-1.5l3.206-.582.112-.524a8.743,8.743,0,0,1,.553-1.7l.217-.489L259.221,7.1l.883-1.213L263.042,7.3l.4-.357a8.845,8.845,0,0,1,1.449-1.053l.463-.269L264.913,2.4l1.421-.461L267.877,4.8l.532-.054a8.968,8.968,0,0,1,1.794,0l.532.054,1.544-2.871L273.7,2.4l-.439,3.229.463.269a8.838,8.838,0,0,1,1.449,1.053l.4.357,2.937-1.415.883,1.213L277.14,9.458l.217.489a8.759,8.759,0,0,1,.553,1.7l.112.524,3.206.582v1.5l-3.206.582-.112.524a8.739,8.739,0,0,1-.553,1.7l-.217.489Z" transform="translate(-227.007)"/>
      <path id="Trazado_769118" data-name="Trazado 769118" d="M331.429,69.367a6.133,6.133,0,1,0,6.133,6.133A6.14,6.14,0,0,0,331.429,69.367Zm0,10.666a4.533,4.533,0,1,1,4.533-4.533A4.538,4.538,0,0,1,331.429,80.033Z" transform="translate(-289.131 -61.994)"/>
      <path id="Trazado_769119" data-name="Trazado 769119" d="M362.821,104.492a2.4,2.4,0,1,0,2.4,2.4A2.4,2.4,0,0,0,362.821,104.492Zm0,3.2a.8.8,0,1,1,.8-.8A.8.8,0,0,1,362.821,107.692Z" transform="translate(-320.522 -93.386)"/>
      <path id="Trazado_769120" data-name="Trazado 769120" d="M159.947,226.656l1.108-2.318-2.434-2.434-2.318,1.108a8.239,8.239,0,0,0-1.157-.48l-.855-2.421h-3.44L150,222.532a8.226,8.226,0,0,0-1.157.48l-2.318-1.108-2.434,2.434,1.108,2.318a8.235,8.235,0,0,0-.48,1.157l-2.421.855v3.44l2.421.855a8.236,8.236,0,0,0,.48,1.157l-1.108,2.318,2.434,2.434,2.318-1.108a8.244,8.244,0,0,0,1.157.48l.855,2.421h3.44l.855-2.421a8.232,8.232,0,0,0,1.157-.48l2.318,1.108,2.434-2.434-1.108-2.318a8.24,8.24,0,0,0,.48-1.157l2.421-.855v-3.44l-2.421-.855A8.216,8.216,0,0,0,159.947,226.656Zm1.3,4.32-2.133.753-.11.406a6.623,6.623,0,0,1-.649,1.565l-.209.364.976,2.043-.833.833-2.043-.976-.364.209a6.628,6.628,0,0,1-1.565.649l-.406.11-.753,2.133h-1.176l-.753-2.133-.406-.11a6.63,6.63,0,0,1-1.565-.649l-.364-.209-2.043.976-.833-.833.976-2.043-.209-.364a6.622,6.622,0,0,1-.649-1.565l-.11-.406-2.133-.753V229.8l2.133-.753.11-.406a6.623,6.623,0,0,1,.649-1.565l.209-.364-.976-2.043.833-.833,2.043.976.364-.209a6.629,6.629,0,0,1,1.565-.649l.406-.11.753-2.133h1.176l.753,2.133.406.11a6.63,6.63,0,0,1,1.565.649l.364.209,2.043-.976.833.833-.976,2.043.209.364a6.622,6.622,0,0,1,.649,1.565l.11.406,2.133.753Z" transform="translate(-125.579 -196.717)"/>
      <path id="Trazado_769121" data-name="Trazado 769121" d="M205.354,279.168a4,4,0,1,0,4,4A4,4,0,0,0,205.354,279.168Zm0,6.4a2.4,2.4,0,1,1,2.4-2.4A2.4,2.4,0,0,1,205.354,285.568Z" transform="translate(-178.362 -249.497)"/>
      <rect id="Rectángulo_355228" data-name="Rectángulo 355228" width="1.6" height="1.6" transform="translate(26.245 32.818)"/>
      <path id="Trazado_769122" data-name="Trazado 769122" d="M477.841,242.9v1.6h1.6V229.993h-1.6Z" transform="translate(-425.463 -205.548)"/>
      <rect id="Rectángulo_355229" data-name="Rectángulo 355229" width="1.6" height="1.6" transform="translate(52.378 40.551)"/>
      <rect id="Rectángulo_355230" data-name="Rectángulo 355230" width="1.6" height="1.6" transform="translate(52.378 43.751)"/>
      <rect id="Rectángulo_355231" data-name="Rectángulo 355231" width="1.6" height="1.6" transform="translate(52.378 46.951)"/>
      <path id="Trazado_769123" data-name="Trazado 769123" d="M417.626,282.572v1.6h1.6v-15.04h-1.6Z" transform="translate(-371.647 -240.528)"/>
      <rect id="Rectángulo_355232" data-name="Rectángulo 355232" width="1.6" height="1.6" transform="translate(45.978 51.644)"/>
      <rect id="Rectángulo_355233" data-name="Rectángulo 355233" width="1.6" height="1.6" transform="translate(45.978 45.244)"/>
      <rect id="Rectángulo_355234" data-name="Rectángulo 355234" width="1.6" height="1.6" transform="translate(45.978 48.444)"/>
      <path id="Trazado_769124" data-name="Trazado 769124" d="M20.41,48.923H9.983V39.437H3.565l1.6-14.695-.107-.212c-.525-1.041-1.345-2.671-1.587-3.165A18.232,18.232,0,0,1,29.034,4.813L30,3.493A19.849,19.849,0,0,0,1.873,21.543c0,.209,0,.209.922,2.045.29.577.58,1.153.731,1.452l-1.745,16h6.6v9.487H19.544v5.392h1.6V50.523h6.564v-1.6h-7.3Z" transform="translate(0 -1.498)"/>
      <rect id="Rectángulo_355235" data-name="Rectángulo 355235" width="1.6" height="24.073" transform="translate(40.005 30.344)"/>
    </g>
  </g>
</svg>
