<svg xmlns="http://www.w3.org/2000/svg" xmlns:xlink="http://www.w3.org/1999/xlink" width="83" height="83" viewBox="0 0 83 83">
  <defs>
    <clipPath id="clip-path">
      <path id="path1260" d="M0-682.665H48.844v48.844H0Z" transform="translate(0 682.665)"/>
    </clipPath>
  </defs>
  <g id="Grupo_1042239" data-name="Grupo 1042239" transform="translate(-969 -10757)">
    <circle id="Elipse_7955" data-name="Elipse 7955" cx="41.5" cy="41.5" r="41.5" transform="translate(969 10757)" fill="#fff"/>
    <g id="g1254" transform="translate(986.078 11456.743)">
      <g id="g1256" transform="translate(0 -682.665)">
        <g id="g1258" transform="translate(0 0)" clip-path="url(#clip-path)">
          <g id="g1264" transform="translate(0.954 35.87)">
            <path id="path1266" d="M-74.276,0A5.724,5.724,0,0,0-80,5.724v6.3h21.942v-6.3h6.3V0Z" transform="translate(80)" fill="#c0dbff"/>
          </g>
          <path id="path1268" d="M200-648.726h33.58v-20.606H200Z" transform="translate(-185.69 670.286)" fill="#ea526f"/>
          <g id="g1270" transform="translate(29.192 28.238)">
            <path id="path1272" d="M-111.414-37.138v4.77a5.724,5.724,0,0,1-5.724,5.724H-120v-5.724h2.862v-4.77A2.862,2.862,0,0,1-114.276-40a2.862,2.862,0,0,1,2.862,2.862" transform="translate(120 40)" fill="#ffd0c7"/>
          </g>
          <g id="g1274" transform="translate(2.862 16.79)">
            <path id="path1276" d="M-259.966-61.9a2.862,2.862,0,0,1,2.862,2.862,2.862,2.862,0,0,1-2.862,2.862h-.5a8.6,8.6,0,0,1-5.221,5.235v3.35a2.862,2.862,0,0,1-2.862,2.862,2.862,2.862,0,0,1-2.862-2.862v-3.35a8.6,8.6,0,0,1-5.221-5.235h-.5A2.862,2.862,0,0,1-280-59.035a2.862,2.862,0,0,1,2.862-2.862V-63.8h5.724a2.862,2.862,0,0,0,2.862-2.862A2.862,2.862,0,0,0-265.69-63.8h5.724Z" transform="translate(279.999 66.666)" fill="#ffd0c7"/>
          </g>
          <g id="g1278" transform="translate(5.724 10.112)">
            <path id="path1280" d="M-222.828-111.414v.954h-5.724a2.862,2.862,0,0,1-2.862-2.862,2.862,2.862,0,0,1-2.862,2.862H-240v-.954A8.585,8.585,0,0,1-231.414-120a8.585,8.585,0,0,1,8.586,8.586" transform="translate(239.999 120)" fill="#ffda8f"/>
          </g>
          <g id="g1282" transform="translate(2.862 10.112)">
            <path id="path1284" d="M-259.966-148.552v-2.862A8.585,8.585,0,0,0-268.552-160a8.585,8.585,0,0,0-8.586,8.586v2.862A2.862,2.862,0,0,0-280-145.69a2.862,2.862,0,0,0,2.862,2.862h.5a8.6,8.6,0,0,0,5.221,5.235v3.35a2.862,2.862,0,0,0,2.862,2.862,2.862,2.862,0,0,0,2.862-2.862v-3.35a8.6,8.6,0,0,0,5.221-5.235h.5a2.862,2.862,0,0,0,2.862-2.862A2.862,2.862,0,0,0-259.966-148.552Z" transform="translate(279.999 160)" fill="none" stroke="#000" stroke-linecap="round" stroke-linejoin="round" stroke-miterlimit="10" stroke-width="1.7"/>
          </g>
          <g id="g1286" transform="translate(5.724 16.79)">
            <path id="path1288" d="M-222.828-37.138h-5.724A2.862,2.862,0,0,1-231.414-40a2.862,2.862,0,0,1-2.862,2.862H-240" transform="translate(239.999 40)" fill="none" stroke="#000" stroke-linecap="round" stroke-linejoin="round" stroke-miterlimit="10" stroke-width="1.7"/>
          </g>
          <g id="g1290" transform="translate(0.954 28.238)">
            <path id="path1292" d="M-136.173-99.035h-4.77a5.724,5.724,0,0,0-5.724,5.724v6.3h21.942v-6.3h9.158a5.724,5.724,0,0,0,5.724-5.724v-4.77a2.862,2.862,0,0,0-2.862-2.862,2.862,2.862,0,0,0-2.862,2.862v4.77h-14.882" transform="translate(146.666 106.666)" fill="none" stroke="#000" stroke-linecap="round" stroke-linejoin="round" stroke-miterlimit="10" stroke-width="1.7"/>
          </g>
          <g id="g1294" transform="translate(34.916 18.698)">
            <path id="path1296" d="M0,0V9.54" fill="none" stroke="#000" stroke-linecap="round" stroke-linejoin="round" stroke-miterlimit="10" stroke-width="1.7"/>
          </g>
          <g id="g1298" transform="translate(6.678 44.456)">
            <path id="path1300" d="M0-44.566V-48" transform="translate(0 48)" fill="none" stroke="#000" stroke-linecap="round" stroke-linejoin="round" stroke-miterlimit="10" stroke-width="1.7"/>
          </g>
          <g id="g1302" transform="translate(29.192 35.87)">
            <path id="path1304" d="M0-74.276V-80" transform="translate(0 80)" fill="none" stroke="#000" stroke-linecap="round" stroke-linejoin="round" stroke-miterlimit="10" stroke-width="1.7"/>
          </g>
          <g id="g1306" transform="translate(23.85 6.964)">
            <path id="path1308" d="M0,0H18.316" fill="none" stroke="#000" stroke-linecap="round" stroke-linejoin="round" stroke-miterlimit="10" stroke-width="1.7"/>
          </g>
          <g id="g1310" transform="translate(29.573 12.688)">
            <path id="path1312" d="M0,0H12.593" fill="none" stroke="#000" stroke-linecap="round" stroke-linejoin="round" stroke-miterlimit="10" stroke-width="1.7"/>
          </g>
          <g id="g1314" transform="translate(29.192 0)">
            <path id="path1316" d="M-24.759-12.379a.954.954,0,0,1-.954.954.954.954,0,0,1-.954-.954.954.954,0,0,1,.954-.954.954.954,0,0,1,.954.954" transform="translate(26.667 13.333)"/>
          </g>
          <g id="g1318" transform="translate(14.31 0.954)">
            <path id="path1320" d="M0-118.841V-128H11.543" transform="translate(0 128)" fill="none" stroke="#000" stroke-linecap="round" stroke-linejoin="round" stroke-miterlimit="10" stroke-width="1.7"/>
          </g>
          <g id="g1322" transform="translate(22.896 0.954)">
            <path id="path1324" d="M-149.79,0h13.451V20.606h-24.994" transform="translate(161.333)" fill="none" stroke="#000" stroke-linecap="round" stroke-linejoin="round" stroke-miterlimit="10" stroke-width="1.7"/>
          </g>
        </g>
      </g>
    </g>
  </g>
</svg>
