<svg xmlns="http://www.w3.org/2000/svg" width="100" height="100" viewBox="0 0 100 100">
  <g id="Grupo_1042391" data-name="Grupo 1042391" transform="translate(-815 -605)">
    <circle id="Elipse_7986" data-name="Elipse 7986" cx="50" cy="50" r="50" transform="translate(815 605)" fill="#ea526f"/>
    <g id="diagrama" transform="translate(835 623.15)">
      <g id="Grupo_1042380" data-name="Grupo 1042380" transform="translate(0 1.103)">
        <g id="Grupo_1042377" data-name="Grupo 1042377" transform="translate(12.045 22.788)">
          <path id="Trazado_769828" data-name="Trazado 769828" d="M109.007,202.184a6.246,6.246,0,1,0,6.224,6.246A6.242,6.242,0,0,0,109.007,202.184Z" transform="translate(-102.784 -202.184)" fill="#c3ddff"/>
          <path id="Trazado_769829" data-name="Trazado 769829" d="M142.649,202.184a6.18,6.18,0,0,0-1.758.255,6.25,6.25,0,0,1,0,11.981,6.242,6.242,0,1,0,1.758-12.236Z" transform="translate(-136.425 -202.184)" fill="#a4ccff"/>
          <path id="Trazado_769830" data-name="Trazado 769830" d="M309.223,202.184a6.246,6.246,0,1,0,6.224,6.246A6.242,6.242,0,0,0,309.223,202.184Z" transform="translate(-279.537 -202.184)" fill="#c3ddff"/>
          <path id="Trazado_769831" data-name="Trazado 769831" d="M342.865,202.184a6.179,6.179,0,0,0-1.758.255,6.25,6.25,0,0,1,0,11.981,6.242,6.242,0,1,0,1.758-12.236Z" transform="translate(-313.178 -202.184)" fill="#a4ccff"/>
        </g>
        <path id="Trazado_769832" data-name="Trazado 769832" d="M6.224,405.184a6.246,6.246,0,1,0,6.223,6.246A6.242,6.242,0,0,0,6.224,405.184Z" transform="translate(0 -358.607)" fill="#ff8086"/>
        <path id="Trazado_769833" data-name="Trazado 769833" d="M39.867,405.184a6.179,6.179,0,0,0-1.758.255,6.251,6.251,0,0,1,0,11.981,6.242,6.242,0,1,0,1.758-12.236Z" transform="translate(-33.643 -358.607)" fill="#e5646e"/>
        <path id="Trazado_769834" data-name="Trazado 769834" d="M209.116,405.184a6.246,6.246,0,1,0,6.224,6.246A6.242,6.242,0,0,0,209.116,405.184Z" transform="translate(-179.116 -358.607)" fill="#ff8086"/>
        <path id="Trazado_769835" data-name="Trazado 769835" d="M242.758,405.184a6.179,6.179,0,0,0-1.758.255,6.25,6.25,0,0,1,0,11.981,6.242,6.242,0,1,0,1.758-12.236Z" transform="translate(-212.758 -358.607)" fill="#e5646e"/>
        <path id="Trazado_769836" data-name="Trazado 769836" d="M412.009,405.184a6.246,6.246,0,1,0,6.223,6.246A6.242,6.242,0,0,0,412.009,405.184Z" transform="translate(-358.232 -358.607)" fill="#ff8086"/>
        <path id="Trazado_769837" data-name="Trazado 769837" d="M445.652,405.184a6.179,6.179,0,0,0-1.758.255,6.251,6.251,0,0,1,0,11.981,6.242,6.242,0,1,0,1.758-12.236Z" transform="translate(-391.875 -358.607)" fill="#e5646e"/>
        <g id="Grupo_1042379" data-name="Grupo 1042379" transform="translate(20.402)">
          <g id="Grupo_1042378" data-name="Grupo 1042378">
            <path id="Trazado_769838" data-name="Trazado 769838" d="M192.152,26.958H175.258a1.164,1.164,0,0,1-1.164-1.164V8.888a1.164,1.164,0,0,1,1.164-1.164h16.894a1.164,1.164,0,0,1,1.164,1.164V25.794A1.164,1.164,0,0,1,192.152,26.958Z" transform="translate(-174.094 -7.724)" fill="#ffd064"/>
          </g>
          <path id="Trazado_769839" data-name="Trazado 769839" d="M210.062,37.6a6.115,6.115,0,1,0,6.112,6.115A6.12,6.12,0,0,0,210.062,37.6Z" transform="translate(-200.451 -34.102)" fill="#fff"/>
          <path id="Trazado_769840" data-name="Trazado 769840" d="M242.863,37.6a6.088,6.088,0,0,0-1.758.259,6.115,6.115,0,0,1,0,11.713A6.114,6.114,0,1,0,242.863,37.6Z" transform="translate(-233.252 -34.102)" fill="#f0eef0"/>
        </g>
      </g>
      <g id="Grupo_1042381" data-name="Grupo 1042381" transform="translate(0 0.224)">
        <path id="Trazado_769841" data-name="Trazado 769841" d="M216.174,43.719a6.112,6.112,0,1,0-6.112,6.115A6.121,6.121,0,0,0,216.174,43.719Zm-10.466,0a4.354,4.354,0,1,1,4.354,4.357A4.361,4.361,0,0,1,205.708,43.719Z" transform="translate(-180.05 -33.224)"/>
        <path id="Trazado_769842" data-name="Trazado 769842" d="M54.668,47.745V32.507a3.253,3.253,0,0,0-3.249-3.249H47.892A6.219,6.219,0,0,0,35.613,29H30.891V21.215h8.732a.879.879,0,0,0,.879-.879V1.1a.879.879,0,0,0-.879-.879H20.4a.879.879,0,0,0-.879.879V5.269a.879.879,0,0,0,1.758,0V1.982H38.744V19.458H21.281V9.488a.879.879,0,0,0-1.758,0V20.337a.879.879,0,0,0,.879.879h8.732V29H24.387a6.225,6.225,0,1,0-7,7.319v4.235H8.438a3.073,3.073,0,0,0-3.1,3.036v4.155a6.225,6.225,0,1,0,1.758,0V43.589a1.314,1.314,0,0,1,1.344-1.278H27.777a1.314,1.314,0,0,1,1.344,1.278v4.154a6.224,6.224,0,1,0,1.758,0V43.589a3.073,3.073,0,0,0-3.1-3.036h-8.63V36.319a6.247,6.247,0,0,0,5.314-5.561H35.539a6.22,6.22,0,0,0,12.354.258h3.527a1.493,1.493,0,0,1,1.491,1.491V47.742a6.222,6.222,0,1,0,1.758,0Zm-43.979,6.18a4.466,4.466,0,1,1-4.466-4.488A4.482,4.482,0,0,1,10.689,53.926Zm23.776,0A4.466,4.466,0,1,1,30,49.438,4.482,4.482,0,0,1,34.466,53.926Zm-16.2-19.3a4.488,4.488,0,1,1,4.466-4.488A4.482,4.482,0,0,1,18.268,34.625Zm23.463,0A4.488,4.488,0,1,1,46.2,30.137,4.482,4.482,0,0,1,41.731,34.625ZM53.777,58.414a4.488,4.488,0,1,1,4.466-4.488A4.482,4.482,0,0,1,53.777,58.414Z" transform="translate(0 -0.224)"/>
      </g>
    </g>
  </g>
</svg>
