<svg xmlns="http://www.w3.org/2000/svg" width="100" height="100" viewBox="0 0 100 100">
  <g id="Grupo_1023775" data-name="Grupo 1023775" transform="translate(-841 -1541)">
    <circle id="Elipse_6016" data-name="Elipse 6016" cx="50" cy="50" r="50" transform="translate(841 1541)" fill="#fff"/>
    <g id="promocion-de-empleo" transform="translate(854.328 1558.002)">
      <g id="Grupo_1023747" data-name="Grupo 1023747" transform="translate(23.426 34.193)">
        <path id="Trazado_732611" data-name="Trazado 732611" d="M149.853,269.953l8.266,8.654,8.27-8.654c-.164-.123-.13-.343-.13-.928V264.7l-16.275.034v4.3C149.983,269.611,150.013,269.83,149.853,269.953Z" transform="translate(-149.853 -264.697)" fill="#fed1a3" fill-rule="evenodd"/>
      </g>
      <g id="Grupo_1023748" data-name="Grupo 1023748" transform="translate(23.557 34.193)">
        <path id="Trazado_732612" data-name="Trazado 732612" d="M164.348,271.674l2.92-1.721c-.164-.123-.13-.343-.13-.928V264.7a15.916,15.916,0,0,1-4.664,2.779,9.032,9.032,0,0,1-6.992,0,15.847,15.847,0,0,1-4.619-2.746v3.42c3.785,2.053,8.348,4.016,12.606,1.151,1.077-.726.879-.048.879,1.457v.917Z" transform="translate(-150.863 -264.697)" fill="#ffbc85" fill-rule="evenodd"/>
      </g>
      <g id="Grupo_1023749" data-name="Grupo 1023749" transform="translate(13.83 18.014)">
        <path id="Trazado_732613" data-name="Trazado 732613" d="M75.569,140.943v1.471a4.256,4.256,0,0,0,3.971,3.774l3-3.368-3.088-3.368h-2.4A1.494,1.494,0,0,0,75.569,140.943Z" transform="translate(-75.569 -139.453)" fill="#ffbc85" fill-rule="evenodd"/>
      </g>
      <g id="Grupo_1023750" data-name="Grupo 1023750" transform="translate(17.715 11.32)">
        <path id="Trazado_732614" data-name="Trazado 732614" d="M116.106,113.283a9.032,9.032,0,0,0,6.992,0c5.3-1.967,9.715-7.454,10.378-12.223a8.925,8.925,0,0,0,.086-1.207V94.325H131c-5.435,0-6.567-6.694-13.213-6.694h-4.414c-5.085,0-1.214,7.715-7.067,7.715h-.656v4.508a8.376,8.376,0,0,0,.086,1.207C106.395,105.829,110.805,111.316,116.106,113.283Z" transform="translate(-105.646 -87.631)" fill="#ffe5c1" fill-rule="evenodd"/>
      </g>
      <g id="Grupo_1023751" data-name="Grupo 1023751" transform="translate(17.707 0.967)">
        <path id="Trazado_732615" data-name="Trazado 732615" d="M106.247,26.813c5.852,0,1.982-7.715,7.067-7.715h4.414c6.646,0,7.778,6.694,13.213,6.694h2.567V19.162c0-10.245-16.5-15.352-21.669-8.646-6.743.6-6.247,9.57-6.247,10.755v5.543Z" transform="translate(-105.583 -7.486)" fill="#6d80aa" fill-rule="evenodd"/>
      </g>
      <g id="Grupo_1023752" data-name="Grupo 1023752" transform="translate(42.659 18.014)">
        <path id="Trazado_732616" data-name="Trazado 732616" d="M298.74,142.823c0,.395,2.943,2.958,2.887,3.368a4.259,4.259,0,0,0,3.971-3.774v-1.471a1.5,1.5,0,0,0-1.49-1.49h-2.4Z" transform="translate(-298.74 -139.455)" fill="#ffbc85" fill-rule="evenodd"/>
      </g>
      <g id="Grupo_1023753" data-name="Grupo 1023753" transform="translate(30.049 0.967)">
        <path id="Trazado_732617" data-name="Trazado 732617" d="M212.2,18.846v6.631a5.945,5.945,0,0,0,1.945.317h2.567V19.162c0-7.488-8.821-12.234-15.582-11.623C206.743,8.765,212.2,12.956,212.2,18.846Z" transform="translate(-201.126 -7.487)" fill="#49679b" fill-rule="evenodd"/>
      </g>
      <g id="Grupo_1023754" data-name="Grupo 1023754" transform="translate(28.809 18.957)">
        <path id="Trazado_732618" data-name="Trazado 732618" d="M203.749,152.223c-.663,4.768-5.077,10.259-10.378,12.226a12.613,12.613,0,0,1-1.848.536,9.374,9.374,0,0,0,2.865.484,9.891,9.891,0,0,0,3.494-.7,15.917,15.917,0,0,0,4.664-2.779c3.051-2.578,5.26-6.18,5.714-9.444a8.925,8.925,0,0,0,.086-1.207v-4.269h-2.567a5.944,5.944,0,0,1-1.945-.317v4.269a8.827,8.827,0,0,1-.086,1.2Z" transform="translate(-191.523 -146.751)" fill="#fed1a3" fill-rule="evenodd"/>
      </g>
      <g id="Grupo_1023755" data-name="Grupo 1023755" transform="translate(32.758 40.138)">
        <path id="Trazado_732619" data-name="Trazado 732619" d="M222.091,321.97l2.619,7.242a.858.858,0,0,1-.067.849l-2.4,4.072h23.565c1.047,0,1.375-.253,1.237-1.211l-1.766-12.141c-1-6.9-7.666-8.717-13.291-10.058-3.859.771-7.067,4.3-7.558,6.936Z" transform="translate(-222.091 -310.723)" fill="#f8f2f0" fill-rule="evenodd"/>
      </g>
      <g id="Grupo_1023756" data-name="Grupo 1023756" transform="translate(5.641 40.138)">
        <path id="Trazado_732620" data-name="Trazado 732620" d="M13.972,320.781l-1.766,12.141c-.142.957.19,1.211,1.237,1.211H37l-2.392-4.072a.849.849,0,0,1-.067-.849l2.619-7.242-2.343-4.31-7.558-6.936c-5.629,1.341-12.289,3.163-13.291,10.058Z" transform="translate(-12.175 -310.723)" fill="#f8f2f0" fill-rule="evenodd"/>
      </g>
      <g id="Grupo_1023757" data-name="Grupo 1023757" transform="translate(26.67 50.353)">
        <path id="Trazado_732621" data-name="Trazado 732621" d="M175.049,398.071a.849.849,0,0,0,.067.849l2.392,4.072h4.962l2.4-4.072a.858.858,0,0,0,.067-.849l-2.619-7.242-2.176-1.032-2.47,1.032Z" transform="translate(-174.967 -389.797)" fill="#8ac9fe" fill-rule="evenodd"/>
      </g>
      <g id="Grupo_1023758" data-name="Grupo 1023758" transform="translate(41.504 40.138)">
        <path id="Trazado_732622" data-name="Trazado 732622" d="M289.8,313.457c4.839,1.356,9.633,3.576,10.471,9.343l1.65,11.332h2.853c1.047,0,1.375-.253,1.237-1.211l-1.766-12.141c-1-6.9-7.666-8.717-13.291-10.058Z" transform="translate(-289.8 -310.723)" fill="#eee1dc" fill-rule="evenodd"/>
      </g>
      <g id="Grupo_1023759" data-name="Grupo 1023759" transform="translate(27.028 44.326)">
        <path id="Trazado_732623" data-name="Trazado 732623" d="M177.739,345.886l2.343,4.31h4.645l2.343-4.31-1.147-2.373-3.52-.376-3.71.559Z" transform="translate(-177.739 -343.137)" fill="#22a6fe" fill-rule="evenodd"/>
      </g>
      <g id="Grupo_1023760" data-name="Grupo 1023760" transform="translate(31.267 51.385)">
        <path id="Trazado_732624" data-name="Trazado 732624" d="M213.163,405.031a.865.865,0,0,1-.067.853l-2.358,4.064h2.723l2.4-4.072a.858.858,0,0,0,.067-.849l-2.619-7.242h-2.749Z" transform="translate(-210.555 -397.785)" fill="#22a6fe" fill-rule="evenodd"/>
      </g>
      <g id="Grupo_1023761" data-name="Grupo 1023761" transform="translate(29.617 44.326)">
        <path id="Trazado_732625" data-name="Trazado 732625" d="M201.376,347.168l-1.52,3.029h2.324l2.343-4.31-1.091-.641-1.267-.749-2.31-1.36-2.075,1.222,3.505,2.1C201.689,346.7,201.588,346.773,201.376,347.168Z" transform="translate(-197.781 -343.137)" fill="#0182fc" fill-rule="evenodd"/>
      </g>
      <g id="Grupo_1023762" data-name="Grupo 1023762" transform="translate(20.729 39.449)">
        <path id="Trazado_732626" data-name="Trazado 732626" d="M128.975,306.077l2.809,6.65c.536,1.27,1.419,1.39,2.582.823l.909-.536,4.664-2.749-8.266-4.876a3.645,3.645,0,0,1-.935.268C130.167,305.794,129.579,305.932,128.975,306.077Z" transform="translate(-128.975 -305.388)" fill="#eee1dc" fill-rule="evenodd"/>
      </g>
      <g id="Grupo_1023763" data-name="Grupo 1023763" transform="translate(31.692 39.449)">
        <path id="Trazado_732627" data-name="Trazado 732627" d="M213.843,310.264l4.668,2.749.905.536c1.166.566,2.049.447,2.585-.823l2.809-6.65c-.6-.145-1.2-.283-1.766-.421a3.553,3.553,0,0,1-.931-.268Z" transform="translate(-213.843 -305.388)" fill="#eee1dc" fill-rule="evenodd"/>
      </g>
      <g id="Grupo_1023764" data-name="Grupo 1023764" transform="translate(36.323 39.449)">
        <path id="Trazado_732628" data-name="Trazado 732628" d="M250.289,307.675c1.442.35,3.014.7,4.582,1.136l1.155-2.734c-.6-.145-1.2-.283-1.766-.421a3.551,3.551,0,0,1-.931-.268l-3.639,2.146C249.838,307.571,250.032,307.612,250.289,307.675Z" transform="translate(-249.689 -305.388)" fill="#cdbeb9" fill-rule="evenodd"/>
      </g>
      <g id="Grupo_1023765" data-name="Grupo 1023765" transform="translate(51.699 44.325)">
        <path id="Trazado_732629" data-name="Trazado 732629" d="M376.971,343.283,368.865,355.6c-.25.376-.171.44.238.44H372.3a.548.548,0,0,1,.548.548v6.84a.552.552,0,0,0,.551.548h7.592a.548.548,0,0,0,.548-.548v-6.84a.548.548,0,0,1,.548-.548h3.193c.414,0,.488-.063.242-.44l-8.11-12.316C377.272,343.078,377.1,343.078,376.971,343.283Z" transform="translate(-368.722 -343.13)" fill="#80d261" fill-rule="evenodd"/>
      </g>
      <g id="Grupo_1023766" data-name="Grupo 1023766" transform="translate(59.612 44.325)">
        <path id="Trazado_732630" data-name="Trazado 732630" d="M438.859,355.6l-8.11-12.316c-.134-.2-.3-.2-.436,0l-.335.514a29.5,29.5,0,0,1,2.153,11.954,36.092,36.092,0,0,1-.89,8.222h3.088a.548.548,0,0,0,.548-.548v-6.84a.548.548,0,0,1,.548-.548h3.193C439.03,356.039,439.1,355.976,438.859,355.6Z" transform="translate(-429.978 -343.13)" fill="#4fc122" fill-rule="evenodd"/>
      </g>
      <g id="Grupo_1023767" data-name="Grupo 1023767" transform="translate(52.866 25.086)">
        <path id="Trazado_732631" data-name="Trazado 732631" d="M385.631,194.467l2.537,3.636,4.239,1.289c.421.13.488.332.223.685l-2.675,3.535.086,4.433c.008.44-.168.566-.585.421l-4.187-1.449-4.187,1.449c-.417.145-.592.019-.585-.421l.086-4.433-2.675-3.535c-.264-.354-.2-.555.223-.685l4.243-1.289,2.533-3.636C385.162,194.105,385.378,194.105,385.631,194.467Z" transform="translate(-377.752 -194.195)" fill="#fdb440" fill-rule="evenodd"/>
      </g>
      <g id="Grupo_1023768" data-name="Grupo 1023768" transform="translate(59.91 25.93)">
        <path id="Trazado_732632" data-name="Trazado 732632" d="M439.9,205.086l-4.239-1.289-2.138-3.062a16.392,16.392,0,0,1,.652,4.627,15.015,15.015,0,0,1-1.885,7.514l.473-.164,4.187,1.449c.417.145.592.019.585-.421l-.086-4.433,2.675-3.535C440.383,205.418,440.316,205.216,439.9,205.086Z" transform="translate(-432.285 -200.735)" fill="#fe9900" fill-rule="evenodd"/>
      </g>
      <g id="Grupo_1023769" data-name="Grupo 1023769" transform="translate(4.672 -0.001)">
        <path id="Trazado_732633" data-name="Trazado 732633" d="M193.574,238a3.4,3.4,0,0,0,2.39.974h0a3.413,3.413,0,0,0,2.4-.973.99.99,0,0,0,.155-1.258.97.97,0,0,0-1.491-.146,1.489,1.489,0,0,1-1.06.44h-.015a1.525,1.525,0,0,1-1.054-.452.969.969,0,0,0-1.459.13.991.991,0,0,0,.135,1.285Z" transform="translate(-168.899 -205.79)"/>
        <path id="Trazado_732634" data-name="Trazado 732634" d="M153.292,157.987a3.684,3.684,0,0,1,2.913.116.968.968,0,0,0,1.29-.667.992.992,0,0,0-.625-1.153,5.688,5.688,0,0,0-4.341-.078.969.969,0,0,0-.474,1.384A1,1,0,0,0,153.292,157.987Z" transform="translate(-132.903 -135.68)"/>
        <path id="Trazado_732635" data-name="Trazado 732635" d="M168.664,183.177a.993.993,0,0,0-.848,1v.66a.993.993,0,0,0,.848,1,.969.969,0,0,0,1.09-.961v-.734A.969.969,0,0,0,168.664,183.177Z" transform="translate(-146.741 -159.508)"/>
        <path id="Trazado_732636" data-name="Trazado 732636" d="M229,158.132a.966.966,0,0,0,.35-.066,3.682,3.682,0,0,1,2.948-.1.97.97,0,0,0,1.318-.728.987.987,0,0,0-.622-1.08,5.616,5.616,0,0,0-4.309.09.992.992,0,0,0-.625,1.153A.969.969,0,0,0,229,158.132Z" transform="translate(-199.177 -135.642)"/>
        <path id="Trazado_732637" data-name="Trazado 732637" d="M241.334,183.177a.993.993,0,0,0-.848,1v.66a.993.993,0,0,0,.848,1,.969.969,0,0,0,1.09-.961v-.734A.969.969,0,0,0,241.334,183.177Z" transform="translate(-210.024 -159.508)"/>
        <path id="Trazado_732638" data-name="Trazado 732638" d="M69.3,56.261,66.557,52.1a.986.986,0,0,0-1.166-.4.97.97,0,0,0-.468,1.441l2.06,3.125H65.059a1.516,1.516,0,0,0-1.516,1.516V64.2H56.789V57.781a1.516,1.516,0,0,0-1.516-1.516H53.35L60.166,45.91l2.4,3.649a.994.994,0,0,0,1.257.368.969.969,0,0,0,.382-1.4l-3.012-4.576a1.189,1.189,0,0,0-2.056,0l-2.7,4.106a10.7,10.7,0,0,0-5.216-5.982,34.571,34.571,0,0,0-8.993-3.03c-.376-.089-.745-.176-1.106-.263-.12-.029-.227-.054-.322-.076,0-.056,0-.115,0-.179V34.63a17.415,17.415,0,0,0,5.575-9,5.392,5.392,0,0,0,2.631-1.459,4.629,4.629,0,0,0,1.48-3.2V19.5a2.459,2.459,0,0,0-2.459-2.459H46.6v-4.4a10.82,10.82,0,0,0-3.014-7.381A16.666,16.666,0,0,0,36.758.944,16.468,16.468,0,0,0,29.251.138a9.2,9.2,0,0,0-5.79,2.941c-2.749.391-6.858,2.474-6.717,11.454,0,.09,0,2.513,0,2.513h-1.43A2.46,2.46,0,0,0,12.861,19.5v1.471a4.63,4.63,0,0,0,1.479,3.2,5.389,5.389,0,0,0,2.631,1.458,17.432,17.432,0,0,0,5.616,9.036v3.854c0,.063,0,.122,0,.178-.1.022-.2.047-.326.076q-.6.144-1.2.286a36.1,36.1,0,0,0-8.4,2.737.991.991,0,0,0-.507,1.173.969.969,0,0,0,1.371.562,29.408,29.408,0,0,1,6.631-2.262l2.489,5.892a2.7,2.7,0,0,0,1.5,1.6,2.284,2.284,0,0,0,.81.145,3.66,3.66,0,0,0,1.589-.423q.035-.017.068-.036l.045-.027,1.656,3.046L25.842,58.3a1.789,1.789,0,0,0,.142,1.671l1.534,2.612H18.747V54.2a.993.993,0,0,0-.848-1,.969.969,0,0,0-1.09.961v8.411h-9.9c-.124,0-.219,0-.29-.01,0-.027.007-.058.012-.092L8.4,50.336a8.286,8.286,0,0,1,1.957-4.392,1,1,0,0,0,.033-1.308.969.969,0,0,0-1.459,0,10.3,10.3,0,0,0-2.448,5.425L4.714,62.2a2.053,2.053,0,0,0,.356,1.7,2.293,2.293,0,0,0,1.839.626H54.851v.1a1.52,1.52,0,0,0,1.52,1.516h7.592a1.516,1.516,0,0,0,1.516-1.516V58.2h2.771a1.29,1.29,0,0,0,1.223-.591,1.306,1.306,0,0,0-.172-1.35ZM46.6,19.273v-.29h1.426a.523.523,0,0,1,.521.521v1.471a2.743,2.743,0,0,1-.9,1.819,3.78,3.78,0,0,1-1.044.734V19.273Zm-29.854,0v4.255A3.769,3.769,0,0,1,15.7,22.8a2.744,2.744,0,0,1-.9-1.82V19.5a.526.526,0,0,1,.517-.521h1.43ZM41.321,40.816l-2.363,5.6a.976.976,0,0,1-.395.535c-.075.028-.3.065-.841-.19l-.814-.48a.983.983,0,0,0-.086-.052l-.018-.008-3.2-1.89,6.466-3.813c.085.024.173.047.27.069s.2.047.33.077l.655.157Zm-16.8-2.294V36.165a15.93,15.93,0,0,0,3.314,1.715,10.836,10.836,0,0,0,3.835.765A10.8,10.8,0,0,0,35.5,37.88a15.964,15.964,0,0,0,3.358-1.745v2.386c0,.086,0,.163,0,.233s0,.148,0,.217L31.693,43.2l-7.169-4.228c0-.071,0-.146,0-.224s0-.144,0-.226Zm10.535,8.915-1.62,2.98H29.948l-1.621-2.982,3.366-1.985ZM24.048,4.961a.965.965,0,0,0,.682-.373c1.459-1.894,3.9-2.651,6.477-2.651a15.558,15.558,0,0,1,4.926.841c3.935,1.34,8.53,4.728,8.53,9.864V18.3h-1.6c-2.2,0-3.6-1.313-5.221-2.833-1.931-1.81-4.12-3.861-7.992-3.861H25.437c-3.243,0-3.769,2.559-4.153,4.428-.421,2.05-.741,3.169-2.6,3.278v-.043s0-4.669,0-4.771c-.065-4.13.814-9.138,5.366-9.541ZM18.684,23.542V21.255c3.537-.15,4.091-2.844,4.5-4.827.438-2.134.728-2.88,2.255-2.88h4.414c3.107,0,4.836,1.621,6.667,3.337,1.761,1.65,3.582,3.357,6.546,3.357h1.6v3.3c0,4.728-4.594,10.579-9.833,12.521a8.938,8.938,0,0,1-3.157.643,8.979,8.979,0,0,1-3.161-.644c-5.236-1.942-9.828-7.793-9.828-12.521Zm6.978,23.214c-.534.254-.763.218-.837.19a.976.976,0,0,1-.395-.535l-2.364-5.6.653-.156c.125-.03.234-.055.33-.077s.186-.046.271-.07l6.465,3.813ZM35.733,58.985l-2.114,3.594H29.766l-2.112-3.6.01-.028,2.388-6.6h3.285l2.388,6.6.009.026Zm19.118,3.594H46.53V54.2a.993.993,0,0,0-.848-1,.969.969,0,0,0-1.09.961v8.411H35.867l1.538-2.615a1.8,1.8,0,0,0,.141-1.667l-2.471-6.832,1.655-3.044.042.025c.022.013.045.026.069.037a2.979,2.979,0,0,0,2.4.277,2.7,2.7,0,0,0,1.5-1.595l2.489-5.893c5.325,1.3,10.848,3.082,11.748,8.992l-3.946,6a1.3,1.3,0,0,0-.177,1.349,1.286,1.286,0,0,0,1.223.595h2.771Z" transform="translate(-4.672 0.001)"/>
        <path id="Trazado_732639" data-name="Trazado 732639" d="M373.065,197.4l-.079,4.1a1.39,1.39,0,0,0,.534,1.231,1.237,1.237,0,0,0,.739.232,1.818,1.818,0,0,0,.6-.109l3.87-1.339,3.869,1.339a1.316,1.316,0,0,0,1.872-1.355l-.079-4.1,2.476-3.272a1.316,1.316,0,0,0-.718-2.192l-3.918-1.191-2.345-3.361v0a1.317,1.317,0,0,0-2.311,0l-2.341,3.36-3.927,1.193a1.316,1.316,0,0,0-.709,2.2Zm3.049-4.9a.969.969,0,0,0,.513-.373l2.1-3.014,2.1,3.014a.97.97,0,0,0,.513.373l3.514,1.068-2.217,2.93a.968.968,0,0,0-.2.6l.071,3.672-3.472-1.2a.97.97,0,0,0-.634,0l-3.472,1.2.071-3.672a.969.969,0,0,0-.2-.6l-2.216-2.93Z" transform="translate(-323.014 -162.577)"/>
      </g>
    </g>
  </g>
</svg>
