<svg xmlns="http://www.w3.org/2000/svg" width="100" height="100" viewBox="0 0 100 100">
  <g id="Grupo_1042389" data-name="Grupo 1042389" transform="translate(-660 -1000)">
    <circle id="Elipse_7987" data-name="Elipse 7987" cx="50" cy="50" r="50" transform="translate(660 1000)" fill="#ea526f"/>
    <g id="atencion" transform="translate(677.643 1016.34)">
      <g id="Grupo_1042386" data-name="Grupo 1042386" transform="translate(0.951 2.039)">
        <circle id="Elipse_7983" data-name="Elipse 7983" cx="28.649" cy="28.649" r="28.649" transform="translate(3.08 3.511)" fill="#b3e5ee"/>
        <path id="Trazado_769843" data-name="Trazado 769843" d="M41.345,64.355A28.66,28.66,0,0,1,63.517,36.442a28.973,28.973,0,0,0-3.084-.166A28.649,28.649,0,1,0,66.91,92.839,28.652,28.652,0,0,1,41.345,64.355Z" transform="translate(-28.704 -32.765)" fill="#86d7e5"/>
        <circle id="Elipse_7984" data-name="Elipse 7984" cx="23.956" cy="23.956" r="23.956" transform="translate(7.773 8.086)" fill="#f9f7f7"/>
        <path id="Trazado_769844" data-name="Trazado 769844" d="M83.593,86.636a23.963,23.963,0,0,0,2.128,45.052,28.648,28.648,0,0,1-2.128-45.052Z" transform="translate(-61.016 -76.738)" fill="#f8f3f2"/>
        <g id="XMLID_206_" transform="translate(2.045 31.139)">
          <g id="Grupo_1042382" data-name="Grupo 1042382">
            <path id="Trazado_769845" data-name="Trazado 769845" d="M57.538,270.651v.011a2.582,2.582,0,0,1,0,5.163H56.523a2.582,2.582,0,0,1,0,5.164H55.508a2.582,2.582,0,0,1,0,5.163H38.7a9.3,9.3,0,0,1-5.484-1.79L31.9,283.4l-8.283.167V266.8h9.368a2.5,2.5,0,0,0,1.541-.53l3.594-2.8a2.505,2.505,0,0,0,.965-1.976v-4.22a3.163,3.163,0,0,1,6.326,0v6.358a1.853,1.853,0,0,0,1.854,1.854H69.811a2.582,2.582,0,0,1,0,5.164Z" transform="translate(-23.621 -254.111)" fill="#ffe0d1"/>
          </g>
        </g>
        <g id="XMLID_189_" transform="translate(12.641 0)">
          <g id="Grupo_1042383" data-name="Grupo 1042383">
            <path id="Trazado_769846" data-name="Trazado 769846" d="M124.056,13.754a2.582,2.582,0,0,1,0-5.163h16.806a9.3,9.3,0,0,1,5.484,1.79l1.314.959H155.7v16.8l-9.128-.2a2.5,2.5,0,0,0-1.541.53l-3.594,2.8a2.505,2.505,0,0,0-.965,1.976v4.22a3.163,3.163,0,0,1-6.326,0V31.112a1.853,1.853,0,0,0-1.854-1.854H109.753a2.582,2.582,0,0,1,0-5.164h12.273v-.011a2.582,2.582,0,0,1,0-5.163h1.015a2.582,2.582,0,0,1,0-5.164Z" transform="translate(-107.171 -8.591)" fill="#ffe0d1"/>
          </g>
        </g>
        <g id="Grupo_1042384" data-name="Grupo 1042384" transform="translate(12.641 17.39)">
          <path id="Trazado_769847" data-name="Trazado 769847" d="M137.577,159.969a3.363,3.363,0,0,1-1-2.4v-8.84a1.994,1.994,0,0,0-2-1.986H109.453a2.8,2.8,0,0,1-2.187-1.042,2.552,2.552,0,0,0-.095.695,2.583,2.583,0,0,0,2.582,2.582h22.541a1.853,1.853,0,0,1,1.854,1.854v6.358a3.165,3.165,0,0,0,3.8,3.1A3.426,3.426,0,0,1,137.577,159.969Z" transform="translate(-107.171 -145.704)" fill="#ffd1c2"/>
        </g>
        <g id="Grupo_1042385" data-name="Grupo 1042385" transform="translate(0 1.058)">
          <path id="Trazado_769848" data-name="Trazado 769848" d="M464.006,36.918h-4.04a1.691,1.691,0,0,1-1.691-1.69v-16.6a1.691,1.691,0,0,1,1.691-1.691h4.04a.556.556,0,0,1,.556.556v18.87A.556.556,0,0,1,464.006,36.918Z" transform="translate(-401.104 -16.936)" fill="#e79098"/>
          <path id="Trazado_769849" data-name="Trazado 769849" d="M57.916,370.018a2.578,2.578,0,0,1-1.942.875H39.168a9.3,9.3,0,0,1-5.484-1.79l-.677-.494a2.338,2.338,0,0,0-1.425-.449A1.158,1.158,0,0,1,30.4,367V354.181H23.621V368.5H26.65v2.386l5.255-.106,1.314.959a9.3,9.3,0,0,0,5.484,1.79H55.446a2.626,2.626,0,0,0,2.609-2.159A2.547,2.547,0,0,0,57.916,370.018Z" transform="translate(-21.576 -311.409)" fill="#ffd1c2"/>
          <path id="Trazado_769850" data-name="Trazado 769850" d="M8.1,360.834h4a1.691,1.691,0,0,0,1.691-1.69v-16.6a1.691,1.691,0,0,0-1.691-1.691h-4a.6.6,0,0,0-.6.6v18.786a.6.6,0,0,0,.6.6Z" transform="translate(-7.5 -299.77)" fill="#e79098"/>
        </g>
      </g>
      <g id="Grupo_1042387" data-name="Grupo 1042387" transform="translate(0 1.087)">
        <path id="Trazado_769851" data-name="Trazado 769851" d="M151.441,22.128h-4.6a.74.74,0,0,1-.739-.739V4.788a.74.74,0,0,1,.739-.739h4.6a.951.951,0,1,0,0-1.9h-4.6a2.644,2.644,0,0,0-2.462,1.691h-2.96L140.36,3.06a10.182,10.182,0,0,0-6.045-1.973H117.509a3.531,3.531,0,0,0-2.819,5.661,3.528,3.528,0,0,0-1.015,5.164,3.528,3.528,0,0,0-1.323,4.678h-9.147a3.533,3.533,0,0,0,0,7.066h12.957a.951.951,0,1,0,0-1.9H103.206a1.631,1.631,0,0,1,0-3.262h14.781a.951.951,0,0,0,.951-.951s0,0,0-.006,0,0,0-.006a.951.951,0,0,0-.951-.951H115.48a1.631,1.631,0,0,1,0-3.262h2.651a.951.951,0,0,0,0-1.9h-1.637a1.631,1.631,0,0,1,0-3.262h1.681a.951.951,0,1,0,0-1.9h-.667a1.631,1.631,0,0,1,0-3.262h16.806A8.292,8.292,0,0,1,139.237,4.6l1.314.96a.951.951,0,0,0,.561.183h3.09v14.7h-4.174a3.474,3.474,0,0,0-2.126.731l-3.594,2.8a3.436,3.436,0,0,0-1.331,2.727v4.22a2.212,2.212,0,1,1-4.423,0V24.559a2.809,2.809,0,0,0-2.805-2.805h-5.522a.951.951,0,1,0,0,1.9h5.522a.9.9,0,0,1,.9.9v6.359a4.114,4.114,0,1,0,8.228,0V26.7a1.546,1.546,0,0,1,.6-1.226l3.594-2.8a1.563,1.563,0,0,1,.956-.329h4.354a2.644,2.644,0,0,0,2.462,1.69h4.6a.951.951,0,0,0,0-1.9Z" transform="translate(-87.032 -1.087)"/>
        <path id="Trazado_769852" data-name="Trazado 769852" d="M39.43,271.856a3.515,3.515,0,0,0-.715-2.128,3.528,3.528,0,0,0,1.323-4.678h9.147a3.533,3.533,0,0,0,0-7.066H26.644a.9.9,0,0,1-.9-.9v-6.359a4.114,4.114,0,0,0-8.228,0v4.22a1.545,1.545,0,0,1-.6,1.226l-3.594,2.8a1.562,1.562,0,0,1-.956.329H8.009a2.644,2.644,0,0,0-2.462-1.69H.951a.951.951,0,0,0,0,1.9h4.6a.74.74,0,0,1,.739.739v7a.951.951,0,0,0,1.9,0V261.2h4.174a3.474,3.474,0,0,0,2.126-.731l3.594-2.8a3.436,3.436,0,0,0,1.331-2.727v-4.22a2.212,2.212,0,0,1,4.424,0v6.359a2.808,2.808,0,0,0,2.805,2.805H49.185a1.631,1.631,0,0,1,0,3.262H34.4a.951.951,0,0,0-.951.951s0,0,0,.006,0,0,0,.006a.951.951,0,0,0,.951.951h2.507a1.631,1.631,0,0,1,0,3.262H34.261a.951.951,0,1,0,0,1.9H35.9a1.631,1.631,0,0,1,0,3.262H34.216a.951.951,0,0,0,0,1.9h.667a1.631,1.631,0,0,1,0,3.262H18.077a8.292,8.292,0,0,1-4.922-1.606l-1.314-.96a.951.951,0,0,0-.561-.183H8.189v-4.6a.951.951,0,0,0-1.9,0v5.552a.74.74,0,0,1-.739.739H.951a.951.951,0,0,0,0,1.9h4.6a2.644,2.644,0,0,0,2.462-1.69h2.96l1.064.777a10.182,10.182,0,0,0,6.045,1.973H34.883a3.531,3.531,0,0,0,2.819-5.661A3.534,3.534,0,0,0,39.43,271.856Z" transform="translate(0 -215.469)"/>
        <path id="Trazado_769853" data-name="Trazado 769853" d="M337.185,311.951a.951.951,0,0,0-1.164.674,27.664,27.664,0,0,1-18.5,19.24.951.951,0,1,0,.563,1.817,29.566,29.566,0,0,0,19.774-20.567A.951.951,0,0,0,337.185,311.951Z" transform="translate(-276.666 -272.496)"/>
        <path id="Trazado_769854" data-name="Trazado 769854" d="M468.829,197.018a.951.951,0,0,0-.682,1.16,27.7,27.7,0,0,1,.885,6.958,28,28,0,0,1-.187,3.217.951.951,0,0,0,.835,1.054.962.962,0,0,0,.111.006.951.951,0,0,0,.944-.842,29.945,29.945,0,0,0,.2-3.436,29.614,29.614,0,0,0-.946-7.436A.951.951,0,0,0,468.829,197.018Z" transform="translate(-408.746 -172.142)"/>
        <path id="Trazado_769855" data-name="Trazado 769855" d="M26.655,75.158A.952.952,0,0,0,27.584,74a27.765,27.765,0,0,1-.674-6.084A27.617,27.617,0,0,1,45.874,41.688a.951.951,0,1,0-.6-1.807A29.541,29.541,0,0,0,25.728,74.415.952.952,0,0,0,26.655,75.158Z" transform="translate(-21.835 -34.919)"/>
        <path id="Trazado_769856" data-name="Trazado 769856" d="M69.277,177.231a.951.951,0,0,0-1.261.469,24.4,24.4,0,0,0-.738,18.417.951.951,0,0,0,1.788-.65,22.5,22.5,0,0,1,.68-16.977A.951.951,0,0,0,69.277,177.231Z" transform="translate(-57.474 -154.816)"/>
        <path id="Trazado_769857" data-name="Trazado 769857" d="M420.534,203.5a.951.951,0,0,0,1.247-.5,24.4,24.4,0,0,0,.1-18.744.951.951,0,0,0-1.76.724,22.5,22.5,0,0,1-.093,17.277A.951.951,0,0,0,420.534,203.5Z" transform="translate(-366.692 -160.503)"/>
        <path id="Trazado_769858" data-name="Trazado 769858" d="M160.987,88.482c-.418.207-.832.426-1.23.652a.951.951,0,1,0,.939,1.654c.366-.208.748-.41,1.134-.6a.951.951,0,0,0-.843-1.706Z" transform="translate(-139.075 -77.312)"/>
        <path id="Trazado_769859" data-name="Trazado 769859" d="M331.631,407.179a22.451,22.451,0,0,1-2.981,1.68.951.951,0,1,0,.805,1.724,24.36,24.36,0,0,0,3.234-1.823.951.951,0,1,0-1.059-1.581Z" transform="translate(-286.489 -355.534)"/>
        <path id="Trazado_769860" data-name="Trazado 769860" d="M211.531,206.4a.951.951,0,0,0-.951.951v.772a5.011,5.011,0,0,0-3.954,3.954h-.772a.951.951,0,1,0,0,1.9h.772a5.01,5.01,0,0,0,3.954,3.954v.772a.951.951,0,1,0,1.9,0v-.772a5.01,5.01,0,0,0,3.954-3.954h.772a.951.951,0,1,0,0-1.9h-.772a5.011,5.011,0,0,0-3.954-3.954v-.772A.951.951,0,0,0,211.531,206.4Zm3.1,6.629a3.1,3.1,0,1,1-3.1-3.1A3.1,3.1,0,0,1,214.626,213.031Z" transform="translate(-178.915 -180.362)"/>
        <path id="Trazado_769861" data-name="Trazado 769861" d="M249.671,250.95v.275a.951.951,0,0,0,1.9,0v-.275a.951.951,0,0,0-1.9,0Z" transform="translate(-218.006 -218.43)"/>
      </g>
    </g>
  </g>
</svg>
