<svg xmlns="http://www.w3.org/2000/svg" xmlns:xlink="http://www.w3.org/1999/xlink" width="142" height="142" viewBox="0 0 142 142">
  <defs>
    <clipPath id="clip-path">
      <path id="path810" d="M0-682.665H86.155v86.155H0Z" transform="translate(0 682.665)"/>
    </clipPath>
  </defs>
  <g id="Grupo_1042480" data-name="Grupo 1042480" transform="translate(-309 -3800)">
    <g id="Elipse_8001" data-name="Elipse 8001" transform="translate(309 3800)" fill="#fff" stroke="#ea526f" stroke-width="3">
      <circle cx="71" cy="71" r="71" stroke="none"/>
      <circle cx="71" cy="71" r="69.5" fill="none"/>
    </g>
    <g id="g804" transform="translate(333.562 4510.587)">
      <g id="g806" transform="translate(0 -682.665)">
        <g id="g808" clip-path="url(#clip-path)">
          <g id="g814" transform="translate(55.866 22.212)">
            <path id="path816" d="M-98.953-106.02h-13.271a1.021,1.021,0,0,1-1.021-1.021v-13.271a1.021,1.021,0,0,1,1.021-1.021h13.271a1.021,1.021,0,0,1,1.021,1.021v13.271a1.021,1.021,0,0,1-1.021,1.021" transform="translate(113.245 121.333)" fill="#cb97e7"/>
          </g>
          <g id="g818" transform="translate(55.866 22.212)">
            <path id="path820" d="M-37.282-98.952v-13.271a1.021,1.021,0,0,1,1.021-1.021h-5.385a1.021,1.021,0,0,0-1.021,1.021v13.271a1.021,1.021,0,0,0,1.021,1.021h5.385a1.021,1.021,0,0,1-1.021-1.021" transform="translate(42.667 113.244)" fill="#bd80e1"/>
          </g>
          <g id="g822" transform="translate(55.866 22.212)">
            <path id="path824" d="M-106.02-30.292v-3.354a1.021,1.021,0,0,0-1.021-1.021h-13.271a1.021,1.021,0,0,0-1.021,1.021v13.271a1.021,1.021,0,0,0,1.021,1.021h13.271a1.021,1.021,0,0,0,1.021-1.021V-24.4" transform="translate(121.333 34.667)" fill="none" stroke="#000" stroke-linecap="round" stroke-linejoin="round" stroke-miterlimit="10" stroke-width="2"/>
          </g>
          <g id="g826" transform="translate(11.536 32.05)">
            <path id="path828" d="M-138.354-157.127l8.341-22.694h-28.324L-150-157.127Z" transform="translate(158.337 179.821)" fill="#fff0ad"/>
          </g>
          <g id="g830" transform="translate(11.536 32.05)">
            <path id="path832" d="M0,0,8.341,22.694H15.43L7.088,0Z" fill="#ffe177"/>
          </g>
          <g id="g834" transform="translate(11.536 32.05)">
            <path id="path836" d="M-138.354-157.127l8.341-22.694h-28.324L-150-157.127Z" transform="translate(158.337 179.821)" fill="none" stroke="#000" stroke-linecap="round" stroke-linejoin="round" stroke-miterlimit="10" stroke-width="2"/>
          </g>
          <g id="g838" transform="translate(21.202 63.077)">
            <path id="path840" d="M-44.773-57.489h-3.943a2.524,2.524,0,0,1-2.524-2.524v-3.255a2.524,2.524,0,0,1,2.524-2.524h3.943a2.524,2.524,0,0,1,2.524,2.524v3.255a2.524,2.524,0,0,1-2.524,2.524" transform="translate(51.24 65.792)" fill="#02c7dd"/>
          </g>
          <g id="g842" transform="translate(21.202 63.077)">
            <path id="path844" d="M-44.773-57.489h-3.943a2.524,2.524,0,0,1-2.524-2.524v-3.255a2.524,2.524,0,0,1,2.524-2.524h3.943a2.524,2.524,0,0,1,2.524,2.524v3.255A2.524,2.524,0,0,1-44.773-57.489Z" transform="translate(51.24 65.792)" fill="none" stroke="#000" stroke-linecap="round" stroke-linejoin="round" stroke-miterlimit="10" stroke-width="2"/>
          </g>
          <g id="g846" transform="translate(19.087 58.095)">
            <path id="path848" d="M-85.712-57.489H-97.25a.841.841,0,0,1-.841-.841V-64.95a.841.841,0,0,1,.841-.841h11.538a.841.841,0,0,1,.841.841v6.621a.841.841,0,0,1-.841.841" transform="translate(98.092 65.792)" fill="#a6e7f0"/>
          </g>
          <g id="g850" transform="translate(19.087 58.095)">
            <path id="path852" d="M-85.712-57.489H-97.25a.841.841,0,0,1-.841-.841V-64.95a.841.841,0,0,1,.841-.841h11.538a.841.841,0,0,1,.841.841v6.621A.841.841,0,0,1-85.712-57.489Z" transform="translate(98.092 65.792)" fill="none" stroke="#000" stroke-linecap="round" stroke-linejoin="round" stroke-miterlimit="10" stroke-width="2"/>
          </g>
          <g id="g854" transform="translate(6.019 8.11)">
            <path id="path856" d="M-272.5-136.248a19.679,19.679,0,0,1-19.679,19.679,19.679,19.679,0,0,1-19.679-19.679,19.679,19.679,0,0,1,19.679-19.679A19.679,19.679,0,0,1-272.5-136.248" transform="translate(311.853 155.926)" fill="#ffe177"/>
          </g>
          <g id="g858" transform="translate(6.019 8.11)">
            <path id="path860" d="M-58.648-136.248A19.685,19.685,0,0,1-43.2-155.468a19.751,19.751,0,0,0-4.235-.458,19.679,19.679,0,0,0-19.678,19.679A19.679,19.679,0,0,0-47.44-116.569a19.751,19.751,0,0,0,4.235-.458,19.685,19.685,0,0,1-15.443-19.22" transform="translate(67.118 155.926)" fill="#ffd15c"/>
          </g>
          <g id="g862" transform="translate(6.019 8.11)">
            <path id="path864" d="M-263.12-186.006a19.628,19.628,0,0,0,1.354-7.187,19.679,19.679,0,0,0-19.679-19.679,19.679,19.679,0,0,0-19.679,19.679,19.679,19.679,0,0,0,19.679,19.678,19.64,19.64,0,0,0,15.363-7.382" transform="translate(301.123 212.871)" fill="none" stroke="#000" stroke-linecap="round" stroke-linejoin="round" stroke-miterlimit="10" stroke-width="2"/>
          </g>
          <g id="g866" transform="translate(15.236 26.543)">
            <path id="path868" d="M-25.87-51.74a3.736,3.736,0,0,1-3.736-3.736,3.736,3.736,0,0,1,3.736-3.736,3.736,3.736,0,0,1,3.736,3.736" transform="translate(29.607 59.213)" fill="none" stroke="#000" stroke-linecap="round" stroke-linejoin="round" stroke-miterlimit="10" stroke-width="2"/>
          </g>
          <g id="g870" transform="translate(28.687 26.543)">
            <path id="path872" d="M0-25.87a3.736,3.736,0,0,1,3.736-3.736A3.736,3.736,0,0,1,7.473-25.87a3.736,3.736,0,0,1-3.736,3.736" transform="translate(0 29.607)" fill="none" stroke="#000" stroke-linecap="round" stroke-linejoin="round" stroke-miterlimit="10" stroke-width="2"/>
          </g>
          <g id="g874" transform="translate(18.972 34.016)">
            <path id="path876" d="M0,0H13.451" fill="#fff" stroke="#000" stroke-linecap="round" stroke-linejoin="round" stroke-miterlimit="10" stroke-width="2"/>
          </g>
          <g id="g878" transform="translate(22.709 30.279)">
            <path id="path880" d="M0,0V25.989" transform="translate(0 0)" fill="#fff" stroke="#000" stroke-linecap="round" stroke-linejoin="round" stroke-miterlimit="10" stroke-width="2"/>
          </g>
          <g id="g882" transform="translate(28.687 30.279)">
            <path id="path884" d="M0,0V25.989" transform="translate(0 0)" fill="#fff" stroke="#000" stroke-linecap="round" stroke-linejoin="round" stroke-miterlimit="10" stroke-width="2"/>
          </g>
          <g id="g886" transform="translate(16.563 52.947)">
            <path id="path888" d="M-114.839-57.489h-14.9a1.683,1.683,0,0,1-1.683-1.683v-4.938a1.683,1.683,0,0,1,1.683-1.683h14.9a1.683,1.683,0,0,1,1.683,1.683v4.938a1.683,1.683,0,0,1-1.683,1.683" transform="translate(131.425 65.792)" fill="#eaf9fa"/>
          </g>
          <g id="g890" transform="translate(16.563 52.947)">
            <path id="path892" d="M-88.042-57.489h3.87a1.683,1.683,0,0,0,1.683-1.683v-4.938a1.683,1.683,0,0,0-1.683-1.683h-14.9a1.683,1.683,0,0,0-1.683,1.683v4.938a1.683,1.683,0,0,0,1.683,1.683h5.144" transform="translate(100.758 65.792)" fill="none" stroke="#000" stroke-linecap="round" stroke-linejoin="round" stroke-miterlimit="10" stroke-width="2"/>
          </g>
          <g id="g894" transform="translate(41.583 46.34)">
            <path id="path896" d="M-228.715-139.526a5.91,5.91,0,0,1-3.765-1.025.506.506,0,0,0-.8.41v8.091a.841.841,0,0,1-.841.841h-8.092a.506.506,0,0,0-.41.8,5.909,5.909,0,0,1,1.025,3.765,5.952,5.952,0,0,1-5.5,5.5,5.932,5.932,0,0,1-6.351-5.917,5.9,5.9,0,0,1,1.049-3.368.5.5,0,0,0-.42-.784h-8.091a.841.841,0,0,1-.841-.841V-138.4a.836.836,0,0,1,.906-.839,6.036,6.036,0,0,0,.945.017,5.951,5.951,0,0,0,5.549-5.5,5.932,5.932,0,0,0-5.917-6.354q-.28,0-.553.025a.844.844,0,0,1-.93-.836v-6.948a.841.841,0,0,1,.841-.841h6.625a.838.838,0,0,1,.84.86q0,.089,0,.178a5.931,5.931,0,0,0,5.931,5.931,5.931,5.931,0,0,0,5.931-5.931c0-.059,0-.119,0-.178a.838.838,0,0,1,.84-.86h6.625a.841.841,0,0,1,.841.841v8.092a.5.5,0,0,0,.784.42,5.9,5.9,0,0,1,3.368-1.049,5.932,5.932,0,0,1,5.917,6.351,5.952,5.952,0,0,1-5.5,5.5" transform="translate(261.749 159.678)" fill="#fe9738"/>
          </g>
          <g id="g898" transform="translate(41.583 46.34)">
            <path id="path900" d="M-228.715-139.526a5.91,5.91,0,0,1-3.765-1.025.506.506,0,0,0-.8.41v8.091a.841.841,0,0,1-.841.841h-8.092a.506.506,0,0,0-.41.8,5.909,5.909,0,0,1,1.025,3.765,5.952,5.952,0,0,1-5.5,5.5,5.932,5.932,0,0,1-6.351-5.917,5.9,5.9,0,0,1,1.049-3.368.5.5,0,0,0-.42-.784h-8.091a.841.841,0,0,1-.841-.841V-138.4a.836.836,0,0,1,.906-.839,6.036,6.036,0,0,0,.945.017,5.951,5.951,0,0,0,5.549-5.5,5.932,5.932,0,0,0-5.917-6.354q-.28,0-.553.025a.844.844,0,0,1-.93-.836v-6.948a.841.841,0,0,1,.841-.841h6.625a.838.838,0,0,1,.84.86q0,.089,0,.178a5.931,5.931,0,0,0,5.931,5.931,5.931,5.931,0,0,0,5.931-5.931c0-.059,0-.119,0-.178a.838.838,0,0,1,.84-.86h6.625a.841.841,0,0,1,.841.841v8.092a.5.5,0,0,0,.784.42,5.9,5.9,0,0,1,3.368-1.049,5.932,5.932,0,0,1,5.917,6.351,5.952,5.952,0,0,1-5.5,5.5" transform="translate(261.749 159.678)" fill="#fe9738"/>
          </g>
          <g id="g902" transform="translate(41.583 46.34)">
            <path id="path904" d="M-6.436-59.722q.273-.025.553-.025a5.918,5.918,0,0,1,4.536,2.11v-9.869a.841.841,0,0,1,.841-.841H-6.524a.841.841,0,0,0-.841.841v6.948a.844.844,0,0,0,.93.836" transform="translate(7.365 68.348)" fill="#fe860a"/>
          </g>
          <g id="g906" transform="translate(41.583 64.684)">
            <path id="path908" d="M-41.674-64.287v-9.285a5.927,5.927,0,0,1-4.169,2.108,6.058,6.058,0,0,1-.945-.017.836.836,0,0,0-.906.839v6.355a.841.841,0,0,0,.841.841h6.019a.841.841,0,0,1-.841-.841" transform="translate(47.693 73.572)" fill="#fe860a"/>
          </g>
          <g id="g910" transform="translate(41.583 46.34)">
            <path id="path912" d="M-228.715-139.526a5.91,5.91,0,0,1-3.765-1.025.506.506,0,0,0-.8.41v8.091a.841.841,0,0,1-.841.841h-8.092a.506.506,0,0,0-.41.8,5.909,5.909,0,0,1,1.025,3.765,5.952,5.952,0,0,1-5.5,5.5,5.932,5.932,0,0,1-6.351-5.917,5.9,5.9,0,0,1,1.049-3.368.5.5,0,0,0-.42-.784h-8.091a.841.841,0,0,1-.841-.841V-138.4a.836.836,0,0,1,.906-.839,6.036,6.036,0,0,0,.945.017,5.951,5.951,0,0,0,5.549-5.5,5.932,5.932,0,0,0-5.917-6.354q-.28,0-.553.025a.844.844,0,0,1-.93-.836v-6.948a.841.841,0,0,1,.841-.841h6.625a.838.838,0,0,1,.84.86q0,.089,0,.178a5.931,5.931,0,0,0,5.931,5.931,5.931,5.931,0,0,0,5.931-5.931c0-.059,0-.119,0-.178a.838.838,0,0,1,.84-.86h6.625a.841.841,0,0,1,.841.841v8.092a.5.5,0,0,0,.784.42,5.9,5.9,0,0,1,3.368-1.049,5.932,5.932,0,0,1,5.917,6.351A5.952,5.952,0,0,1-228.715-139.526Z" transform="translate(261.749 159.678)" fill="none" stroke="#000" stroke-linecap="round" stroke-linejoin="round" stroke-miterlimit="10" stroke-width="2"/>
          </g>
          <g id="g914" transform="translate(36.605 1.262)">
            <path id="path916" d="M-190.246-95.122a13.739,13.739,0,0,1-13.739,13.739,13.739,13.739,0,0,1-13.739-13.739,13.739,13.739,0,0,1,13.739-13.739,13.739,13.739,0,0,1,13.739,13.739" transform="translate(217.723 108.861)" fill="#05e39c"/>
          </g>
          <g id="g918" transform="translate(36.605 1.262)">
            <path id="path920" d="M-49.132-95.122A13.743,13.743,0,0,1-38.941-108.4a13.752,13.752,0,0,0-3.548-.465A13.739,13.739,0,0,0-56.228-95.122,13.739,13.739,0,0,0-42.489-81.384a13.753,13.753,0,0,0,3.548-.465A13.743,13.743,0,0,1-49.132-95.122" transform="translate(56.228 108.861)" fill="#0ed290"/>
          </g>
          <g id="g922" transform="translate(36.605 1.262)">
            <path id="path924" d="M-190.246-95.122a13.739,13.739,0,0,1-13.739,13.739,13.739,13.739,0,0,1-13.739-13.739,13.739,13.739,0,0,1,13.739-13.739A13.739,13.739,0,0,1-190.246-95.122Z" transform="translate(217.723 108.861)" fill="none" stroke="#000" stroke-linecap="round" stroke-linejoin="round" stroke-miterlimit="10" stroke-width="2"/>
          </g>
          <g id="g926" transform="translate(43.387 11.169)">
            <path id="path928" d="M0-18.15l5.647,6.705,8.268-9.327" transform="translate(0 20.772)" fill="none" stroke="#000" stroke-linecap="round" stroke-linejoin="round" stroke-miterlimit="10" stroke-width="2"/>
          </g>
        </g>
      </g>
    </g>
  </g>
</svg>
