<svg xmlns="http://www.w3.org/2000/svg" width="142" height="142" viewBox="0 0 142 142">
  <g id="Grupo_1042479" data-name="Grupo 1042479" transform="translate(-729 -3800)">
    <g id="Elipse_8002" data-name="Elipse 8002" transform="translate(729 3800)" fill="#fff" stroke="#ea526f" stroke-width="3">
      <circle cx="71" cy="71" r="71" stroke="none"/>
      <circle cx="71" cy="71" r="69.5" fill="none"/>
    </g>
    <path id="Trazado_769979" data-name="Trazado 769979" d="M132.322,94.35H70.891a1.765,1.765,0,0,1-1.765-1.765V9.265A1.765,1.765,0,0,1,70.891,7.5h61.431a1.765,1.765,0,0,1,1.765,1.765v83.32A1.765,1.765,0,0,1,132.322,94.35Z" transform="translate(698.218 3819.568)" fill="#dff6fd"/>
    <path id="Trazado_769980" data-name="Trazado 769980" d="M412.425,94.35h-3.884V7.5h3.884a1.765,1.765,0,0,1,1.765,1.765v83.32A1.765,1.765,0,0,1,412.425,94.35Z" transform="translate(418.115 3819.568)" fill="#c8effe"/>
    <path id="Trazado_769981" data-name="Trazado 769981" d="M187.873,45.122H155.392a1.412,1.412,0,0,1-1.412-1.412V41.238a1.412,1.412,0,0,1,1.412-1.412h32.481a1.412,1.412,0,0,1,1.412,1.412v2.471A1.412,1.412,0,0,1,187.873,45.122Z" transform="translate(628.192 3792.892)" fill="#ffd15b"/>
    <path id="Trazado_769982" data-name="Trazado 769982" d="M321.255,39.825h-5.649a1.412,1.412,0,0,1,1.412,1.412v2.471a1.412,1.412,0,0,1-1.412,1.412h5.649a1.412,1.412,0,0,0,1.412-1.412V41.237A1.412,1.412,0,0,0,321.255,39.825Z" transform="translate(494.81 3792.893)" fill="#ffc344"/>
    <g id="Grupo_1042475" data-name="Grupo 1042475" transform="translate(807.943 3861.808)">
      <path id="Trazado_769983" data-name="Trazado 769983" d="M399.105,372.26l-1.821-1.518a1.059,1.059,0,0,0-1.356,0l-1.821,1.518a1.059,1.059,0,0,1-1.737-.814V357.82h8.473v13.626A1.059,1.059,0,0,1,399.105,372.26Z" transform="translate(-376.482 -331.341)" fill="#ffc344"/>
      <path id="Trazado_769984" data-name="Trazado 769984" d="M345.618,377.555l1.821-1.518a1.059,1.059,0,0,1,1.356,0l1.821,1.518a1.059,1.059,0,0,0,1.737-.814V357.82h-8.473v18.922A1.059,1.059,0,0,0,345.618,377.555Z" transform="translate(-336.467 -331.341)" fill="#ffd15b"/>
      <path id="Trazado_769985" data-name="Trazado 769985" d="M345.618,377.555l1.821-1.518a1.059,1.059,0,0,1,1.356,0l1.821,1.518a1.059,1.059,0,0,0,1.737-.814V357.82h-8.473v18.922A1.059,1.059,0,0,0,345.618,377.555Z" transform="translate(-336.467 -331.341)" fill="#ffd15b"/>
      <path id="Trazado_769986" data-name="Trazado 769986" d="M343.881,357.82v7.089q.487.046.983.047h.148a10.29,10.29,0,0,0,7.342,3.1V357.82Z" transform="translate(-336.467 -331.341)" fill="#ffc344"/>
      <path id="Trazado_769987" data-name="Trazado 769987" d="M392.369,368.059a10.289,10.289,0,0,0,7.342-3.1h.148q.5,0,.983-.047V357.82h-8.473Z" transform="translate(-376.482 -331.341)" fill="#feb237"/>
      <path id="Trazado_769988" data-name="Trazado 769988" d="M333.23,222.184a5.279,5.279,0,0,0-1.624-3.816,4.834,4.834,0,0,1-1.479-3.571,5.294,5.294,0,0,0-5.4-5.4,4.834,4.834,0,0,1-3.571-1.479,5.294,5.294,0,0,0-7.632,0,4.834,4.834,0,0,1-3.571,1.479,5.294,5.294,0,0,0-5.4,5.4,4.834,4.834,0,0,1-1.479,3.571,5.294,5.294,0,0,0,0,7.632,4.834,4.834,0,0,1,1.479,3.571,5.294,5.294,0,0,0,5.4,5.4,4.834,4.834,0,0,1,3.571,1.479,5.294,5.294,0,0,0,7.632,0,4.834,4.834,0,0,1,3.571-1.479,5.294,5.294,0,0,0,5.4-5.4A4.834,4.834,0,0,1,331.606,226,5.279,5.279,0,0,0,333.23,222.184Z" transform="translate(-301.456 -206.297)" fill="#fe93bb"/>
      <path id="Trazado_769989" data-name="Trazado 769989" d="M346.674,233.435a4.834,4.834,0,0,1-1.479-3.571,5.294,5.294,0,0,0-4.332-5.309,5.318,5.318,0,0,1,.087,1.065,4.834,4.834,0,0,0,1.479,3.571,5.294,5.294,0,0,1,0,7.632,4.834,4.834,0,0,0-1.479,3.571,5.295,5.295,0,0,1-5.4,5.4,4.834,4.834,0,0,0-3.571,1.479,5.295,5.295,0,0,1-7.632,0,4.834,4.834,0,0,0-3.571-1.479,5.33,5.33,0,0,1-1.065-.087,5.294,5.294,0,0,0,5.309,4.332,4.834,4.834,0,0,1,3.571,1.479,5.294,5.294,0,0,0,7.632,0,4.834,4.834,0,0,1,3.571-1.479,5.294,5.294,0,0,0,5.4-5.4,4.834,4.834,0,0,1,1.479-3.571,5.294,5.294,0,0,0,0-7.632Z" transform="translate(-316.524 -221.364)" fill="#fe76a8"/>
      <circle id="Elipse_8004" data-name="Elipse 8004" cx="8.826" cy="8.826" r="8.826" transform="translate(7.061 7.061)" fill="#ffd15b"/>
      <path id="Trazado_769990" data-name="Trazado 769990" d="M360.453,253.266a8.825,8.825,0,0,1-12.028,12.028,8.826,8.826,0,1,0,12.028-12.028Z" transform="translate(-340.217 -245.058)" fill="#ffc344"/>
    </g>
    <g id="Grupo_1042476" data-name="Grupo 1042476" transform="translate(760.283 3881.438)">
      <path id="Trazado_769991" data-name="Trazado 769991" d="M59.035,351.111H30.885a2.165,2.165,0,0,1-2.165-2.165V320.8a2.165,2.165,0,0,1,2.165-2.165h28.15A2.165,2.165,0,0,1,61.2,320.8v28.15A2.165,2.165,0,0,1,59.035,351.111Z" transform="translate(-28.72 -318.63)" fill="#ffbd86"/>
      <path id="Trazado_769992" data-name="Trazado 769992" d="M175.523,318.63h-5.649a2.165,2.165,0,0,1,2.165,2.165v28.15a2.165,2.165,0,0,1-2.165,2.165h5.649a2.165,2.165,0,0,0,2.165-2.165V320.8A2.165,2.165,0,0,0,175.523,318.63Z" transform="translate(-145.207 -318.63)" fill="#f6a96c"/>
      <path id="Trazado_769993" data-name="Trazado 769993" d="M104.858,328.335l-1.776-1.184a1.083,1.083,0,0,0-1.2,0l-1.776,1.184a1.083,1.083,0,0,1-1.683-.9v-8.8h8.12v8.8A1.083,1.083,0,0,1,104.858,328.335Z" transform="translate(-86.241 -318.63)" fill="#c57a44"/>
    </g>
    <line id="Línea_818" data-name="Línea 818" y1="14.342" transform="translate(832.305 3850.66)" fill="none" stroke="#000" stroke-linecap="round" stroke-linejoin="round" stroke-miterlimit="10" stroke-width="2"/>
    <path id="Trazado_769994" data-name="Trazado 769994" d="M69.126,47.46V9.265A1.767,1.767,0,0,1,70.891,7.5h61.431a1.767,1.767,0,0,1,1.765,1.765v15.71" transform="translate(698.218 3819.568)" fill="none" stroke="#000" stroke-linecap="round" stroke-linejoin="round" stroke-miterlimit="10" stroke-width="2"/>
    <line id="Línea_819" data-name="Línea 819" y1="8.294" transform="translate(767.344 3873.145)" fill="none" stroke="#000" stroke-linecap="round" stroke-linejoin="round" stroke-miterlimit="10" stroke-width="2"/>
    <path id="Trazado_769995" data-name="Trazado 769995" d="M243.9,435.8v10.241a1.766,1.766,0,0,1-1.765,1.765H202.194" transform="translate(588.403 3466.117)" fill="none" stroke="#000" stroke-linecap="round" stroke-linejoin="round" stroke-miterlimit="10" stroke-width="2"/>
    <path id="Trazado_769996" data-name="Trazado 769996" d="M187.873,45.122H155.392a1.412,1.412,0,0,1-1.412-1.412V41.238a1.412,1.412,0,0,1,1.412-1.412h32.481a1.412,1.412,0,0,1,1.412,1.412v2.471A1.412,1.412,0,0,1,187.873,45.122Z" transform="translate(628.192 3792.892)" fill="none" stroke="#000" stroke-linecap="round" stroke-linejoin="round" stroke-miterlimit="10" stroke-width="2"/>
    <path id="Trazado_769997" data-name="Trazado 769997" d="M400.842,369.851v11.523a1.059,1.059,0,0,1-1.737.814l-1.822-1.518a1.06,1.06,0,0,0-1.356,0l-1.822,1.518a1.059,1.059,0,0,1-1.737-.814v-8.33" transform="translate(431.461 3520.538)" fill="none" stroke="#000" stroke-linecap="round" stroke-linejoin="round" stroke-miterlimit="10" stroke-width="2"/>
    <path id="Trazado_769998" data-name="Trazado 769998" d="M352.354,373.045v13.626a1.059,1.059,0,0,1-1.737.814l-1.822-1.518a1.06,1.06,0,0,0-1.356,0l-1.822,1.518a1.059,1.059,0,0,1-1.737-.814V369.852" transform="translate(471.476 3520.537)" fill="none" stroke="#000" stroke-linecap="round" stroke-linejoin="round" stroke-miterlimit="10" stroke-width="2"/>
    <path id="Trazado_769999" data-name="Trazado 769999" d="M333.23,222.184a5.279,5.279,0,0,0-1.624-3.816,4.834,4.834,0,0,1-1.479-3.571,5.294,5.294,0,0,0-5.4-5.4,4.834,4.834,0,0,1-3.571-1.479,5.294,5.294,0,0,0-7.632,0,4.834,4.834,0,0,1-3.571,1.479,5.294,5.294,0,0,0-5.4,5.4,4.834,4.834,0,0,1-1.479,3.571,5.294,5.294,0,0,0,0,7.632,4.834,4.834,0,0,1,1.479,3.571,5.294,5.294,0,0,0,5.4,5.4,4.834,4.834,0,0,1,3.571,1.479,5.294,5.294,0,0,0,7.632,0,4.834,4.834,0,0,1,3.571-1.479,5.294,5.294,0,0,0,5.4-5.4A4.834,4.834,0,0,1,331.606,226,5.279,5.279,0,0,0,333.23,222.184Z" transform="translate(506.487 3655.511)" fill="none" stroke="#000" stroke-linecap="round" stroke-linejoin="round" stroke-miterlimit="10" stroke-width="2"/>
    <circle id="Elipse_8005" data-name="Elipse 8005" cx="8.826" cy="8.826" r="8.826" transform="translate(815.004 3868.869)" fill="none" stroke="#000" stroke-linecap="round" stroke-linejoin="round" stroke-miterlimit="10" stroke-width="2"/>
    <path id="Trazado_770000" data-name="Trazado 770000" d="M106.542,318.63v8.8a1.083,1.083,0,0,1-1.683.9l-1.776-1.184a1.083,1.083,0,0,0-1.2,0l-1.776,1.184a1.083,1.083,0,0,1-1.683-.9v-8.8" transform="translate(674.042 3562.809)" fill="none" stroke="#000" stroke-linecap="round" stroke-linejoin="round" stroke-miterlimit="10" stroke-width="2"/>
    <path id="Trazado_770001" data-name="Trazado 770001" d="M28.716,339.577v9.368a2.166,2.166,0,0,0,2.165,2.165h28.15a2.165,2.165,0,0,0,2.165-2.165V320.8a2.165,2.165,0,0,0-2.165-2.165H30.881a2.166,2.166,0,0,0-2.165,2.165v12.666" transform="translate(731.566 3562.809)" fill="none" stroke="#000" stroke-linecap="round" stroke-linejoin="round" stroke-miterlimit="10" stroke-width="2"/>
    <line id="Línea_820" data-name="Línea 820" x1="5.413" transform="translate(780.313 3906.881)" fill="none" stroke="#000" stroke-linecap="round" stroke-linejoin="round" stroke-miterlimit="10" stroke-width="2"/>
    <line id="Línea_821" data-name="Línea 821" x1="34.952" transform="translate(790.292 3845.074)" fill="none" stroke="#000" stroke-linecap="round" stroke-linejoin="round" stroke-miterlimit="10" stroke-width="2"/>
    <line id="Línea_822" data-name="Línea 822" x1="7.061" transform="translate(777.936 3845.074)" fill="none" stroke="#000" stroke-linecap="round" stroke-linejoin="round" stroke-miterlimit="10" stroke-width="2"/>
    <line id="Línea_823" data-name="Línea 823" x1="43.778" transform="translate(774.405 3855.666)" fill="none" stroke="#000" stroke-linecap="round" stroke-linejoin="round" stroke-miterlimit="10" stroke-width="2"/>
    <line id="Línea_824" data-name="Línea 824" x1="50.839" transform="translate(774.405 3850.37)" fill="none" stroke="#000" stroke-linecap="round" stroke-linejoin="round" stroke-miterlimit="10" stroke-width="2"/>
    <g id="Grupo_1042477" data-name="Grupo 1042477" transform="translate(774.405 3860.961)">
      <line id="Línea_825" data-name="Línea 825" x1="15.887" transform="translate(10.592)" fill="none" stroke="#000" stroke-linecap="round" stroke-linejoin="round" stroke-miterlimit="10" stroke-width="2"/>
      <line id="Línea_826" data-name="Línea 826" x1="5.296" transform="translate(0)" fill="none" stroke="#000" stroke-linecap="round" stroke-linejoin="round" stroke-miterlimit="10" stroke-width="2"/>
      <line id="Línea_827" data-name="Línea 827" x1="17.652" transform="translate(0 10.592)" fill="none" stroke="#000" stroke-linecap="round" stroke-linejoin="round" stroke-miterlimit="10" stroke-width="2"/>
      <line id="Línea_828" data-name="Línea 828" x1="26.479" transform="translate(0 5.296)" fill="none" stroke="#000" stroke-linecap="round" stroke-linejoin="round" stroke-miterlimit="10" stroke-width="2"/>
    </g>
  </g>
</svg>
