<svg xmlns="http://www.w3.org/2000/svg" xmlns:xlink="http://www.w3.org/1999/xlink" width="142" height="142" viewBox="0 0 142 142">
  <defs>
    <clipPath id="clip-path">
      <path id="path3318" d="M0-682.665H85.025v85.025H0Z" transform="translate(0 682.665)"/>
    </clipPath>
  </defs>
  <g id="Grupo_1042478" data-name="Grupo 1042478" transform="translate(-1150 -3800)">
    <g id="Elipse_8003" data-name="Elipse 8003" transform="translate(1150 3800)" fill="#fff" stroke="#ea526f" stroke-width="3">
      <circle cx="71" cy="71" r="71" stroke="none"/>
      <circle cx="71" cy="71" r="69.5" fill="none"/>
    </g>
    <g id="g3312" transform="translate(1180.167 4511.472)">
      <g id="g3314" transform="translate(0 -682.665)">
        <g id="g3316" transform="translate(0 0)" clip-path="url(#clip-path)">
          <g id="g3322" transform="translate(1.245 1.246)">
            <path id="path3324" d="M-224.567-112.283a15.974,15.974,0,0,1-15.974,15.974,15.974,15.974,0,0,1-15.974-15.974,15.974,15.974,0,0,1,15.974-15.974,15.974,15.974,0,0,1,15.974,15.974" transform="translate(256.515 128.257)" fill="#fbf4db"/>
          </g>
          <g id="g3326" transform="translate(17.245 8.796)">
            <path id="path3328" d="M-12.209-4.654a3.95,3.95,0,0,0-1.73,2.807.961.961,0,0,0,.711,1.038,3.95,3.95,0,0,0,3.234-.523,3.951,3.951,0,0,0,1.73-2.808.961.961,0,0,0-.711-1.038,3.95,3.95,0,0,0-3.234.523" transform="translate(13.946 5.317)" fill="#8ceea1"/>
          </g>
          <g id="g3330" transform="translate(51.831 1.246)">
            <path id="path3332" d="M-224.567-112.283a15.974,15.974,0,0,1-15.974,15.974,15.974,15.974,0,0,1-15.974-15.974,15.974,15.974,0,0,1,15.974-15.974,15.974,15.974,0,0,1,15.974,15.974" transform="translate(256.515 128.257)" fill="#ffe077"/>
          </g>
          <g id="g3334" transform="translate(51.831 51.831)">
            <path id="path3336" d="M-224.567-112.283a15.974,15.974,0,0,1-15.974,15.974,15.974,15.974,0,0,1-15.974-15.974,15.974,15.974,0,0,1,15.974-15.974,15.974,15.974,0,0,1,15.974,15.974" transform="translate(256.515 128.257)" fill="#7ad7ee"/>
          </g>
          <path id="path3338" d="M504.279-155.641H490.967v-3.994h13.312Z" transform="translate(-429.817 224.777)" fill="#eceaec"/>
          <g id="g3340" transform="translate(1.245 51.831)">
            <path id="path3342" d="M-224.567-112.283a15.974,15.974,0,0,1-15.974,15.974,15.974,15.974,0,0,1-15.974-15.974,15.974,15.974,0,0,1,15.974-15.974,15.974,15.974,0,0,1,15.974,15.974" transform="translate(256.515 128.257)" fill="#8ceea1"/>
          </g>
          <g id="g3344" transform="translate(71.799 62.481)">
            <path id="path3346" d="M-28.072-74.856h-2.662a1.331,1.331,0,0,1-1.331-1.331v-7.987a1.331,1.331,0,0,1,1.331-1.331h2.662a1.331,1.331,0,0,1,1.331,1.331v7.987a1.331,1.331,0,0,1-1.331,1.331" transform="translate(32.065 85.505)" fill="#736572"/>
          </g>
          <g id="g3348" transform="translate(10.566 13.226)">
            <path id="path3350" d="M-29.649-.1a4.166,4.166,0,0,0-4.217,4.241c.076,3.616,1.733,7.726,5.322,7.726a5,5,0,0,0,.816-.07,3.15,3.15,0,0,1,1.031,0,5,5,0,0,0,.816.07c3.676,0,5.325-4.311,5.325-7.987,0-4.463-4.394-3.976-9.092-3.98" transform="translate(33.868 0.111)" fill="#ff7e92"/>
          </g>
          <g id="g3352" transform="translate(59.818 19.509)">
            <path id="path3354" d="M-37.427-18.714a2.662,2.662,0,0,1-2.662,2.662,2.662,2.662,0,0,1-2.662-2.662,2.662,2.662,0,0,1,2.662-2.662,2.662,2.662,0,0,1,2.662,2.662" transform="translate(42.752 21.376)" fill="#ff744d"/>
          </g>
          <g id="g3356" transform="translate(70.468 18.178)">
            <path id="path3358" d="M-37.427-18.714a2.662,2.662,0,0,1-2.662,2.662,2.662,2.662,0,0,1-2.662-2.662,2.662,2.662,0,0,1,2.662-2.662,2.662,2.662,0,0,1,2.662,2.662" transform="translate(42.752 21.376)" fill="#ff744d"/>
          </g>
          <g id="g3360" transform="translate(58.487 62.481)">
            <path id="path3362" d="M-28.072-74.856h-2.662a1.331,1.331,0,0,1-1.331-1.331v-7.987a1.331,1.331,0,0,1,1.331-1.331h2.662a1.331,1.331,0,0,1,1.331,1.331v7.987a1.331,1.331,0,0,1-1.331,1.331" transform="translate(32.065 85.505)" fill="#736572"/>
          </g>
          <g id="g3364" transform="translate(58.487 69.136)">
            <path id="path3366" d="M0,0V2.662A1.331,1.331,0,0,0,1.331,3.994H3.994A1.331,1.331,0,0,0,5.325,2.662V0Z" fill="#615260"/>
          </g>
          <g id="g3368" transform="translate(71.799 69.136)">
            <path id="path3370" d="M0,0V2.662A1.331,1.331,0,0,0,1.331,3.994H3.994A1.331,1.331,0,0,0,5.325,2.662V0Z" fill="#615260"/>
          </g>
          <g id="g3372" transform="translate(38.519 26.538)">
            <path id="path3374" d="M-56.143-28.07a3.994,3.994,0,0,1-3.994,3.994,3.994,3.994,0,0,1-3.994-3.994,3.994,3.994,0,0,1,3.994-3.994,3.994,3.994,0,0,1,3.994,3.994" transform="translate(64.131 32.064)" fill="#fbbd80"/>
          </g>
          <g id="g3376" transform="translate(31.863 38.519)">
            <path id="path3378" d="M-112.283,0h-10.65a5.325,5.325,0,0,0-5.325,5.325V10.65c0,2.206,5.325,3.994,5.325,3.994h11.981a3.993,3.993,0,0,0,3.993-3.994V5.325A5.325,5.325,0,0,0-112.283,0" transform="translate(128.257)" fill="#dbd8db"/>
          </g>
          <g id="g3380" transform="translate(31.863 38.519)">
            <path id="path3382" d="M-74.856,0H-80.18a5.325,5.325,0,0,0-5.325,5.325V10.65a3.994,3.994,0,0,0,3.994,3.994h1.331V5.325A5.325,5.325,0,0,1-74.856,0" transform="translate(85.505)" fill="#c9c5c9"/>
          </g>
          <g id="g3384" transform="translate(1.245 4.681)">
            <path id="path3386" d="M-131-181.707a15.974,15.974,0,0,1-15.974-15.974,15.891,15.891,0,0,1,3.435-9.877,15.933,15.933,0,0,0-6.1,12.539,15.974,15.974,0,0,0,15.974,15.974,15.933,15.933,0,0,0,12.539-6.1A15.892,15.892,0,0,1-131-181.707" transform="translate(149.634 207.558)" fill="#f8ebcc"/>
          </g>
          <g id="g3388" transform="translate(51.831 4.681)">
            <path id="path3390" d="M-131-181.707a15.974,15.974,0,0,1-15.974-15.974,15.892,15.892,0,0,1,3.435-9.877,15.932,15.932,0,0,0-6.1,12.539,15.974,15.974,0,0,0,15.974,15.974,15.932,15.932,0,0,0,12.539-6.1A15.891,15.891,0,0,1-131-181.707" transform="translate(149.634 207.558)" fill="#ffd05b"/>
          </g>
          <g id="g3392" transform="translate(1.245 55.266)">
            <path id="path3394" d="M-131-181.707a15.974,15.974,0,0,1-15.974-15.974,15.89,15.89,0,0,1,3.435-9.877,15.933,15.933,0,0,0-6.1,12.539,15.974,15.974,0,0,0,15.974,15.974,15.933,15.933,0,0,0,12.539-6.1A15.892,15.892,0,0,1-131-181.707" transform="translate(149.634 207.558)" fill="#4ce1a1"/>
          </g>
          <g id="g3396" transform="translate(51.831 55.266)">
            <path id="path3398" d="M-131-181.707a15.974,15.974,0,0,1-15.974-15.974,15.891,15.891,0,0,1,3.435-9.877,15.932,15.932,0,0,0-6.1,12.539,15.974,15.974,0,0,0,15.974,15.974,15.933,15.933,0,0,0,12.539-6.1A15.891,15.891,0,0,1-131-181.707" transform="translate(149.634 207.558)" fill="#4bc3ef"/>
          </g>
          <g id="g3400" transform="translate(17.22 62.481)">
            <path id="path3402" d="M-18.714-74.856h5.325v-10.65h-5.325a2.662,2.662,0,0,0-2.662,2.662v10.65a2.662,2.662,0,0,1,2.662-2.662" transform="translate(21.376 85.505)" fill="#fff"/>
          </g>
          <g id="g3404" transform="translate(9.233 62.481)">
            <path id="path3406" d="M-37.427-74.856h-5.325v-10.65h5.325a2.662,2.662,0,0,1,2.662,2.662v10.65a2.662,2.662,0,0,0-2.662-2.662" transform="translate(42.752 85.505)" fill="#f8ebcc"/>
          </g>
          <g id="g3408" transform="translate(10.566 13.228)">
            <path id="path3410" d="M-28.077-29.891a4.156,4.156,0,0,1,4.082-4.227c-1.2-.048-2.514-.012-3.859-.013a4.166,4.166,0,0,0-4.217,4.241c.076,3.616,1.733,7.726,5.322,7.726a5,5,0,0,0,.816-.07,3.16,3.16,0,0,1,1.031,0,5,5,0,0,0,.816.07,4.433,4.433,0,0,0,.668-.05c-3.131-.474-4.588-4.291-4.659-7.677" transform="translate(32.072 34.143)" fill="#ff5f7a"/>
          </g>
          <g id="g3412" transform="translate(0 0)">
            <path id="path3414" d="M-121.037-242.076a17.239,17.239,0,0,0,17.22-17.22,17.1,17.1,0,0,0-3.232-10.046,1.245,1.245,0,0,0-1.738-.284,1.245,1.245,0,0,0-.284,1.738,14.624,14.624,0,0,1,2.763,8.591,14.746,14.746,0,0,1-14.729,14.729A14.746,14.746,0,0,1-135.766-259.3a14.746,14.746,0,0,1,14.729-14.729,14.66,14.66,0,0,1,8.143,2.454,1.245,1.245,0,0,0,1.727-.348,1.246,1.246,0,0,0-.348-1.727,17.144,17.144,0,0,0-9.523-2.871,17.239,17.239,0,0,0-17.22,17.22,17.239,17.239,0,0,0,17.22,17.22" transform="translate(138.257 276.515)"/>
          </g>
          <g id="g3416" transform="translate(0 50.585)">
            <path id="path3418" d="M-121.037-224.567A14.746,14.746,0,0,1-135.766-239.3a14.746,14.746,0,0,1,14.729-14.729A14.746,14.746,0,0,1-106.308-239.3a14.746,14.746,0,0,1-14.729,14.729m0-31.949a17.239,17.239,0,0,0-17.22,17.22,17.239,17.239,0,0,0,17.22,17.22,17.239,17.239,0,0,0,17.22-17.22,17.239,17.239,0,0,0-17.22-17.22" transform="translate(138.257 256.515)"/>
          </g>
          <g id="g3420" transform="translate(50.586 50.585)">
            <path id="path3422" d="M-121.037-224.567A14.746,14.746,0,0,1-135.766-239.3a14.746,14.746,0,0,1,14.729-14.729A14.746,14.746,0,0,1-106.308-239.3a14.746,14.746,0,0,1-14.729,14.729m0-31.949a17.239,17.239,0,0,0-17.22,17.22,17.239,17.239,0,0,0,17.22,17.22,17.239,17.239,0,0,0,17.22-17.22,17.239,17.239,0,0,0-17.22-17.22" transform="translate(138.257 256.515)"/>
          </g>
          <g id="g3424" transform="translate(37.273 25.293)">
            <path id="path3426" d="M-36.826-17.509a2.751,2.751,0,0,1,2.748,2.748,2.751,2.751,0,0,1-2.748,2.748,2.751,2.751,0,0,1-2.748-2.748,2.751,2.751,0,0,1,2.748-2.748m0,7.987a5.245,5.245,0,0,0,5.239-5.239A5.245,5.245,0,0,0-36.826-20a5.245,5.245,0,0,0-5.239,5.239,5.245,5.245,0,0,0,5.239,5.239" transform="translate(42.065 20)"/>
          </g>
          <g id="g3428" transform="translate(30.618 37.273)">
            <path id="path3430" d="M0-46.183v6.656a1.245,1.245,0,0,0,1.245,1.245,1.245,1.245,0,0,0,1.245-1.245v-6.656A4.084,4.084,0,0,1,6.57-50.262H17.22A4.084,4.084,0,0,1,21.3-46.183v6.656a1.245,1.245,0,0,0,1.245,1.245,1.245,1.245,0,0,0,1.245-1.245v-6.656a6.578,6.578,0,0,0-6.57-6.57H6.57A6.578,6.578,0,0,0,0-46.183" transform="translate(0 52.753)"/>
          </g>
          <g id="g3432" transform="translate(35.942 43.929)">
            <path id="path3434" d="M-8.754,0A1.245,1.245,0,0,0-10,1.245V9.233a1.245,1.245,0,0,0,1.245,1.245A1.245,1.245,0,0,0-7.509,9.233V1.245A1.245,1.245,0,0,0-8.754,0" transform="translate(10)"/>
          </g>
          <g id="g3436" transform="translate(46.592 43.929)">
            <path id="path3438" d="M-8.754,0A1.245,1.245,0,0,0-10,1.245V9.233a1.245,1.245,0,0,0,1.245,1.245A1.245,1.245,0,0,0-7.509,9.233V1.245A1.245,1.245,0,0,0-8.754,0" transform="translate(10)"/>
          </g>
          <g id="g3440" transform="translate(50.586 0)">
            <path id="path3442" d="M-121.037-17.509A14.746,14.746,0,0,1-106.308-2.78a14.746,14.746,0,0,1-14.729,14.729A14.746,14.746,0,0,1-135.766-2.78a14.746,14.746,0,0,1,14.729-14.729m0,31.949a17.239,17.239,0,0,0,17.22-17.22A17.239,17.239,0,0,0-121.037-20a17.239,17.239,0,0,0-17.22,17.22,17.239,17.239,0,0,0,17.22,17.22" transform="translate(138.257 20)"/>
          </g>
          <g id="g3444" transform="translate(58.573 7.987)">
            <path id="path3446" d="M-27.468-89.746a1.418,1.418,0,0,1,1.417,1.417,1.418,1.418,0,0,1-1.417,1.417,1.418,1.418,0,0,1-1.417-1.417,1.418,1.418,0,0,1,1.417-1.417m10.65,1.5a1.418,1.418,0,0,1-1.417-1.417,1.419,1.419,0,0,1,1.417-1.417A1.419,1.419,0,0,1-15.4-89.66a1.418,1.418,0,0,1-1.417,1.417m-10.65,3.822a3.912,3.912,0,0,0,3.908-3.908V-96.9a1.414,1.414,0,0,1,1.073-1.374l6.979-1.745a.078.078,0,0,1,.073.015.079.079,0,0,1,.033.068V-93.3a3.889,3.889,0,0,0-1.417-.267,3.912,3.912,0,0,0-3.908,3.908,3.912,3.912,0,0,0,3.908,3.908,3.912,3.912,0,0,0,3.908-3.908V-99.936a2.561,2.561,0,0,0-.991-2.031,2.561,2.561,0,0,0-2.21-.469l-6.979,1.745a3.9,3.9,0,0,0-2.96,3.791v4.93a3.889,3.889,0,0,0-1.417-.267,3.912,3.912,0,0,0-3.908,3.908,3.912,3.912,0,0,0,3.908,3.908" transform="translate(31.376 102.514)"/>
          </g>
          <g id="g3448" transform="translate(57.241 61.235)">
            <path id="path3450" d="M-131-74.252a.086.086,0,0,1-.086.086h-2.662a.086.086,0,0,1-.086-.086v-7.987a.086.086,0,0,1,.086-.086h2.662a.086.086,0,0,1,.086.086Zm-10.821-5.41h5.5v2.834h-5.5Zm-2.491,5.41a.086.086,0,0,1-.086.086h-2.662a.086.086,0,0,1-.086-.086v-7.987a.086.086,0,0,1,.086-.086h2.662a.086.086,0,0,1,.086.086Zm13.226-10.564h-2.662a2.579,2.579,0,0,0-2.577,2.576v.086h-5.5v-.086a2.579,2.579,0,0,0-2.577-2.576h-2.662a2.58,2.58,0,0,0-2.577,2.576v7.987a2.58,2.58,0,0,0,2.577,2.577h2.662a2.58,2.58,0,0,0,2.577-2.577v-.086h5.5v.086a2.58,2.58,0,0,0,2.577,2.577h2.662a2.58,2.58,0,0,0,2.577-2.577v-7.987a2.579,2.579,0,0,0-2.577-2.576" transform="translate(149.634 84.816)"/>
          </g>
          <g id="g3452" transform="translate(9.32 7.338)">
            <path id="path3454" d="M-72.767-20.663a2.692,2.692,0,0,1,1.974-.413,2.691,2.691,0,0,1-1.14,1.663A2.69,2.69,0,0,1-73.907-19a2.689,2.689,0,0,1,1.14-1.663M-73.888-6.979a3.758,3.758,0,0,1-.612-.053,4.416,4.416,0,0,0-.719-.059,4.417,4.417,0,0,0-.719.059,3.753,3.753,0,0,1-.612.053c-2.891,0-4.022-3.891-4.077-6.507a2.858,2.858,0,0,1,.82-2.078,2.979,2.979,0,0,1,2.148-.891h0c.437,0,.865,0,1.291-.007,2.575-.022,5.008-.044,5.983.923a2.454,2.454,0,0,1,.573,1.818c0,4.946-2.44,6.742-4.079,6.742M-77.66-18.946a5.452,5.452,0,0,0-3.927,1.638,5.33,5.33,0,0,0-1.531,3.874A12.152,12.152,0,0,0-81.6-7.608a5.8,5.8,0,0,0,5.051,3.12,6.262,6.262,0,0,0,1.019-.087,1.9,1.9,0,0,1,.624,0,6.264,6.264,0,0,0,1.019.087c4.314,0,6.57-4.644,6.57-9.233a4.845,4.845,0,0,0-1.311-3.587,4.433,4.433,0,0,0-1.054-.767,5.274,5.274,0,0,0,1.437-3.947,1.246,1.246,0,0,0-.7-1.043,5.252,5.252,0,0,0-5.208.329,5.129,5.129,0,0,0-1.1.995l-.12-.361a1.246,1.246,0,0,0-1.575-.788,1.245,1.245,0,0,0-.788,1.575l.788,2.364c-.217,0-.431,0-.649,0h-.066" transform="translate(83.119 23.602)"/>
          </g>
          <g id="g3456" transform="translate(7.987 61.235)">
            <path id="path3458" d="M-112.283-74.856h-4.079a3.886,3.886,0,0,0-1.417.266V-81.6a1.418,1.418,0,0,1,1.417-1.417h4.079Zm-9.4,0h-4.079v-8.159h4.079A1.418,1.418,0,0,1-120.27-81.6v7.008a3.885,3.885,0,0,0-1.417-.266m10.65-10.65h-5.325a3.892,3.892,0,0,0-2.663,1.051,3.892,3.892,0,0,0-2.662-1.051h-5.325a1.245,1.245,0,0,0-1.245,1.245v10.65a1.245,1.245,0,0,0,1.245,1.245h5.325a1.418,1.418,0,0,1,1.417,1.417,1.245,1.245,0,0,0,1.245,1.245,1.245,1.245,0,0,0,1.245-1.245,1.418,1.418,0,0,1,1.417-1.417h5.325a1.245,1.245,0,0,0,1.245-1.245V-84.26a1.245,1.245,0,0,0-1.245-1.245" transform="translate(128.257 85.505)"/>
          </g>
        </g>
      </g>
    </g>
  </g>
</svg>
